%TF.GenerationSoftware,KiCad,Pcbnew,10.0.1*%
%TF.CreationDate,2026-08-16T09:56:22+02:00*%
%TF.ProjectId,PlatineA_CNMB2,506c6174-696e-4654-915f-434e4d42322e,rev?*%
%TF.SameCoordinates,Original*%
%TF.FileFunction,Copper,L1,Top*%
%TF.FilePolarity,Positive*%
%FSLAX46Y46*%
G04 Gerber Fmt 4.6, Leading zero omitted, Abs format (unit mm)*
G04 Created by KiCad (PCBNEW 10.0.1) date 2026-08-16 09:56:22*
%MOMM*%
%LPD*%
G01*
G04 APERTURE LIST*
%TA.AperFunction,ComponentPad*%
%ADD10R,1.700000X1.700000*%
%TD*%
%TA.AperFunction,ComponentPad*%
%ADD11O,1.700000X1.700000*%
%TD*%
%TA.AperFunction,ComponentPad*%
%ADD12R,3.000000X3.000000*%
%TD*%
%TA.AperFunction,ComponentPad*%
%ADD13C,3.000000*%
%TD*%
%TA.AperFunction,ComponentPad*%
%ADD14R,1.600000X1.600000*%
%TD*%
%TA.AperFunction,ComponentPad*%
%ADD15C,1.600000*%
%TD*%
%TA.AperFunction,ComponentPad*%
%ADD16C,1.700000*%
%TD*%
%TA.AperFunction,ViaPad*%
%ADD17C,1.000000*%
%TD*%
%TA.AperFunction,ViaPad*%
%ADD18C,0.600000*%
%TD*%
%TA.AperFunction,Conductor*%
%ADD19C,0.300000*%
%TD*%
%TA.AperFunction,Conductor*%
%ADD20C,1.000000*%
%TD*%
G04 APERTURE END LIST*
D10*
%TO.P,J3,1,Pin_1_1*%
%TO.N,/GND*%
X139620000Y-117000000D03*
D11*
%TO.P,J3,2,Pin_2_2*%
X142160000Y-117000000D03*
%TO.P,J3,3,Pin_3_3*%
%TO.N,/RST*%
X144700000Y-117000000D03*
%TO.P,J3,4,Pin_4_4*%
%TO.N,unconnected-(J3-Pin_4-Pad4)*%
X147240000Y-117000000D03*
%TO.P,J3,5,Pin_5_5*%
%TO.N,unconnected-(J3-Pin_5-Pad5)*%
X149780000Y-117000000D03*
%TO.P,J3,6,Pin_6_6*%
%TO.N,unconnected-(J3-Pin_6-Pad6)*%
X152320000Y-117000000D03*
%TO.P,J3,7,Pin_7_7*%
%TO.N,unconnected-(J3-Pin_7-Pad7)*%
X154860000Y-117000000D03*
%TO.P,J3,8,Pin_8_8*%
%TO.N,unconnected-(J3-Pin_8-Pad8)*%
X157400000Y-117000000D03*
%TD*%
D12*
%TO.P,J5,1,Pin_1_1*%
%TO.N,Net-(IC2-A)*%
X111250000Y-117750000D03*
D13*
%TO.P,J5,2,Pin_2_2*%
%TO.N,Net-(IC2-B)*%
X111250000Y-112670000D03*
%TD*%
D14*
%TO.P,C6,1*%
%TO.N,/VCC*%
X131200000Y-98194888D03*
D15*
%TO.P,C6,2*%
%TO.N,/GND*%
X131200000Y-100694888D03*
%TD*%
D12*
%TO.P,J4,1,Pin_1_1*%
%TO.N,/+24V*%
X111250000Y-97330000D03*
D13*
%TO.P,J4,2,Pin_2_2*%
%TO.N,/GND*%
X111250000Y-92250000D03*
%TD*%
D14*
%TO.P,C9,1*%
%TO.N,Net-(D1-K)*%
X121500000Y-108194888D03*
D15*
%TO.P,C9,2*%
%TO.N,/GND*%
X121500000Y-110694888D03*
%TD*%
D10*
%TO.P,J1,1,Pin_1_1*%
%TO.N,/VCC*%
X139630000Y-93000000D03*
D11*
%TO.P,J1,2,Pin_2_2*%
X142170000Y-93000000D03*
%TO.P,J1,3,Pin_3_3*%
%TO.N,/A6*%
X144710000Y-93000000D03*
%TO.P,J1,4,Pin_4_4*%
%TO.N,/D11*%
X147250000Y-93000000D03*
%TO.P,J1,5,Pin_5_5*%
%TO.N,/D12*%
X149790000Y-93000000D03*
%TO.P,J1,6,Pin_6_6*%
%TO.N,/D13*%
X152330000Y-93000000D03*
%TO.P,J1,7,Pin_7_7*%
%TO.N,unconnected-(J1-Pin_7-Pad7)*%
X154870000Y-93000000D03*
%TO.P,J1,8,Pin_8_8*%
%TO.N,unconnected-(J1-Pin_8-Pad8)*%
X157410000Y-93000000D03*
%TD*%
D12*
%TO.P,J2,1,Pin_1_1*%
%TO.N,/VCC*%
X185800000Y-92300000D03*
D13*
%TO.P,J2,2,Pin_2_2*%
%TO.N,/1WIRE*%
X185800000Y-97380000D03*
%TO.P,J2,3,Pin_3_3*%
%TO.N,/GND*%
X185800000Y-102460000D03*
%TO.P,J2,4,Pin_4_4*%
%TO.N,/VCC*%
X185800000Y-107540000D03*
%TO.P,J2,5,Pin_5_5*%
%TO.N,/1WIRE*%
X185800000Y-112620000D03*
%TO.P,J2,6,Pin_6_6*%
%TO.N,/GND*%
X185800000Y-117700000D03*
%TD*%
D10*
%TO.P,J6,1,MISO_1*%
%TO.N,/D12*%
X158705000Y-101295000D03*
D16*
%TO.P,J6,2,VCC_2*%
%TO.N,/VCC*%
X156165000Y-101295000D03*
%TO.P,J6,3,SCK_3*%
%TO.N,/D13*%
X159205000Y-103835000D03*
%TO.P,J6,4,MOSI_4*%
%TO.N,/D11*%
X156705000Y-103835000D03*
%TO.P,J6,5,~{RST}_5*%
%TO.N,/RST*%
X158705000Y-106375000D03*
%TO.P,J6,6,GND_6*%
%TO.N,/GND*%
X156165000Y-106375000D03*
%TD*%
D17*
%TO.N,/VCC*%
X144850000Y-114090000D03*
X143640000Y-105630000D03*
%TO.N,/A6*%
X142100000Y-99000000D03*
X147550000Y-106250000D03*
D18*
%TO.N,Net-(IC1-TC)*%
X124650000Y-100200000D03*
X120200000Y-100200000D03*
%TD*%
%TO.N,/RST*%
D19*
X145900000Y-115800000D02*
X144700000Y-117000000D01*
X157505000Y-106732057D02*
X148437057Y-115800000D01*
X148437057Y-115800000D02*
X145900000Y-115800000D01*
X157505000Y-105035000D02*
X157505000Y-106732057D01*
X158705000Y-103835000D02*
X157505000Y-105035000D01*
%TO.N,/VCC*%
D20*
X188000000Y-94500000D02*
X188000000Y-105340000D01*
X188000000Y-105340000D02*
X185800000Y-107540000D01*
D19*
X131200000Y-98194888D02*
X136204888Y-98194888D01*
X143640000Y-105630000D02*
X144850000Y-106840000D01*
D20*
X185800000Y-92300000D02*
X188000000Y-94500000D01*
D19*
X144850000Y-106840000D02*
X144850000Y-114090000D01*
X136204888Y-98194888D02*
X143640000Y-105630000D01*
%TO.N,/A6*%
X142100000Y-100800000D02*
X147550000Y-106250000D01*
X142100000Y-99000000D02*
X142100000Y-100800000D01*
%TO.N,/D11*%
X156165000Y-103835000D02*
X147250000Y-94920000D01*
X147250000Y-94920000D02*
X147250000Y-93000000D01*
%TO.N,/D12*%
X158705000Y-101295000D02*
X158085000Y-101295000D01*
X158085000Y-101295000D02*
X149790000Y-93000000D01*
%TO.N,/D13*%
X159905000Y-100095000D02*
X152810000Y-93000000D01*
X159905000Y-105175000D02*
X159905000Y-100095000D01*
X158705000Y-106375000D02*
X159905000Y-105175000D01*
X152810000Y-93000000D02*
X152330000Y-93000000D01*
%TO.N,Net-(IC1-TC)*%
X120200000Y-100200000D02*
X124650000Y-100200000D01*
%TD*%
%TA.AperFunction,Conductor*%
%TO.N,/GND*%
G36*
X141694075Y-116807007D02*
G01*
X141660000Y-116934174D01*
X141660000Y-117065826D01*
X141694075Y-117192993D01*
X141729297Y-117254000D01*
X140050703Y-117254000D01*
X140085925Y-117192993D01*
X140120000Y-117065826D01*
X140120000Y-116934174D01*
X140085925Y-116807007D01*
X140050703Y-116746000D01*
X141729297Y-116746000D01*
X141694075Y-116807007D01*
G37*
%TD.AperFunction*%
%TA.AperFunction,Conductor*%
G36*
X191541621Y-88670502D02*
G01*
X191588114Y-88724158D01*
X191599500Y-88776500D01*
X191599500Y-121223500D01*
X191579498Y-121291621D01*
X191525842Y-121338114D01*
X191473500Y-121349500D01*
X105526500Y-121349500D01*
X105458379Y-121329498D01*
X105411886Y-121275842D01*
X105400500Y-121223500D01*
X105400500Y-116201350D01*
X109241500Y-116201350D01*
X109241500Y-119298649D01*
X109248009Y-119359196D01*
X109248011Y-119359204D01*
X109299110Y-119496202D01*
X109299112Y-119496207D01*
X109386738Y-119613261D01*
X109503792Y-119700887D01*
X109503794Y-119700888D01*
X109503796Y-119700889D01*
X109562875Y-119722924D01*
X109640795Y-119751988D01*
X109640803Y-119751990D01*
X109701350Y-119758499D01*
X109701355Y-119758499D01*
X109701362Y-119758500D01*
X109701368Y-119758500D01*
X112798632Y-119758500D01*
X112798638Y-119758500D01*
X112798645Y-119758499D01*
X112798649Y-119758499D01*
X112859196Y-119751990D01*
X112859199Y-119751989D01*
X112859201Y-119751989D01*
X112996204Y-119700889D01*
X113113261Y-119613261D01*
X113200889Y-119496204D01*
X113251989Y-119359201D01*
X113258500Y-119298638D01*
X113258500Y-116201362D01*
X113258499Y-116201350D01*
X113251990Y-116140803D01*
X113251987Y-116140795D01*
X113237294Y-116101402D01*
X138262000Y-116101402D01*
X138262000Y-116746000D01*
X139189297Y-116746000D01*
X139154075Y-116807007D01*
X139120000Y-116934174D01*
X139120000Y-117065826D01*
X139154075Y-117192993D01*
X139189297Y-117254000D01*
X138262000Y-117254000D01*
X138262000Y-117898597D01*
X138268505Y-117959093D01*
X138319555Y-118095964D01*
X138319555Y-118095965D01*
X138407095Y-118212904D01*
X138524034Y-118300444D01*
X138660906Y-118351494D01*
X138721402Y-118357999D01*
X138721415Y-118358000D01*
X139366000Y-118358000D01*
X139366000Y-117430702D01*
X139427007Y-117465925D01*
X139554174Y-117500000D01*
X139685826Y-117500000D01*
X139812993Y-117465925D01*
X139874000Y-117430702D01*
X139874000Y-118358000D01*
X140518585Y-118358000D01*
X140518597Y-118357999D01*
X140579093Y-118351494D01*
X140715964Y-118300444D01*
X140715965Y-118300444D01*
X140832904Y-118212904D01*
X140920444Y-118095965D01*
X140964671Y-117977387D01*
X141007218Y-117920551D01*
X141073738Y-117895740D01*
X141143112Y-117910831D01*
X141171822Y-117932324D01*
X141275320Y-118035822D01*
X141448249Y-118161463D01*
X141638707Y-118258506D01*
X141638713Y-118258509D01*
X141841998Y-118324560D01*
X141906000Y-118334696D01*
X141906000Y-117430702D01*
X141967007Y-117465925D01*
X142094174Y-117500000D01*
X142225826Y-117500000D01*
X142352993Y-117465925D01*
X142414000Y-117430702D01*
X142414000Y-118334696D01*
X142478001Y-118324560D01*
X142681286Y-118258509D01*
X142681292Y-118258506D01*
X142871750Y-118161463D01*
X143044679Y-118035822D01*
X143195822Y-117884679D01*
X143321460Y-117711754D01*
X143322261Y-117710448D01*
X143322695Y-117710054D01*
X143324376Y-117707742D01*
X143324861Y-117708094D01*
X143374900Y-117662807D01*
X143444940Y-117651188D01*
X143510142Y-117679280D01*
X143535097Y-117708075D01*
X143535196Y-117708004D01*
X143536025Y-117709145D01*
X143537136Y-117710427D01*
X143538103Y-117712006D01*
X143613518Y-117815806D01*
X143663794Y-117885004D01*
X143663796Y-117885006D01*
X143663798Y-117885009D01*
X143814990Y-118036201D01*
X143814993Y-118036203D01*
X143814996Y-118036206D01*
X143987991Y-118161894D01*
X144178517Y-118258972D01*
X144381878Y-118325047D01*
X144381879Y-118325047D01*
X144381884Y-118325049D01*
X144593084Y-118358500D01*
X144593087Y-118358500D01*
X144806913Y-118358500D01*
X144806916Y-118358500D01*
X145018116Y-118325049D01*
X145221483Y-118258972D01*
X145412009Y-118161894D01*
X145585004Y-118036206D01*
X145736206Y-117885004D01*
X145861894Y-117712009D01*
X145861899Y-117711997D01*
X145862561Y-117710920D01*
X145862924Y-117710591D01*
X145864804Y-117708004D01*
X145865347Y-117708398D01*
X145915204Y-117663283D01*
X145985244Y-117651670D01*
X146050445Y-117679766D01*
X146075021Y-117708130D01*
X146075196Y-117708004D01*
X146076668Y-117710030D01*
X146077439Y-117710920D01*
X146078104Y-117712006D01*
X146078106Y-117712009D01*
X146203794Y-117885004D01*
X146203796Y-117885006D01*
X146203798Y-117885009D01*
X146354990Y-118036201D01*
X146354993Y-118036203D01*
X146354996Y-118036206D01*
X146527991Y-118161894D01*
X146718517Y-118258972D01*
X146921878Y-118325047D01*
X146921879Y-118325047D01*
X146921884Y-118325049D01*
X147133084Y-118358500D01*
X147133087Y-118358500D01*
X147346913Y-118358500D01*
X147346916Y-118358500D01*
X147558116Y-118325049D01*
X147761483Y-118258972D01*
X147952009Y-118161894D01*
X148125004Y-118036206D01*
X148276206Y-117885004D01*
X148401894Y-117712009D01*
X148401899Y-117711997D01*
X148402561Y-117710920D01*
X148402924Y-117710591D01*
X148404804Y-117708004D01*
X148405347Y-117708398D01*
X148455204Y-117663283D01*
X148525244Y-117651670D01*
X148590445Y-117679766D01*
X148615021Y-117708130D01*
X148615196Y-117708004D01*
X148616668Y-117710030D01*
X148617439Y-117710920D01*
X148618104Y-117712006D01*
X148618106Y-117712009D01*
X148743794Y-117885004D01*
X148743796Y-117885006D01*
X148743798Y-117885009D01*
X148894990Y-118036201D01*
X148894993Y-118036203D01*
X148894996Y-118036206D01*
X149067991Y-118161894D01*
X149258517Y-118258972D01*
X149461878Y-118325047D01*
X149461879Y-118325047D01*
X149461884Y-118325049D01*
X149673084Y-118358500D01*
X149673087Y-118358500D01*
X149886913Y-118358500D01*
X149886916Y-118358500D01*
X150098116Y-118325049D01*
X150301483Y-118258972D01*
X150492009Y-118161894D01*
X150665004Y-118036206D01*
X150816206Y-117885004D01*
X150941894Y-117712009D01*
X150941899Y-117711997D01*
X150942561Y-117710920D01*
X150942924Y-117710591D01*
X150944804Y-117708004D01*
X150945347Y-117708398D01*
X150995204Y-117663283D01*
X151065244Y-117651670D01*
X151130445Y-117679766D01*
X151155021Y-117708130D01*
X151155196Y-117708004D01*
X151156668Y-117710030D01*
X151157439Y-117710920D01*
X151158104Y-117712006D01*
X151158106Y-117712009D01*
X151283794Y-117885004D01*
X151283796Y-117885006D01*
X151283798Y-117885009D01*
X151434990Y-118036201D01*
X151434993Y-118036203D01*
X151434996Y-118036206D01*
X151607991Y-118161894D01*
X151798517Y-118258972D01*
X152001878Y-118325047D01*
X152001879Y-118325047D01*
X152001884Y-118325049D01*
X152213084Y-118358500D01*
X152213087Y-118358500D01*
X152426913Y-118358500D01*
X152426916Y-118358500D01*
X152638116Y-118325049D01*
X152841483Y-118258972D01*
X153032009Y-118161894D01*
X153205004Y-118036206D01*
X153356206Y-117885004D01*
X153481894Y-117712009D01*
X153481899Y-117711997D01*
X153482561Y-117710920D01*
X153482924Y-117710591D01*
X153484804Y-117708004D01*
X153485347Y-117708398D01*
X153535204Y-117663283D01*
X153605244Y-117651670D01*
X153670445Y-117679766D01*
X153695021Y-117708130D01*
X153695196Y-117708004D01*
X153696668Y-117710030D01*
X153697439Y-117710920D01*
X153698104Y-117712006D01*
X153698106Y-117712009D01*
X153823794Y-117885004D01*
X153823796Y-117885006D01*
X153823798Y-117885009D01*
X153974990Y-118036201D01*
X153974993Y-118036203D01*
X153974996Y-118036206D01*
X154147991Y-118161894D01*
X154338517Y-118258972D01*
X154541878Y-118325047D01*
X154541879Y-118325047D01*
X154541884Y-118325049D01*
X154753084Y-118358500D01*
X154753087Y-118358500D01*
X154966913Y-118358500D01*
X154966916Y-118358500D01*
X155178116Y-118325049D01*
X155381483Y-118258972D01*
X155572009Y-118161894D01*
X155745004Y-118036206D01*
X155896206Y-117885004D01*
X156021894Y-117712009D01*
X156021899Y-117711997D01*
X156022561Y-117710920D01*
X156022924Y-117710591D01*
X156024804Y-117708004D01*
X156025347Y-117708398D01*
X156075204Y-117663283D01*
X156145244Y-117651670D01*
X156210445Y-117679766D01*
X156235021Y-117708130D01*
X156235196Y-117708004D01*
X156236668Y-117710030D01*
X156237439Y-117710920D01*
X156238104Y-117712006D01*
X156238106Y-117712009D01*
X156363794Y-117885004D01*
X156363796Y-117885006D01*
X156363798Y-117885009D01*
X156514990Y-118036201D01*
X156514993Y-118036203D01*
X156514996Y-118036206D01*
X156687991Y-118161894D01*
X156878517Y-118258972D01*
X157081878Y-118325047D01*
X157081879Y-118325047D01*
X157081884Y-118325049D01*
X157293084Y-118358500D01*
X157293087Y-118358500D01*
X157506913Y-118358500D01*
X157506916Y-118358500D01*
X157718116Y-118325049D01*
X157921483Y-118258972D01*
X158112009Y-118161894D01*
X158285004Y-118036206D01*
X158436206Y-117885004D01*
X158561894Y-117712009D01*
X158635074Y-117568386D01*
X183792000Y-117568386D01*
X183792000Y-117831613D01*
X183826355Y-118092575D01*
X183894484Y-118346835D01*
X183995216Y-118590023D01*
X183995221Y-118590034D01*
X184126823Y-118817975D01*
X184126827Y-118817981D01*
X184211916Y-118928870D01*
X184211917Y-118928871D01*
X185113110Y-118027677D01*
X185126497Y-118059995D01*
X185209670Y-118184472D01*
X185315528Y-118290330D01*
X185440005Y-118373503D01*
X185472320Y-118386888D01*
X184571127Y-119288081D01*
X184571127Y-119288082D01*
X184682017Y-119373171D01*
X184682024Y-119373176D01*
X184909965Y-119504778D01*
X184909976Y-119504783D01*
X185153164Y-119605515D01*
X185407424Y-119673644D01*
X185668386Y-119707999D01*
X185668396Y-119708000D01*
X185931604Y-119708000D01*
X185931613Y-119707999D01*
X186192575Y-119673644D01*
X186446835Y-119605515D01*
X186690023Y-119504783D01*
X186690034Y-119504778D01*
X186917975Y-119373176D01*
X186917981Y-119373172D01*
X187028871Y-119288082D01*
X187028871Y-119288081D01*
X186127679Y-118386888D01*
X186159995Y-118373503D01*
X186284472Y-118290330D01*
X186390330Y-118184472D01*
X186473503Y-118059995D01*
X186486888Y-118027678D01*
X187388081Y-118928871D01*
X187388082Y-118928871D01*
X187473172Y-118817981D01*
X187473176Y-118817975D01*
X187604778Y-118590034D01*
X187604783Y-118590023D01*
X187705515Y-118346835D01*
X187773644Y-118092575D01*
X187807999Y-117831613D01*
X187808000Y-117831604D01*
X187808000Y-117568396D01*
X187807999Y-117568386D01*
X187773644Y-117307424D01*
X187705515Y-117053164D01*
X187604783Y-116809976D01*
X187604778Y-116809965D01*
X187473176Y-116582024D01*
X187473171Y-116582017D01*
X187388081Y-116471127D01*
X186486888Y-117372320D01*
X186473503Y-117340005D01*
X186390330Y-117215528D01*
X186284472Y-117109670D01*
X186159995Y-117026497D01*
X186127678Y-117013111D01*
X187028871Y-116111917D01*
X187028870Y-116111916D01*
X186917981Y-116026827D01*
X186917975Y-116026823D01*
X186690034Y-115895221D01*
X186690023Y-115895216D01*
X186446835Y-115794484D01*
X186192575Y-115726355D01*
X185931613Y-115692000D01*
X185668386Y-115692000D01*
X185407424Y-115726355D01*
X185153164Y-115794484D01*
X184909976Y-115895216D01*
X184909965Y-115895221D01*
X184682024Y-116026823D01*
X184571127Y-116111917D01*
X185472321Y-117013111D01*
X185440005Y-117026497D01*
X185315528Y-117109670D01*
X185209670Y-117215528D01*
X185126497Y-117340005D01*
X185113111Y-117372321D01*
X184211917Y-116471127D01*
X184126823Y-116582024D01*
X183995221Y-116809965D01*
X183995216Y-116809976D01*
X183894484Y-117053164D01*
X183826355Y-117307424D01*
X183792000Y-117568386D01*
X158635074Y-117568386D01*
X158658972Y-117521483D01*
X158725049Y-117318116D01*
X158758500Y-117106916D01*
X158758500Y-116893084D01*
X158725049Y-116681884D01*
X158658972Y-116478517D01*
X158561894Y-116287991D01*
X158498954Y-116201362D01*
X158436204Y-116114993D01*
X158285009Y-115963798D01*
X158285006Y-115963796D01*
X158285004Y-115963794D01*
X158112009Y-115838106D01*
X157921483Y-115741028D01*
X157921480Y-115741027D01*
X157921478Y-115741026D01*
X157718120Y-115674952D01*
X157718123Y-115674952D01*
X157657195Y-115665302D01*
X157506916Y-115641500D01*
X157293084Y-115641500D01*
X157081884Y-115674951D01*
X157081878Y-115674952D01*
X156878521Y-115741026D01*
X156878515Y-115741029D01*
X156687987Y-115838108D01*
X156514993Y-115963796D01*
X156514990Y-115963798D01*
X156363798Y-116114990D01*
X156363796Y-116114993D01*
X156238108Y-116287987D01*
X156237434Y-116289088D01*
X156237068Y-116289418D01*
X156235196Y-116291996D01*
X156234654Y-116291602D01*
X156184787Y-116336721D01*
X156114745Y-116348328D01*
X156049547Y-116320226D01*
X156024976Y-116291870D01*
X156024804Y-116291996D01*
X156023341Y-116289982D01*
X156022566Y-116289088D01*
X156021896Y-116287996D01*
X156021894Y-116287991D01*
X155896206Y-116114996D01*
X155896203Y-116114993D01*
X155896201Y-116114990D01*
X155745009Y-115963798D01*
X155745006Y-115963796D01*
X155745004Y-115963794D01*
X155572009Y-115838106D01*
X155381483Y-115741028D01*
X155381480Y-115741027D01*
X155381478Y-115741026D01*
X155178120Y-115674952D01*
X155178123Y-115674952D01*
X155117195Y-115665302D01*
X154966916Y-115641500D01*
X154753084Y-115641500D01*
X154541884Y-115674951D01*
X154541878Y-115674952D01*
X154338521Y-115741026D01*
X154338515Y-115741029D01*
X154147987Y-115838108D01*
X153974993Y-115963796D01*
X153974990Y-115963798D01*
X153823798Y-116114990D01*
X153823796Y-116114993D01*
X153698108Y-116287987D01*
X153697434Y-116289088D01*
X153697068Y-116289418D01*
X153695196Y-116291996D01*
X153694654Y-116291602D01*
X153644787Y-116336721D01*
X153574745Y-116348328D01*
X153509547Y-116320226D01*
X153484976Y-116291870D01*
X153484804Y-116291996D01*
X153483341Y-116289982D01*
X153482566Y-116289088D01*
X153481896Y-116287996D01*
X153481894Y-116287991D01*
X153356206Y-116114996D01*
X153356203Y-116114993D01*
X153356201Y-116114990D01*
X153205009Y-115963798D01*
X153205006Y-115963796D01*
X153205004Y-115963794D01*
X153032009Y-115838106D01*
X152841483Y-115741028D01*
X152841480Y-115741027D01*
X152841478Y-115741026D01*
X152638120Y-115674952D01*
X152638123Y-115674952D01*
X152577195Y-115665302D01*
X152426916Y-115641500D01*
X152213084Y-115641500D01*
X152001884Y-115674951D01*
X152001878Y-115674952D01*
X151798521Y-115741026D01*
X151798515Y-115741029D01*
X151607987Y-115838108D01*
X151434993Y-115963796D01*
X151434990Y-115963798D01*
X151283798Y-116114990D01*
X151283796Y-116114993D01*
X151158108Y-116287987D01*
X151157434Y-116289088D01*
X151157068Y-116289418D01*
X151155196Y-116291996D01*
X151154654Y-116291602D01*
X151104787Y-116336721D01*
X151034745Y-116348328D01*
X150969547Y-116320226D01*
X150944976Y-116291870D01*
X150944804Y-116291996D01*
X150943341Y-116289982D01*
X150942566Y-116289088D01*
X150941896Y-116287996D01*
X150941894Y-116287991D01*
X150816206Y-116114996D01*
X150816203Y-116114993D01*
X150816201Y-116114990D01*
X150665009Y-115963798D01*
X150665006Y-115963796D01*
X150665004Y-115963794D01*
X150492009Y-115838106D01*
X150301483Y-115741028D01*
X150301480Y-115741027D01*
X150301478Y-115741026D01*
X150098120Y-115674952D01*
X150098123Y-115674952D01*
X150037195Y-115665302D01*
X149886916Y-115641500D01*
X149831006Y-115641500D01*
X149762885Y-115621498D01*
X149716392Y-115567842D01*
X149706288Y-115497568D01*
X149735782Y-115432988D01*
X149741911Y-115426405D01*
X152679963Y-112488353D01*
X183791500Y-112488353D01*
X183791500Y-112751646D01*
X183825864Y-113012672D01*
X183825865Y-113012678D01*
X183825866Y-113012680D01*
X183894010Y-113266997D01*
X183994766Y-113510243D01*
X183994767Y-113510244D01*
X183994772Y-113510255D01*
X184126407Y-113738253D01*
X184286689Y-113947138D01*
X184286698Y-113947148D01*
X184472851Y-114133301D01*
X184472861Y-114133310D01*
X184472862Y-114133311D01*
X184538022Y-114183310D01*
X184681746Y-114293592D01*
X184909744Y-114425227D01*
X184909748Y-114425228D01*
X184909757Y-114425234D01*
X185153003Y-114525990D01*
X185407320Y-114594134D01*
X185407326Y-114594134D01*
X185407327Y-114594135D01*
X185437281Y-114598078D01*
X185668356Y-114628500D01*
X185668363Y-114628500D01*
X185931637Y-114628500D01*
X185931644Y-114628500D01*
X186192680Y-114594134D01*
X186446997Y-114525990D01*
X186690243Y-114425234D01*
X186918257Y-114293590D01*
X187127138Y-114133311D01*
X187313311Y-113947138D01*
X187473590Y-113738257D01*
X187605234Y-113510243D01*
X187705990Y-113266997D01*
X187774134Y-113012680D01*
X187808500Y-112751644D01*
X187808500Y-112488356D01*
X187774134Y-112227320D01*
X187705990Y-111973003D01*
X187605234Y-111729757D01*
X187605228Y-111729748D01*
X187605227Y-111729744D01*
X187473592Y-111501746D01*
X187351668Y-111342851D01*
X187313311Y-111292862D01*
X187313310Y-111292861D01*
X187313301Y-111292851D01*
X187127148Y-111106698D01*
X187127138Y-111106689D01*
X186918253Y-110946407D01*
X186690255Y-110814772D01*
X186690247Y-110814768D01*
X186690243Y-110814766D01*
X186446997Y-110714010D01*
X186192680Y-110645866D01*
X186192678Y-110645865D01*
X186192672Y-110645864D01*
X185931646Y-110611500D01*
X185931644Y-110611500D01*
X185668356Y-110611500D01*
X185668353Y-110611500D01*
X185407327Y-110645864D01*
X185153003Y-110714010D01*
X184909755Y-110814767D01*
X184909744Y-110814772D01*
X184681746Y-110946407D01*
X184472861Y-111106689D01*
X184472851Y-111106698D01*
X184286698Y-111292851D01*
X184286689Y-111292861D01*
X184126407Y-111501746D01*
X183994772Y-111729744D01*
X183994767Y-111729755D01*
X183994766Y-111729757D01*
X183960042Y-111813589D01*
X183894010Y-111973003D01*
X183825864Y-112227327D01*
X183791500Y-112488353D01*
X152679963Y-112488353D01*
X152773180Y-112395136D01*
X155201803Y-109966513D01*
X157707480Y-107460835D01*
X157769790Y-107426811D01*
X157840605Y-107431876D01*
X157870630Y-107447994D01*
X157992991Y-107536894D01*
X158183517Y-107633972D01*
X158386878Y-107700047D01*
X158386879Y-107700047D01*
X158386884Y-107700049D01*
X158598084Y-107733500D01*
X158598087Y-107733500D01*
X158811913Y-107733500D01*
X158811916Y-107733500D01*
X159023116Y-107700049D01*
X159226483Y-107633972D01*
X159417009Y-107536894D01*
X159590004Y-107411206D01*
X159741206Y-107260004D01*
X159866894Y-107087009D01*
X159963972Y-106896483D01*
X160030049Y-106693116D01*
X160063500Y-106481916D01*
X160063500Y-106268084D01*
X160030049Y-106056884D01*
X160030046Y-106056876D01*
X160029744Y-106054966D01*
X160038843Y-105984555D01*
X160065093Y-105946165D01*
X160416490Y-105594769D01*
X160488555Y-105486917D01*
X160538194Y-105367077D01*
X160538194Y-105367073D01*
X160538196Y-105367070D01*
X160544409Y-105335834D01*
X160544409Y-105335832D01*
X160555463Y-105280258D01*
X160563500Y-105239857D01*
X160563500Y-100030143D01*
X160538194Y-99902923D01*
X160488555Y-99783083D01*
X160416490Y-99675231D01*
X160324769Y-99583510D01*
X157889939Y-97148680D01*
X155241571Y-94500311D01*
X155207545Y-94437999D01*
X155212610Y-94367184D01*
X155255157Y-94310348D01*
X155291728Y-94291383D01*
X155391483Y-94258972D01*
X155582009Y-94161894D01*
X155755004Y-94036206D01*
X155906206Y-93885004D01*
X156031894Y-93712009D01*
X156031899Y-93711997D01*
X156032561Y-93710920D01*
X156032924Y-93710591D01*
X156034804Y-93708004D01*
X156035347Y-93708398D01*
X156085204Y-93663283D01*
X156155244Y-93651670D01*
X156220445Y-93679766D01*
X156245021Y-93708130D01*
X156245196Y-93708004D01*
X156246668Y-93710030D01*
X156247439Y-93710920D01*
X156248105Y-93712007D01*
X156248106Y-93712009D01*
X156373794Y-93885004D01*
X156373796Y-93885006D01*
X156373798Y-93885009D01*
X156524990Y-94036201D01*
X156524993Y-94036203D01*
X156524996Y-94036206D01*
X156697991Y-94161894D01*
X156888517Y-94258972D01*
X157091878Y-94325047D01*
X157091879Y-94325047D01*
X157091884Y-94325049D01*
X157303084Y-94358500D01*
X157303087Y-94358500D01*
X157516913Y-94358500D01*
X157516916Y-94358500D01*
X157728116Y-94325049D01*
X157931483Y-94258972D01*
X158122009Y-94161894D01*
X158295004Y-94036206D01*
X158446206Y-93885004D01*
X158571894Y-93712009D01*
X158668972Y-93521483D01*
X158735049Y-93318116D01*
X158768500Y-93106916D01*
X158768500Y-92893084D01*
X158735049Y-92681884D01*
X158668972Y-92478517D01*
X158571894Y-92287991D01*
X158446206Y-92114996D01*
X158446203Y-92114993D01*
X158446201Y-92114990D01*
X158295009Y-91963798D01*
X158295006Y-91963796D01*
X158295004Y-91963794D01*
X158122009Y-91838106D01*
X157931483Y-91741028D01*
X157931480Y-91741027D01*
X157931478Y-91741026D01*
X157728120Y-91674952D01*
X157728123Y-91674952D01*
X157688801Y-91668724D01*
X157516916Y-91641500D01*
X157303084Y-91641500D01*
X157091884Y-91674951D01*
X157091878Y-91674952D01*
X156888521Y-91741026D01*
X156888515Y-91741029D01*
X156697987Y-91838108D01*
X156524993Y-91963796D01*
X156524990Y-91963798D01*
X156373798Y-92114990D01*
X156373796Y-92114993D01*
X156248108Y-92287987D01*
X156247434Y-92289088D01*
X156247068Y-92289418D01*
X156245196Y-92291996D01*
X156244654Y-92291602D01*
X156194787Y-92336721D01*
X156124745Y-92348328D01*
X156059547Y-92320226D01*
X156034976Y-92291870D01*
X156034804Y-92291996D01*
X156033341Y-92289982D01*
X156032566Y-92289088D01*
X156031896Y-92287996D01*
X156031894Y-92287991D01*
X155906206Y-92114996D01*
X155906203Y-92114993D01*
X155906201Y-92114990D01*
X155755009Y-91963798D01*
X155755006Y-91963796D01*
X155755004Y-91963794D01*
X155582009Y-91838106D01*
X155391483Y-91741028D01*
X155391480Y-91741027D01*
X155391478Y-91741026D01*
X155188120Y-91674952D01*
X155188123Y-91674952D01*
X155148801Y-91668724D01*
X154976916Y-91641500D01*
X154763084Y-91641500D01*
X154551884Y-91674951D01*
X154551878Y-91674952D01*
X154348521Y-91741026D01*
X154348515Y-91741029D01*
X154157987Y-91838108D01*
X153984993Y-91963796D01*
X153984990Y-91963798D01*
X153833798Y-92114990D01*
X153833796Y-92114993D01*
X153708108Y-92287987D01*
X153707434Y-92289088D01*
X153707068Y-92289418D01*
X153705196Y-92291996D01*
X153704654Y-92291602D01*
X153654787Y-92336721D01*
X153584745Y-92348328D01*
X153519547Y-92320226D01*
X153494976Y-92291870D01*
X153494804Y-92291996D01*
X153493341Y-92289982D01*
X153492566Y-92289088D01*
X153491896Y-92287996D01*
X153491894Y-92287991D01*
X153366206Y-92114996D01*
X153366203Y-92114993D01*
X153366201Y-92114990D01*
X153215009Y-91963798D01*
X153215006Y-91963796D01*
X153215004Y-91963794D01*
X153042009Y-91838106D01*
X152851483Y-91741028D01*
X152851480Y-91741027D01*
X152851478Y-91741026D01*
X152648120Y-91674952D01*
X152648123Y-91674952D01*
X152608801Y-91668724D01*
X152436916Y-91641500D01*
X152223084Y-91641500D01*
X152011884Y-91674951D01*
X152011878Y-91674952D01*
X151808521Y-91741026D01*
X151808515Y-91741029D01*
X151617987Y-91838108D01*
X151444993Y-91963796D01*
X151444990Y-91963798D01*
X151293798Y-92114990D01*
X151293796Y-92114993D01*
X151168108Y-92287987D01*
X151167434Y-92289088D01*
X151167068Y-92289418D01*
X151165196Y-92291996D01*
X151164654Y-92291602D01*
X151114787Y-92336721D01*
X151044745Y-92348328D01*
X150979547Y-92320226D01*
X150954976Y-92291870D01*
X150954804Y-92291996D01*
X150953341Y-92289982D01*
X150952566Y-92289088D01*
X150951896Y-92287996D01*
X150951894Y-92287991D01*
X150826206Y-92114996D01*
X150826203Y-92114993D01*
X150826201Y-92114990D01*
X150675009Y-91963798D01*
X150675006Y-91963796D01*
X150675004Y-91963794D01*
X150502009Y-91838106D01*
X150311483Y-91741028D01*
X150311480Y-91741027D01*
X150311478Y-91741026D01*
X150108120Y-91674952D01*
X150108123Y-91674952D01*
X150068801Y-91668724D01*
X149896916Y-91641500D01*
X149683084Y-91641500D01*
X149471884Y-91674951D01*
X149471878Y-91674952D01*
X149268521Y-91741026D01*
X149268515Y-91741029D01*
X149077987Y-91838108D01*
X148904993Y-91963796D01*
X148904990Y-91963798D01*
X148753798Y-92114990D01*
X148753796Y-92114993D01*
X148628108Y-92287987D01*
X148627434Y-92289088D01*
X148627068Y-92289418D01*
X148625196Y-92291996D01*
X148624654Y-92291602D01*
X148574787Y-92336721D01*
X148504745Y-92348328D01*
X148439547Y-92320226D01*
X148414976Y-92291870D01*
X148414804Y-92291996D01*
X148413341Y-92289982D01*
X148412566Y-92289088D01*
X148411896Y-92287996D01*
X148411894Y-92287991D01*
X148286206Y-92114996D01*
X148286203Y-92114993D01*
X148286201Y-92114990D01*
X148135009Y-91963798D01*
X148135006Y-91963796D01*
X148135004Y-91963794D01*
X147962009Y-91838106D01*
X147771483Y-91741028D01*
X147771480Y-91741027D01*
X147771478Y-91741026D01*
X147568120Y-91674952D01*
X147568123Y-91674952D01*
X147528801Y-91668724D01*
X147356916Y-91641500D01*
X147143084Y-91641500D01*
X146931884Y-91674951D01*
X146931878Y-91674952D01*
X146728521Y-91741026D01*
X146728515Y-91741029D01*
X146537987Y-91838108D01*
X146364993Y-91963796D01*
X146364990Y-91963798D01*
X146213798Y-92114990D01*
X146213796Y-92114993D01*
X146088108Y-92287987D01*
X146087434Y-92289088D01*
X146087068Y-92289418D01*
X146085196Y-92291996D01*
X146084654Y-92291602D01*
X146034787Y-92336721D01*
X145964745Y-92348328D01*
X145899547Y-92320226D01*
X145874976Y-92291870D01*
X145874804Y-92291996D01*
X145873341Y-92289982D01*
X145872566Y-92289088D01*
X145871896Y-92287996D01*
X145871894Y-92287991D01*
X145746206Y-92114996D01*
X145746203Y-92114993D01*
X145746201Y-92114990D01*
X145595009Y-91963798D01*
X145595006Y-91963796D01*
X145595004Y-91963794D01*
X145422009Y-91838106D01*
X145231483Y-91741028D01*
X145231480Y-91741027D01*
X145231478Y-91741026D01*
X145028120Y-91674952D01*
X145028123Y-91674952D01*
X144988801Y-91668724D01*
X144816916Y-91641500D01*
X144603084Y-91641500D01*
X144391884Y-91674951D01*
X144391878Y-91674952D01*
X144188521Y-91741026D01*
X144188515Y-91741029D01*
X143997987Y-91838108D01*
X143824993Y-91963796D01*
X143824990Y-91963798D01*
X143673798Y-92114990D01*
X143673796Y-92114993D01*
X143548108Y-92287987D01*
X143547434Y-92289088D01*
X143547068Y-92289418D01*
X143545196Y-92291996D01*
X143544654Y-92291602D01*
X143494787Y-92336721D01*
X143424745Y-92348328D01*
X143359547Y-92320226D01*
X143334976Y-92291870D01*
X143334804Y-92291996D01*
X143333341Y-92289982D01*
X143332566Y-92289088D01*
X143331896Y-92287996D01*
X143331894Y-92287991D01*
X143206206Y-92114996D01*
X143206203Y-92114993D01*
X143206201Y-92114990D01*
X143055009Y-91963798D01*
X143055006Y-91963796D01*
X143055004Y-91963794D01*
X142882009Y-91838106D01*
X142691483Y-91741028D01*
X142691480Y-91741027D01*
X142691478Y-91741026D01*
X142488120Y-91674952D01*
X142488123Y-91674952D01*
X142448801Y-91668724D01*
X142276916Y-91641500D01*
X142063084Y-91641500D01*
X141851884Y-91674951D01*
X141851878Y-91674952D01*
X141648521Y-91741026D01*
X141648515Y-91741029D01*
X141457987Y-91838108D01*
X141284995Y-91963794D01*
X141182018Y-92066771D01*
X141119706Y-92100796D01*
X141048890Y-92095730D01*
X140992054Y-92053184D01*
X140974871Y-92021715D01*
X140930889Y-91903796D01*
X140930886Y-91903792D01*
X140930886Y-91903791D01*
X140843261Y-91786738D01*
X140726207Y-91699112D01*
X140726202Y-91699110D01*
X140589204Y-91648011D01*
X140589196Y-91648009D01*
X140528649Y-91641500D01*
X140528638Y-91641500D01*
X138731362Y-91641500D01*
X138731350Y-91641500D01*
X138670803Y-91648009D01*
X138670795Y-91648011D01*
X138533797Y-91699110D01*
X138533792Y-91699112D01*
X138416738Y-91786738D01*
X138329112Y-91903792D01*
X138329110Y-91903797D01*
X138278011Y-92040795D01*
X138278009Y-92040803D01*
X138271500Y-92101350D01*
X138271500Y-93898649D01*
X138278009Y-93959196D01*
X138278011Y-93959204D01*
X138329110Y-94096202D01*
X138329112Y-94096207D01*
X138416738Y-94213261D01*
X138533792Y-94300887D01*
X138533794Y-94300888D01*
X138533796Y-94300889D01*
X138592875Y-94322924D01*
X138670795Y-94351988D01*
X138670803Y-94351990D01*
X138731350Y-94358499D01*
X138731355Y-94358499D01*
X138731362Y-94358500D01*
X138731368Y-94358500D01*
X140528632Y-94358500D01*
X140528638Y-94358500D01*
X140528645Y-94358499D01*
X140528649Y-94358499D01*
X140589196Y-94351990D01*
X140589199Y-94351989D01*
X140589201Y-94351989D01*
X140726204Y-94300889D01*
X140738903Y-94291383D01*
X140843261Y-94213261D01*
X140930887Y-94096207D01*
X140930887Y-94096206D01*
X140930889Y-94096204D01*
X140974869Y-93978288D01*
X141017414Y-93921456D01*
X141083934Y-93896645D01*
X141153308Y-93911736D01*
X141182018Y-93933229D01*
X141284990Y-94036201D01*
X141284993Y-94036203D01*
X141284996Y-94036206D01*
X141457991Y-94161894D01*
X141648517Y-94258972D01*
X141851878Y-94325047D01*
X141851879Y-94325047D01*
X141851884Y-94325049D01*
X142063084Y-94358500D01*
X142063087Y-94358500D01*
X142276913Y-94358500D01*
X142276916Y-94358500D01*
X142488116Y-94325049D01*
X142691483Y-94258972D01*
X142882009Y-94161894D01*
X143055004Y-94036206D01*
X143206206Y-93885004D01*
X143331894Y-93712009D01*
X143331899Y-93711997D01*
X143332561Y-93710920D01*
X143332924Y-93710591D01*
X143334804Y-93708004D01*
X143335347Y-93708398D01*
X143385204Y-93663283D01*
X143455244Y-93651670D01*
X143520445Y-93679766D01*
X143545021Y-93708130D01*
X143545196Y-93708004D01*
X143546668Y-93710030D01*
X143547439Y-93710920D01*
X143548105Y-93712007D01*
X143548106Y-93712009D01*
X143673794Y-93885004D01*
X143673796Y-93885006D01*
X143673798Y-93885009D01*
X143824990Y-94036201D01*
X143824993Y-94036203D01*
X143824996Y-94036206D01*
X143997991Y-94161894D01*
X144188517Y-94258972D01*
X144391878Y-94325047D01*
X144391879Y-94325047D01*
X144391884Y-94325049D01*
X144603084Y-94358500D01*
X144603087Y-94358500D01*
X144816913Y-94358500D01*
X144816916Y-94358500D01*
X145028116Y-94325049D01*
X145231483Y-94258972D01*
X145422009Y-94161894D01*
X145595004Y-94036206D01*
X145746206Y-93885004D01*
X145871894Y-93712009D01*
X145871899Y-93711997D01*
X145872561Y-93710920D01*
X145872924Y-93710591D01*
X145874804Y-93708004D01*
X145875347Y-93708398D01*
X145925204Y-93663283D01*
X145995244Y-93651670D01*
X146060445Y-93679766D01*
X146085021Y-93708130D01*
X146085196Y-93708004D01*
X146086668Y-93710030D01*
X146087439Y-93710920D01*
X146088105Y-93712007D01*
X146088106Y-93712009D01*
X146213794Y-93885004D01*
X146213796Y-93885006D01*
X146213798Y-93885009D01*
X146364990Y-94036201D01*
X146364993Y-94036203D01*
X146364996Y-94036206D01*
X146537991Y-94161894D01*
X146537994Y-94161895D01*
X146539561Y-94163034D01*
X146582915Y-94219256D01*
X146591500Y-94264970D01*
X146591500Y-94984860D01*
X146616806Y-95112077D01*
X146666445Y-95231917D01*
X146738509Y-95339769D01*
X146738513Y-95339773D01*
X155318649Y-103919909D01*
X155352675Y-103982221D01*
X155354003Y-103989292D01*
X155379952Y-104153121D01*
X155446026Y-104356478D01*
X155446028Y-104356483D01*
X155543106Y-104547009D01*
X155668794Y-104720004D01*
X155668796Y-104720006D01*
X155668798Y-104720009D01*
X155816505Y-104867716D01*
X155850531Y-104930028D01*
X155845466Y-105000843D01*
X155802919Y-105057679D01*
X155766347Y-105076644D01*
X155643710Y-105116492D01*
X155643707Y-105116493D01*
X155453253Y-105213534D01*
X155400831Y-105251621D01*
X156040052Y-105890841D01*
X155972007Y-105909075D01*
X155857993Y-105974901D01*
X155764901Y-106067993D01*
X155699075Y-106182007D01*
X155680842Y-106250051D01*
X155041622Y-105610831D01*
X155041621Y-105610831D01*
X155003534Y-105663253D01*
X154906493Y-105853707D01*
X154906490Y-105853713D01*
X154840440Y-106056996D01*
X154807000Y-106268126D01*
X154807000Y-106481873D01*
X154840440Y-106693003D01*
X154906490Y-106896286D01*
X154906493Y-106896292D01*
X155003535Y-107086748D01*
X155003536Y-107086750D01*
X155041620Y-107139167D01*
X155041621Y-107139168D01*
X155680841Y-106499947D01*
X155699075Y-106567993D01*
X155764901Y-106682007D01*
X155857993Y-106775099D01*
X155972007Y-106840925D01*
X156040050Y-106859157D01*
X155400830Y-107498377D01*
X155400831Y-107498378D01*
X155453249Y-107536463D01*
X155453255Y-107536467D01*
X155508119Y-107564421D01*
X155559735Y-107613168D01*
X155576801Y-107682083D01*
X155553901Y-107749285D01*
X155540012Y-107765783D01*
X148201202Y-115104595D01*
X148138890Y-115138621D01*
X148112107Y-115141500D01*
X145835139Y-115141500D01*
X145707922Y-115166806D01*
X145707919Y-115166807D01*
X145588083Y-115216445D01*
X145480232Y-115288508D01*
X145480230Y-115288510D01*
X145128837Y-115639902D01*
X145066525Y-115673927D01*
X145020031Y-115675255D01*
X145018120Y-115674952D01*
X145018116Y-115674951D01*
X144806916Y-115641500D01*
X144593084Y-115641500D01*
X144381884Y-115674951D01*
X144381878Y-115674952D01*
X144178521Y-115741026D01*
X144178515Y-115741029D01*
X143987987Y-115838108D01*
X143814993Y-115963796D01*
X143814990Y-115963798D01*
X143663798Y-116114990D01*
X143663796Y-116114993D01*
X143538100Y-116287998D01*
X143537131Y-116289580D01*
X143536606Y-116290054D01*
X143535196Y-116291996D01*
X143534787Y-116291699D01*
X143484479Y-116337206D01*
X143414437Y-116348807D01*
X143349242Y-116320697D01*
X143324515Y-116292156D01*
X143324376Y-116292258D01*
X143323194Y-116290631D01*
X143322266Y-116289560D01*
X143321460Y-116288244D01*
X143195822Y-116115320D01*
X143044679Y-115964177D01*
X142871750Y-115838536D01*
X142681292Y-115741493D01*
X142681286Y-115741490D01*
X142478004Y-115675440D01*
X142414000Y-115665302D01*
X142414000Y-116569297D01*
X142352993Y-116534075D01*
X142225826Y-116500000D01*
X142094174Y-116500000D01*
X141967007Y-116534075D01*
X141906000Y-116569297D01*
X141906000Y-115665302D01*
X141841995Y-115675440D01*
X141638713Y-115741490D01*
X141638707Y-115741493D01*
X141448249Y-115838536D01*
X141275322Y-115964176D01*
X141171822Y-116067676D01*
X141109510Y-116101701D01*
X141038694Y-116096635D01*
X140981858Y-116054089D01*
X140964671Y-116022612D01*
X140920444Y-115904034D01*
X140832904Y-115787095D01*
X140715965Y-115699555D01*
X140579093Y-115648505D01*
X140518597Y-115642000D01*
X139874000Y-115642000D01*
X139874000Y-116569297D01*
X139812993Y-116534075D01*
X139685826Y-116500000D01*
X139554174Y-116500000D01*
X139427007Y-116534075D01*
X139366000Y-116569297D01*
X139366000Y-115642000D01*
X138721402Y-115642000D01*
X138660906Y-115648505D01*
X138524035Y-115699555D01*
X138524034Y-115699555D01*
X138407095Y-115787095D01*
X138319555Y-115904034D01*
X138319555Y-115904035D01*
X138268505Y-116040906D01*
X138262000Y-116101402D01*
X113237294Y-116101402D01*
X113200889Y-116003796D01*
X113200888Y-116003794D01*
X113200887Y-116003792D01*
X113113261Y-115886738D01*
X112996207Y-115799112D01*
X112996202Y-115799110D01*
X112859204Y-115748011D01*
X112859196Y-115748009D01*
X112798649Y-115741500D01*
X112798638Y-115741500D01*
X109701362Y-115741500D01*
X109701350Y-115741500D01*
X109640803Y-115748009D01*
X109640795Y-115748011D01*
X109503797Y-115799110D01*
X109503792Y-115799112D01*
X109386738Y-115886738D01*
X109299112Y-116003792D01*
X109299110Y-116003797D01*
X109248011Y-116140795D01*
X109248009Y-116140803D01*
X109241500Y-116201350D01*
X105400500Y-116201350D01*
X105400500Y-112538353D01*
X109241500Y-112538353D01*
X109241500Y-112801646D01*
X109275864Y-113062672D01*
X109275865Y-113062678D01*
X109275866Y-113062680D01*
X109344010Y-113316997D01*
X109444766Y-113560243D01*
X109444767Y-113560244D01*
X109444772Y-113560255D01*
X109576407Y-113788253D01*
X109736689Y-113997138D01*
X109736698Y-113997148D01*
X109922851Y-114183301D01*
X109922861Y-114183310D01*
X109922862Y-114183311D01*
X110066581Y-114293590D01*
X110131746Y-114343592D01*
X110359744Y-114475227D01*
X110359748Y-114475228D01*
X110359757Y-114475234D01*
X110603003Y-114575990D01*
X110857320Y-114644134D01*
X110857326Y-114644134D01*
X110857327Y-114644135D01*
X110887281Y-114648078D01*
X111118356Y-114678500D01*
X111118363Y-114678500D01*
X111381637Y-114678500D01*
X111381644Y-114678500D01*
X111642680Y-114644134D01*
X111896997Y-114575990D01*
X112140243Y-114475234D01*
X112368257Y-114343590D01*
X112577138Y-114183311D01*
X112763311Y-113997138D01*
X112923590Y-113788257D01*
X113055234Y-113560243D01*
X113155990Y-113316997D01*
X113224134Y-113062680D01*
X113258500Y-112801644D01*
X113258500Y-112538356D01*
X113224134Y-112277320D01*
X113155990Y-112023003D01*
X113055234Y-111779757D01*
X113055229Y-111779748D01*
X113055227Y-111779744D01*
X112923592Y-111551746D01*
X112763310Y-111342861D01*
X112763301Y-111342851D01*
X112577148Y-111156698D01*
X112577138Y-111156689D01*
X112368253Y-110996407D01*
X112140255Y-110864772D01*
X112140247Y-110864768D01*
X112140243Y-110864766D01*
X111896997Y-110764010D01*
X111642680Y-110695866D01*
X111642673Y-110695864D01*
X111381646Y-110661500D01*
X111381644Y-110661500D01*
X111118356Y-110661500D01*
X111118353Y-110661500D01*
X110857327Y-110695864D01*
X110664436Y-110747549D01*
X110603003Y-110764010D01*
X110480468Y-110814766D01*
X110359755Y-110864767D01*
X110359744Y-110864772D01*
X110131746Y-110996407D01*
X109922861Y-111156689D01*
X109922851Y-111156698D01*
X109736698Y-111342851D01*
X109736689Y-111342861D01*
X109576407Y-111551746D01*
X109444772Y-111779744D01*
X109444767Y-111779755D01*
X109444766Y-111779757D01*
X109443561Y-111782667D01*
X109344010Y-112023003D01*
X109275864Y-112277327D01*
X109241500Y-112538353D01*
X105400500Y-112538353D01*
X105400500Y-107346238D01*
X120191500Y-107346238D01*
X120191500Y-109043537D01*
X120198009Y-109104084D01*
X120198011Y-109104092D01*
X120249110Y-109241090D01*
X120249112Y-109241095D01*
X120336738Y-109358149D01*
X120453792Y-109445775D01*
X120453794Y-109445776D01*
X120453796Y-109445777D01*
X120512875Y-109467812D01*
X120590795Y-109496876D01*
X120590803Y-109496878D01*
X120654717Y-109503749D01*
X120654596Y-109504865D01*
X120717189Y-109526931D01*
X120760756Y-109582989D01*
X120763117Y-109598796D01*
X121459209Y-110294888D01*
X121447339Y-110294888D01*
X121345606Y-110322147D01*
X121254394Y-110374808D01*
X121179920Y-110449282D01*
X121127259Y-110540494D01*
X121100000Y-110642227D01*
X121100000Y-110654097D01*
X120412416Y-109966513D01*
X120381301Y-110009340D01*
X120287829Y-110192788D01*
X120287826Y-110192794D01*
X120224208Y-110388591D01*
X120192000Y-110591949D01*
X120192000Y-110797826D01*
X120224208Y-111001184D01*
X120287826Y-111196981D01*
X120287829Y-111196987D01*
X120381297Y-111380428D01*
X120381298Y-111380429D01*
X120412416Y-111423260D01*
X121100000Y-110735676D01*
X121100000Y-110747549D01*
X121127259Y-110849282D01*
X121179920Y-110940494D01*
X121254394Y-111014968D01*
X121345606Y-111067629D01*
X121447339Y-111094888D01*
X121459210Y-111094888D01*
X120771626Y-111782470D01*
X120771626Y-111782471D01*
X120814454Y-111813587D01*
X120997900Y-111907058D01*
X120997906Y-111907061D01*
X121193705Y-111970679D01*
X121193701Y-111970679D01*
X121397061Y-112002888D01*
X121602939Y-112002888D01*
X121806296Y-111970679D01*
X122002093Y-111907061D01*
X122002099Y-111907058D01*
X122185541Y-111813589D01*
X122228372Y-111782470D01*
X122228372Y-111782469D01*
X121540791Y-111094888D01*
X121552661Y-111094888D01*
X121654394Y-111067629D01*
X121745606Y-111014968D01*
X121820080Y-110940494D01*
X121872741Y-110849282D01*
X121900000Y-110747549D01*
X121900000Y-110735679D01*
X122587581Y-111423260D01*
X122587582Y-111423260D01*
X122618701Y-111380429D01*
X122712170Y-111196987D01*
X122712173Y-111196981D01*
X122775791Y-111001184D01*
X122808000Y-110797826D01*
X122808000Y-110591949D01*
X122775791Y-110388591D01*
X122712173Y-110192794D01*
X122712170Y-110192788D01*
X122618699Y-110009342D01*
X122587583Y-109966514D01*
X122587582Y-109966514D01*
X121900000Y-110654096D01*
X121900000Y-110642227D01*
X121872741Y-110540494D01*
X121820080Y-110449282D01*
X121745606Y-110374808D01*
X121654394Y-110322147D01*
X121552661Y-110294888D01*
X121540790Y-110294888D01*
X122239970Y-109595706D01*
X122245463Y-109569557D01*
X122295304Y-109518996D01*
X122345373Y-109504592D01*
X122345283Y-109503749D01*
X122409196Y-109496878D01*
X122409199Y-109496877D01*
X122409201Y-109496877D01*
X122546204Y-109445777D01*
X122663261Y-109358149D01*
X122750889Y-109241092D01*
X122801989Y-109104089D01*
X122808500Y-109043526D01*
X122808500Y-107346250D01*
X122808499Y-107346238D01*
X122801990Y-107285691D01*
X122801988Y-107285683D01*
X122750889Y-107148685D01*
X122750887Y-107148680D01*
X122663261Y-107031626D01*
X122546207Y-106944000D01*
X122546202Y-106943998D01*
X122409204Y-106892899D01*
X122409196Y-106892897D01*
X122348649Y-106886388D01*
X122348638Y-106886388D01*
X120651362Y-106886388D01*
X120651350Y-106886388D01*
X120590803Y-106892897D01*
X120590795Y-106892899D01*
X120453797Y-106943998D01*
X120453792Y-106944000D01*
X120336738Y-107031626D01*
X120249112Y-107148680D01*
X120249110Y-107148685D01*
X120198011Y-107285683D01*
X120198009Y-107285691D01*
X120191500Y-107346238D01*
X105400500Y-107346238D01*
X105400500Y-100120367D01*
X119391500Y-100120367D01*
X119391500Y-100279632D01*
X119407035Y-100357730D01*
X119422570Y-100435831D01*
X119483517Y-100582968D01*
X119571997Y-100715389D01*
X119571998Y-100715390D01*
X119572003Y-100715396D01*
X119684603Y-100827996D01*
X119684609Y-100828001D01*
X119684611Y-100828003D01*
X119817032Y-100916483D01*
X119964169Y-100977430D01*
X120120370Y-101008500D01*
X120120371Y-101008500D01*
X120279629Y-101008500D01*
X120279630Y-101008500D01*
X120435831Y-100977430D01*
X120582968Y-100916483D01*
X120637968Y-100879733D01*
X120705720Y-100858520D01*
X120707968Y-100858500D01*
X124142032Y-100858500D01*
X124210153Y-100878502D01*
X124212002Y-100879713D01*
X124267032Y-100916483D01*
X124414169Y-100977430D01*
X124570370Y-101008500D01*
X124570371Y-101008500D01*
X124729629Y-101008500D01*
X124729630Y-101008500D01*
X124885831Y-100977430D01*
X125032968Y-100916483D01*
X125165389Y-100828003D01*
X125278003Y-100715389D01*
X125366483Y-100582968D01*
X125427430Y-100435831D01*
X125458500Y-100279630D01*
X125458500Y-100120370D01*
X125427430Y-99964169D01*
X125366483Y-99817032D01*
X125278003Y-99684611D01*
X125278001Y-99684609D01*
X125277996Y-99684603D01*
X125165396Y-99572003D01*
X125165390Y-99571998D01*
X125161737Y-99569557D01*
X125032968Y-99483517D01*
X124885831Y-99422570D01*
X124807730Y-99407035D01*
X124729632Y-99391500D01*
X124729630Y-99391500D01*
X124570370Y-99391500D01*
X124570367Y-99391500D01*
X124453219Y-99414802D01*
X124414169Y-99422570D01*
X124414167Y-99422571D01*
X124267033Y-99483516D01*
X124241993Y-99500247D01*
X124212031Y-99520266D01*
X124144280Y-99541480D01*
X124142032Y-99541500D01*
X120707968Y-99541500D01*
X120639847Y-99521498D01*
X120637997Y-99520286D01*
X120582968Y-99483517D01*
X120568934Y-99477704D01*
X120549635Y-99469710D01*
X120435831Y-99422570D01*
X120357730Y-99407035D01*
X120279632Y-99391500D01*
X120279630Y-99391500D01*
X120120370Y-99391500D01*
X120120367Y-99391500D01*
X120003219Y-99414802D01*
X119964169Y-99422570D01*
X119964167Y-99422571D01*
X119817032Y-99483517D01*
X119684609Y-99571998D01*
X119684603Y-99572003D01*
X119572003Y-99684603D01*
X119571998Y-99684609D01*
X119483517Y-99817032D01*
X119422571Y-99964167D01*
X119422570Y-99964170D01*
X119391500Y-100120367D01*
X105400500Y-100120367D01*
X105400500Y-95781350D01*
X109241500Y-95781350D01*
X109241500Y-98878649D01*
X109248009Y-98939196D01*
X109248011Y-98939204D01*
X109299110Y-99076202D01*
X109299112Y-99076207D01*
X109386738Y-99193261D01*
X109503792Y-99280887D01*
X109503794Y-99280888D01*
X109503796Y-99280889D01*
X109539401Y-99294169D01*
X109640795Y-99331988D01*
X109640803Y-99331990D01*
X109701350Y-99338499D01*
X109701355Y-99338499D01*
X109701362Y-99338500D01*
X109701368Y-99338500D01*
X112798632Y-99338500D01*
X112798638Y-99338500D01*
X112798645Y-99338499D01*
X112798649Y-99338499D01*
X112859196Y-99331990D01*
X112859199Y-99331989D01*
X112859201Y-99331989D01*
X112996204Y-99280889D01*
X113049363Y-99241095D01*
X113113261Y-99193261D01*
X113200887Y-99076207D01*
X113200887Y-99076206D01*
X113200889Y-99076204D01*
X113251989Y-98939201D01*
X113256132Y-98900671D01*
X113258499Y-98878649D01*
X113258500Y-98878632D01*
X113258500Y-97346238D01*
X129891500Y-97346238D01*
X129891500Y-99043537D01*
X129898009Y-99104084D01*
X129898011Y-99104092D01*
X129949110Y-99241090D01*
X129949112Y-99241095D01*
X130036738Y-99358149D01*
X130153792Y-99445775D01*
X130153794Y-99445776D01*
X130153796Y-99445777D01*
X130212875Y-99467812D01*
X130290795Y-99496876D01*
X130290803Y-99496878D01*
X130354717Y-99503749D01*
X130354596Y-99504865D01*
X130417189Y-99526931D01*
X130460756Y-99582989D01*
X130463117Y-99598796D01*
X131159209Y-100294888D01*
X131147339Y-100294888D01*
X131045606Y-100322147D01*
X130954394Y-100374808D01*
X130879920Y-100449282D01*
X130827259Y-100540494D01*
X130800000Y-100642227D01*
X130800000Y-100654097D01*
X130112416Y-99966513D01*
X130081301Y-100009340D01*
X129987829Y-100192788D01*
X129987826Y-100192794D01*
X129924208Y-100388591D01*
X129892000Y-100591949D01*
X129892000Y-100797826D01*
X129924208Y-101001184D01*
X129987826Y-101196981D01*
X129987829Y-101196987D01*
X130081297Y-101380428D01*
X130081298Y-101380429D01*
X130112416Y-101423260D01*
X130800000Y-100735676D01*
X130800000Y-100747549D01*
X130827259Y-100849282D01*
X130879920Y-100940494D01*
X130954394Y-101014968D01*
X131045606Y-101067629D01*
X131147339Y-101094888D01*
X131159210Y-101094888D01*
X130471626Y-101782470D01*
X130471626Y-101782471D01*
X130514454Y-101813587D01*
X130697900Y-101907058D01*
X130697906Y-101907061D01*
X130893705Y-101970679D01*
X130893701Y-101970679D01*
X131097061Y-102002888D01*
X131302939Y-102002888D01*
X131506296Y-101970679D01*
X131702093Y-101907061D01*
X131702099Y-101907058D01*
X131885541Y-101813589D01*
X131928372Y-101782470D01*
X131928372Y-101782469D01*
X131240791Y-101094888D01*
X131252661Y-101094888D01*
X131354394Y-101067629D01*
X131445606Y-101014968D01*
X131520080Y-100940494D01*
X131572741Y-100849282D01*
X131600000Y-100747549D01*
X131600000Y-100735679D01*
X132287581Y-101423260D01*
X132287582Y-101423260D01*
X132318701Y-101380429D01*
X132412170Y-101196987D01*
X132412173Y-101196981D01*
X132475791Y-101001184D01*
X132508000Y-100797826D01*
X132508000Y-100591949D01*
X132475791Y-100388591D01*
X132412173Y-100192794D01*
X132412170Y-100192788D01*
X132318699Y-100009342D01*
X132287583Y-99966514D01*
X132287582Y-99966514D01*
X131600000Y-100654096D01*
X131600000Y-100642227D01*
X131572741Y-100540494D01*
X131520080Y-100449282D01*
X131445606Y-100374808D01*
X131354394Y-100322147D01*
X131252661Y-100294888D01*
X131240790Y-100294888D01*
X131939970Y-99595706D01*
X131945463Y-99569557D01*
X131995304Y-99518996D01*
X132045373Y-99504592D01*
X132045283Y-99503749D01*
X132109196Y-99496878D01*
X132109199Y-99496877D01*
X132109201Y-99496877D01*
X132246204Y-99445777D01*
X132318710Y-99391500D01*
X132363261Y-99358149D01*
X132450887Y-99241095D01*
X132450887Y-99241094D01*
X132450889Y-99241092D01*
X132501989Y-99104089D01*
X132508500Y-99043526D01*
X132508500Y-98979388D01*
X132528502Y-98911267D01*
X132582158Y-98864774D01*
X132634500Y-98853388D01*
X135879938Y-98853388D01*
X135948059Y-98873390D01*
X135969033Y-98890293D01*
X142594595Y-105515854D01*
X142628621Y-105578166D01*
X142631500Y-105604949D01*
X142631500Y-105729331D01*
X142649079Y-105817704D01*
X142670256Y-105924169D01*
X142746279Y-106107704D01*
X142856647Y-106272881D01*
X142997119Y-106413353D01*
X143162296Y-106523721D01*
X143345831Y-106599744D01*
X143540671Y-106638500D01*
X143665049Y-106638500D01*
X143733170Y-106658502D01*
X143754144Y-106675404D01*
X144154595Y-107075854D01*
X144188620Y-107138167D01*
X144191500Y-107164950D01*
X144191500Y-113270076D01*
X144171498Y-113338197D01*
X144154595Y-113359171D01*
X144066649Y-113447116D01*
X144066644Y-113447123D01*
X143956279Y-113612296D01*
X143880258Y-113795825D01*
X143880256Y-113795830D01*
X143841500Y-113990668D01*
X143841500Y-113990671D01*
X143841500Y-114189329D01*
X143880256Y-114384169D01*
X143956279Y-114567704D01*
X144066647Y-114732881D01*
X144207119Y-114873353D01*
X144372296Y-114983721D01*
X144555831Y-115059744D01*
X144750671Y-115098500D01*
X144750672Y-115098500D01*
X144949328Y-115098500D01*
X144949329Y-115098500D01*
X145144169Y-115059744D01*
X145327704Y-114983721D01*
X145492881Y-114873353D01*
X145633353Y-114732881D01*
X145743721Y-114567704D01*
X145819744Y-114384169D01*
X145858500Y-114189329D01*
X145858500Y-113990671D01*
X145819744Y-113795831D01*
X145743721Y-113612296D01*
X145633353Y-113447119D01*
X145545405Y-113359171D01*
X145511379Y-113296859D01*
X145508500Y-113270076D01*
X145508500Y-106775142D01*
X145508499Y-106775139D01*
X145508491Y-106775099D01*
X145483194Y-106647923D01*
X145433555Y-106528083D01*
X145361490Y-106420231D01*
X145269769Y-106328510D01*
X144996225Y-106054966D01*
X144685404Y-105744144D01*
X144651379Y-105681832D01*
X144648500Y-105655049D01*
X144648500Y-105530672D01*
X144648499Y-105530668D01*
X144609744Y-105335831D01*
X144533721Y-105152296D01*
X144423353Y-104987119D01*
X144282881Y-104846647D01*
X144117704Y-104736279D01*
X143934169Y-104660256D01*
X143739331Y-104621500D01*
X143739329Y-104621500D01*
X143614949Y-104621500D01*
X143546828Y-104601498D01*
X143525854Y-104584595D01*
X137924836Y-98983576D01*
X137841928Y-98900668D01*
X141091500Y-98900668D01*
X141091500Y-99099331D01*
X141110184Y-99193261D01*
X141130256Y-99294169D01*
X141206279Y-99477704D01*
X141316647Y-99642881D01*
X141316649Y-99642883D01*
X141404595Y-99730829D01*
X141438621Y-99793141D01*
X141441500Y-99819924D01*
X141441500Y-100864860D01*
X141466806Y-100992077D01*
X141466807Y-100992080D01*
X141492496Y-101054098D01*
X141516445Y-101111917D01*
X141588509Y-101219769D01*
X141588513Y-101219773D01*
X146504595Y-106135855D01*
X146538621Y-106198167D01*
X146541500Y-106224950D01*
X146541500Y-106349331D01*
X146567872Y-106481912D01*
X146580256Y-106544169D01*
X146656279Y-106727704D01*
X146766647Y-106892881D01*
X146907119Y-107033353D01*
X147072296Y-107143721D01*
X147255831Y-107219744D01*
X147450671Y-107258500D01*
X147450672Y-107258500D01*
X147649328Y-107258500D01*
X147649329Y-107258500D01*
X147844169Y-107219744D01*
X148027704Y-107143721D01*
X148192881Y-107033353D01*
X148333353Y-106892881D01*
X148443721Y-106727704D01*
X148519744Y-106544169D01*
X148558500Y-106349329D01*
X148558500Y-106150671D01*
X148519744Y-105955831D01*
X148443721Y-105772296D01*
X148333353Y-105607119D01*
X148192881Y-105466647D01*
X148027704Y-105356279D01*
X147844169Y-105280256D01*
X147649331Y-105241500D01*
X147649329Y-105241500D01*
X147524950Y-105241500D01*
X147456829Y-105221498D01*
X147435855Y-105204595D01*
X142795405Y-100564145D01*
X142761379Y-100501833D01*
X142758500Y-100475050D01*
X142758500Y-99819924D01*
X142778502Y-99751803D01*
X142795405Y-99730829D01*
X142804829Y-99721405D01*
X142883353Y-99642881D01*
X142993721Y-99477704D01*
X143069744Y-99294169D01*
X143108500Y-99099329D01*
X143108500Y-98900671D01*
X143069744Y-98705831D01*
X142993721Y-98522296D01*
X142883353Y-98357119D01*
X142742881Y-98216647D01*
X142577704Y-98106279D01*
X142394169Y-98030256D01*
X142377780Y-98026996D01*
X142199331Y-97991500D01*
X142199329Y-97991500D01*
X142000671Y-97991500D01*
X142000668Y-97991500D01*
X141805830Y-98030256D01*
X141805825Y-98030258D01*
X141622296Y-98106279D01*
X141457123Y-98216644D01*
X141457116Y-98216649D01*
X141316649Y-98357116D01*
X141316644Y-98357123D01*
X141206279Y-98522296D01*
X141130258Y-98705825D01*
X141130256Y-98705830D01*
X141091500Y-98900668D01*
X137841928Y-98900668D01*
X136624661Y-97683401D01*
X136624660Y-97683400D01*
X136624657Y-97683397D01*
X136516805Y-97611333D01*
X136396968Y-97561695D01*
X136396965Y-97561694D01*
X136269748Y-97536388D01*
X136269745Y-97536388D01*
X132634500Y-97536388D01*
X132566379Y-97516386D01*
X132519886Y-97462730D01*
X132508500Y-97410388D01*
X132508500Y-97346255D01*
X132508499Y-97346238D01*
X132501990Y-97285691D01*
X132501988Y-97285683D01*
X132450889Y-97148685D01*
X132450887Y-97148680D01*
X132363261Y-97031626D01*
X132246207Y-96944000D01*
X132246202Y-96943998D01*
X132109204Y-96892899D01*
X132109196Y-96892897D01*
X132048649Y-96886388D01*
X132048638Y-96886388D01*
X130351362Y-96886388D01*
X130351350Y-96886388D01*
X130290803Y-96892897D01*
X130290795Y-96892899D01*
X130153797Y-96943998D01*
X130153792Y-96944000D01*
X130036738Y-97031626D01*
X129949112Y-97148680D01*
X129949110Y-97148685D01*
X129898011Y-97285683D01*
X129898009Y-97285691D01*
X129891500Y-97346238D01*
X113258500Y-97346238D01*
X113258500Y-95781367D01*
X113258499Y-95781350D01*
X113251990Y-95720803D01*
X113251988Y-95720795D01*
X113200889Y-95583797D01*
X113200887Y-95583792D01*
X113113261Y-95466738D01*
X112996207Y-95379112D01*
X112996202Y-95379110D01*
X112859204Y-95328011D01*
X112859196Y-95328009D01*
X112798649Y-95321500D01*
X112798638Y-95321500D01*
X109701362Y-95321500D01*
X109701350Y-95321500D01*
X109640803Y-95328009D01*
X109640795Y-95328011D01*
X109503797Y-95379110D01*
X109503792Y-95379112D01*
X109386738Y-95466738D01*
X109299112Y-95583792D01*
X109299110Y-95583797D01*
X109248011Y-95720795D01*
X109248009Y-95720803D01*
X109241500Y-95781350D01*
X105400500Y-95781350D01*
X105400500Y-92118386D01*
X109242000Y-92118386D01*
X109242000Y-92381613D01*
X109276355Y-92642575D01*
X109344484Y-92896835D01*
X109445216Y-93140023D01*
X109445221Y-93140034D01*
X109576823Y-93367975D01*
X109576827Y-93367981D01*
X109661916Y-93478870D01*
X109661917Y-93478871D01*
X110563110Y-92577677D01*
X110576497Y-92609995D01*
X110659670Y-92734472D01*
X110765528Y-92840330D01*
X110890005Y-92923503D01*
X110922320Y-92936888D01*
X110021127Y-93838081D01*
X110021127Y-93838082D01*
X110132017Y-93923171D01*
X110132024Y-93923176D01*
X110359965Y-94054778D01*
X110359976Y-94054783D01*
X110603164Y-94155515D01*
X110857424Y-94223644D01*
X111118386Y-94257999D01*
X111118396Y-94258000D01*
X111381604Y-94258000D01*
X111381613Y-94257999D01*
X111642575Y-94223644D01*
X111896835Y-94155515D01*
X112140023Y-94054783D01*
X112140034Y-94054778D01*
X112367975Y-93923176D01*
X112367981Y-93923172D01*
X112478871Y-93838082D01*
X112478871Y-93838081D01*
X111577679Y-92936888D01*
X111609995Y-92923503D01*
X111734472Y-92840330D01*
X111840330Y-92734472D01*
X111923503Y-92609995D01*
X111936888Y-92577678D01*
X112838081Y-93478871D01*
X112838082Y-93478871D01*
X112923172Y-93367981D01*
X112923176Y-93367975D01*
X113054778Y-93140034D01*
X113054783Y-93140023D01*
X113155515Y-92896835D01*
X113223644Y-92642575D01*
X113257999Y-92381613D01*
X113258000Y-92381604D01*
X113258000Y-92118396D01*
X113257999Y-92118386D01*
X113257479Y-92114434D01*
X113223644Y-91857424D01*
X113155515Y-91603164D01*
X113054783Y-91359976D01*
X113054778Y-91359965D01*
X112923176Y-91132024D01*
X112923171Y-91132017D01*
X112838081Y-91021127D01*
X111936888Y-91922320D01*
X111923503Y-91890005D01*
X111840330Y-91765528D01*
X111734472Y-91659670D01*
X111609995Y-91576497D01*
X111577678Y-91563111D01*
X112389438Y-90751350D01*
X183791500Y-90751350D01*
X183791500Y-93848649D01*
X183798009Y-93909196D01*
X183798011Y-93909204D01*
X183849110Y-94046202D01*
X183849112Y-94046207D01*
X183936738Y-94163261D01*
X184053792Y-94250887D01*
X184053794Y-94250888D01*
X184053796Y-94250889D01*
X184112875Y-94272924D01*
X184190795Y-94301988D01*
X184190803Y-94301990D01*
X184251350Y-94308499D01*
X184251355Y-94308499D01*
X184251362Y-94308500D01*
X186330074Y-94308500D01*
X186398195Y-94328502D01*
X186419169Y-94345404D01*
X186954595Y-94880829D01*
X186988620Y-94943142D01*
X186991500Y-94969925D01*
X186991500Y-95530458D01*
X186971498Y-95598579D01*
X186917842Y-95645072D01*
X186847568Y-95655176D01*
X186802500Y-95639577D01*
X186690255Y-95574772D01*
X186690247Y-95574768D01*
X186690243Y-95574766D01*
X186446997Y-95474010D01*
X186192680Y-95405866D01*
X186192678Y-95405865D01*
X186192672Y-95405864D01*
X185931646Y-95371500D01*
X185931644Y-95371500D01*
X185668356Y-95371500D01*
X185668353Y-95371500D01*
X185407327Y-95405864D01*
X185153003Y-95474010D01*
X184909755Y-95574767D01*
X184909744Y-95574772D01*
X184681746Y-95706407D01*
X184472861Y-95866689D01*
X184472851Y-95866698D01*
X184286698Y-96052851D01*
X184286689Y-96052861D01*
X184126407Y-96261746D01*
X183994772Y-96489744D01*
X183994767Y-96489755D01*
X183894010Y-96733003D01*
X183825864Y-96987327D01*
X183791500Y-97248353D01*
X183791500Y-97511646D01*
X183825864Y-97772672D01*
X183825865Y-97772678D01*
X183825866Y-97772680D01*
X183894010Y-98026997D01*
X183994766Y-98270243D01*
X183994767Y-98270244D01*
X183994772Y-98270255D01*
X184126407Y-98498253D01*
X184286689Y-98707138D01*
X184286698Y-98707148D01*
X184472851Y-98893301D01*
X184472861Y-98893310D01*
X184472862Y-98893311D01*
X184668627Y-99043526D01*
X184681746Y-99053592D01*
X184909744Y-99185227D01*
X184909748Y-99185228D01*
X184909757Y-99185234D01*
X185153003Y-99285990D01*
X185407320Y-99354134D01*
X185407326Y-99354134D01*
X185407327Y-99354135D01*
X185437281Y-99358078D01*
X185668356Y-99388500D01*
X185668363Y-99388500D01*
X185931637Y-99388500D01*
X185931644Y-99388500D01*
X186192680Y-99354134D01*
X186446997Y-99285990D01*
X186690243Y-99185234D01*
X186802501Y-99120421D01*
X186871494Y-99103684D01*
X186938586Y-99126904D01*
X186982474Y-99182711D01*
X186991500Y-99229541D01*
X186991500Y-100611034D01*
X186971498Y-100679155D01*
X186917842Y-100725648D01*
X186847568Y-100735752D01*
X186802500Y-100720153D01*
X186690034Y-100655221D01*
X186690023Y-100655216D01*
X186446835Y-100554484D01*
X186192575Y-100486355D01*
X185931613Y-100452000D01*
X185668386Y-100452000D01*
X185407424Y-100486355D01*
X185153164Y-100554484D01*
X184909976Y-100655216D01*
X184909965Y-100655221D01*
X184682024Y-100786823D01*
X184571127Y-100871917D01*
X185472321Y-101773111D01*
X185440005Y-101786497D01*
X185315528Y-101869670D01*
X185209670Y-101975528D01*
X185126497Y-102100005D01*
X185113111Y-102132321D01*
X184211917Y-101231127D01*
X184126823Y-101342024D01*
X183995221Y-101569965D01*
X183995216Y-101569976D01*
X183894484Y-101813164D01*
X183826355Y-102067424D01*
X183792000Y-102328386D01*
X183792000Y-102591613D01*
X183826355Y-102852575D01*
X183894484Y-103106835D01*
X183995216Y-103350023D01*
X183995221Y-103350034D01*
X184126823Y-103577975D01*
X184126827Y-103577981D01*
X184211916Y-103688870D01*
X184211917Y-103688871D01*
X185113110Y-102787677D01*
X185126497Y-102819995D01*
X185209670Y-102944472D01*
X185315528Y-103050330D01*
X185440005Y-103133503D01*
X185472320Y-103146888D01*
X184571127Y-104048081D01*
X184571127Y-104048082D01*
X184682017Y-104133171D01*
X184682024Y-104133176D01*
X184909965Y-104264778D01*
X184909976Y-104264783D01*
X185153164Y-104365515D01*
X185407424Y-104433644D01*
X185668386Y-104467999D01*
X185668396Y-104468000D01*
X185931604Y-104468000D01*
X185931613Y-104467999D01*
X186192575Y-104433644D01*
X186446835Y-104365515D01*
X186690023Y-104264783D01*
X186690033Y-104264778D01*
X186802500Y-104199846D01*
X186871495Y-104183108D01*
X186938587Y-104206328D01*
X186982474Y-104262135D01*
X186991500Y-104308965D01*
X186991500Y-104870073D01*
X186971498Y-104938194D01*
X186954595Y-104959169D01*
X186366535Y-105547228D01*
X186304223Y-105581253D01*
X186244830Y-105579839D01*
X186192675Y-105565864D01*
X185931646Y-105531500D01*
X185931644Y-105531500D01*
X185668356Y-105531500D01*
X185668353Y-105531500D01*
X185407327Y-105565864D01*
X185253347Y-105607123D01*
X185153003Y-105634010D01*
X184922879Y-105729331D01*
X184909755Y-105734767D01*
X184909744Y-105734772D01*
X184681746Y-105866407D01*
X184472861Y-106026689D01*
X184472851Y-106026698D01*
X184286698Y-106212851D01*
X184286689Y-106212861D01*
X184126407Y-106421746D01*
X183994772Y-106649744D01*
X183994767Y-106649755D01*
X183894010Y-106893003D01*
X183825864Y-107147327D01*
X183791500Y-107408353D01*
X183791500Y-107671646D01*
X183825864Y-107932672D01*
X183825865Y-107932678D01*
X183825866Y-107932680D01*
X183894010Y-108186997D01*
X183994766Y-108430243D01*
X183994767Y-108430244D01*
X183994772Y-108430255D01*
X184126407Y-108658253D01*
X184286689Y-108867138D01*
X184286698Y-108867148D01*
X184472851Y-109053301D01*
X184472861Y-109053310D01*
X184681746Y-109213592D01*
X184909744Y-109345227D01*
X184909748Y-109345228D01*
X184909757Y-109345234D01*
X185153003Y-109445990D01*
X185407320Y-109514134D01*
X185407326Y-109514134D01*
X185407327Y-109514135D01*
X185437281Y-109518078D01*
X185668356Y-109548500D01*
X185668363Y-109548500D01*
X185931637Y-109548500D01*
X185931644Y-109548500D01*
X186192680Y-109514134D01*
X186446997Y-109445990D01*
X186690243Y-109345234D01*
X186918257Y-109213590D01*
X187127138Y-109053311D01*
X187313311Y-108867138D01*
X187473590Y-108658257D01*
X187605234Y-108430243D01*
X187705990Y-108186997D01*
X187774134Y-107932680D01*
X187808500Y-107671644D01*
X187808500Y-107408356D01*
X187774134Y-107147320D01*
X187760160Y-107095168D01*
X187761849Y-107024193D01*
X187792767Y-106973466D01*
X188783354Y-105982881D01*
X188893722Y-105817704D01*
X188969744Y-105634168D01*
X188969776Y-105634010D01*
X189008500Y-105439329D01*
X189008500Y-94400671D01*
X188969744Y-94205831D01*
X188924335Y-94096204D01*
X188893722Y-94022296D01*
X188783354Y-93857119D01*
X187845405Y-92919170D01*
X187811379Y-92856858D01*
X187808500Y-92830075D01*
X187808500Y-90751367D01*
X187808499Y-90751350D01*
X187801990Y-90690803D01*
X187801988Y-90690795D01*
X187759479Y-90576827D01*
X187750889Y-90553796D01*
X187750888Y-90553794D01*
X187750887Y-90553792D01*
X187663261Y-90436738D01*
X187546207Y-90349112D01*
X187546202Y-90349110D01*
X187409204Y-90298011D01*
X187409196Y-90298009D01*
X187348649Y-90291500D01*
X187348638Y-90291500D01*
X184251362Y-90291500D01*
X184251350Y-90291500D01*
X184190803Y-90298009D01*
X184190795Y-90298011D01*
X184053797Y-90349110D01*
X184053792Y-90349112D01*
X183936738Y-90436738D01*
X183849112Y-90553792D01*
X183849110Y-90553797D01*
X183798011Y-90690795D01*
X183798009Y-90690803D01*
X183791500Y-90751350D01*
X112389438Y-90751350D01*
X112478871Y-90661917D01*
X112478870Y-90661916D01*
X112367981Y-90576827D01*
X112367975Y-90576823D01*
X112140034Y-90445221D01*
X112140023Y-90445216D01*
X111896835Y-90344484D01*
X111642575Y-90276355D01*
X111381613Y-90242000D01*
X111118386Y-90242000D01*
X110857424Y-90276355D01*
X110603164Y-90344484D01*
X110359976Y-90445216D01*
X110359965Y-90445221D01*
X110132024Y-90576823D01*
X110021127Y-90661917D01*
X110922321Y-91563111D01*
X110890005Y-91576497D01*
X110765528Y-91659670D01*
X110659670Y-91765528D01*
X110576497Y-91890005D01*
X110563111Y-91922321D01*
X109661917Y-91021127D01*
X109576823Y-91132024D01*
X109445221Y-91359965D01*
X109445216Y-91359976D01*
X109344484Y-91603164D01*
X109276355Y-91857424D01*
X109242000Y-92118386D01*
X105400500Y-92118386D01*
X105400500Y-88776500D01*
X105420502Y-88708379D01*
X105474158Y-88661886D01*
X105526500Y-88650500D01*
X191473500Y-88650500D01*
X191541621Y-88670502D01*
G37*
%TD.AperFunction*%
%TD*%
M02*
