M48
; DRILL file KiCad 10.0.1 date 2026-08-16T09:56:25
; FORMAT={-:-/ absolute / metric / decimal}
; #@! TF.CreationDate,2026-08-16T09:56:25+02:00
; #@! TF.GenerationSoftware,Kicad,Pcbnew,10.0.1
; #@! TF.FileFunction,Plated,1,2,PTH
FMAT,2
METRIC
; #@! TA.AperFunction,Plated,PTH,ViaDrill
T1C0.300
; #@! TA.AperFunction,Plated,PTH,ViaDrill
T2C0.600
; #@! TA.AperFunction,Plated,PTH,ComponentDrill
T3C0.800
; #@! TA.AperFunction,Plated,PTH,ComponentDrill
T4C1.000
; #@! TA.AperFunction,Plated,PTH,ComponentDrill
T5C1.520
%
G90
G05
T1
X120.2Y-100.2
X124.65Y-100.2
T2
X142.1Y-99.0
X143.64Y-105.63
X144.85Y-114.09
X147.55Y-106.25
T3
X121.5Y-108.195
X121.5Y-110.695
X131.2Y-98.195
X131.2Y-100.695
T4
X139.62Y-117.0
X139.63Y-93.0
X142.16Y-117.0
X142.17Y-93.0
X144.7Y-117.0
X144.71Y-93.0
X147.24Y-117.0
X147.25Y-93.0
X149.78Y-117.0
X149.79Y-93.0
X152.32Y-117.0
X152.33Y-93.0
X154.86Y-117.0
X154.87Y-93.0
X156.165Y-101.295
X156.165Y-106.375
X156.705Y-103.835
X157.4Y-117.0
X157.41Y-93.0
X158.705Y-101.295
X158.705Y-106.375
X159.205Y-103.835
T5
X111.25Y-92.25
X111.25Y-97.33
X111.25Y-112.67
X111.25Y-117.75
X185.8Y-92.3
X185.8Y-97.38
X185.8Y-102.46
X185.8Y-107.54
X185.8Y-112.62
X185.8Y-117.7
M30
