%TF.GenerationSoftware,KiCad,Pcbnew,10.0.1*%
%TF.CreationDate,2026-08-16T09:56:22+02:00*%
%TF.ProjectId,PlatineA_CNMB2,506c6174-696e-4654-915f-434e4d42322e,rev?*%
%TF.SameCoordinates,Original*%
%TF.FileFunction,Legend,Top*%
%TF.FilePolarity,Positive*%
%FSLAX46Y46*%
G04 Gerber Fmt 4.6, Leading zero omitted, Abs format (unit mm)*
G04 Created by KiCad (PCBNEW 10.0.1) date 2026-08-16 09:56:22*
%MOMM*%
%LPD*%
G01*
G04 APERTURE LIST*
%ADD10C,0.150000*%
%ADD11C,0.120000*%
G04 APERTURE END LIST*
D10*
X137676191Y-96854819D02*
X138009524Y-97854819D01*
X138009524Y-97854819D02*
X138342857Y-96854819D01*
X139200000Y-97854819D02*
X138628572Y-97854819D01*
X138914286Y-97854819D02*
X138914286Y-96854819D01*
X138914286Y-96854819D02*
X138819048Y-96997676D01*
X138819048Y-96997676D02*
X138723810Y-97092914D01*
X138723810Y-97092914D02*
X138628572Y-97140533D01*
X139628572Y-97759580D02*
X139676191Y-97807200D01*
X139676191Y-97807200D02*
X139628572Y-97854819D01*
X139628572Y-97854819D02*
X139580953Y-97807200D01*
X139580953Y-97807200D02*
X139628572Y-97759580D01*
X139628572Y-97759580D02*
X139628572Y-97854819D01*
X140628571Y-97854819D02*
X140057143Y-97854819D01*
X140342857Y-97854819D02*
X140342857Y-96854819D01*
X140342857Y-96854819D02*
X140247619Y-96997676D01*
X140247619Y-96997676D02*
X140152381Y-97092914D01*
X140152381Y-97092914D02*
X140057143Y-97140533D01*
X134823810Y-96254819D02*
X134823810Y-95254819D01*
X134823810Y-95731009D02*
X135395238Y-95731009D01*
X135395238Y-96254819D02*
X135395238Y-95254819D01*
X136204762Y-95731009D02*
X136347619Y-95778628D01*
X136347619Y-95778628D02*
X136395238Y-95826247D01*
X136395238Y-95826247D02*
X136442857Y-95921485D01*
X136442857Y-95921485D02*
X136442857Y-96064342D01*
X136442857Y-96064342D02*
X136395238Y-96159580D01*
X136395238Y-96159580D02*
X136347619Y-96207200D01*
X136347619Y-96207200D02*
X136252381Y-96254819D01*
X136252381Y-96254819D02*
X135871429Y-96254819D01*
X135871429Y-96254819D02*
X135871429Y-95254819D01*
X135871429Y-95254819D02*
X136204762Y-95254819D01*
X136204762Y-95254819D02*
X136300000Y-95302438D01*
X136300000Y-95302438D02*
X136347619Y-95350057D01*
X136347619Y-95350057D02*
X136395238Y-95445295D01*
X136395238Y-95445295D02*
X136395238Y-95540533D01*
X136395238Y-95540533D02*
X136347619Y-95635771D01*
X136347619Y-95635771D02*
X136300000Y-95683390D01*
X136300000Y-95683390D02*
X136204762Y-95731009D01*
X136204762Y-95731009D02*
X135871429Y-95731009D01*
X136776191Y-95254819D02*
X137014286Y-96254819D01*
X137014286Y-96254819D02*
X137204762Y-95540533D01*
X137204762Y-95540533D02*
X137395238Y-96254819D01*
X137395238Y-96254819D02*
X137633334Y-95254819D01*
X138014286Y-95873866D02*
X138776191Y-95873866D01*
X139776190Y-96254819D02*
X139204762Y-96254819D01*
X139490476Y-96254819D02*
X139490476Y-95254819D01*
X139490476Y-95254819D02*
X139395238Y-95397676D01*
X139395238Y-95397676D02*
X139300000Y-95492914D01*
X139300000Y-95492914D02*
X139204762Y-95540533D01*
X140109524Y-95254819D02*
X140347619Y-96254819D01*
X140347619Y-96254819D02*
X140538095Y-95540533D01*
X140538095Y-95540533D02*
X140728571Y-96254819D01*
X140728571Y-96254819D02*
X140966667Y-95254819D01*
X141347619Y-95873866D02*
X142109524Y-95873866D01*
X142442857Y-95254819D02*
X143014285Y-95254819D01*
X142728571Y-96254819D02*
X142728571Y-95254819D01*
X143871428Y-96254819D02*
X143300000Y-96254819D01*
X143585714Y-96254819D02*
X143585714Y-95254819D01*
X143585714Y-95254819D02*
X143490476Y-95397676D01*
X143490476Y-95397676D02*
X143395238Y-95492914D01*
X143395238Y-95492914D02*
X143300000Y-95540533D01*
X144490476Y-95254819D02*
X144585714Y-95254819D01*
X144585714Y-95254819D02*
X144680952Y-95302438D01*
X144680952Y-95302438D02*
X144728571Y-95350057D01*
X144728571Y-95350057D02*
X144776190Y-95445295D01*
X144776190Y-95445295D02*
X144823809Y-95635771D01*
X144823809Y-95635771D02*
X144823809Y-95873866D01*
X144823809Y-95873866D02*
X144776190Y-96064342D01*
X144776190Y-96064342D02*
X144728571Y-96159580D01*
X144728571Y-96159580D02*
X144680952Y-96207200D01*
X144680952Y-96207200D02*
X144585714Y-96254819D01*
X144585714Y-96254819D02*
X144490476Y-96254819D01*
X144490476Y-96254819D02*
X144395238Y-96207200D01*
X144395238Y-96207200D02*
X144347619Y-96159580D01*
X144347619Y-96159580D02*
X144300000Y-96064342D01*
X144300000Y-96064342D02*
X144252381Y-95873866D01*
X144252381Y-95873866D02*
X144252381Y-95635771D01*
X144252381Y-95635771D02*
X144300000Y-95445295D01*
X144300000Y-95445295D02*
X144347619Y-95350057D01*
X144347619Y-95350057D02*
X144395238Y-95302438D01*
X144395238Y-95302438D02*
X144490476Y-95254819D01*
X138171428Y-99359580D02*
X138123809Y-99407200D01*
X138123809Y-99407200D02*
X137980952Y-99454819D01*
X137980952Y-99454819D02*
X137885714Y-99454819D01*
X137885714Y-99454819D02*
X137742857Y-99407200D01*
X137742857Y-99407200D02*
X137647619Y-99311961D01*
X137647619Y-99311961D02*
X137600000Y-99216723D01*
X137600000Y-99216723D02*
X137552381Y-99026247D01*
X137552381Y-99026247D02*
X137552381Y-98883390D01*
X137552381Y-98883390D02*
X137600000Y-98692914D01*
X137600000Y-98692914D02*
X137647619Y-98597676D01*
X137647619Y-98597676D02*
X137742857Y-98502438D01*
X137742857Y-98502438D02*
X137885714Y-98454819D01*
X137885714Y-98454819D02*
X137980952Y-98454819D01*
X137980952Y-98454819D02*
X138123809Y-98502438D01*
X138123809Y-98502438D02*
X138171428Y-98550057D01*
X139171428Y-99359580D02*
X139123809Y-99407200D01*
X139123809Y-99407200D02*
X138980952Y-99454819D01*
X138980952Y-99454819D02*
X138885714Y-99454819D01*
X138885714Y-99454819D02*
X138742857Y-99407200D01*
X138742857Y-99407200D02*
X138647619Y-99311961D01*
X138647619Y-99311961D02*
X138600000Y-99216723D01*
X138600000Y-99216723D02*
X138552381Y-99026247D01*
X138552381Y-99026247D02*
X138552381Y-98883390D01*
X138552381Y-98883390D02*
X138600000Y-98692914D01*
X138600000Y-98692914D02*
X138647619Y-98597676D01*
X138647619Y-98597676D02*
X138742857Y-98502438D01*
X138742857Y-98502438D02*
X138885714Y-98454819D01*
X138885714Y-98454819D02*
X138980952Y-98454819D01*
X138980952Y-98454819D02*
X139123809Y-98502438D01*
X139123809Y-98502438D02*
X139171428Y-98550057D01*
X140695238Y-98931009D02*
X140838095Y-98978628D01*
X140838095Y-98978628D02*
X140885714Y-99026247D01*
X140885714Y-99026247D02*
X140933333Y-99121485D01*
X140933333Y-99121485D02*
X140933333Y-99264342D01*
X140933333Y-99264342D02*
X140885714Y-99359580D01*
X140885714Y-99359580D02*
X140838095Y-99407200D01*
X140838095Y-99407200D02*
X140742857Y-99454819D01*
X140742857Y-99454819D02*
X140361905Y-99454819D01*
X140361905Y-99454819D02*
X140361905Y-98454819D01*
X140361905Y-98454819D02*
X140695238Y-98454819D01*
X140695238Y-98454819D02*
X140790476Y-98502438D01*
X140790476Y-98502438D02*
X140838095Y-98550057D01*
X140838095Y-98550057D02*
X140885714Y-98645295D01*
X140885714Y-98645295D02*
X140885714Y-98740533D01*
X140885714Y-98740533D02*
X140838095Y-98835771D01*
X140838095Y-98835771D02*
X140790476Y-98883390D01*
X140790476Y-98883390D02*
X140695238Y-98931009D01*
X140695238Y-98931009D02*
X140361905Y-98931009D01*
X141552381Y-98978628D02*
X141552381Y-99454819D01*
X141219048Y-98454819D02*
X141552381Y-98978628D01*
X141552381Y-98978628D02*
X141885714Y-98454819D01*
X142219048Y-99073866D02*
X142980953Y-99073866D01*
X143457143Y-99454819D02*
X143457143Y-98454819D01*
X143457143Y-98454819D02*
X144028571Y-99454819D01*
X144028571Y-99454819D02*
X144028571Y-98454819D01*
X145076190Y-99359580D02*
X145028571Y-99407200D01*
X145028571Y-99407200D02*
X144885714Y-99454819D01*
X144885714Y-99454819D02*
X144790476Y-99454819D01*
X144790476Y-99454819D02*
X144647619Y-99407200D01*
X144647619Y-99407200D02*
X144552381Y-99311961D01*
X144552381Y-99311961D02*
X144504762Y-99216723D01*
X144504762Y-99216723D02*
X144457143Y-99026247D01*
X144457143Y-99026247D02*
X144457143Y-98883390D01*
X144457143Y-98883390D02*
X144504762Y-98692914D01*
X144504762Y-98692914D02*
X144552381Y-98597676D01*
X144552381Y-98597676D02*
X144647619Y-98502438D01*
X144647619Y-98502438D02*
X144790476Y-98454819D01*
X144790476Y-98454819D02*
X144885714Y-98454819D01*
X144885714Y-98454819D02*
X145028571Y-98502438D01*
X145028571Y-98502438D02*
X145076190Y-98550057D01*
X145504762Y-99073866D02*
X146266667Y-99073866D01*
X146695238Y-99407200D02*
X146838095Y-99454819D01*
X146838095Y-99454819D02*
X147076190Y-99454819D01*
X147076190Y-99454819D02*
X147171428Y-99407200D01*
X147171428Y-99407200D02*
X147219047Y-99359580D01*
X147219047Y-99359580D02*
X147266666Y-99264342D01*
X147266666Y-99264342D02*
X147266666Y-99169104D01*
X147266666Y-99169104D02*
X147219047Y-99073866D01*
X147219047Y-99073866D02*
X147171428Y-99026247D01*
X147171428Y-99026247D02*
X147076190Y-98978628D01*
X147076190Y-98978628D02*
X146885714Y-98931009D01*
X146885714Y-98931009D02*
X146790476Y-98883390D01*
X146790476Y-98883390D02*
X146742857Y-98835771D01*
X146742857Y-98835771D02*
X146695238Y-98740533D01*
X146695238Y-98740533D02*
X146695238Y-98645295D01*
X146695238Y-98645295D02*
X146742857Y-98550057D01*
X146742857Y-98550057D02*
X146790476Y-98502438D01*
X146790476Y-98502438D02*
X146885714Y-98454819D01*
X146885714Y-98454819D02*
X147123809Y-98454819D01*
X147123809Y-98454819D02*
X147266666Y-98502438D01*
X147647619Y-99169104D02*
X148123809Y-99169104D01*
X147552381Y-99454819D02*
X147885714Y-98454819D01*
X147885714Y-98454819D02*
X148219047Y-99454819D01*
X149219048Y-98454819D02*
X149838095Y-98454819D01*
X149838095Y-98454819D02*
X149504762Y-98835771D01*
X149504762Y-98835771D02*
X149647619Y-98835771D01*
X149647619Y-98835771D02*
X149742857Y-98883390D01*
X149742857Y-98883390D02*
X149790476Y-98931009D01*
X149790476Y-98931009D02*
X149838095Y-99026247D01*
X149838095Y-99026247D02*
X149838095Y-99264342D01*
X149838095Y-99264342D02*
X149790476Y-99359580D01*
X149790476Y-99359580D02*
X149742857Y-99407200D01*
X149742857Y-99407200D02*
X149647619Y-99454819D01*
X149647619Y-99454819D02*
X149361905Y-99454819D01*
X149361905Y-99454819D02*
X149266667Y-99407200D01*
X149266667Y-99407200D02*
X149219048Y-99359580D01*
X150266667Y-99359580D02*
X150314286Y-99407200D01*
X150314286Y-99407200D02*
X150266667Y-99454819D01*
X150266667Y-99454819D02*
X150219048Y-99407200D01*
X150219048Y-99407200D02*
X150266667Y-99359580D01*
X150266667Y-99359580D02*
X150266667Y-99454819D01*
X150933333Y-98454819D02*
X151028571Y-98454819D01*
X151028571Y-98454819D02*
X151123809Y-98502438D01*
X151123809Y-98502438D02*
X151171428Y-98550057D01*
X151171428Y-98550057D02*
X151219047Y-98645295D01*
X151219047Y-98645295D02*
X151266666Y-98835771D01*
X151266666Y-98835771D02*
X151266666Y-99073866D01*
X151266666Y-99073866D02*
X151219047Y-99264342D01*
X151219047Y-99264342D02*
X151171428Y-99359580D01*
X151171428Y-99359580D02*
X151123809Y-99407200D01*
X151123809Y-99407200D02*
X151028571Y-99454819D01*
X151028571Y-99454819D02*
X150933333Y-99454819D01*
X150933333Y-99454819D02*
X150838095Y-99407200D01*
X150838095Y-99407200D02*
X150790476Y-99359580D01*
X150790476Y-99359580D02*
X150742857Y-99264342D01*
X150742857Y-99264342D02*
X150695238Y-99073866D01*
X150695238Y-99073866D02*
X150695238Y-98835771D01*
X150695238Y-98835771D02*
X150742857Y-98645295D01*
X150742857Y-98645295D02*
X150790476Y-98550057D01*
X150790476Y-98550057D02*
X150838095Y-98502438D01*
X150838095Y-98502438D02*
X150933333Y-98454819D01*
X152409524Y-99169104D02*
X152885714Y-99169104D01*
X152314286Y-99454819D02*
X152647619Y-98454819D01*
X152647619Y-98454819D02*
X152980952Y-99454819D01*
X153171429Y-98454819D02*
X153742857Y-98454819D01*
X153457143Y-99454819D02*
X153457143Y-98454819D01*
X146404762Y-97854819D02*
X146404762Y-97188152D01*
X146404762Y-97283390D02*
X146452381Y-97235771D01*
X146452381Y-97235771D02*
X146547619Y-97188152D01*
X146547619Y-97188152D02*
X146690476Y-97188152D01*
X146690476Y-97188152D02*
X146785714Y-97235771D01*
X146785714Y-97235771D02*
X146833333Y-97331009D01*
X146833333Y-97331009D02*
X146833333Y-97854819D01*
X146833333Y-97331009D02*
X146880952Y-97235771D01*
X146880952Y-97235771D02*
X146976190Y-97188152D01*
X146976190Y-97188152D02*
X147119047Y-97188152D01*
X147119047Y-97188152D02*
X147214286Y-97235771D01*
X147214286Y-97235771D02*
X147261905Y-97331009D01*
X147261905Y-97331009D02*
X147261905Y-97854819D01*
X148166666Y-97854819D02*
X148166666Y-97331009D01*
X148166666Y-97331009D02*
X148119047Y-97235771D01*
X148119047Y-97235771D02*
X148023809Y-97188152D01*
X148023809Y-97188152D02*
X147833333Y-97188152D01*
X147833333Y-97188152D02*
X147738095Y-97235771D01*
X148166666Y-97807200D02*
X148071428Y-97854819D01*
X148071428Y-97854819D02*
X147833333Y-97854819D01*
X147833333Y-97854819D02*
X147738095Y-97807200D01*
X147738095Y-97807200D02*
X147690476Y-97711961D01*
X147690476Y-97711961D02*
X147690476Y-97616723D01*
X147690476Y-97616723D02*
X147738095Y-97521485D01*
X147738095Y-97521485D02*
X147833333Y-97473866D01*
X147833333Y-97473866D02*
X148071428Y-97473866D01*
X148071428Y-97473866D02*
X148166666Y-97426247D01*
X148547619Y-97854819D02*
X149071428Y-97188152D01*
X148547619Y-97188152D02*
X149071428Y-97854819D01*
X149357143Y-97854819D02*
X149880952Y-97188152D01*
X149357143Y-97188152D02*
X149880952Y-97854819D01*
X150166667Y-96854819D02*
X150785714Y-96854819D01*
X150785714Y-96854819D02*
X150452381Y-97235771D01*
X150452381Y-97235771D02*
X150595238Y-97235771D01*
X150595238Y-97235771D02*
X150690476Y-97283390D01*
X150690476Y-97283390D02*
X150738095Y-97331009D01*
X150738095Y-97331009D02*
X150785714Y-97426247D01*
X150785714Y-97426247D02*
X150785714Y-97664342D01*
X150785714Y-97664342D02*
X150738095Y-97759580D01*
X150738095Y-97759580D02*
X150690476Y-97807200D01*
X150690476Y-97807200D02*
X150595238Y-97854819D01*
X150595238Y-97854819D02*
X150309524Y-97854819D01*
X150309524Y-97854819D02*
X150214286Y-97807200D01*
X150214286Y-97807200D02*
X150166667Y-97759580D01*
X151738095Y-97854819D02*
X151166667Y-97854819D01*
X151452381Y-97854819D02*
X151452381Y-96854819D01*
X151452381Y-96854819D02*
X151357143Y-96997676D01*
X151357143Y-96997676D02*
X151261905Y-97092914D01*
X151261905Y-97092914D02*
X151166667Y-97140533D01*
X152357143Y-96854819D02*
X152452381Y-96854819D01*
X152452381Y-96854819D02*
X152547619Y-96902438D01*
X152547619Y-96902438D02*
X152595238Y-96950057D01*
X152595238Y-96950057D02*
X152642857Y-97045295D01*
X152642857Y-97045295D02*
X152690476Y-97235771D01*
X152690476Y-97235771D02*
X152690476Y-97473866D01*
X152690476Y-97473866D02*
X152642857Y-97664342D01*
X152642857Y-97664342D02*
X152595238Y-97759580D01*
X152595238Y-97759580D02*
X152547619Y-97807200D01*
X152547619Y-97807200D02*
X152452381Y-97854819D01*
X152452381Y-97854819D02*
X152357143Y-97854819D01*
X152357143Y-97854819D02*
X152261905Y-97807200D01*
X152261905Y-97807200D02*
X152214286Y-97759580D01*
X152214286Y-97759580D02*
X152166667Y-97664342D01*
X152166667Y-97664342D02*
X152119048Y-97473866D01*
X152119048Y-97473866D02*
X152119048Y-97235771D01*
X152119048Y-97235771D02*
X152166667Y-97045295D01*
X152166667Y-97045295D02*
X152214286Y-96950057D01*
X152214286Y-96950057D02*
X152261905Y-96902438D01*
X152261905Y-96902438D02*
X152357143Y-96854819D01*
X153595238Y-96854819D02*
X153119048Y-96854819D01*
X153119048Y-96854819D02*
X153071429Y-97331009D01*
X153071429Y-97331009D02*
X153119048Y-97283390D01*
X153119048Y-97283390D02*
X153214286Y-97235771D01*
X153214286Y-97235771D02*
X153452381Y-97235771D01*
X153452381Y-97235771D02*
X153547619Y-97283390D01*
X153547619Y-97283390D02*
X153595238Y-97331009D01*
X153595238Y-97331009D02*
X153642857Y-97426247D01*
X153642857Y-97426247D02*
X153642857Y-97664342D01*
X153642857Y-97664342D02*
X153595238Y-97759580D01*
X153595238Y-97759580D02*
X153547619Y-97807200D01*
X153547619Y-97807200D02*
X153452381Y-97854819D01*
X153452381Y-97854819D02*
X153214286Y-97854819D01*
X153214286Y-97854819D02*
X153119048Y-97807200D01*
X153119048Y-97807200D02*
X153071429Y-97759580D01*
X117985361Y-90500588D02*
X118072980Y-90325350D01*
X118072980Y-90325350D02*
X118072980Y-90062493D01*
X118072980Y-90062493D02*
X117985361Y-89799636D01*
X117985361Y-89799636D02*
X117810123Y-89624398D01*
X117810123Y-89624398D02*
X117634885Y-89536779D01*
X117634885Y-89536779D02*
X117284409Y-89449160D01*
X117284409Y-89449160D02*
X117021552Y-89449160D01*
X117021552Y-89449160D02*
X116671076Y-89536779D01*
X116671076Y-89536779D02*
X116495838Y-89624398D01*
X116495838Y-89624398D02*
X116320600Y-89799636D01*
X116320600Y-89799636D02*
X116232980Y-90062493D01*
X116232980Y-90062493D02*
X116232980Y-90237731D01*
X116232980Y-90237731D02*
X116320600Y-90500588D01*
X116320600Y-90500588D02*
X116408219Y-90588207D01*
X116408219Y-90588207D02*
X117021552Y-90588207D01*
X117021552Y-90588207D02*
X117021552Y-90237731D01*
X116232980Y-91376779D02*
X118072980Y-91376779D01*
X118072980Y-91376779D02*
X116232980Y-92428207D01*
X116232980Y-92428207D02*
X118072980Y-92428207D01*
X116232980Y-93304398D02*
X118072980Y-93304398D01*
X118072980Y-93304398D02*
X118072980Y-93742493D01*
X118072980Y-93742493D02*
X117985361Y-94005350D01*
X117985361Y-94005350D02*
X117810123Y-94180588D01*
X117810123Y-94180588D02*
X117634885Y-94268207D01*
X117634885Y-94268207D02*
X117284409Y-94355826D01*
X117284409Y-94355826D02*
X117021552Y-94355826D01*
X117021552Y-94355826D02*
X116671076Y-94268207D01*
X116671076Y-94268207D02*
X116495838Y-94180588D01*
X116495838Y-94180588D02*
X116320600Y-94005350D01*
X116320600Y-94005350D02*
X116232980Y-93742493D01*
X116232980Y-93742493D02*
X116232980Y-93304398D01*
X117196790Y-112650112D02*
X117109171Y-112912969D01*
X117109171Y-112912969D02*
X117021552Y-113000588D01*
X117021552Y-113000588D02*
X116846314Y-113088207D01*
X116846314Y-113088207D02*
X116583457Y-113088207D01*
X116583457Y-113088207D02*
X116408219Y-113000588D01*
X116408219Y-113000588D02*
X116320600Y-112912969D01*
X116320600Y-112912969D02*
X116232980Y-112737731D01*
X116232980Y-112737731D02*
X116232980Y-112036779D01*
X116232980Y-112036779D02*
X118072980Y-112036779D01*
X118072980Y-112036779D02*
X118072980Y-112650112D01*
X118072980Y-112650112D02*
X117985361Y-112825350D01*
X117985361Y-112825350D02*
X117897742Y-112912969D01*
X117897742Y-112912969D02*
X117722504Y-113000588D01*
X117722504Y-113000588D02*
X117547266Y-113000588D01*
X117547266Y-113000588D02*
X117372028Y-112912969D01*
X117372028Y-112912969D02*
X117284409Y-112825350D01*
X117284409Y-112825350D02*
X117196790Y-112650112D01*
X117196790Y-112650112D02*
X117196790Y-112036779D01*
X116758695Y-117449160D02*
X116758695Y-118325350D01*
X116232980Y-117273922D02*
X118072980Y-117887255D01*
X118072980Y-117887255D02*
X116232980Y-118500588D01*
X117907742Y-95859160D02*
X117995361Y-95946779D01*
X117995361Y-95946779D02*
X118082980Y-96122017D01*
X118082980Y-96122017D02*
X118082980Y-96560112D01*
X118082980Y-96560112D02*
X117995361Y-96735350D01*
X117995361Y-96735350D02*
X117907742Y-96822969D01*
X117907742Y-96822969D02*
X117732504Y-96910588D01*
X117732504Y-96910588D02*
X117557266Y-96910588D01*
X117557266Y-96910588D02*
X117294409Y-96822969D01*
X117294409Y-96822969D02*
X116242980Y-95771541D01*
X116242980Y-95771541D02*
X116242980Y-96910588D01*
X117469647Y-98487731D02*
X116242980Y-98487731D01*
X118170600Y-98049636D02*
X116856314Y-97611541D01*
X116856314Y-97611541D02*
X116856314Y-98750588D01*
X118082980Y-99188684D02*
X116242980Y-99802017D01*
X116242980Y-99802017D02*
X118082980Y-100415350D01*
X135309580Y-99611554D02*
X135357200Y-99659173D01*
X135357200Y-99659173D02*
X135404819Y-99802030D01*
X135404819Y-99802030D02*
X135404819Y-99897268D01*
X135404819Y-99897268D02*
X135357200Y-100040125D01*
X135357200Y-100040125D02*
X135261961Y-100135363D01*
X135261961Y-100135363D02*
X135166723Y-100182982D01*
X135166723Y-100182982D02*
X134976247Y-100230601D01*
X134976247Y-100230601D02*
X134833390Y-100230601D01*
X134833390Y-100230601D02*
X134642914Y-100182982D01*
X134642914Y-100182982D02*
X134547676Y-100135363D01*
X134547676Y-100135363D02*
X134452438Y-100040125D01*
X134452438Y-100040125D02*
X134404819Y-99897268D01*
X134404819Y-99897268D02*
X134404819Y-99802030D01*
X134404819Y-99802030D02*
X134452438Y-99659173D01*
X134452438Y-99659173D02*
X134500057Y-99611554D01*
X134404819Y-98754411D02*
X134404819Y-98944887D01*
X134404819Y-98944887D02*
X134452438Y-99040125D01*
X134452438Y-99040125D02*
X134500057Y-99087744D01*
X134500057Y-99087744D02*
X134642914Y-99182982D01*
X134642914Y-99182982D02*
X134833390Y-99230601D01*
X134833390Y-99230601D02*
X135214342Y-99230601D01*
X135214342Y-99230601D02*
X135309580Y-99182982D01*
X135309580Y-99182982D02*
X135357200Y-99135363D01*
X135357200Y-99135363D02*
X135404819Y-99040125D01*
X135404819Y-99040125D02*
X135404819Y-98849649D01*
X135404819Y-98849649D02*
X135357200Y-98754411D01*
X135357200Y-98754411D02*
X135309580Y-98706792D01*
X135309580Y-98706792D02*
X135214342Y-98659173D01*
X135214342Y-98659173D02*
X134976247Y-98659173D01*
X134976247Y-98659173D02*
X134881009Y-98706792D01*
X134881009Y-98706792D02*
X134833390Y-98754411D01*
X134833390Y-98754411D02*
X134785771Y-98849649D01*
X134785771Y-98849649D02*
X134785771Y-99040125D01*
X134785771Y-99040125D02*
X134833390Y-99135363D01*
X134833390Y-99135363D02*
X134881009Y-99182982D01*
X134881009Y-99182982D02*
X134976247Y-99230601D01*
X125609580Y-109611554D02*
X125657200Y-109659173D01*
X125657200Y-109659173D02*
X125704819Y-109802030D01*
X125704819Y-109802030D02*
X125704819Y-109897268D01*
X125704819Y-109897268D02*
X125657200Y-110040125D01*
X125657200Y-110040125D02*
X125561961Y-110135363D01*
X125561961Y-110135363D02*
X125466723Y-110182982D01*
X125466723Y-110182982D02*
X125276247Y-110230601D01*
X125276247Y-110230601D02*
X125133390Y-110230601D01*
X125133390Y-110230601D02*
X124942914Y-110182982D01*
X124942914Y-110182982D02*
X124847676Y-110135363D01*
X124847676Y-110135363D02*
X124752438Y-110040125D01*
X124752438Y-110040125D02*
X124704819Y-109897268D01*
X124704819Y-109897268D02*
X124704819Y-109802030D01*
X124704819Y-109802030D02*
X124752438Y-109659173D01*
X124752438Y-109659173D02*
X124800057Y-109611554D01*
X125704819Y-109135363D02*
X125704819Y-108944887D01*
X125704819Y-108944887D02*
X125657200Y-108849649D01*
X125657200Y-108849649D02*
X125609580Y-108802030D01*
X125609580Y-108802030D02*
X125466723Y-108706792D01*
X125466723Y-108706792D02*
X125276247Y-108659173D01*
X125276247Y-108659173D02*
X124895295Y-108659173D01*
X124895295Y-108659173D02*
X124800057Y-108706792D01*
X124800057Y-108706792D02*
X124752438Y-108754411D01*
X124752438Y-108754411D02*
X124704819Y-108849649D01*
X124704819Y-108849649D02*
X124704819Y-109040125D01*
X124704819Y-109040125D02*
X124752438Y-109135363D01*
X124752438Y-109135363D02*
X124800057Y-109182982D01*
X124800057Y-109182982D02*
X124895295Y-109230601D01*
X124895295Y-109230601D02*
X125133390Y-109230601D01*
X125133390Y-109230601D02*
X125228628Y-109182982D01*
X125228628Y-109182982D02*
X125276247Y-109135363D01*
X125276247Y-109135363D02*
X125323866Y-109040125D01*
X125323866Y-109040125D02*
X125323866Y-108849649D01*
X125323866Y-108849649D02*
X125276247Y-108754411D01*
X125276247Y-108754411D02*
X125228628Y-108706792D01*
X125228628Y-108706792D02*
X125133390Y-108659173D01*
%TO.C,J3*%
D11*
X138290000Y-118330000D02*
X138290000Y-117000000D01*
X139620000Y-118330000D02*
X138290000Y-118330000D01*
X140890000Y-115670000D02*
X158730000Y-115670000D01*
X140890000Y-118330000D02*
X140890000Y-115670000D01*
X140890000Y-118330000D02*
X158730000Y-118330000D01*
X158730000Y-118330000D02*
X158730000Y-115670000D01*
%TO.C,J5*%
X107440000Y-110130000D02*
X107440000Y-120290000D01*
X107440000Y-120290000D02*
X115060000Y-120290000D01*
X113790000Y-110130000D02*
X113790000Y-120290000D01*
X115060000Y-110130000D02*
X107440000Y-110130000D01*
X115060000Y-120290000D02*
X115060000Y-110130000D01*
%TO.C,C6*%
X130160000Y-99684888D02*
X128631000Y-99684888D01*
X130160000Y-99724888D02*
X128635000Y-99724888D01*
X130160000Y-99764888D02*
X128639000Y-99764888D01*
X130160000Y-99804888D02*
X128644000Y-99804888D01*
X130160000Y-99844888D02*
X128650000Y-99844888D01*
X130160000Y-99884888D02*
X128657000Y-99884888D01*
X130160000Y-99924888D02*
X128664000Y-99924888D01*
X130160000Y-99964888D02*
X128672000Y-99964888D01*
X130160000Y-100004888D02*
X128680000Y-100004888D01*
X130160000Y-100044888D02*
X128689000Y-100044888D01*
X130160000Y-100084888D02*
X128699000Y-100084888D01*
X130160000Y-100124888D02*
X128709000Y-100124888D01*
X130160000Y-100165888D02*
X128720000Y-100165888D01*
X130160000Y-100205888D02*
X128732000Y-100205888D01*
X130160000Y-100245888D02*
X128745000Y-100245888D01*
X130160000Y-100285888D02*
X128758000Y-100285888D01*
X130160000Y-100325888D02*
X128772000Y-100325888D01*
X130160000Y-100365888D02*
X128786000Y-100365888D01*
X130160000Y-100405888D02*
X128802000Y-100405888D01*
X130160000Y-100445888D02*
X128818000Y-100445888D01*
X130160000Y-100485888D02*
X128835000Y-100485888D01*
X130160000Y-100525888D02*
X128852000Y-100525888D01*
X130160000Y-100565888D02*
X128871000Y-100565888D01*
X130160000Y-100605888D02*
X128890000Y-100605888D01*
X130160000Y-100645888D02*
X128910000Y-100645888D01*
X130160000Y-100685888D02*
X128932000Y-100685888D01*
X130160000Y-100725888D02*
X128953000Y-100725888D01*
X130160000Y-100765888D02*
X128976000Y-100765888D01*
X130160000Y-100805888D02*
X129000000Y-100805888D01*
X130160000Y-100845888D02*
X129025000Y-100845888D01*
X130160000Y-100885888D02*
X129051000Y-100885888D01*
X130160000Y-100925888D02*
X129078000Y-100925888D01*
X130160000Y-100965888D02*
X129105000Y-100965888D01*
X130160000Y-101005888D02*
X129135000Y-101005888D01*
X130160000Y-101045888D02*
X129165000Y-101045888D01*
X130160000Y-101085888D02*
X129196000Y-101085888D01*
X130160000Y-101125888D02*
X129229000Y-101125888D01*
X130160000Y-101165888D02*
X129263000Y-101165888D01*
X130160000Y-101205888D02*
X129299000Y-101205888D01*
X130160000Y-101245888D02*
X129336000Y-101245888D01*
X130160000Y-101285888D02*
X129374000Y-101285888D01*
X130160000Y-101325888D02*
X129415000Y-101325888D01*
X130160000Y-101365888D02*
X129457000Y-101365888D01*
X130160000Y-101405888D02*
X129501000Y-101405888D01*
X130160000Y-101445888D02*
X129547000Y-101445888D01*
X130160000Y-101485888D02*
X129595000Y-101485888D01*
X130160000Y-101525888D02*
X129646000Y-101525888D01*
X130160000Y-101565888D02*
X129700000Y-101565888D01*
X130160000Y-101605888D02*
X129757000Y-101605888D01*
X130160000Y-101645888D02*
X129817000Y-101645888D01*
X130160000Y-101685888D02*
X129881000Y-101685888D01*
X130160000Y-101725888D02*
X129949000Y-101725888D01*
X131484000Y-102045888D02*
X130916000Y-102045888D01*
X131718000Y-102005888D02*
X130682000Y-102005888D01*
X131877000Y-101965888D02*
X130523000Y-101965888D01*
X132005000Y-101925888D02*
X130395000Y-101925888D01*
X132115000Y-101885888D02*
X130285000Y-101885888D01*
X132211000Y-101845888D02*
X130189000Y-101845888D01*
X132298000Y-101805888D02*
X130102000Y-101805888D01*
X132378000Y-101765888D02*
X130022000Y-101765888D01*
X132451000Y-101725888D02*
X132240000Y-101725888D01*
X132519000Y-101685888D02*
X132240000Y-101685888D01*
X132583000Y-101645888D02*
X132240000Y-101645888D01*
X132643000Y-101605888D02*
X132240000Y-101605888D01*
X132675000Y-96640113D02*
X132675000Y-97140113D01*
X132700000Y-101565888D02*
X132240000Y-101565888D01*
X132754000Y-101525888D02*
X132240000Y-101525888D01*
X132805000Y-101485888D02*
X132240000Y-101485888D01*
X132853000Y-101445888D02*
X132240000Y-101445888D01*
X132899000Y-101405888D02*
X132240000Y-101405888D01*
X132925000Y-96890113D02*
X132425000Y-96890113D01*
X132943000Y-101365888D02*
X132240000Y-101365888D01*
X132985000Y-101325888D02*
X132240000Y-101325888D01*
X133026000Y-101285888D02*
X132240000Y-101285888D01*
X133064000Y-101245888D02*
X132240000Y-101245888D01*
X133101000Y-101205888D02*
X132240000Y-101205888D01*
X133137000Y-101165888D02*
X132240000Y-101165888D01*
X133171000Y-101125888D02*
X132240000Y-101125888D01*
X133204000Y-101085888D02*
X132240000Y-101085888D01*
X133235000Y-101045888D02*
X132240000Y-101045888D01*
X133265000Y-101005888D02*
X132240000Y-101005888D01*
X133295000Y-100965888D02*
X132240000Y-100965888D01*
X133322000Y-100925888D02*
X132240000Y-100925888D01*
X133349000Y-100885888D02*
X132240000Y-100885888D01*
X133375000Y-100845888D02*
X132240000Y-100845888D01*
X133400000Y-100805888D02*
X132240000Y-100805888D01*
X133424000Y-100765888D02*
X132240000Y-100765888D01*
X133447000Y-100725888D02*
X132240000Y-100725888D01*
X133468000Y-100685888D02*
X132240000Y-100685888D01*
X133490000Y-100645888D02*
X132240000Y-100645888D01*
X133510000Y-100605888D02*
X132240000Y-100605888D01*
X133529000Y-100565888D02*
X132240000Y-100565888D01*
X133548000Y-100525888D02*
X132240000Y-100525888D01*
X133565000Y-100485888D02*
X132240000Y-100485888D01*
X133582000Y-100445888D02*
X132240000Y-100445888D01*
X133598000Y-100405888D02*
X132240000Y-100405888D01*
X133614000Y-100365888D02*
X132240000Y-100365888D01*
X133628000Y-100325888D02*
X132240000Y-100325888D01*
X133642000Y-100285888D02*
X132240000Y-100285888D01*
X133655000Y-100245888D02*
X132240000Y-100245888D01*
X133668000Y-100205888D02*
X132240000Y-100205888D01*
X133680000Y-100165888D02*
X132240000Y-100165888D01*
X133691000Y-100124888D02*
X132240000Y-100124888D01*
X133701000Y-100084888D02*
X132240000Y-100084888D01*
X133711000Y-100044888D02*
X132240000Y-100044888D01*
X133720000Y-100004888D02*
X132240000Y-100004888D01*
X133728000Y-99964888D02*
X132240000Y-99964888D01*
X133736000Y-99924888D02*
X132240000Y-99924888D01*
X133743000Y-99884888D02*
X132240000Y-99884888D01*
X133750000Y-99844888D02*
X132240000Y-99844888D01*
X133756000Y-99804888D02*
X132240000Y-99804888D01*
X133761000Y-99764888D02*
X132240000Y-99764888D01*
X133765000Y-99724888D02*
X132240000Y-99724888D01*
X133769000Y-99684888D02*
X132240000Y-99684888D01*
X133773000Y-99644888D02*
X128627000Y-99644888D01*
X133776000Y-99604888D02*
X128624000Y-99604888D01*
X133778000Y-99564888D02*
X128622000Y-99564888D01*
X133779000Y-99524888D02*
X128621000Y-99524888D01*
X133780000Y-99444888D02*
X128620000Y-99444888D01*
X133780000Y-99484888D02*
X128620000Y-99484888D01*
X133820000Y-99444888D02*
G75*
G02*
X128580000Y-99444888I-2620000J0D01*
G01*
X128580000Y-99444888D02*
G75*
G02*
X133820000Y-99444888I2620000J0D01*
G01*
%TO.C,J4*%
X107440000Y-89710000D02*
X107440000Y-99870000D01*
X107440000Y-99870000D02*
X115060000Y-99870000D01*
X113790000Y-89710000D02*
X113790000Y-99870000D01*
X115060000Y-89710000D02*
X107440000Y-89710000D01*
X115060000Y-99870000D02*
X115060000Y-89710000D01*
%TO.C,C9*%
X120460000Y-109684888D02*
X118931000Y-109684888D01*
X120460000Y-109724888D02*
X118935000Y-109724888D01*
X120460000Y-109764888D02*
X118939000Y-109764888D01*
X120460000Y-109804888D02*
X118944000Y-109804888D01*
X120460000Y-109844888D02*
X118950000Y-109844888D01*
X120460000Y-109884888D02*
X118957000Y-109884888D01*
X120460000Y-109924888D02*
X118964000Y-109924888D01*
X120460000Y-109964888D02*
X118972000Y-109964888D01*
X120460000Y-110004888D02*
X118980000Y-110004888D01*
X120460000Y-110044888D02*
X118989000Y-110044888D01*
X120460000Y-110084888D02*
X118999000Y-110084888D01*
X120460000Y-110124888D02*
X119009000Y-110124888D01*
X120460000Y-110165888D02*
X119020000Y-110165888D01*
X120460000Y-110205888D02*
X119032000Y-110205888D01*
X120460000Y-110245888D02*
X119045000Y-110245888D01*
X120460000Y-110285888D02*
X119058000Y-110285888D01*
X120460000Y-110325888D02*
X119072000Y-110325888D01*
X120460000Y-110365888D02*
X119086000Y-110365888D01*
X120460000Y-110405888D02*
X119102000Y-110405888D01*
X120460000Y-110445888D02*
X119118000Y-110445888D01*
X120460000Y-110485888D02*
X119135000Y-110485888D01*
X120460000Y-110525888D02*
X119152000Y-110525888D01*
X120460000Y-110565888D02*
X119171000Y-110565888D01*
X120460000Y-110605888D02*
X119190000Y-110605888D01*
X120460000Y-110645888D02*
X119210000Y-110645888D01*
X120460000Y-110685888D02*
X119232000Y-110685888D01*
X120460000Y-110725888D02*
X119253000Y-110725888D01*
X120460000Y-110765888D02*
X119276000Y-110765888D01*
X120460000Y-110805888D02*
X119300000Y-110805888D01*
X120460000Y-110845888D02*
X119325000Y-110845888D01*
X120460000Y-110885888D02*
X119351000Y-110885888D01*
X120460000Y-110925888D02*
X119378000Y-110925888D01*
X120460000Y-110965888D02*
X119405000Y-110965888D01*
X120460000Y-111005888D02*
X119435000Y-111005888D01*
X120460000Y-111045888D02*
X119465000Y-111045888D01*
X120460000Y-111085888D02*
X119496000Y-111085888D01*
X120460000Y-111125888D02*
X119529000Y-111125888D01*
X120460000Y-111165888D02*
X119563000Y-111165888D01*
X120460000Y-111205888D02*
X119599000Y-111205888D01*
X120460000Y-111245888D02*
X119636000Y-111245888D01*
X120460000Y-111285888D02*
X119674000Y-111285888D01*
X120460000Y-111325888D02*
X119715000Y-111325888D01*
X120460000Y-111365888D02*
X119757000Y-111365888D01*
X120460000Y-111405888D02*
X119801000Y-111405888D01*
X120460000Y-111445888D02*
X119847000Y-111445888D01*
X120460000Y-111485888D02*
X119895000Y-111485888D01*
X120460000Y-111525888D02*
X119946000Y-111525888D01*
X120460000Y-111565888D02*
X120000000Y-111565888D01*
X120460000Y-111605888D02*
X120057000Y-111605888D01*
X120460000Y-111645888D02*
X120117000Y-111645888D01*
X120460000Y-111685888D02*
X120181000Y-111685888D01*
X120460000Y-111725888D02*
X120249000Y-111725888D01*
X121784000Y-112045888D02*
X121216000Y-112045888D01*
X122018000Y-112005888D02*
X120982000Y-112005888D01*
X122177000Y-111965888D02*
X120823000Y-111965888D01*
X122305000Y-111925888D02*
X120695000Y-111925888D01*
X122415000Y-111885888D02*
X120585000Y-111885888D01*
X122511000Y-111845888D02*
X120489000Y-111845888D01*
X122598000Y-111805888D02*
X120402000Y-111805888D01*
X122678000Y-111765888D02*
X120322000Y-111765888D01*
X122751000Y-111725888D02*
X122540000Y-111725888D01*
X122819000Y-111685888D02*
X122540000Y-111685888D01*
X122883000Y-111645888D02*
X122540000Y-111645888D01*
X122943000Y-111605888D02*
X122540000Y-111605888D01*
X122975000Y-106640113D02*
X122975000Y-107140113D01*
X123000000Y-111565888D02*
X122540000Y-111565888D01*
X123054000Y-111525888D02*
X122540000Y-111525888D01*
X123105000Y-111485888D02*
X122540000Y-111485888D01*
X123153000Y-111445888D02*
X122540000Y-111445888D01*
X123199000Y-111405888D02*
X122540000Y-111405888D01*
X123225000Y-106890113D02*
X122725000Y-106890113D01*
X123243000Y-111365888D02*
X122540000Y-111365888D01*
X123285000Y-111325888D02*
X122540000Y-111325888D01*
X123326000Y-111285888D02*
X122540000Y-111285888D01*
X123364000Y-111245888D02*
X122540000Y-111245888D01*
X123401000Y-111205888D02*
X122540000Y-111205888D01*
X123437000Y-111165888D02*
X122540000Y-111165888D01*
X123471000Y-111125888D02*
X122540000Y-111125888D01*
X123504000Y-111085888D02*
X122540000Y-111085888D01*
X123535000Y-111045888D02*
X122540000Y-111045888D01*
X123565000Y-111005888D02*
X122540000Y-111005888D01*
X123595000Y-110965888D02*
X122540000Y-110965888D01*
X123622000Y-110925888D02*
X122540000Y-110925888D01*
X123649000Y-110885888D02*
X122540000Y-110885888D01*
X123675000Y-110845888D02*
X122540000Y-110845888D01*
X123700000Y-110805888D02*
X122540000Y-110805888D01*
X123724000Y-110765888D02*
X122540000Y-110765888D01*
X123747000Y-110725888D02*
X122540000Y-110725888D01*
X123768000Y-110685888D02*
X122540000Y-110685888D01*
X123790000Y-110645888D02*
X122540000Y-110645888D01*
X123810000Y-110605888D02*
X122540000Y-110605888D01*
X123829000Y-110565888D02*
X122540000Y-110565888D01*
X123848000Y-110525888D02*
X122540000Y-110525888D01*
X123865000Y-110485888D02*
X122540000Y-110485888D01*
X123882000Y-110445888D02*
X122540000Y-110445888D01*
X123898000Y-110405888D02*
X122540000Y-110405888D01*
X123914000Y-110365888D02*
X122540000Y-110365888D01*
X123928000Y-110325888D02*
X122540000Y-110325888D01*
X123942000Y-110285888D02*
X122540000Y-110285888D01*
X123955000Y-110245888D02*
X122540000Y-110245888D01*
X123968000Y-110205888D02*
X122540000Y-110205888D01*
X123980000Y-110165888D02*
X122540000Y-110165888D01*
X123991000Y-110124888D02*
X122540000Y-110124888D01*
X124001000Y-110084888D02*
X122540000Y-110084888D01*
X124011000Y-110044888D02*
X122540000Y-110044888D01*
X124020000Y-110004888D02*
X122540000Y-110004888D01*
X124028000Y-109964888D02*
X122540000Y-109964888D01*
X124036000Y-109924888D02*
X122540000Y-109924888D01*
X124043000Y-109884888D02*
X122540000Y-109884888D01*
X124050000Y-109844888D02*
X122540000Y-109844888D01*
X124056000Y-109804888D02*
X122540000Y-109804888D01*
X124061000Y-109764888D02*
X122540000Y-109764888D01*
X124065000Y-109724888D02*
X122540000Y-109724888D01*
X124069000Y-109684888D02*
X122540000Y-109684888D01*
X124073000Y-109644888D02*
X118927000Y-109644888D01*
X124076000Y-109604888D02*
X118924000Y-109604888D01*
X124078000Y-109564888D02*
X118922000Y-109564888D01*
X124079000Y-109524888D02*
X118921000Y-109524888D01*
X124080000Y-109444888D02*
X118920000Y-109444888D01*
X124080000Y-109484888D02*
X118920000Y-109484888D01*
X124120000Y-109444888D02*
G75*
G02*
X118880000Y-109444888I-2620000J0D01*
G01*
X118880000Y-109444888D02*
G75*
G02*
X124120000Y-109444888I2620000J0D01*
G01*
%TO.C,J1*%
X138300000Y-94330000D02*
X138300000Y-93000000D01*
X139630000Y-94330000D02*
X138300000Y-94330000D01*
X140900000Y-91670000D02*
X158740000Y-91670000D01*
X140900000Y-94330000D02*
X140900000Y-91670000D01*
X140900000Y-94330000D02*
X158740000Y-94330000D01*
X158740000Y-94330000D02*
X158740000Y-91670000D01*
%TO.C,J2*%
X181990000Y-89760000D02*
X181990000Y-120240000D01*
X181990000Y-120240000D02*
X189610000Y-120240000D01*
X183260000Y-89760000D02*
X183260000Y-120240000D01*
X189610000Y-89760000D02*
X181990000Y-89760000D01*
X189610000Y-89760000D02*
X189610000Y-120240000D01*
%TD*%
M02*
