M48
; DRILL file {KiCad (6.0.9)} date Fri Mar  1 18:18:31 2024
; FORMAT={-:-/ absolute / inch / decimal}
; #@! TF.CreationDate,2024-03-01T18:18:31+01:00
; #@! TF.GenerationSoftware,Kicad,Pcbnew,(6.0.9)
; #@! TF.FileFunction,Plated,1,2,PTH
FMAT,2
INCH
; #@! TA.AperFunction,Plated,PTH,ViaDrill
T1C0.0236
; #@! TA.AperFunction,Plated,PTH,ComponentDrill
T2C0.0394
; #@! TA.AperFunction,Plated,PTH,ComponentDrill
T3C0.0598
%
G90
G05
T1
X5.0Y-3.7697
X5.2362Y-3.7697
T2
X5.497Y-3.6614
X5.497Y-4.6063
X5.597Y-3.6614
X5.597Y-4.6063
X5.697Y-3.6614
X5.697Y-4.6063
X5.797Y-3.6614
X5.797Y-4.6063
X5.897Y-3.6614
X5.897Y-4.6063
X5.997Y-3.6614
X5.997Y-4.6063
X6.097Y-3.6614
X6.097Y-4.6063
X6.197Y-3.6614
X6.197Y-4.6063
T3
X4.3799Y-3.6319
X4.3799Y-3.8319
X4.3799Y-4.4358
X4.3799Y-4.6358
X7.315Y-3.6339
X7.315Y-3.8339
X7.315Y-4.0339
X7.315Y-4.2339
X7.315Y-4.4339
X7.315Y-4.6339
T0
M30
