%TF.GenerationSoftware,KiCad,Pcbnew,(6.0.9)*%
%TF.CreationDate,2024-03-01T18:18:27+01:00*%
%TF.ProjectId,HBW-1W-T10-Platine1,4842572d-3157-42d5-9431-302d506c6174,rev?*%
%TF.SameCoordinates,Original*%
%TF.FileFunction,Legend,Top*%
%TF.FilePolarity,Positive*%
%FSLAX46Y46*%
G04 Gerber Fmt 4.6, Leading zero omitted, Abs format (unit mm)*
G04 Created by KiCad (PCBNEW (6.0.9)) date 2024-03-01 18:18:27*
%MOMM*%
%LPD*%
G01*
G04 APERTURE LIST*
%ADD10C,0.160000*%
%ADD11C,0.150000*%
%ADD12C,0.254000*%
%ADD13C,0.120000*%
%ADD14C,0.200000*%
G04 APERTURE END LIST*
D10*
X176715104Y-116524000D02*
X176539866Y-116436380D01*
X176277009Y-116436380D01*
X176014152Y-116524000D01*
X175838914Y-116699238D01*
X175751295Y-116874476D01*
X175663676Y-117224952D01*
X175663676Y-117487809D01*
X175751295Y-117838285D01*
X175838914Y-118013523D01*
X176014152Y-118188761D01*
X176277009Y-118276380D01*
X176452247Y-118276380D01*
X176715104Y-118188761D01*
X176802723Y-118101142D01*
X176802723Y-117487809D01*
X176452247Y-117487809D01*
X177591295Y-118276380D02*
X177591295Y-116436380D01*
X178642723Y-118276380D01*
X178642723Y-116436380D01*
X179518914Y-118276380D02*
X179518914Y-116436380D01*
X179957009Y-116436380D01*
X180219866Y-116524000D01*
X180395104Y-116699238D01*
X180482723Y-116874476D01*
X180570342Y-117224952D01*
X180570342Y-117487809D01*
X180482723Y-117838285D01*
X180395104Y-118013523D01*
X180219866Y-118188761D01*
X179957009Y-118276380D01*
X179518914Y-118276380D01*
D11*
X117252380Y-95397976D02*
X117340000Y-95485595D01*
X117427619Y-95660833D01*
X117427619Y-96098928D01*
X117340000Y-96274166D01*
X117252380Y-96361785D01*
X117077142Y-96449404D01*
X116901904Y-96449404D01*
X116639047Y-96361785D01*
X115587619Y-95310357D01*
X115587619Y-96449404D01*
X116814285Y-98026547D02*
X115587619Y-98026547D01*
X117515238Y-97588452D02*
X116200952Y-97150357D01*
X116200952Y-98289404D01*
X117427619Y-98727500D02*
X115587619Y-99340833D01*
X117427619Y-99954166D01*
X116551428Y-112898928D02*
X116463809Y-113161785D01*
X116376190Y-113249404D01*
X116200952Y-113337023D01*
X115938095Y-113337023D01*
X115762857Y-113249404D01*
X115675238Y-113161785D01*
X115587619Y-112986547D01*
X115587619Y-112285595D01*
X117427619Y-112285595D01*
X117427619Y-112898928D01*
X117340000Y-113074166D01*
X117252380Y-113161785D01*
X117077142Y-113249404D01*
X116901904Y-113249404D01*
X116726666Y-113161785D01*
X116639047Y-113074166D01*
X116551428Y-112898928D01*
X116551428Y-112285595D01*
X139035595Y-114412380D02*
X139035595Y-112572380D01*
X139035595Y-113448571D02*
X140087023Y-113448571D01*
X140087023Y-114412380D02*
X140087023Y-112572380D01*
X141576547Y-113448571D02*
X141839404Y-113536190D01*
X141927023Y-113623809D01*
X142014642Y-113799047D01*
X142014642Y-114061904D01*
X141927023Y-114237142D01*
X141839404Y-114324761D01*
X141664166Y-114412380D01*
X140963214Y-114412380D01*
X140963214Y-112572380D01*
X141576547Y-112572380D01*
X141751785Y-112660000D01*
X141839404Y-112747619D01*
X141927023Y-112922857D01*
X141927023Y-113098095D01*
X141839404Y-113273333D01*
X141751785Y-113360952D01*
X141576547Y-113448571D01*
X140963214Y-113448571D01*
X142627976Y-112572380D02*
X143066071Y-114412380D01*
X143416547Y-113098095D01*
X143767023Y-114412380D01*
X144205119Y-112572380D01*
X144906071Y-113711428D02*
X146307976Y-113711428D01*
X148147976Y-114412380D02*
X147096547Y-114412380D01*
X147622261Y-114412380D02*
X147622261Y-112572380D01*
X147447023Y-112835238D01*
X147271785Y-113010476D01*
X147096547Y-113098095D01*
X148761309Y-112572380D02*
X149199404Y-114412380D01*
X149549880Y-113098095D01*
X149900357Y-114412380D01*
X150338452Y-112572380D01*
X151039404Y-113711428D02*
X152441309Y-113711428D01*
X153054642Y-112572380D02*
X154106071Y-112572380D01*
X153580357Y-114412380D02*
X153580357Y-112572380D01*
X155683214Y-114412380D02*
X154631785Y-114412380D01*
X155157500Y-114412380D02*
X155157500Y-112572380D01*
X154982261Y-112835238D01*
X154807023Y-113010476D01*
X154631785Y-113098095D01*
X156822261Y-112572380D02*
X156997500Y-112572380D01*
X157172738Y-112660000D01*
X157260357Y-112747619D01*
X157347976Y-112922857D01*
X157435595Y-113273333D01*
X157435595Y-113711428D01*
X157347976Y-114061904D01*
X157260357Y-114237142D01*
X157172738Y-114324761D01*
X156997500Y-114412380D01*
X156822261Y-114412380D01*
X156647023Y-114324761D01*
X156559404Y-114237142D01*
X156471785Y-114061904D01*
X156384166Y-113711428D01*
X156384166Y-113273333D01*
X156471785Y-112922857D01*
X156559404Y-112747619D01*
X156647023Y-112660000D01*
X156822261Y-112572380D01*
D10*
X175844038Y-106530380D02*
X176457371Y-108370380D01*
X177070704Y-106530380D01*
X178735466Y-108195142D02*
X178647847Y-108282761D01*
X178384990Y-108370380D01*
X178209752Y-108370380D01*
X177946895Y-108282761D01*
X177771657Y-108107523D01*
X177684038Y-107932285D01*
X177596419Y-107581809D01*
X177596419Y-107318952D01*
X177684038Y-106968476D01*
X177771657Y-106793238D01*
X177946895Y-106618000D01*
X178209752Y-106530380D01*
X178384990Y-106530380D01*
X178647847Y-106618000D01*
X178735466Y-106705619D01*
X180575466Y-108195142D02*
X180487847Y-108282761D01*
X180224990Y-108370380D01*
X180049752Y-108370380D01*
X179786895Y-108282761D01*
X179611657Y-108107523D01*
X179524038Y-107932285D01*
X179436419Y-107581809D01*
X179436419Y-107318952D01*
X179524038Y-106968476D01*
X179611657Y-106793238D01*
X179786895Y-106618000D01*
X180049752Y-106530380D01*
X180224990Y-106530380D01*
X180487847Y-106618000D01*
X180575466Y-106705619D01*
X175192495Y-98108780D02*
X175192495Y-96268780D01*
X175630590Y-96268780D01*
X175893447Y-96356400D01*
X176068685Y-96531638D01*
X176156304Y-96706876D01*
X176243923Y-97057352D01*
X176243923Y-97320209D01*
X176156304Y-97670685D01*
X176068685Y-97845923D01*
X175893447Y-98021161D01*
X175630590Y-98108780D01*
X175192495Y-98108780D01*
X177821066Y-98108780D02*
X177821066Y-97144971D01*
X177733447Y-96969733D01*
X177558209Y-96882114D01*
X177207733Y-96882114D01*
X177032495Y-96969733D01*
X177821066Y-98021161D02*
X177645828Y-98108780D01*
X177207733Y-98108780D01*
X177032495Y-98021161D01*
X176944876Y-97845923D01*
X176944876Y-97670685D01*
X177032495Y-97495447D01*
X177207733Y-97407828D01*
X177645828Y-97407828D01*
X177821066Y-97320209D01*
X178434400Y-96882114D02*
X179135352Y-96882114D01*
X178697257Y-96268780D02*
X178697257Y-97845923D01*
X178784876Y-98021161D01*
X178960114Y-98108780D01*
X179135352Y-98108780D01*
X180537257Y-98108780D02*
X180537257Y-97144971D01*
X180449638Y-96969733D01*
X180274400Y-96882114D01*
X179923923Y-96882114D01*
X179748685Y-96969733D01*
X180537257Y-98021161D02*
X180362019Y-98108780D01*
X179923923Y-98108780D01*
X179748685Y-98021161D01*
X179661066Y-97845923D01*
X179661066Y-97670685D01*
X179748685Y-97495447D01*
X179923923Y-97407828D01*
X180362019Y-97407828D01*
X180537257Y-97320209D01*
X175945638Y-91696780D02*
X176558971Y-93536780D01*
X177172304Y-91696780D01*
X178837066Y-93361542D02*
X178749447Y-93449161D01*
X178486590Y-93536780D01*
X178311352Y-93536780D01*
X178048495Y-93449161D01*
X177873257Y-93273923D01*
X177785638Y-93098685D01*
X177698019Y-92748209D01*
X177698019Y-92485352D01*
X177785638Y-92134876D01*
X177873257Y-91959638D01*
X178048495Y-91784400D01*
X178311352Y-91696780D01*
X178486590Y-91696780D01*
X178749447Y-91784400D01*
X178837066Y-91872019D01*
X180677066Y-93361542D02*
X180589447Y-93449161D01*
X180326590Y-93536780D01*
X180151352Y-93536780D01*
X179888495Y-93449161D01*
X179713257Y-93273923D01*
X179625638Y-93098685D01*
X179538019Y-92748209D01*
X179538019Y-92485352D01*
X179625638Y-92134876D01*
X179713257Y-91959638D01*
X179888495Y-91784400D01*
X180151352Y-91696780D01*
X180326590Y-91696780D01*
X180589447Y-91784400D01*
X180677066Y-91872019D01*
X175243295Y-113297980D02*
X175243295Y-111457980D01*
X175681390Y-111457980D01*
X175944247Y-111545600D01*
X176119485Y-111720838D01*
X176207104Y-111896076D01*
X176294723Y-112246552D01*
X176294723Y-112509409D01*
X176207104Y-112859885D01*
X176119485Y-113035123D01*
X175944247Y-113210361D01*
X175681390Y-113297980D01*
X175243295Y-113297980D01*
X177871866Y-113297980D02*
X177871866Y-112334171D01*
X177784247Y-112158933D01*
X177609009Y-112071314D01*
X177258533Y-112071314D01*
X177083295Y-112158933D01*
X177871866Y-113210361D02*
X177696628Y-113297980D01*
X177258533Y-113297980D01*
X177083295Y-113210361D01*
X176995676Y-113035123D01*
X176995676Y-112859885D01*
X177083295Y-112684647D01*
X177258533Y-112597028D01*
X177696628Y-112597028D01*
X177871866Y-112509409D01*
X178485200Y-112071314D02*
X179186152Y-112071314D01*
X178748057Y-111457980D02*
X178748057Y-113035123D01*
X178835676Y-113210361D01*
X179010914Y-113297980D01*
X179186152Y-113297980D01*
X180588057Y-113297980D02*
X180588057Y-112334171D01*
X180500438Y-112158933D01*
X180325200Y-112071314D01*
X179974723Y-112071314D01*
X179799485Y-112158933D01*
X180588057Y-113210361D02*
X180412819Y-113297980D01*
X179974723Y-113297980D01*
X179799485Y-113210361D01*
X179711866Y-113035123D01*
X179711866Y-112859885D01*
X179799485Y-112684647D01*
X179974723Y-112597028D01*
X180412819Y-112597028D01*
X180588057Y-112509409D01*
D11*
X117340000Y-90749404D02*
X117427619Y-90574166D01*
X117427619Y-90311309D01*
X117340000Y-90048452D01*
X117164761Y-89873214D01*
X116989523Y-89785595D01*
X116639047Y-89697976D01*
X116376190Y-89697976D01*
X116025714Y-89785595D01*
X115850476Y-89873214D01*
X115675238Y-90048452D01*
X115587619Y-90311309D01*
X115587619Y-90486547D01*
X115675238Y-90749404D01*
X115762857Y-90837023D01*
X116376190Y-90837023D01*
X116376190Y-90486547D01*
X115587619Y-91625595D02*
X117427619Y-91625595D01*
X115587619Y-92677023D01*
X117427619Y-92677023D01*
X115587619Y-93553214D02*
X117427619Y-93553214D01*
X117427619Y-93991309D01*
X117340000Y-94254166D01*
X117164761Y-94429404D01*
X116989523Y-94517023D01*
X116639047Y-94604642D01*
X116376190Y-94604642D01*
X116025714Y-94517023D01*
X115850476Y-94429404D01*
X115675238Y-94254166D01*
X115587619Y-93991309D01*
X115587619Y-93553214D01*
X116113333Y-117547976D02*
X116113333Y-118424166D01*
X115587619Y-117372738D02*
X117427619Y-117986071D01*
X115587619Y-118599404D01*
D10*
X176765904Y-101690400D02*
X176590666Y-101602780D01*
X176327809Y-101602780D01*
X176064952Y-101690400D01*
X175889714Y-101865638D01*
X175802095Y-102040876D01*
X175714476Y-102391352D01*
X175714476Y-102654209D01*
X175802095Y-103004685D01*
X175889714Y-103179923D01*
X176064952Y-103355161D01*
X176327809Y-103442780D01*
X176503047Y-103442780D01*
X176765904Y-103355161D01*
X176853523Y-103267542D01*
X176853523Y-102654209D01*
X176503047Y-102654209D01*
X177642095Y-103442780D02*
X177642095Y-101602780D01*
X178693523Y-103442780D01*
X178693523Y-101602780D01*
X179569714Y-103442780D02*
X179569714Y-101602780D01*
X180007809Y-101602780D01*
X180270666Y-101690400D01*
X180445904Y-101865638D01*
X180533523Y-102040876D01*
X180621142Y-102391352D01*
X180621142Y-102654209D01*
X180533523Y-103004685D01*
X180445904Y-103179923D01*
X180270666Y-103355161D01*
X180007809Y-103442780D01*
X179569714Y-103442780D01*
D11*
%TO.C,D3*%
X147952380Y-100738095D02*
X146952380Y-100738095D01*
X146952380Y-100500000D01*
X147000000Y-100357142D01*
X147095238Y-100261904D01*
X147190476Y-100214285D01*
X147380952Y-100166666D01*
X147523809Y-100166666D01*
X147714285Y-100214285D01*
X147809523Y-100261904D01*
X147904761Y-100357142D01*
X147952380Y-100500000D01*
X147952380Y-100738095D01*
X146952380Y-99833333D02*
X146952380Y-99214285D01*
X147333333Y-99547619D01*
X147333333Y-99404761D01*
X147380952Y-99309523D01*
X147428571Y-99261904D01*
X147523809Y-99214285D01*
X147761904Y-99214285D01*
X147857142Y-99261904D01*
X147904761Y-99309523D01*
X147952380Y-99404761D01*
X147952380Y-99690476D01*
X147904761Y-99785714D01*
X147857142Y-99833333D01*
%TO.C,L1*%
X139952380Y-98166666D02*
X139952380Y-98642857D01*
X138952380Y-98642857D01*
X139952380Y-97309523D02*
X139952380Y-97880952D01*
X139952380Y-97595238D02*
X138952380Y-97595238D01*
X139095238Y-97690476D01*
X139190476Y-97785714D01*
X139238095Y-97880952D01*
%TO.C,R18*%
X135202380Y-99142857D02*
X134726190Y-99476190D01*
X135202380Y-99714285D02*
X134202380Y-99714285D01*
X134202380Y-99333333D01*
X134250000Y-99238095D01*
X134297619Y-99190476D01*
X134392857Y-99142857D01*
X134535714Y-99142857D01*
X134630952Y-99190476D01*
X134678571Y-99238095D01*
X134726190Y-99333333D01*
X134726190Y-99714285D01*
X135202380Y-98190476D02*
X135202380Y-98761904D01*
X135202380Y-98476190D02*
X134202380Y-98476190D01*
X134345238Y-98571428D01*
X134440476Y-98666666D01*
X134488095Y-98761904D01*
X134630952Y-97619047D02*
X134583333Y-97714285D01*
X134535714Y-97761904D01*
X134440476Y-97809523D01*
X134392857Y-97809523D01*
X134297619Y-97761904D01*
X134250000Y-97714285D01*
X134202380Y-97619047D01*
X134202380Y-97428571D01*
X134250000Y-97333333D01*
X134297619Y-97285714D01*
X134392857Y-97238095D01*
X134440476Y-97238095D01*
X134535714Y-97285714D01*
X134583333Y-97333333D01*
X134630952Y-97428571D01*
X134630952Y-97619047D01*
X134678571Y-97714285D01*
X134726190Y-97761904D01*
X134821428Y-97809523D01*
X135011904Y-97809523D01*
X135107142Y-97761904D01*
X135154761Y-97714285D01*
X135202380Y-97619047D01*
X135202380Y-97428571D01*
X135154761Y-97333333D01*
X135107142Y-97285714D01*
X135011904Y-97238095D01*
X134821428Y-97238095D01*
X134726190Y-97285714D01*
X134678571Y-97333333D01*
X134630952Y-97428571D01*
%TO.C,C21*%
X151932142Y-111607142D02*
X151884523Y-111654761D01*
X151741666Y-111702380D01*
X151646428Y-111702380D01*
X151503571Y-111654761D01*
X151408333Y-111559523D01*
X151360714Y-111464285D01*
X151313095Y-111273809D01*
X151313095Y-111130952D01*
X151360714Y-110940476D01*
X151408333Y-110845238D01*
X151503571Y-110750000D01*
X151646428Y-110702380D01*
X151741666Y-110702380D01*
X151884523Y-110750000D01*
X151932142Y-110797619D01*
X152313095Y-110797619D02*
X152360714Y-110750000D01*
X152455952Y-110702380D01*
X152694047Y-110702380D01*
X152789285Y-110750000D01*
X152836904Y-110797619D01*
X152884523Y-110892857D01*
X152884523Y-110988095D01*
X152836904Y-111130952D01*
X152265476Y-111702380D01*
X152884523Y-111702380D01*
X153836904Y-111702380D02*
X153265476Y-111702380D01*
X153551190Y-111702380D02*
X153551190Y-110702380D01*
X153455952Y-110845238D01*
X153360714Y-110940476D01*
X153265476Y-110988095D01*
%TO.C,C20*%
X138857142Y-107882542D02*
X138809523Y-107930161D01*
X138666666Y-107977780D01*
X138571428Y-107977780D01*
X138428571Y-107930161D01*
X138333333Y-107834923D01*
X138285714Y-107739685D01*
X138238095Y-107549209D01*
X138238095Y-107406352D01*
X138285714Y-107215876D01*
X138333333Y-107120638D01*
X138428571Y-107025400D01*
X138571428Y-106977780D01*
X138666666Y-106977780D01*
X138809523Y-107025400D01*
X138857142Y-107073019D01*
X139238095Y-107073019D02*
X139285714Y-107025400D01*
X139380952Y-106977780D01*
X139619047Y-106977780D01*
X139714285Y-107025400D01*
X139761904Y-107073019D01*
X139809523Y-107168257D01*
X139809523Y-107263495D01*
X139761904Y-107406352D01*
X139190476Y-107977780D01*
X139809523Y-107977780D01*
X140428571Y-106977780D02*
X140523809Y-106977780D01*
X140619047Y-107025400D01*
X140666666Y-107073019D01*
X140714285Y-107168257D01*
X140761904Y-107358733D01*
X140761904Y-107596828D01*
X140714285Y-107787304D01*
X140666666Y-107882542D01*
X140619047Y-107930161D01*
X140523809Y-107977780D01*
X140428571Y-107977780D01*
X140333333Y-107930161D01*
X140285714Y-107882542D01*
X140238095Y-107787304D01*
X140190476Y-107596828D01*
X140190476Y-107358733D01*
X140238095Y-107168257D01*
X140285714Y-107073019D01*
X140333333Y-107025400D01*
X140428571Y-106977780D01*
%TO.C,IC3*%
X129202380Y-95976190D02*
X128202380Y-95976190D01*
X129107142Y-94928571D02*
X129154761Y-94976190D01*
X129202380Y-95119047D01*
X129202380Y-95214285D01*
X129154761Y-95357142D01*
X129059523Y-95452380D01*
X128964285Y-95500000D01*
X128773809Y-95547619D01*
X128630952Y-95547619D01*
X128440476Y-95500000D01*
X128345238Y-95452380D01*
X128250000Y-95357142D01*
X128202380Y-95214285D01*
X128202380Y-95119047D01*
X128250000Y-94976190D01*
X128297619Y-94928571D01*
X128202380Y-94595238D02*
X128202380Y-93976190D01*
X128583333Y-94309523D01*
X128583333Y-94166666D01*
X128630952Y-94071428D01*
X128678571Y-94023809D01*
X128773809Y-93976190D01*
X129011904Y-93976190D01*
X129107142Y-94023809D01*
X129154761Y-94071428D01*
X129202380Y-94166666D01*
X129202380Y-94452380D01*
X129154761Y-94547619D01*
X129107142Y-94595238D01*
%TO.C,C15*%
X119357142Y-109357142D02*
X119309523Y-109404761D01*
X119166666Y-109452380D01*
X119071428Y-109452380D01*
X118928571Y-109404761D01*
X118833333Y-109309523D01*
X118785714Y-109214285D01*
X118738095Y-109023809D01*
X118738095Y-108880952D01*
X118785714Y-108690476D01*
X118833333Y-108595238D01*
X118928571Y-108500000D01*
X119071428Y-108452380D01*
X119166666Y-108452380D01*
X119309523Y-108500000D01*
X119357142Y-108547619D01*
X120309523Y-109452380D02*
X119738095Y-109452380D01*
X120023809Y-109452380D02*
X120023809Y-108452380D01*
X119928571Y-108595238D01*
X119833333Y-108690476D01*
X119738095Y-108738095D01*
X121214285Y-108452380D02*
X120738095Y-108452380D01*
X120690476Y-108928571D01*
X120738095Y-108880952D01*
X120833333Y-108833333D01*
X121071428Y-108833333D01*
X121166666Y-108880952D01*
X121214285Y-108928571D01*
X121261904Y-109023809D01*
X121261904Y-109261904D01*
X121214285Y-109357142D01*
X121166666Y-109404761D01*
X121071428Y-109452380D01*
X120833333Y-109452380D01*
X120738095Y-109404761D01*
X120690476Y-109357142D01*
%TO.C,R6*%
X160564533Y-113952380D02*
X160231200Y-113476190D01*
X159993104Y-113952380D02*
X159993104Y-112952380D01*
X160374057Y-112952380D01*
X160469295Y-113000000D01*
X160516914Y-113047619D01*
X160564533Y-113142857D01*
X160564533Y-113285714D01*
X160516914Y-113380952D01*
X160469295Y-113428571D01*
X160374057Y-113476190D01*
X159993104Y-113476190D01*
X161421676Y-112952380D02*
X161231200Y-112952380D01*
X161135961Y-113000000D01*
X161088342Y-113047619D01*
X160993104Y-113190476D01*
X160945485Y-113380952D01*
X160945485Y-113761904D01*
X160993104Y-113857142D01*
X161040723Y-113904761D01*
X161135961Y-113952380D01*
X161326438Y-113952380D01*
X161421676Y-113904761D01*
X161469295Y-113857142D01*
X161516914Y-113761904D01*
X161516914Y-113523809D01*
X161469295Y-113428571D01*
X161421676Y-113380952D01*
X161326438Y-113333333D01*
X161135961Y-113333333D01*
X161040723Y-113380952D01*
X160993104Y-113428571D01*
X160945485Y-113523809D01*
%TO.C,R16*%
X125357142Y-100452380D02*
X125023809Y-99976190D01*
X124785714Y-100452380D02*
X124785714Y-99452380D01*
X125166666Y-99452380D01*
X125261904Y-99500000D01*
X125309523Y-99547619D01*
X125357142Y-99642857D01*
X125357142Y-99785714D01*
X125309523Y-99880952D01*
X125261904Y-99928571D01*
X125166666Y-99976190D01*
X124785714Y-99976190D01*
X126309523Y-100452380D02*
X125738095Y-100452380D01*
X126023809Y-100452380D02*
X126023809Y-99452380D01*
X125928571Y-99595238D01*
X125833333Y-99690476D01*
X125738095Y-99738095D01*
X127166666Y-99452380D02*
X126976190Y-99452380D01*
X126880952Y-99500000D01*
X126833333Y-99547619D01*
X126738095Y-99690476D01*
X126690476Y-99880952D01*
X126690476Y-100261904D01*
X126738095Y-100357142D01*
X126785714Y-100404761D01*
X126880952Y-100452380D01*
X127071428Y-100452380D01*
X127166666Y-100404761D01*
X127214285Y-100357142D01*
X127261904Y-100261904D01*
X127261904Y-100023809D01*
X127214285Y-99928571D01*
X127166666Y-99880952D01*
X127071428Y-99833333D01*
X126880952Y-99833333D01*
X126785714Y-99880952D01*
X126738095Y-99928571D01*
X126690476Y-100023809D01*
%TO.C,D2*%
X118211904Y-102952380D02*
X118211904Y-101952380D01*
X118450000Y-101952380D01*
X118592857Y-102000000D01*
X118688095Y-102095238D01*
X118735714Y-102190476D01*
X118783333Y-102380952D01*
X118783333Y-102523809D01*
X118735714Y-102714285D01*
X118688095Y-102809523D01*
X118592857Y-102904761D01*
X118450000Y-102952380D01*
X118211904Y-102952380D01*
X119164285Y-102047619D02*
X119211904Y-102000000D01*
X119307142Y-101952380D01*
X119545238Y-101952380D01*
X119640476Y-102000000D01*
X119688095Y-102047619D01*
X119735714Y-102142857D01*
X119735714Y-102238095D01*
X119688095Y-102380952D01*
X119116666Y-102952380D01*
X119735714Y-102952380D01*
%TO.C,C19*%
X118857142Y-93817857D02*
X118904761Y-93865476D01*
X118952380Y-94008333D01*
X118952380Y-94103571D01*
X118904761Y-94246428D01*
X118809523Y-94341666D01*
X118714285Y-94389285D01*
X118523809Y-94436904D01*
X118380952Y-94436904D01*
X118190476Y-94389285D01*
X118095238Y-94341666D01*
X118000000Y-94246428D01*
X117952380Y-94103571D01*
X117952380Y-94008333D01*
X118000000Y-93865476D01*
X118047619Y-93817857D01*
X118952380Y-92865476D02*
X118952380Y-93436904D01*
X118952380Y-93151190D02*
X117952380Y-93151190D01*
X118095238Y-93246428D01*
X118190476Y-93341666D01*
X118238095Y-93436904D01*
X118952380Y-92389285D02*
X118952380Y-92198809D01*
X118904761Y-92103571D01*
X118857142Y-92055952D01*
X118714285Y-91960714D01*
X118523809Y-91913095D01*
X118142857Y-91913095D01*
X118047619Y-91960714D01*
X118000000Y-92008333D01*
X117952380Y-92103571D01*
X117952380Y-92294047D01*
X118000000Y-92389285D01*
X118047619Y-92436904D01*
X118142857Y-92484523D01*
X118380952Y-92484523D01*
X118476190Y-92436904D01*
X118523809Y-92389285D01*
X118571428Y-92294047D01*
X118571428Y-92103571D01*
X118523809Y-92008333D01*
X118476190Y-91960714D01*
X118380952Y-91913095D01*
%TO.C,C22*%
X135056542Y-103142857D02*
X135104161Y-103190476D01*
X135151780Y-103333333D01*
X135151780Y-103428571D01*
X135104161Y-103571428D01*
X135008923Y-103666666D01*
X134913685Y-103714285D01*
X134723209Y-103761904D01*
X134580352Y-103761904D01*
X134389876Y-103714285D01*
X134294638Y-103666666D01*
X134199400Y-103571428D01*
X134151780Y-103428571D01*
X134151780Y-103333333D01*
X134199400Y-103190476D01*
X134247019Y-103142857D01*
X134247019Y-102761904D02*
X134199400Y-102714285D01*
X134151780Y-102619047D01*
X134151780Y-102380952D01*
X134199400Y-102285714D01*
X134247019Y-102238095D01*
X134342257Y-102190476D01*
X134437495Y-102190476D01*
X134580352Y-102238095D01*
X135151780Y-102809523D01*
X135151780Y-102190476D01*
X134247019Y-101809523D02*
X134199400Y-101761904D01*
X134151780Y-101666666D01*
X134151780Y-101428571D01*
X134199400Y-101333333D01*
X134247019Y-101285714D01*
X134342257Y-101238095D01*
X134437495Y-101238095D01*
X134580352Y-101285714D01*
X135151780Y-101857142D01*
X135151780Y-101238095D01*
%TO.C,C17*%
X127857142Y-105642857D02*
X127904761Y-105690476D01*
X127952380Y-105833333D01*
X127952380Y-105928571D01*
X127904761Y-106071428D01*
X127809523Y-106166666D01*
X127714285Y-106214285D01*
X127523809Y-106261904D01*
X127380952Y-106261904D01*
X127190476Y-106214285D01*
X127095238Y-106166666D01*
X127000000Y-106071428D01*
X126952380Y-105928571D01*
X126952380Y-105833333D01*
X127000000Y-105690476D01*
X127047619Y-105642857D01*
X127952380Y-104690476D02*
X127952380Y-105261904D01*
X127952380Y-104976190D02*
X126952380Y-104976190D01*
X127095238Y-105071428D01*
X127190476Y-105166666D01*
X127238095Y-105261904D01*
X126952380Y-104357142D02*
X126952380Y-103690476D01*
X127952380Y-104119047D01*
%TO.C,C27*%
X126857142Y-117857142D02*
X126809523Y-117904761D01*
X126666666Y-117952380D01*
X126571428Y-117952380D01*
X126428571Y-117904761D01*
X126333333Y-117809523D01*
X126285714Y-117714285D01*
X126238095Y-117523809D01*
X126238095Y-117380952D01*
X126285714Y-117190476D01*
X126333333Y-117095238D01*
X126428571Y-117000000D01*
X126571428Y-116952380D01*
X126666666Y-116952380D01*
X126809523Y-117000000D01*
X126857142Y-117047619D01*
X127238095Y-117047619D02*
X127285714Y-117000000D01*
X127380952Y-116952380D01*
X127619047Y-116952380D01*
X127714285Y-117000000D01*
X127761904Y-117047619D01*
X127809523Y-117142857D01*
X127809523Y-117238095D01*
X127761904Y-117380952D01*
X127190476Y-117952380D01*
X127809523Y-117952380D01*
X128142857Y-116952380D02*
X128809523Y-116952380D01*
X128380952Y-117952380D01*
%TO.C,IC2*%
X125023809Y-113952380D02*
X125023809Y-112952380D01*
X126071428Y-113857142D02*
X126023809Y-113904761D01*
X125880952Y-113952380D01*
X125785714Y-113952380D01*
X125642857Y-113904761D01*
X125547619Y-113809523D01*
X125500000Y-113714285D01*
X125452380Y-113523809D01*
X125452380Y-113380952D01*
X125500000Y-113190476D01*
X125547619Y-113095238D01*
X125642857Y-113000000D01*
X125785714Y-112952380D01*
X125880952Y-112952380D01*
X126023809Y-113000000D01*
X126071428Y-113047619D01*
X126452380Y-113047619D02*
X126500000Y-113000000D01*
X126595238Y-112952380D01*
X126833333Y-112952380D01*
X126928571Y-113000000D01*
X126976190Y-113047619D01*
X127023809Y-113142857D01*
X127023809Y-113238095D01*
X126976190Y-113380952D01*
X126404761Y-113952380D01*
X127023809Y-113952380D01*
%TO.C,C14*%
X118857142Y-116142857D02*
X118904761Y-116190476D01*
X118952380Y-116333333D01*
X118952380Y-116428571D01*
X118904761Y-116571428D01*
X118809523Y-116666666D01*
X118714285Y-116714285D01*
X118523809Y-116761904D01*
X118380952Y-116761904D01*
X118190476Y-116714285D01*
X118095238Y-116666666D01*
X118000000Y-116571428D01*
X117952380Y-116428571D01*
X117952380Y-116333333D01*
X118000000Y-116190476D01*
X118047619Y-116142857D01*
X118952380Y-115190476D02*
X118952380Y-115761904D01*
X118952380Y-115476190D02*
X117952380Y-115476190D01*
X118095238Y-115571428D01*
X118190476Y-115666666D01*
X118238095Y-115761904D01*
X118285714Y-114333333D02*
X118952380Y-114333333D01*
X117904761Y-114571428D02*
X118619047Y-114809523D01*
X118619047Y-114190476D01*
%TO.C,R17*%
X135202380Y-93892857D02*
X134726190Y-94226190D01*
X135202380Y-94464285D02*
X134202380Y-94464285D01*
X134202380Y-94083333D01*
X134250000Y-93988095D01*
X134297619Y-93940476D01*
X134392857Y-93892857D01*
X134535714Y-93892857D01*
X134630952Y-93940476D01*
X134678571Y-93988095D01*
X134726190Y-94083333D01*
X134726190Y-94464285D01*
X135202380Y-92940476D02*
X135202380Y-93511904D01*
X135202380Y-93226190D02*
X134202380Y-93226190D01*
X134345238Y-93321428D01*
X134440476Y-93416666D01*
X134488095Y-93511904D01*
X134202380Y-92607142D02*
X134202380Y-91940476D01*
X135202380Y-92369047D01*
%TO.C,C9*%
X163057933Y-113857142D02*
X163010314Y-113904761D01*
X162867457Y-113952380D01*
X162772219Y-113952380D01*
X162629361Y-113904761D01*
X162534123Y-113809523D01*
X162486504Y-113714285D01*
X162438885Y-113523809D01*
X162438885Y-113380952D01*
X162486504Y-113190476D01*
X162534123Y-113095238D01*
X162629361Y-113000000D01*
X162772219Y-112952380D01*
X162867457Y-112952380D01*
X163010314Y-113000000D01*
X163057933Y-113047619D01*
X163534123Y-113952380D02*
X163724600Y-113952380D01*
X163819838Y-113904761D01*
X163867457Y-113857142D01*
X163962695Y-113714285D01*
X164010314Y-113523809D01*
X164010314Y-113142857D01*
X163962695Y-113047619D01*
X163915076Y-113000000D01*
X163819838Y-112952380D01*
X163629361Y-112952380D01*
X163534123Y-113000000D01*
X163486504Y-113047619D01*
X163438885Y-113142857D01*
X163438885Y-113380952D01*
X163486504Y-113476190D01*
X163534123Y-113523809D01*
X163629361Y-113571428D01*
X163819838Y-113571428D01*
X163915076Y-113523809D01*
X163962695Y-113476190D01*
X164010314Y-113380952D01*
%TO.C,R15*%
X131800742Y-112783980D02*
X131467409Y-112307790D01*
X131229314Y-112783980D02*
X131229314Y-111783980D01*
X131610266Y-111783980D01*
X131705504Y-111831600D01*
X131753123Y-111879219D01*
X131800742Y-111974457D01*
X131800742Y-112117314D01*
X131753123Y-112212552D01*
X131705504Y-112260171D01*
X131610266Y-112307790D01*
X131229314Y-112307790D01*
X132753123Y-112783980D02*
X132181695Y-112783980D01*
X132467409Y-112783980D02*
X132467409Y-111783980D01*
X132372171Y-111926838D01*
X132276933Y-112022076D01*
X132181695Y-112069695D01*
X133657885Y-111783980D02*
X133181695Y-111783980D01*
X133134076Y-112260171D01*
X133181695Y-112212552D01*
X133276933Y-112164933D01*
X133515028Y-112164933D01*
X133610266Y-112212552D01*
X133657885Y-112260171D01*
X133705504Y-112355409D01*
X133705504Y-112593504D01*
X133657885Y-112688742D01*
X133610266Y-112736361D01*
X133515028Y-112783980D01*
X133276933Y-112783980D01*
X133181695Y-112736361D01*
X133134076Y-112688742D01*
%TO.C,C18*%
X120857142Y-96607142D02*
X120809523Y-96654761D01*
X120666666Y-96702380D01*
X120571428Y-96702380D01*
X120428571Y-96654761D01*
X120333333Y-96559523D01*
X120285714Y-96464285D01*
X120238095Y-96273809D01*
X120238095Y-96130952D01*
X120285714Y-95940476D01*
X120333333Y-95845238D01*
X120428571Y-95750000D01*
X120571428Y-95702380D01*
X120666666Y-95702380D01*
X120809523Y-95750000D01*
X120857142Y-95797619D01*
X121809523Y-96702380D02*
X121238095Y-96702380D01*
X121523809Y-96702380D02*
X121523809Y-95702380D01*
X121428571Y-95845238D01*
X121333333Y-95940476D01*
X121238095Y-95988095D01*
X122380952Y-96130952D02*
X122285714Y-96083333D01*
X122238095Y-96035714D01*
X122190476Y-95940476D01*
X122190476Y-95892857D01*
X122238095Y-95797619D01*
X122285714Y-95750000D01*
X122380952Y-95702380D01*
X122571428Y-95702380D01*
X122666666Y-95750000D01*
X122714285Y-95797619D01*
X122761904Y-95892857D01*
X122761904Y-95940476D01*
X122714285Y-96035714D01*
X122666666Y-96083333D01*
X122571428Y-96130952D01*
X122380952Y-96130952D01*
X122285714Y-96178571D01*
X122238095Y-96226190D01*
X122190476Y-96321428D01*
X122190476Y-96511904D01*
X122238095Y-96607142D01*
X122285714Y-96654761D01*
X122380952Y-96702380D01*
X122571428Y-96702380D01*
X122666666Y-96654761D01*
X122714285Y-96607142D01*
X122761904Y-96511904D01*
X122761904Y-96321428D01*
X122714285Y-96226190D01*
X122666666Y-96178571D01*
X122571428Y-96130952D01*
D12*
%TO.C,SI2*%
X109730000Y-102764047D02*
X109911428Y-102824523D01*
X110213809Y-102824523D01*
X110334761Y-102764047D01*
X110395238Y-102703571D01*
X110455714Y-102582619D01*
X110455714Y-102461666D01*
X110395238Y-102340714D01*
X110334761Y-102280238D01*
X110213809Y-102219761D01*
X109971904Y-102159285D01*
X109850952Y-102098809D01*
X109790476Y-102038333D01*
X109730000Y-101917380D01*
X109730000Y-101796428D01*
X109790476Y-101675476D01*
X109850952Y-101615000D01*
X109971904Y-101554523D01*
X110274285Y-101554523D01*
X110455714Y-101615000D01*
X111000000Y-102824523D02*
X111000000Y-101554523D01*
X111544285Y-101675476D02*
X111604761Y-101615000D01*
X111725714Y-101554523D01*
X112028095Y-101554523D01*
X112149047Y-101615000D01*
X112209523Y-101675476D01*
X112270000Y-101796428D01*
X112270000Y-101917380D01*
X112209523Y-102098809D01*
X111483809Y-102824523D01*
X112270000Y-102824523D01*
D13*
%TO.C,D3*%
X143500000Y-96700000D02*
X143500000Y-102400000D01*
X146500000Y-102400000D02*
X146500000Y-96700000D01*
X146500000Y-96700000D02*
X143500000Y-96700000D01*
%TO.C,L1*%
X141600000Y-100000000D02*
X141600000Y-96000000D01*
X137400000Y-100000000D02*
X137400000Y-96000000D01*
%TO.C,R18*%
X133735000Y-98272936D02*
X133735000Y-98727064D01*
X132265000Y-98272936D02*
X132265000Y-98727064D01*
%TO.C,C21*%
X149298752Y-111985000D02*
X148776248Y-111985000D01*
X149298752Y-110515000D02*
X148776248Y-110515000D01*
%TO.C,J4*%
X115060000Y-99870000D02*
X115060000Y-89710000D01*
X107440000Y-99870000D02*
X115060000Y-99870000D01*
X113790000Y-89710000D02*
X113790000Y-99870000D01*
X115060000Y-89710000D02*
X107440000Y-89710000D01*
X107440000Y-89710000D02*
X107440000Y-99870000D01*
%TO.C,C20*%
X135850000Y-109760000D02*
X144085000Y-109760000D01*
X144085000Y-105240000D02*
X135850000Y-105240000D01*
X144085000Y-109760000D02*
X144085000Y-105240000D01*
%TO.C,IC3*%
X131310000Y-95000000D02*
X131310000Y-91550000D01*
X126190000Y-95000000D02*
X126190000Y-93050000D01*
X131310000Y-95000000D02*
X131310000Y-96950000D01*
X126190000Y-95000000D02*
X126190000Y-96950000D01*
%TO.C,C15*%
X119265000Y-111834752D02*
X119265000Y-111312248D01*
X120735000Y-111834752D02*
X120735000Y-111312248D01*
%TO.C,R6*%
X160021600Y-115790736D02*
X160021600Y-116244864D01*
X161491600Y-115790736D02*
X161491600Y-116244864D01*
%TO.C,J5*%
X107440000Y-110130000D02*
X107440000Y-120290000D01*
X115060000Y-110130000D02*
X107440000Y-110130000D01*
X115060000Y-120290000D02*
X115060000Y-110130000D01*
X107440000Y-120290000D02*
X115060000Y-120290000D01*
X113790000Y-110130000D02*
X113790000Y-120290000D01*
%TO.C,R16*%
X129272936Y-99265000D02*
X129727064Y-99265000D01*
X129272936Y-100735000D02*
X129727064Y-100735000D01*
%TO.C,D2*%
X122150000Y-103500000D02*
X116450000Y-103500000D01*
X122150000Y-106500000D02*
X122150000Y-103500000D01*
X116450000Y-106500000D02*
X122150000Y-106500000D01*
%TO.C,J1*%
X140895000Y-91670000D02*
X158735000Y-91670000D01*
X140895000Y-94330000D02*
X140895000Y-91670000D01*
X158735000Y-94330000D02*
X158735000Y-91670000D01*
X138295000Y-94330000D02*
X138295000Y-93000000D01*
X140895000Y-94330000D02*
X158735000Y-94330000D01*
X139625000Y-94330000D02*
X138295000Y-94330000D01*
%TO.C,C19*%
X120985000Y-92951248D02*
X120985000Y-93473752D01*
X119515000Y-92951248D02*
X119515000Y-93473752D01*
%TO.C,C22*%
X138648752Y-101140000D02*
X137226248Y-101140000D01*
X138648752Y-103860000D02*
X137226248Y-103860000D01*
%TO.C,J2*%
X140895000Y-118330000D02*
X158735000Y-118330000D01*
X158735000Y-118330000D02*
X158735000Y-115670000D01*
X140895000Y-118330000D02*
X140895000Y-115670000D01*
X138295000Y-118330000D02*
X138295000Y-117000000D01*
X139625000Y-118330000D02*
X138295000Y-118330000D01*
X140895000Y-115670000D02*
X158735000Y-115670000D01*
%TO.C,C17*%
X125154437Y-108410000D02*
X130910000Y-108410000D01*
X123062500Y-103152500D02*
X123850000Y-103152500D01*
X125154437Y-101590000D02*
X130910000Y-101590000D01*
X130910000Y-108410000D02*
X130910000Y-106060000D01*
X123456250Y-102758750D02*
X123456250Y-103546250D01*
X124090000Y-102654437D02*
X124090000Y-103940000D01*
X124090000Y-102654437D02*
X125154437Y-101590000D01*
X130910000Y-101590000D02*
X130910000Y-103940000D01*
X124090000Y-107345563D02*
X125154437Y-108410000D01*
X124090000Y-107345563D02*
X124090000Y-106060000D01*
%TO.C,J3*%
X189610000Y-89760000D02*
X181990000Y-89760000D01*
X181990000Y-89760000D02*
X181990000Y-120240000D01*
X181990000Y-120240000D02*
X189610000Y-120240000D01*
X183260000Y-89760000D02*
X183260000Y-120240000D01*
X189610000Y-89760000D02*
X189610000Y-120240000D01*
%TO.C,C27*%
X123701248Y-116765000D02*
X124223752Y-116765000D01*
X123701248Y-118235000D02*
X124223752Y-118235000D01*
%TO.C,IC2*%
X126000000Y-116060000D02*
X124050000Y-116060000D01*
X126000000Y-116060000D02*
X129450000Y-116060000D01*
X126000000Y-110940000D02*
X124050000Y-110940000D01*
X126000000Y-110940000D02*
X127950000Y-110940000D01*
%TO.C,C14*%
X119265000Y-115276248D02*
X119265000Y-115798752D01*
X120735000Y-115276248D02*
X120735000Y-115798752D01*
%TO.C,R17*%
X133735000Y-93022936D02*
X133735000Y-93477064D01*
X132265000Y-93022936D02*
X132265000Y-93477064D01*
%TO.C,C9*%
X162515000Y-116298752D02*
X162515000Y-115776248D01*
X163985000Y-116298752D02*
X163985000Y-115776248D01*
%TO.C,R15*%
X132232536Y-113273000D02*
X132686664Y-113273000D01*
X132232536Y-114743000D02*
X132686664Y-114743000D01*
%TO.C,C18*%
X120140000Y-100148752D02*
X120140000Y-98726248D01*
X122860000Y-100148752D02*
X122860000Y-98726248D01*
D14*
%TO.C,SI2*%
X111000000Y-103755000D02*
X111000000Y-106245000D01*
%TD*%
M02*
