%TF.GenerationSoftware,KiCad,Pcbnew,10.0.1*%
%TF.CreationDate,2026-08-16T09:57:38+02:00*%
%TF.ProjectId,PlatineB_CNMB2,506c6174-696e-4654-925f-434e4d42322e,rev?*%
%TF.SameCoordinates,Original*%
%TF.FileFunction,Copper,L2,Bot*%
%TF.FilePolarity,Positive*%
%FSLAX46Y46*%
G04 Gerber Fmt 4.6, Leading zero omitted, Abs format (unit mm)*
G04 Created by KiCad (PCBNEW 10.0.1) date 2026-08-16 09:57:38*
%MOMM*%
%LPD*%
G01*
G04 APERTURE LIST*
%TA.AperFunction,ComponentPad*%
%ADD10R,1.800000X1.800000*%
%TD*%
%TA.AperFunction,ComponentPad*%
%ADD11C,1.800000*%
%TD*%
%TA.AperFunction,ComponentPad*%
%ADD12C,2.000000*%
%TD*%
%TA.AperFunction,ComponentPad*%
%ADD13O,1.700000X1.700000*%
%TD*%
%TA.AperFunction,ComponentPad*%
%ADD14R,1.700000X1.700000*%
%TD*%
G04 APERTURE END LIST*
D10*
%TO.P,D1,1,K*%
%TO.N,/GND*%
X164775000Y-61200000D03*
D11*
%TO.P,D1,2,A*%
%TO.N,Net-(D1-Pad2)*%
X162235000Y-61200000D03*
%TD*%
D10*
%TO.P,D3,1,K*%
%TO.N,/GND*%
X164775000Y-69200000D03*
D11*
%TO.P,D3,2,A*%
%TO.N,Net-(D3-Pad2)*%
X162235000Y-69200000D03*
%TD*%
D10*
%TO.P,D2,1,K*%
%TO.N,/GND*%
X164775000Y-77300000D03*
D11*
%TO.P,D2,2,A*%
%TO.N,Net-(D2-Pad2)*%
X162235000Y-77300000D03*
%TD*%
D12*
%TO.P,SW2,1,1*%
%TO.N,/RST*%
X134300000Y-72400000D03*
X140800000Y-72400000D03*
%TO.P,SW2,2,2*%
%TO.N,/GND*%
X134300000Y-76900000D03*
X140800000Y-76900000D03*
%TD*%
D13*
%TO.P,J1,1,Pin_1*%
%TO.N,/GND*%
X140717800Y-81191600D03*
%TO.P,J1,2,Pin_2*%
X143257800Y-81191600D03*
%TO.P,J1,3,Pin_3*%
%TO.N,/RST*%
X145797800Y-81191600D03*
%TO.P,J1,4,Pin_4*%
%TO.N,unconnected-(J1-Pad4)*%
X148337800Y-81191600D03*
%TO.P,J1,5,Pin_5*%
%TO.N,unconnected-(J1-Pad5)*%
X150877800Y-81191600D03*
D14*
%TO.P,J1,6,Pin_6*%
%TO.N,unconnected-(J1-Pad6)*%
X153417800Y-81191600D03*
%TO.P,J1,7,Pin_7*%
%TO.N,unconnected-(J1-Pad7)*%
X155957800Y-81191600D03*
D13*
%TO.P,J1,8,Pin_8*%
%TO.N,unconnected-(J1-Pad8)*%
X158497800Y-81191600D03*
%TD*%
D12*
%TO.P,SW1,1,1*%
%TO.N,/Button*%
X140750000Y-66050000D03*
X134250000Y-66050000D03*
%TO.P,SW1,2,2*%
%TO.N,/GND*%
X140750000Y-61550000D03*
X134250000Y-61550000D03*
%TD*%
D13*
%TO.P,J2,1,Pin_1*%
%TO.N,/VCC*%
X140717800Y-57166600D03*
%TO.P,J2,2,Pin_2*%
X143257800Y-57166600D03*
%TO.P,J2,3,Pin_3*%
%TO.N,/Button*%
X145797800Y-57166600D03*
%TO.P,J2,4,Pin_4*%
%TO.N,/D11*%
X148337800Y-57166600D03*
%TO.P,J2,5,Pin_5*%
%TO.N,/ID_LED*%
X150877800Y-57166600D03*
%TO.P,J2,6,Pin_6*%
%TO.N,/LED*%
X153417800Y-57166600D03*
%TO.P,J2,7,Pin_7*%
%TO.N,unconnected-(J2-Pad7)*%
X155957800Y-57166600D03*
%TO.P,J2,8,Pin_8*%
%TO.N,unconnected-(J2-Pad8)*%
X158497800Y-57166600D03*
%TD*%
%TA.AperFunction,Conductor*%
%TO.N,/GND*%
G36*
X142791875Y-80998607D02*
G01*
X142757800Y-81125774D01*
X142757800Y-81257426D01*
X142791875Y-81384593D01*
X142827097Y-81445600D01*
X141148503Y-81445600D01*
X141183725Y-81384593D01*
X141217800Y-81257426D01*
X141217800Y-81125774D01*
X141183725Y-80998607D01*
X141148503Y-80937600D01*
X142827097Y-80937600D01*
X142791875Y-80998607D01*
G37*
%TD.AperFunction*%
%TA.AperFunction,Conductor*%
G36*
X177134421Y-53362102D02*
G01*
X177180914Y-53415758D01*
X177192300Y-53468100D01*
X177192300Y-84915100D01*
X177172298Y-84983221D01*
X177118642Y-85029714D01*
X177066300Y-85041100D01*
X120119300Y-85041100D01*
X120051179Y-85021098D01*
X120004686Y-84967442D01*
X119993300Y-84915100D01*
X119993300Y-80937600D01*
X139383102Y-80937600D01*
X140287097Y-80937600D01*
X140251875Y-80998607D01*
X140217800Y-81125774D01*
X140217800Y-81257426D01*
X140251875Y-81384593D01*
X140287097Y-81445600D01*
X139383102Y-81445600D01*
X139393240Y-81509604D01*
X139459290Y-81712886D01*
X139459293Y-81712892D01*
X139556336Y-81903350D01*
X139681977Y-82076279D01*
X139833120Y-82227422D01*
X140006049Y-82353063D01*
X140196507Y-82450106D01*
X140196513Y-82450109D01*
X140399798Y-82516160D01*
X140463800Y-82526296D01*
X140463800Y-81622302D01*
X140524807Y-81657525D01*
X140651974Y-81691600D01*
X140783626Y-81691600D01*
X140910793Y-81657525D01*
X140971800Y-81622302D01*
X140971800Y-82526296D01*
X141035801Y-82516160D01*
X141239086Y-82450109D01*
X141239092Y-82450106D01*
X141429550Y-82353063D01*
X141602479Y-82227422D01*
X141753622Y-82076279D01*
X141879265Y-81903348D01*
X141880364Y-81901555D01*
X141880959Y-81901015D01*
X141882176Y-81899342D01*
X141882527Y-81899597D01*
X141933009Y-81853921D01*
X142003050Y-81842310D01*
X142068249Y-81870410D01*
X142093359Y-81899389D01*
X142093424Y-81899342D01*
X142093972Y-81900096D01*
X142095236Y-81901555D01*
X142096334Y-81903348D01*
X142221977Y-82076279D01*
X142373120Y-82227422D01*
X142546049Y-82353063D01*
X142736507Y-82450106D01*
X142736513Y-82450109D01*
X142939798Y-82516160D01*
X143003800Y-82526296D01*
X143003800Y-81622302D01*
X143064807Y-81657525D01*
X143191974Y-81691600D01*
X143323626Y-81691600D01*
X143450793Y-81657525D01*
X143511800Y-81622302D01*
X143511800Y-82526296D01*
X143575801Y-82516160D01*
X143779086Y-82450109D01*
X143779092Y-82450106D01*
X143969550Y-82353063D01*
X144142479Y-82227422D01*
X144293622Y-82076279D01*
X144419260Y-81903354D01*
X144420061Y-81902048D01*
X144420495Y-81901654D01*
X144422176Y-81899342D01*
X144422661Y-81899694D01*
X144472700Y-81854407D01*
X144542740Y-81842788D01*
X144607942Y-81870880D01*
X144632897Y-81899675D01*
X144632996Y-81899604D01*
X144633825Y-81900745D01*
X144634936Y-81902027D01*
X144635903Y-81903606D01*
X144711318Y-82007406D01*
X144761594Y-82076604D01*
X144761596Y-82076606D01*
X144761598Y-82076609D01*
X144912790Y-82227801D01*
X144912793Y-82227803D01*
X144912796Y-82227806D01*
X145085791Y-82353494D01*
X145276317Y-82450572D01*
X145479678Y-82516647D01*
X145479679Y-82516647D01*
X145479684Y-82516649D01*
X145690884Y-82550100D01*
X145690887Y-82550100D01*
X145904713Y-82550100D01*
X145904716Y-82550100D01*
X146115916Y-82516649D01*
X146319283Y-82450572D01*
X146509809Y-82353494D01*
X146682804Y-82227806D01*
X146834006Y-82076604D01*
X146959694Y-81903609D01*
X146959699Y-81903597D01*
X146960361Y-81902520D01*
X146960724Y-81902191D01*
X146962604Y-81899604D01*
X146963147Y-81899998D01*
X147013004Y-81854883D01*
X147083044Y-81843270D01*
X147148245Y-81871366D01*
X147172821Y-81899730D01*
X147172996Y-81899604D01*
X147174468Y-81901630D01*
X147175239Y-81902520D01*
X147175904Y-81903606D01*
X147175906Y-81903609D01*
X147301594Y-82076604D01*
X147301596Y-82076606D01*
X147301598Y-82076609D01*
X147452790Y-82227801D01*
X147452793Y-82227803D01*
X147452796Y-82227806D01*
X147625791Y-82353494D01*
X147816317Y-82450572D01*
X148019678Y-82516647D01*
X148019679Y-82516647D01*
X148019684Y-82516649D01*
X148230884Y-82550100D01*
X148230887Y-82550100D01*
X148444713Y-82550100D01*
X148444716Y-82550100D01*
X148655916Y-82516649D01*
X148859283Y-82450572D01*
X149049809Y-82353494D01*
X149222804Y-82227806D01*
X149374006Y-82076604D01*
X149499694Y-81903609D01*
X149499699Y-81903597D01*
X149500361Y-81902520D01*
X149500724Y-81902191D01*
X149502604Y-81899604D01*
X149503147Y-81899998D01*
X149553004Y-81854883D01*
X149623044Y-81843270D01*
X149688245Y-81871366D01*
X149712821Y-81899730D01*
X149712996Y-81899604D01*
X149714468Y-81901630D01*
X149715239Y-81902520D01*
X149715904Y-81903606D01*
X149715906Y-81903609D01*
X149841594Y-82076604D01*
X149841596Y-82076606D01*
X149841598Y-82076609D01*
X149992790Y-82227801D01*
X149992793Y-82227803D01*
X149992796Y-82227806D01*
X150165791Y-82353494D01*
X150356317Y-82450572D01*
X150559678Y-82516647D01*
X150559679Y-82516647D01*
X150559684Y-82516649D01*
X150770884Y-82550100D01*
X150770887Y-82550100D01*
X150984713Y-82550100D01*
X150984716Y-82550100D01*
X151195916Y-82516649D01*
X151399283Y-82450572D01*
X151589809Y-82353494D01*
X151762804Y-82227806D01*
X151865782Y-82124827D01*
X151928092Y-82090804D01*
X151998908Y-82095868D01*
X152055744Y-82138415D01*
X152072931Y-82169891D01*
X152116910Y-82287803D01*
X152116912Y-82287807D01*
X152204538Y-82404861D01*
X152321592Y-82492487D01*
X152321594Y-82492488D01*
X152321596Y-82492489D01*
X152380675Y-82514524D01*
X152458595Y-82543588D01*
X152458603Y-82543590D01*
X152519150Y-82550099D01*
X152519155Y-82550099D01*
X152519162Y-82550100D01*
X152519168Y-82550100D01*
X154316432Y-82550100D01*
X154316438Y-82550100D01*
X154316445Y-82550099D01*
X154316449Y-82550099D01*
X154376996Y-82543590D01*
X154376999Y-82543589D01*
X154377001Y-82543589D01*
X154514004Y-82492489D01*
X154612292Y-82418911D01*
X154678811Y-82394101D01*
X154748185Y-82409192D01*
X154763302Y-82418906D01*
X154861593Y-82492487D01*
X154861596Y-82492489D01*
X154998595Y-82543588D01*
X154998603Y-82543590D01*
X155059150Y-82550099D01*
X155059155Y-82550099D01*
X155059162Y-82550100D01*
X155059168Y-82550100D01*
X156856432Y-82550100D01*
X156856438Y-82550100D01*
X156856445Y-82550099D01*
X156856449Y-82550099D01*
X156916996Y-82543590D01*
X156916999Y-82543589D01*
X156917001Y-82543589D01*
X157054004Y-82492489D01*
X157109999Y-82450572D01*
X157171061Y-82404861D01*
X157258687Y-82287807D01*
X157258687Y-82287806D01*
X157258689Y-82287804D01*
X157302669Y-82169888D01*
X157345214Y-82113056D01*
X157411734Y-82088245D01*
X157481108Y-82103336D01*
X157509818Y-82124829D01*
X157612790Y-82227801D01*
X157612793Y-82227803D01*
X157612796Y-82227806D01*
X157785791Y-82353494D01*
X157976317Y-82450572D01*
X158179678Y-82516647D01*
X158179679Y-82516647D01*
X158179684Y-82516649D01*
X158390884Y-82550100D01*
X158390887Y-82550100D01*
X158604713Y-82550100D01*
X158604716Y-82550100D01*
X158815916Y-82516649D01*
X159019283Y-82450572D01*
X159209809Y-82353494D01*
X159382804Y-82227806D01*
X159534006Y-82076604D01*
X159659694Y-81903609D01*
X159756772Y-81713083D01*
X159822849Y-81509716D01*
X159856300Y-81298516D01*
X159856300Y-81084684D01*
X159822849Y-80873484D01*
X159756772Y-80670117D01*
X159659694Y-80479591D01*
X159534006Y-80306596D01*
X159534003Y-80306593D01*
X159534001Y-80306590D01*
X159382809Y-80155398D01*
X159382806Y-80155396D01*
X159382804Y-80155394D01*
X159209809Y-80029706D01*
X159019283Y-79932628D01*
X159019280Y-79932627D01*
X159019278Y-79932626D01*
X158815920Y-79866552D01*
X158815923Y-79866552D01*
X158754995Y-79856902D01*
X158604716Y-79833100D01*
X158390884Y-79833100D01*
X158179684Y-79866551D01*
X158179678Y-79866552D01*
X157976321Y-79932626D01*
X157976315Y-79932629D01*
X157785787Y-80029708D01*
X157612795Y-80155394D01*
X157509818Y-80258371D01*
X157447506Y-80292396D01*
X157376690Y-80287330D01*
X157319854Y-80244784D01*
X157302671Y-80213315D01*
X157258689Y-80095396D01*
X157258686Y-80095392D01*
X157258686Y-80095391D01*
X157171061Y-79978338D01*
X157054007Y-79890712D01*
X157054002Y-79890710D01*
X156917004Y-79839611D01*
X156916996Y-79839609D01*
X156856449Y-79833100D01*
X156856438Y-79833100D01*
X155059162Y-79833100D01*
X155059150Y-79833100D01*
X154998603Y-79839609D01*
X154998595Y-79839611D01*
X154861597Y-79890710D01*
X154861592Y-79890712D01*
X154763309Y-79964287D01*
X154696789Y-79989098D01*
X154627415Y-79974007D01*
X154612291Y-79964287D01*
X154514007Y-79890712D01*
X154514002Y-79890710D01*
X154377004Y-79839611D01*
X154376996Y-79839609D01*
X154316449Y-79833100D01*
X154316438Y-79833100D01*
X152519162Y-79833100D01*
X152519150Y-79833100D01*
X152458603Y-79839609D01*
X152458595Y-79839611D01*
X152321597Y-79890710D01*
X152321592Y-79890712D01*
X152204538Y-79978338D01*
X152116912Y-80095392D01*
X152116910Y-80095397D01*
X152072931Y-80213308D01*
X152030384Y-80270144D01*
X151963864Y-80294954D01*
X151894490Y-80279862D01*
X151865781Y-80258370D01*
X151762809Y-80155398D01*
X151762806Y-80155396D01*
X151762804Y-80155394D01*
X151589809Y-80029706D01*
X151399283Y-79932628D01*
X151399280Y-79932627D01*
X151399278Y-79932626D01*
X151195920Y-79866552D01*
X151195923Y-79866552D01*
X151134995Y-79856902D01*
X150984716Y-79833100D01*
X150770884Y-79833100D01*
X150559684Y-79866551D01*
X150559678Y-79866552D01*
X150356321Y-79932626D01*
X150356315Y-79932629D01*
X150165787Y-80029708D01*
X149992793Y-80155396D01*
X149992790Y-80155398D01*
X149841598Y-80306590D01*
X149841596Y-80306593D01*
X149715908Y-80479587D01*
X149715234Y-80480688D01*
X149714868Y-80481018D01*
X149712996Y-80483596D01*
X149712454Y-80483202D01*
X149662587Y-80528321D01*
X149592545Y-80539928D01*
X149527347Y-80511826D01*
X149502776Y-80483470D01*
X149502604Y-80483596D01*
X149501141Y-80481582D01*
X149500366Y-80480688D01*
X149499696Y-80479596D01*
X149499694Y-80479591D01*
X149374006Y-80306596D01*
X149374003Y-80306593D01*
X149374001Y-80306590D01*
X149222809Y-80155398D01*
X149222806Y-80155396D01*
X149222804Y-80155394D01*
X149049809Y-80029706D01*
X148859283Y-79932628D01*
X148859280Y-79932627D01*
X148859278Y-79932626D01*
X148655920Y-79866552D01*
X148655923Y-79866552D01*
X148594995Y-79856902D01*
X148444716Y-79833100D01*
X148230884Y-79833100D01*
X148019684Y-79866551D01*
X148019678Y-79866552D01*
X147816321Y-79932626D01*
X147816315Y-79932629D01*
X147625787Y-80029708D01*
X147452793Y-80155396D01*
X147452790Y-80155398D01*
X147301598Y-80306590D01*
X147301596Y-80306593D01*
X147175908Y-80479587D01*
X147175234Y-80480688D01*
X147174868Y-80481018D01*
X147172996Y-80483596D01*
X147172454Y-80483202D01*
X147122587Y-80528321D01*
X147052545Y-80539928D01*
X146987347Y-80511826D01*
X146962776Y-80483470D01*
X146962604Y-80483596D01*
X146961141Y-80481582D01*
X146960366Y-80480688D01*
X146959696Y-80479596D01*
X146959694Y-80479591D01*
X146834006Y-80306596D01*
X146834003Y-80306593D01*
X146834001Y-80306590D01*
X146682809Y-80155398D01*
X146682806Y-80155396D01*
X146682804Y-80155394D01*
X146509809Y-80029706D01*
X146319283Y-79932628D01*
X146319280Y-79932627D01*
X146319278Y-79932626D01*
X146115920Y-79866552D01*
X146115923Y-79866552D01*
X146054995Y-79856902D01*
X145904716Y-79833100D01*
X145690884Y-79833100D01*
X145479684Y-79866551D01*
X145479678Y-79866552D01*
X145276321Y-79932626D01*
X145276315Y-79932629D01*
X145085787Y-80029708D01*
X144912793Y-80155396D01*
X144912790Y-80155398D01*
X144761598Y-80306590D01*
X144761596Y-80306593D01*
X144635900Y-80479598D01*
X144634931Y-80481180D01*
X144634406Y-80481654D01*
X144632996Y-80483596D01*
X144632587Y-80483299D01*
X144582279Y-80528806D01*
X144512237Y-80540407D01*
X144447042Y-80512297D01*
X144422315Y-80483756D01*
X144422176Y-80483858D01*
X144420994Y-80482231D01*
X144420066Y-80481160D01*
X144419260Y-80479844D01*
X144293622Y-80306920D01*
X144142479Y-80155777D01*
X143969550Y-80030136D01*
X143779092Y-79933093D01*
X143779086Y-79933090D01*
X143575804Y-79867040D01*
X143511800Y-79856902D01*
X143511800Y-80760897D01*
X143450793Y-80725675D01*
X143323626Y-80691600D01*
X143191974Y-80691600D01*
X143064807Y-80725675D01*
X143003800Y-80760897D01*
X143003800Y-79856902D01*
X142939795Y-79867040D01*
X142736513Y-79933090D01*
X142736507Y-79933093D01*
X142546049Y-80030136D01*
X142373120Y-80155777D01*
X142221977Y-80306920D01*
X142096331Y-80479856D01*
X142095231Y-80481652D01*
X142094635Y-80482191D01*
X142093424Y-80483858D01*
X142093073Y-80483603D01*
X142042583Y-80529282D01*
X141972541Y-80540888D01*
X141907344Y-80512783D01*
X141882240Y-80483811D01*
X141882176Y-80483858D01*
X141881633Y-80483111D01*
X141880369Y-80481652D01*
X141879268Y-80479856D01*
X141753622Y-80306920D01*
X141602479Y-80155777D01*
X141429550Y-80030136D01*
X141239092Y-79933093D01*
X141239086Y-79933090D01*
X141035804Y-79867040D01*
X140971800Y-79856902D01*
X140971800Y-80760897D01*
X140910793Y-80725675D01*
X140783626Y-80691600D01*
X140651974Y-80691600D01*
X140524807Y-80725675D01*
X140463800Y-80760897D01*
X140463800Y-79856902D01*
X140399795Y-79867040D01*
X140196513Y-79933090D01*
X140196507Y-79933093D01*
X140006049Y-80030136D01*
X139833120Y-80155777D01*
X139681977Y-80306920D01*
X139556336Y-80479849D01*
X139459293Y-80670307D01*
X139459290Y-80670313D01*
X139393240Y-80873595D01*
X139383102Y-80937600D01*
X119993300Y-80937600D01*
X119993300Y-76781321D01*
X132792000Y-76781321D01*
X132792000Y-77018678D01*
X132829133Y-77253129D01*
X132902480Y-77478867D01*
X133010246Y-77690368D01*
X133069230Y-77771556D01*
X133069232Y-77771556D01*
X133775016Y-77065771D01*
X133787482Y-77112292D01*
X133859890Y-77237708D01*
X133962292Y-77340110D01*
X134087708Y-77412518D01*
X134134226Y-77424982D01*
X133428442Y-78130766D01*
X133509636Y-78189756D01*
X133509637Y-78189757D01*
X133721132Y-78297519D01*
X133946870Y-78370866D01*
X134181321Y-78408000D01*
X134418679Y-78408000D01*
X134653129Y-78370866D01*
X134878867Y-78297519D01*
X135090367Y-78189754D01*
X135171556Y-78130767D01*
X135171556Y-78130765D01*
X134465773Y-77424982D01*
X134512292Y-77412518D01*
X134637708Y-77340110D01*
X134740110Y-77237708D01*
X134812518Y-77112292D01*
X134824982Y-77065773D01*
X135530765Y-77771556D01*
X135530767Y-77771556D01*
X135589754Y-77690367D01*
X135697519Y-77478867D01*
X135770866Y-77253129D01*
X135808000Y-77018678D01*
X135808000Y-76781321D01*
X139292000Y-76781321D01*
X139292000Y-77018678D01*
X139329133Y-77253129D01*
X139402480Y-77478867D01*
X139510246Y-77690368D01*
X139569230Y-77771556D01*
X139569232Y-77771556D01*
X140275016Y-77065771D01*
X140287482Y-77112292D01*
X140359890Y-77237708D01*
X140462292Y-77340110D01*
X140587708Y-77412518D01*
X140634226Y-77424982D01*
X139928442Y-78130766D01*
X140009636Y-78189756D01*
X140009637Y-78189757D01*
X140221132Y-78297519D01*
X140446870Y-78370866D01*
X140681321Y-78408000D01*
X140918679Y-78408000D01*
X141153129Y-78370866D01*
X141378867Y-78297519D01*
X141590367Y-78189754D01*
X141671556Y-78130767D01*
X141671556Y-78130765D01*
X140965773Y-77424982D01*
X141012292Y-77412518D01*
X141137708Y-77340110D01*
X141240110Y-77237708D01*
X141312518Y-77112292D01*
X141324982Y-77065773D01*
X142030765Y-77771556D01*
X142030767Y-77771556D01*
X142089754Y-77690367D01*
X142197519Y-77478867D01*
X142270866Y-77253129D01*
X142281000Y-77189149D01*
X160826500Y-77189149D01*
X160826500Y-77410851D01*
X160837273Y-77478867D01*
X160861183Y-77629829D01*
X160929690Y-77840671D01*
X160929692Y-77840676D01*
X160929693Y-77840677D01*
X161030345Y-78038218D01*
X161160658Y-78217578D01*
X161317421Y-78374341D01*
X161317424Y-78374343D01*
X161496785Y-78504657D01*
X161694324Y-78605308D01*
X161905176Y-78673818D01*
X162124149Y-78708500D01*
X162124152Y-78708500D01*
X162345848Y-78708500D01*
X162345851Y-78708500D01*
X162564824Y-78673818D01*
X162775676Y-78605308D01*
X162973215Y-78504657D01*
X163152576Y-78374343D01*
X163192577Y-78334342D01*
X163254888Y-78300316D01*
X163325704Y-78305380D01*
X163382540Y-78347926D01*
X163399728Y-78379403D01*
X163424553Y-78445960D01*
X163424555Y-78445965D01*
X163512095Y-78562904D01*
X163629034Y-78650444D01*
X163765906Y-78701494D01*
X163826402Y-78707999D01*
X163826415Y-78708000D01*
X164521000Y-78708000D01*
X164521000Y-77672968D01*
X164601306Y-77719333D01*
X164715756Y-77750000D01*
X164834244Y-77750000D01*
X164948694Y-77719333D01*
X165029000Y-77672968D01*
X165029000Y-78708000D01*
X165723585Y-78708000D01*
X165723597Y-78707999D01*
X165784093Y-78701494D01*
X165920964Y-78650444D01*
X165920965Y-78650444D01*
X166037904Y-78562904D01*
X166125444Y-78445965D01*
X166125444Y-78445964D01*
X166176494Y-78309093D01*
X166182999Y-78248597D01*
X166183000Y-78248585D01*
X166183000Y-77554000D01*
X165147968Y-77554000D01*
X165194333Y-77473694D01*
X165225000Y-77359244D01*
X165225000Y-77240756D01*
X165194333Y-77126306D01*
X165147968Y-77046000D01*
X166183000Y-77046000D01*
X166183000Y-76351414D01*
X166182999Y-76351402D01*
X166176494Y-76290906D01*
X166125444Y-76154035D01*
X166125444Y-76154034D01*
X166037904Y-76037095D01*
X165920965Y-75949555D01*
X165784093Y-75898505D01*
X165723597Y-75892000D01*
X165029000Y-75892000D01*
X165029000Y-76927031D01*
X164948694Y-76880667D01*
X164834244Y-76850000D01*
X164715756Y-76850000D01*
X164601306Y-76880667D01*
X164521000Y-76927031D01*
X164521000Y-75892000D01*
X163826402Y-75892000D01*
X163765906Y-75898505D01*
X163629035Y-75949555D01*
X163629034Y-75949555D01*
X163512095Y-76037095D01*
X163424555Y-76154034D01*
X163424554Y-76154037D01*
X163399728Y-76220597D01*
X163357181Y-76277432D01*
X163290660Y-76302242D01*
X163221286Y-76287150D01*
X163192578Y-76265658D01*
X163152578Y-76225658D01*
X162973218Y-76095345D01*
X162973217Y-76095344D01*
X162973215Y-76095343D01*
X162775676Y-75994692D01*
X162775673Y-75994691D01*
X162775671Y-75994690D01*
X162564829Y-75926183D01*
X162564825Y-75926182D01*
X162564824Y-75926182D01*
X162345851Y-75891500D01*
X162124149Y-75891500D01*
X161905176Y-75926182D01*
X161905170Y-75926183D01*
X161694328Y-75994690D01*
X161694322Y-75994693D01*
X161496781Y-76095345D01*
X161317421Y-76225658D01*
X161160658Y-76382421D01*
X161030345Y-76561781D01*
X160929693Y-76759322D01*
X160929690Y-76759328D01*
X160861183Y-76970170D01*
X160861182Y-76970175D01*
X160861182Y-76970176D01*
X160826500Y-77189149D01*
X142281000Y-77189149D01*
X142284906Y-77164487D01*
X142308000Y-77018678D01*
X142308000Y-76781321D01*
X142270866Y-76546870D01*
X142197519Y-76321132D01*
X142089757Y-76109637D01*
X142089756Y-76109636D01*
X142030766Y-76028442D01*
X141324982Y-76734226D01*
X141312518Y-76687708D01*
X141240110Y-76562292D01*
X141137708Y-76459890D01*
X141012292Y-76387482D01*
X140965771Y-76375016D01*
X141671556Y-75669232D01*
X141671556Y-75669230D01*
X141590368Y-75610246D01*
X141378867Y-75502480D01*
X141153129Y-75429133D01*
X140918679Y-75392000D01*
X140681321Y-75392000D01*
X140446870Y-75429133D01*
X140221132Y-75502480D01*
X140009634Y-75610243D01*
X139928442Y-75669231D01*
X140634227Y-76375017D01*
X140587708Y-76387482D01*
X140462292Y-76459890D01*
X140359890Y-76562292D01*
X140287482Y-76687708D01*
X140275017Y-76734227D01*
X139569231Y-76028442D01*
X139510243Y-76109634D01*
X139402480Y-76321132D01*
X139329133Y-76546870D01*
X139292000Y-76781321D01*
X135808000Y-76781321D01*
X135770866Y-76546870D01*
X135697519Y-76321132D01*
X135589757Y-76109637D01*
X135589756Y-76109636D01*
X135530766Y-76028442D01*
X134824982Y-76734226D01*
X134812518Y-76687708D01*
X134740110Y-76562292D01*
X134637708Y-76459890D01*
X134512292Y-76387482D01*
X134465771Y-76375016D01*
X135171556Y-75669232D01*
X135171556Y-75669230D01*
X135090368Y-75610246D01*
X134878867Y-75502480D01*
X134653129Y-75429133D01*
X134418679Y-75392000D01*
X134181321Y-75392000D01*
X133946870Y-75429133D01*
X133721132Y-75502480D01*
X133509634Y-75610243D01*
X133428442Y-75669231D01*
X134134227Y-76375017D01*
X134087708Y-76387482D01*
X133962292Y-76459890D01*
X133859890Y-76562292D01*
X133787482Y-76687708D01*
X133775017Y-76734227D01*
X133069231Y-76028442D01*
X133010243Y-76109634D01*
X132902480Y-76321132D01*
X132829133Y-76546870D01*
X132792000Y-76781321D01*
X119993300Y-76781321D01*
X119993300Y-72281278D01*
X132791500Y-72281278D01*
X132791500Y-72518722D01*
X132828644Y-72753241D01*
X132828645Y-72753246D01*
X132902016Y-72979058D01*
X132902018Y-72979063D01*
X133009815Y-73190627D01*
X133149380Y-73382722D01*
X133149382Y-73382724D01*
X133149384Y-73382727D01*
X133317272Y-73550615D01*
X133317275Y-73550617D01*
X133317278Y-73550620D01*
X133509373Y-73690185D01*
X133720937Y-73797982D01*
X133946759Y-73871356D01*
X134181278Y-73908500D01*
X134181281Y-73908500D01*
X134418719Y-73908500D01*
X134418722Y-73908500D01*
X134653241Y-73871356D01*
X134879063Y-73797982D01*
X135090627Y-73690185D01*
X135282722Y-73550620D01*
X135450620Y-73382722D01*
X135590185Y-73190627D01*
X135697982Y-72979063D01*
X135771356Y-72753241D01*
X135808500Y-72518722D01*
X135808500Y-72281278D01*
X139291500Y-72281278D01*
X139291500Y-72518722D01*
X139328644Y-72753241D01*
X139328645Y-72753246D01*
X139402016Y-72979058D01*
X139402018Y-72979063D01*
X139509815Y-73190627D01*
X139649380Y-73382722D01*
X139649382Y-73382724D01*
X139649384Y-73382727D01*
X139817272Y-73550615D01*
X139817275Y-73550617D01*
X139817278Y-73550620D01*
X140009373Y-73690185D01*
X140220937Y-73797982D01*
X140446759Y-73871356D01*
X140681278Y-73908500D01*
X140681281Y-73908500D01*
X140918719Y-73908500D01*
X140918722Y-73908500D01*
X141153241Y-73871356D01*
X141379063Y-73797982D01*
X141590627Y-73690185D01*
X141782722Y-73550620D01*
X141950620Y-73382722D01*
X142090185Y-73190627D01*
X142197982Y-72979063D01*
X142271356Y-72753241D01*
X142308500Y-72518722D01*
X142308500Y-72281278D01*
X142271356Y-72046759D01*
X142197982Y-71820937D01*
X142090185Y-71609373D01*
X141950620Y-71417278D01*
X141950617Y-71417275D01*
X141950615Y-71417272D01*
X141782727Y-71249384D01*
X141782724Y-71249382D01*
X141782722Y-71249380D01*
X141590627Y-71109815D01*
X141379063Y-71002018D01*
X141379060Y-71002017D01*
X141379058Y-71002016D01*
X141153246Y-70928645D01*
X141153242Y-70928644D01*
X141153241Y-70928644D01*
X140918722Y-70891500D01*
X140681278Y-70891500D01*
X140446759Y-70928644D01*
X140446753Y-70928645D01*
X140220941Y-71002016D01*
X140220935Y-71002019D01*
X140009369Y-71109817D01*
X139817275Y-71249382D01*
X139817272Y-71249384D01*
X139649384Y-71417272D01*
X139649382Y-71417275D01*
X139509817Y-71609369D01*
X139402019Y-71820935D01*
X139402016Y-71820941D01*
X139328645Y-72046753D01*
X139328644Y-72046758D01*
X139328644Y-72046759D01*
X139291500Y-72281278D01*
X135808500Y-72281278D01*
X135771356Y-72046759D01*
X135697982Y-71820937D01*
X135590185Y-71609373D01*
X135450620Y-71417278D01*
X135450617Y-71417275D01*
X135450615Y-71417272D01*
X135282727Y-71249384D01*
X135282724Y-71249382D01*
X135282722Y-71249380D01*
X135090627Y-71109815D01*
X134879063Y-71002018D01*
X134879060Y-71002017D01*
X134879058Y-71002016D01*
X134653246Y-70928645D01*
X134653242Y-70928644D01*
X134653241Y-70928644D01*
X134418722Y-70891500D01*
X134181278Y-70891500D01*
X133946759Y-70928644D01*
X133946753Y-70928645D01*
X133720941Y-71002016D01*
X133720935Y-71002019D01*
X133509369Y-71109817D01*
X133317275Y-71249382D01*
X133317272Y-71249384D01*
X133149384Y-71417272D01*
X133149382Y-71417275D01*
X133009817Y-71609369D01*
X132902019Y-71820935D01*
X132902016Y-71820941D01*
X132828645Y-72046753D01*
X132828644Y-72046758D01*
X132828644Y-72046759D01*
X132791500Y-72281278D01*
X119993300Y-72281278D01*
X119993300Y-69089149D01*
X160826500Y-69089149D01*
X160826500Y-69310851D01*
X160849173Y-69454000D01*
X160861183Y-69529829D01*
X160929690Y-69740671D01*
X160929692Y-69740676D01*
X160929693Y-69740677D01*
X161030345Y-69938218D01*
X161160658Y-70117578D01*
X161317421Y-70274341D01*
X161317424Y-70274343D01*
X161496785Y-70404657D01*
X161694324Y-70505308D01*
X161905176Y-70573818D01*
X162124149Y-70608500D01*
X162124152Y-70608500D01*
X162345848Y-70608500D01*
X162345851Y-70608500D01*
X162564824Y-70573818D01*
X162775676Y-70505308D01*
X162973215Y-70404657D01*
X163152576Y-70274343D01*
X163192577Y-70234342D01*
X163254888Y-70200316D01*
X163325704Y-70205380D01*
X163382540Y-70247926D01*
X163399728Y-70279403D01*
X163424553Y-70345960D01*
X163424555Y-70345965D01*
X163512095Y-70462904D01*
X163629034Y-70550444D01*
X163765906Y-70601494D01*
X163826402Y-70607999D01*
X163826415Y-70608000D01*
X164521000Y-70608000D01*
X164521000Y-69572968D01*
X164601306Y-69619333D01*
X164715756Y-69650000D01*
X164834244Y-69650000D01*
X164948694Y-69619333D01*
X165029000Y-69572968D01*
X165029000Y-70608000D01*
X165723585Y-70608000D01*
X165723597Y-70607999D01*
X165784093Y-70601494D01*
X165920964Y-70550444D01*
X165920965Y-70550444D01*
X166037904Y-70462904D01*
X166125444Y-70345965D01*
X166125444Y-70345964D01*
X166176494Y-70209093D01*
X166182999Y-70148597D01*
X166183000Y-70148585D01*
X166183000Y-69454000D01*
X165147968Y-69454000D01*
X165194333Y-69373694D01*
X165225000Y-69259244D01*
X165225000Y-69140756D01*
X165194333Y-69026306D01*
X165147968Y-68946000D01*
X166183000Y-68946000D01*
X166183000Y-68251414D01*
X166182999Y-68251402D01*
X166176494Y-68190906D01*
X166125444Y-68054035D01*
X166125444Y-68054034D01*
X166037904Y-67937095D01*
X165920965Y-67849555D01*
X165784093Y-67798505D01*
X165723597Y-67792000D01*
X165029000Y-67792000D01*
X165029000Y-68827031D01*
X164948694Y-68780667D01*
X164834244Y-68750000D01*
X164715756Y-68750000D01*
X164601306Y-68780667D01*
X164521000Y-68827031D01*
X164521000Y-67792000D01*
X163826402Y-67792000D01*
X163765906Y-67798505D01*
X163629035Y-67849555D01*
X163629034Y-67849555D01*
X163512095Y-67937095D01*
X163424555Y-68054034D01*
X163424554Y-68054037D01*
X163399728Y-68120597D01*
X163357181Y-68177432D01*
X163290660Y-68202242D01*
X163221286Y-68187150D01*
X163192578Y-68165658D01*
X163152578Y-68125658D01*
X162973218Y-67995345D01*
X162973217Y-67995344D01*
X162973215Y-67995343D01*
X162775676Y-67894692D01*
X162775673Y-67894691D01*
X162775671Y-67894690D01*
X162564829Y-67826183D01*
X162564825Y-67826182D01*
X162564824Y-67826182D01*
X162345851Y-67791500D01*
X162124149Y-67791500D01*
X161905176Y-67826182D01*
X161905170Y-67826183D01*
X161694328Y-67894690D01*
X161694322Y-67894693D01*
X161496781Y-67995345D01*
X161317421Y-68125658D01*
X161160658Y-68282421D01*
X161030345Y-68461781D01*
X160929693Y-68659322D01*
X160929690Y-68659328D01*
X160861183Y-68870170D01*
X160861182Y-68870175D01*
X160861182Y-68870176D01*
X160826500Y-69089149D01*
X119993300Y-69089149D01*
X119993300Y-65931278D01*
X132741500Y-65931278D01*
X132741500Y-66168722D01*
X132778644Y-66403241D01*
X132778645Y-66403246D01*
X132852016Y-66629058D01*
X132852018Y-66629063D01*
X132959815Y-66840627D01*
X133099380Y-67032722D01*
X133099382Y-67032724D01*
X133099384Y-67032727D01*
X133267272Y-67200615D01*
X133267275Y-67200617D01*
X133267278Y-67200620D01*
X133459373Y-67340185D01*
X133670937Y-67447982D01*
X133896759Y-67521356D01*
X134131278Y-67558500D01*
X134131281Y-67558500D01*
X134368719Y-67558500D01*
X134368722Y-67558500D01*
X134603241Y-67521356D01*
X134829063Y-67447982D01*
X135040627Y-67340185D01*
X135232722Y-67200620D01*
X135400620Y-67032722D01*
X135540185Y-66840627D01*
X135647982Y-66629063D01*
X135721356Y-66403241D01*
X135758500Y-66168722D01*
X135758500Y-65931278D01*
X139241500Y-65931278D01*
X139241500Y-66168722D01*
X139278644Y-66403241D01*
X139278645Y-66403246D01*
X139352016Y-66629058D01*
X139352018Y-66629063D01*
X139459815Y-66840627D01*
X139599380Y-67032722D01*
X139599382Y-67032724D01*
X139599384Y-67032727D01*
X139767272Y-67200615D01*
X139767275Y-67200617D01*
X139767278Y-67200620D01*
X139959373Y-67340185D01*
X140170937Y-67447982D01*
X140396759Y-67521356D01*
X140631278Y-67558500D01*
X140631281Y-67558500D01*
X140868719Y-67558500D01*
X140868722Y-67558500D01*
X141103241Y-67521356D01*
X141329063Y-67447982D01*
X141540627Y-67340185D01*
X141732722Y-67200620D01*
X141900620Y-67032722D01*
X142040185Y-66840627D01*
X142147982Y-66629063D01*
X142221356Y-66403241D01*
X142258500Y-66168722D01*
X142258500Y-65931278D01*
X142221356Y-65696759D01*
X142147982Y-65470937D01*
X142040185Y-65259373D01*
X141900620Y-65067278D01*
X141900617Y-65067275D01*
X141900615Y-65067272D01*
X141732727Y-64899384D01*
X141732724Y-64899382D01*
X141732722Y-64899380D01*
X141540627Y-64759815D01*
X141329063Y-64652018D01*
X141329060Y-64652017D01*
X141329058Y-64652016D01*
X141103246Y-64578645D01*
X141103242Y-64578644D01*
X141103241Y-64578644D01*
X140868722Y-64541500D01*
X140631278Y-64541500D01*
X140396759Y-64578644D01*
X140396753Y-64578645D01*
X140170941Y-64652016D01*
X140170935Y-64652019D01*
X139959369Y-64759817D01*
X139767275Y-64899382D01*
X139767272Y-64899384D01*
X139599384Y-65067272D01*
X139599382Y-65067275D01*
X139459817Y-65259369D01*
X139352019Y-65470935D01*
X139352016Y-65470941D01*
X139278645Y-65696753D01*
X139278644Y-65696758D01*
X139278644Y-65696759D01*
X139241500Y-65931278D01*
X135758500Y-65931278D01*
X135721356Y-65696759D01*
X135647982Y-65470937D01*
X135540185Y-65259373D01*
X135400620Y-65067278D01*
X135400617Y-65067275D01*
X135400615Y-65067272D01*
X135232727Y-64899384D01*
X135232724Y-64899382D01*
X135232722Y-64899380D01*
X135040627Y-64759815D01*
X134829063Y-64652018D01*
X134829060Y-64652017D01*
X134829058Y-64652016D01*
X134603246Y-64578645D01*
X134603242Y-64578644D01*
X134603241Y-64578644D01*
X134368722Y-64541500D01*
X134131278Y-64541500D01*
X133896759Y-64578644D01*
X133896753Y-64578645D01*
X133670941Y-64652016D01*
X133670935Y-64652019D01*
X133459369Y-64759817D01*
X133267275Y-64899382D01*
X133267272Y-64899384D01*
X133099384Y-65067272D01*
X133099382Y-65067275D01*
X132959817Y-65259369D01*
X132852019Y-65470935D01*
X132852016Y-65470941D01*
X132778645Y-65696753D01*
X132778644Y-65696758D01*
X132778644Y-65696759D01*
X132741500Y-65931278D01*
X119993300Y-65931278D01*
X119993300Y-61431321D01*
X132742000Y-61431321D01*
X132742000Y-61668678D01*
X132779133Y-61903129D01*
X132852480Y-62128867D01*
X132960246Y-62340368D01*
X133019230Y-62421556D01*
X133019232Y-62421556D01*
X133725016Y-61715771D01*
X133737482Y-61762292D01*
X133809890Y-61887708D01*
X133912292Y-61990110D01*
X134037708Y-62062518D01*
X134084226Y-62074982D01*
X133378442Y-62780766D01*
X133459636Y-62839756D01*
X133459637Y-62839757D01*
X133671132Y-62947519D01*
X133896870Y-63020866D01*
X134131321Y-63058000D01*
X134368679Y-63058000D01*
X134603129Y-63020866D01*
X134828867Y-62947519D01*
X135040367Y-62839754D01*
X135121556Y-62780767D01*
X135121556Y-62780765D01*
X134415773Y-62074982D01*
X134462292Y-62062518D01*
X134587708Y-61990110D01*
X134690110Y-61887708D01*
X134762518Y-61762292D01*
X134774982Y-61715773D01*
X135480765Y-62421556D01*
X135480767Y-62421556D01*
X135539754Y-62340367D01*
X135647519Y-62128867D01*
X135720866Y-61903129D01*
X135758000Y-61668678D01*
X135758000Y-61431321D01*
X139242000Y-61431321D01*
X139242000Y-61668678D01*
X139279133Y-61903129D01*
X139352480Y-62128867D01*
X139460246Y-62340368D01*
X139519230Y-62421556D01*
X139519232Y-62421556D01*
X140225016Y-61715771D01*
X140237482Y-61762292D01*
X140309890Y-61887708D01*
X140412292Y-61990110D01*
X140537708Y-62062518D01*
X140584226Y-62074982D01*
X139878442Y-62780766D01*
X139959636Y-62839756D01*
X139959637Y-62839757D01*
X140171132Y-62947519D01*
X140396870Y-63020866D01*
X140631321Y-63058000D01*
X140868679Y-63058000D01*
X141103129Y-63020866D01*
X141328867Y-62947519D01*
X141540367Y-62839754D01*
X141621556Y-62780767D01*
X141621556Y-62780765D01*
X140915773Y-62074982D01*
X140962292Y-62062518D01*
X141087708Y-61990110D01*
X141190110Y-61887708D01*
X141262518Y-61762292D01*
X141274982Y-61715773D01*
X141980765Y-62421556D01*
X141980767Y-62421556D01*
X142039754Y-62340367D01*
X142147519Y-62128867D01*
X142220866Y-61903129D01*
X142258000Y-61668678D01*
X142258000Y-61431321D01*
X142220866Y-61196870D01*
X142196908Y-61123134D01*
X142185865Y-61089149D01*
X160826500Y-61089149D01*
X160826500Y-61310851D01*
X160845581Y-61431321D01*
X160861183Y-61529829D01*
X160906298Y-61668678D01*
X160929692Y-61740676D01*
X161030343Y-61938215D01*
X161030345Y-61938218D01*
X161160658Y-62117578D01*
X161317421Y-62274341D01*
X161317424Y-62274343D01*
X161496785Y-62404657D01*
X161694324Y-62505308D01*
X161905176Y-62573818D01*
X162124149Y-62608500D01*
X162124152Y-62608500D01*
X162345848Y-62608500D01*
X162345851Y-62608500D01*
X162564824Y-62573818D01*
X162775676Y-62505308D01*
X162973215Y-62404657D01*
X163152576Y-62274343D01*
X163192577Y-62234342D01*
X163254888Y-62200316D01*
X163325704Y-62205380D01*
X163382540Y-62247926D01*
X163399728Y-62279403D01*
X163424553Y-62345960D01*
X163424555Y-62345965D01*
X163512095Y-62462904D01*
X163629034Y-62550444D01*
X163765906Y-62601494D01*
X163826402Y-62607999D01*
X163826415Y-62608000D01*
X164521000Y-62608000D01*
X164521000Y-61572968D01*
X164601306Y-61619333D01*
X164715756Y-61650000D01*
X164834244Y-61650000D01*
X164948694Y-61619333D01*
X165029000Y-61572968D01*
X165029000Y-62608000D01*
X165723585Y-62608000D01*
X165723597Y-62607999D01*
X165784093Y-62601494D01*
X165920964Y-62550444D01*
X165920965Y-62550444D01*
X166037904Y-62462904D01*
X166125444Y-62345965D01*
X166125444Y-62345964D01*
X166176494Y-62209093D01*
X166182999Y-62148597D01*
X166183000Y-62148585D01*
X166183000Y-61454000D01*
X165147968Y-61454000D01*
X165194333Y-61373694D01*
X165225000Y-61259244D01*
X165225000Y-61140756D01*
X165194333Y-61026306D01*
X165147968Y-60946000D01*
X166183000Y-60946000D01*
X166183000Y-60251414D01*
X166182999Y-60251402D01*
X166176494Y-60190906D01*
X166125444Y-60054035D01*
X166125444Y-60054034D01*
X166037904Y-59937095D01*
X165920965Y-59849555D01*
X165784093Y-59798505D01*
X165723597Y-59792000D01*
X165029000Y-59792000D01*
X165029000Y-60827031D01*
X164948694Y-60780667D01*
X164834244Y-60750000D01*
X164715756Y-60750000D01*
X164601306Y-60780667D01*
X164521000Y-60827031D01*
X164521000Y-59792000D01*
X163826402Y-59792000D01*
X163765906Y-59798505D01*
X163629035Y-59849555D01*
X163629034Y-59849555D01*
X163512095Y-59937095D01*
X163424555Y-60054034D01*
X163424554Y-60054037D01*
X163399728Y-60120597D01*
X163357181Y-60177432D01*
X163290660Y-60202242D01*
X163221286Y-60187150D01*
X163192578Y-60165658D01*
X163152578Y-60125658D01*
X162973218Y-59995345D01*
X162973217Y-59995344D01*
X162973215Y-59995343D01*
X162775676Y-59894692D01*
X162775673Y-59894691D01*
X162775671Y-59894690D01*
X162564829Y-59826183D01*
X162564825Y-59826182D01*
X162564824Y-59826182D01*
X162345851Y-59791500D01*
X162124149Y-59791500D01*
X161905176Y-59826182D01*
X161905170Y-59826183D01*
X161694328Y-59894690D01*
X161694322Y-59894693D01*
X161496781Y-59995345D01*
X161317421Y-60125658D01*
X161160658Y-60282421D01*
X161030345Y-60461781D01*
X160929693Y-60659322D01*
X160929690Y-60659328D01*
X160861183Y-60870170D01*
X160861182Y-60870175D01*
X160861182Y-60870176D01*
X160826500Y-61089149D01*
X142185865Y-61089149D01*
X142147518Y-60971130D01*
X142039757Y-60759637D01*
X142039756Y-60759636D01*
X141980766Y-60678442D01*
X141274982Y-61384226D01*
X141262518Y-61337708D01*
X141190110Y-61212292D01*
X141087708Y-61109890D01*
X140962292Y-61037482D01*
X140915771Y-61025016D01*
X141621556Y-60319232D01*
X141621556Y-60319230D01*
X141540368Y-60260246D01*
X141328867Y-60152480D01*
X141103129Y-60079133D01*
X140868679Y-60042000D01*
X140631321Y-60042000D01*
X140396870Y-60079133D01*
X140171132Y-60152480D01*
X139959634Y-60260243D01*
X139878442Y-60319231D01*
X140584227Y-61025017D01*
X140537708Y-61037482D01*
X140412292Y-61109890D01*
X140309890Y-61212292D01*
X140237482Y-61337708D01*
X140225017Y-61384227D01*
X139519231Y-60678442D01*
X139460243Y-60759634D01*
X139352480Y-60971132D01*
X139279133Y-61196870D01*
X139242000Y-61431321D01*
X135758000Y-61431321D01*
X135720866Y-61196870D01*
X135647519Y-60971132D01*
X135539757Y-60759637D01*
X135539756Y-60759636D01*
X135480766Y-60678442D01*
X134774982Y-61384226D01*
X134762518Y-61337708D01*
X134690110Y-61212292D01*
X134587708Y-61109890D01*
X134462292Y-61037482D01*
X134415771Y-61025016D01*
X135121556Y-60319232D01*
X135121556Y-60319230D01*
X135040368Y-60260246D01*
X134828867Y-60152480D01*
X134603129Y-60079133D01*
X134368679Y-60042000D01*
X134131321Y-60042000D01*
X133896870Y-60079133D01*
X133671132Y-60152480D01*
X133459634Y-60260243D01*
X133378442Y-60319231D01*
X134084227Y-61025017D01*
X134037708Y-61037482D01*
X133912292Y-61109890D01*
X133809890Y-61212292D01*
X133737482Y-61337708D01*
X133725017Y-61384227D01*
X133019231Y-60678442D01*
X132960243Y-60759634D01*
X132852480Y-60971132D01*
X132779133Y-61196870D01*
X132742000Y-61431321D01*
X119993300Y-61431321D01*
X119993300Y-57059684D01*
X139359300Y-57059684D01*
X139359300Y-57273516D01*
X139392751Y-57484716D01*
X139392752Y-57484721D01*
X139458826Y-57688078D01*
X139458828Y-57688083D01*
X139555906Y-57878609D01*
X139681594Y-58051604D01*
X139681596Y-58051606D01*
X139681598Y-58051609D01*
X139832790Y-58202801D01*
X139832793Y-58202803D01*
X139832796Y-58202806D01*
X140005791Y-58328494D01*
X140196317Y-58425572D01*
X140399678Y-58491647D01*
X140399679Y-58491647D01*
X140399684Y-58491649D01*
X140610884Y-58525100D01*
X140610887Y-58525100D01*
X140824713Y-58525100D01*
X140824716Y-58525100D01*
X141035916Y-58491649D01*
X141239283Y-58425572D01*
X141429809Y-58328494D01*
X141602804Y-58202806D01*
X141754006Y-58051604D01*
X141879694Y-57878609D01*
X141879699Y-57878597D01*
X141880361Y-57877520D01*
X141880724Y-57877191D01*
X141882604Y-57874604D01*
X141883147Y-57874998D01*
X141933004Y-57829883D01*
X142003044Y-57818270D01*
X142068245Y-57846366D01*
X142092821Y-57874730D01*
X142092996Y-57874604D01*
X142094468Y-57876630D01*
X142095239Y-57877520D01*
X142095905Y-57878607D01*
X142095906Y-57878609D01*
X142221594Y-58051604D01*
X142221596Y-58051606D01*
X142221598Y-58051609D01*
X142372790Y-58202801D01*
X142372793Y-58202803D01*
X142372796Y-58202806D01*
X142545791Y-58328494D01*
X142736317Y-58425572D01*
X142939678Y-58491647D01*
X142939679Y-58491647D01*
X142939684Y-58491649D01*
X143150884Y-58525100D01*
X143150887Y-58525100D01*
X143364713Y-58525100D01*
X143364716Y-58525100D01*
X143575916Y-58491649D01*
X143779283Y-58425572D01*
X143969809Y-58328494D01*
X144142804Y-58202806D01*
X144294006Y-58051604D01*
X144419694Y-57878609D01*
X144419699Y-57878597D01*
X144420361Y-57877520D01*
X144420724Y-57877191D01*
X144422604Y-57874604D01*
X144423147Y-57874998D01*
X144473004Y-57829883D01*
X144543044Y-57818270D01*
X144608245Y-57846366D01*
X144632821Y-57874730D01*
X144632996Y-57874604D01*
X144634468Y-57876630D01*
X144635239Y-57877520D01*
X144635905Y-57878607D01*
X144635906Y-57878609D01*
X144761594Y-58051604D01*
X144761596Y-58051606D01*
X144761598Y-58051609D01*
X144912790Y-58202801D01*
X144912793Y-58202803D01*
X144912796Y-58202806D01*
X145085791Y-58328494D01*
X145276317Y-58425572D01*
X145479678Y-58491647D01*
X145479679Y-58491647D01*
X145479684Y-58491649D01*
X145690884Y-58525100D01*
X145690887Y-58525100D01*
X145904713Y-58525100D01*
X145904716Y-58525100D01*
X146115916Y-58491649D01*
X146319283Y-58425572D01*
X146509809Y-58328494D01*
X146682804Y-58202806D01*
X146834006Y-58051604D01*
X146959694Y-57878609D01*
X146959699Y-57878597D01*
X146960361Y-57877520D01*
X146960724Y-57877191D01*
X146962604Y-57874604D01*
X146963147Y-57874998D01*
X147013004Y-57829883D01*
X147083044Y-57818270D01*
X147148245Y-57846366D01*
X147172821Y-57874730D01*
X147172996Y-57874604D01*
X147174468Y-57876630D01*
X147175239Y-57877520D01*
X147175905Y-57878607D01*
X147175906Y-57878609D01*
X147301594Y-58051604D01*
X147301596Y-58051606D01*
X147301598Y-58051609D01*
X147452790Y-58202801D01*
X147452793Y-58202803D01*
X147452796Y-58202806D01*
X147625791Y-58328494D01*
X147816317Y-58425572D01*
X148019678Y-58491647D01*
X148019679Y-58491647D01*
X148019684Y-58491649D01*
X148230884Y-58525100D01*
X148230887Y-58525100D01*
X148444713Y-58525100D01*
X148444716Y-58525100D01*
X148655916Y-58491649D01*
X148859283Y-58425572D01*
X149049809Y-58328494D01*
X149222804Y-58202806D01*
X149374006Y-58051604D01*
X149499694Y-57878609D01*
X149499699Y-57878597D01*
X149500361Y-57877520D01*
X149500724Y-57877191D01*
X149502604Y-57874604D01*
X149503147Y-57874998D01*
X149553004Y-57829883D01*
X149623044Y-57818270D01*
X149688245Y-57846366D01*
X149712821Y-57874730D01*
X149712996Y-57874604D01*
X149714468Y-57876630D01*
X149715239Y-57877520D01*
X149715905Y-57878607D01*
X149715906Y-57878609D01*
X149841594Y-58051604D01*
X149841596Y-58051606D01*
X149841598Y-58051609D01*
X149992790Y-58202801D01*
X149992793Y-58202803D01*
X149992796Y-58202806D01*
X150165791Y-58328494D01*
X150356317Y-58425572D01*
X150559678Y-58491647D01*
X150559679Y-58491647D01*
X150559684Y-58491649D01*
X150770884Y-58525100D01*
X150770887Y-58525100D01*
X150984713Y-58525100D01*
X150984716Y-58525100D01*
X151195916Y-58491649D01*
X151399283Y-58425572D01*
X151589809Y-58328494D01*
X151762804Y-58202806D01*
X151914006Y-58051604D01*
X152039694Y-57878609D01*
X152039699Y-57878597D01*
X152040361Y-57877520D01*
X152040724Y-57877191D01*
X152042604Y-57874604D01*
X152043147Y-57874998D01*
X152093004Y-57829883D01*
X152163044Y-57818270D01*
X152228245Y-57846366D01*
X152252821Y-57874730D01*
X152252996Y-57874604D01*
X152254468Y-57876630D01*
X152255239Y-57877520D01*
X152255905Y-57878607D01*
X152255906Y-57878609D01*
X152381594Y-58051604D01*
X152381596Y-58051606D01*
X152381598Y-58051609D01*
X152532790Y-58202801D01*
X152532793Y-58202803D01*
X152532796Y-58202806D01*
X152705791Y-58328494D01*
X152896317Y-58425572D01*
X153099678Y-58491647D01*
X153099679Y-58491647D01*
X153099684Y-58491649D01*
X153310884Y-58525100D01*
X153310887Y-58525100D01*
X153524713Y-58525100D01*
X153524716Y-58525100D01*
X153735916Y-58491649D01*
X153939283Y-58425572D01*
X154129809Y-58328494D01*
X154302804Y-58202806D01*
X154454006Y-58051604D01*
X154579694Y-57878609D01*
X154579699Y-57878597D01*
X154580361Y-57877520D01*
X154580724Y-57877191D01*
X154582604Y-57874604D01*
X154583147Y-57874998D01*
X154633004Y-57829883D01*
X154703044Y-57818270D01*
X154768245Y-57846366D01*
X154792821Y-57874730D01*
X154792996Y-57874604D01*
X154794468Y-57876630D01*
X154795239Y-57877520D01*
X154795905Y-57878607D01*
X154795906Y-57878609D01*
X154921594Y-58051604D01*
X154921596Y-58051606D01*
X154921598Y-58051609D01*
X155072790Y-58202801D01*
X155072793Y-58202803D01*
X155072796Y-58202806D01*
X155245791Y-58328494D01*
X155436317Y-58425572D01*
X155639678Y-58491647D01*
X155639679Y-58491647D01*
X155639684Y-58491649D01*
X155850884Y-58525100D01*
X155850887Y-58525100D01*
X156064713Y-58525100D01*
X156064716Y-58525100D01*
X156275916Y-58491649D01*
X156479283Y-58425572D01*
X156669809Y-58328494D01*
X156842804Y-58202806D01*
X156994006Y-58051604D01*
X157119694Y-57878609D01*
X157119699Y-57878597D01*
X157120361Y-57877520D01*
X157120724Y-57877191D01*
X157122604Y-57874604D01*
X157123147Y-57874998D01*
X157173004Y-57829883D01*
X157243044Y-57818270D01*
X157308245Y-57846366D01*
X157332821Y-57874730D01*
X157332996Y-57874604D01*
X157334468Y-57876630D01*
X157335239Y-57877520D01*
X157335905Y-57878607D01*
X157335906Y-57878609D01*
X157461594Y-58051604D01*
X157461596Y-58051606D01*
X157461598Y-58051609D01*
X157612790Y-58202801D01*
X157612793Y-58202803D01*
X157612796Y-58202806D01*
X157785791Y-58328494D01*
X157976317Y-58425572D01*
X158179678Y-58491647D01*
X158179679Y-58491647D01*
X158179684Y-58491649D01*
X158390884Y-58525100D01*
X158390887Y-58525100D01*
X158604713Y-58525100D01*
X158604716Y-58525100D01*
X158815916Y-58491649D01*
X159019283Y-58425572D01*
X159209809Y-58328494D01*
X159382804Y-58202806D01*
X159534006Y-58051604D01*
X159659694Y-57878609D01*
X159756772Y-57688083D01*
X159822849Y-57484716D01*
X159856300Y-57273516D01*
X159856300Y-57059684D01*
X159822849Y-56848484D01*
X159756772Y-56645117D01*
X159659694Y-56454591D01*
X159534006Y-56281596D01*
X159534003Y-56281593D01*
X159534001Y-56281590D01*
X159382809Y-56130398D01*
X159382806Y-56130396D01*
X159382804Y-56130394D01*
X159209809Y-56004706D01*
X159019283Y-55907628D01*
X159019280Y-55907627D01*
X159019278Y-55907626D01*
X158815920Y-55841552D01*
X158815923Y-55841552D01*
X158776601Y-55835324D01*
X158604716Y-55808100D01*
X158390884Y-55808100D01*
X158179684Y-55841551D01*
X158179678Y-55841552D01*
X157976321Y-55907626D01*
X157976315Y-55907629D01*
X157785787Y-56004708D01*
X157612793Y-56130396D01*
X157612790Y-56130398D01*
X157461598Y-56281590D01*
X157461596Y-56281593D01*
X157335908Y-56454587D01*
X157335234Y-56455688D01*
X157334868Y-56456018D01*
X157332996Y-56458596D01*
X157332454Y-56458202D01*
X157282587Y-56503321D01*
X157212545Y-56514928D01*
X157147347Y-56486826D01*
X157122776Y-56458470D01*
X157122604Y-56458596D01*
X157121141Y-56456582D01*
X157120366Y-56455688D01*
X157119696Y-56454596D01*
X157119694Y-56454591D01*
X156994006Y-56281596D01*
X156994003Y-56281593D01*
X156994001Y-56281590D01*
X156842809Y-56130398D01*
X156842806Y-56130396D01*
X156842804Y-56130394D01*
X156669809Y-56004706D01*
X156479283Y-55907628D01*
X156479280Y-55907627D01*
X156479278Y-55907626D01*
X156275920Y-55841552D01*
X156275923Y-55841552D01*
X156236601Y-55835324D01*
X156064716Y-55808100D01*
X155850884Y-55808100D01*
X155639684Y-55841551D01*
X155639678Y-55841552D01*
X155436321Y-55907626D01*
X155436315Y-55907629D01*
X155245787Y-56004708D01*
X155072793Y-56130396D01*
X155072790Y-56130398D01*
X154921598Y-56281590D01*
X154921596Y-56281593D01*
X154795908Y-56454587D01*
X154795234Y-56455688D01*
X154794868Y-56456018D01*
X154792996Y-56458596D01*
X154792454Y-56458202D01*
X154742587Y-56503321D01*
X154672545Y-56514928D01*
X154607347Y-56486826D01*
X154582776Y-56458470D01*
X154582604Y-56458596D01*
X154581141Y-56456582D01*
X154580366Y-56455688D01*
X154579696Y-56454596D01*
X154579694Y-56454591D01*
X154454006Y-56281596D01*
X154454003Y-56281593D01*
X154454001Y-56281590D01*
X154302809Y-56130398D01*
X154302806Y-56130396D01*
X154302804Y-56130394D01*
X154129809Y-56004706D01*
X153939283Y-55907628D01*
X153939280Y-55907627D01*
X153939278Y-55907626D01*
X153735920Y-55841552D01*
X153735923Y-55841552D01*
X153696601Y-55835324D01*
X153524716Y-55808100D01*
X153310884Y-55808100D01*
X153099684Y-55841551D01*
X153099678Y-55841552D01*
X152896321Y-55907626D01*
X152896315Y-55907629D01*
X152705787Y-56004708D01*
X152532793Y-56130396D01*
X152532790Y-56130398D01*
X152381598Y-56281590D01*
X152381596Y-56281593D01*
X152255908Y-56454587D01*
X152255234Y-56455688D01*
X152254868Y-56456018D01*
X152252996Y-56458596D01*
X152252454Y-56458202D01*
X152202587Y-56503321D01*
X152132545Y-56514928D01*
X152067347Y-56486826D01*
X152042776Y-56458470D01*
X152042604Y-56458596D01*
X152041141Y-56456582D01*
X152040366Y-56455688D01*
X152039696Y-56454596D01*
X152039694Y-56454591D01*
X151914006Y-56281596D01*
X151914003Y-56281593D01*
X151914001Y-56281590D01*
X151762809Y-56130398D01*
X151762806Y-56130396D01*
X151762804Y-56130394D01*
X151589809Y-56004706D01*
X151399283Y-55907628D01*
X151399280Y-55907627D01*
X151399278Y-55907626D01*
X151195920Y-55841552D01*
X151195923Y-55841552D01*
X151156601Y-55835324D01*
X150984716Y-55808100D01*
X150770884Y-55808100D01*
X150559684Y-55841551D01*
X150559678Y-55841552D01*
X150356321Y-55907626D01*
X150356315Y-55907629D01*
X150165787Y-56004708D01*
X149992793Y-56130396D01*
X149992790Y-56130398D01*
X149841598Y-56281590D01*
X149841596Y-56281593D01*
X149715908Y-56454587D01*
X149715234Y-56455688D01*
X149714868Y-56456018D01*
X149712996Y-56458596D01*
X149712454Y-56458202D01*
X149662587Y-56503321D01*
X149592545Y-56514928D01*
X149527347Y-56486826D01*
X149502776Y-56458470D01*
X149502604Y-56458596D01*
X149501141Y-56456582D01*
X149500366Y-56455688D01*
X149499696Y-56454596D01*
X149499694Y-56454591D01*
X149374006Y-56281596D01*
X149374003Y-56281593D01*
X149374001Y-56281590D01*
X149222809Y-56130398D01*
X149222806Y-56130396D01*
X149222804Y-56130394D01*
X149049809Y-56004706D01*
X148859283Y-55907628D01*
X148859280Y-55907627D01*
X148859278Y-55907626D01*
X148655920Y-55841552D01*
X148655923Y-55841552D01*
X148616601Y-55835324D01*
X148444716Y-55808100D01*
X148230884Y-55808100D01*
X148019684Y-55841551D01*
X148019678Y-55841552D01*
X147816321Y-55907626D01*
X147816315Y-55907629D01*
X147625787Y-56004708D01*
X147452793Y-56130396D01*
X147452790Y-56130398D01*
X147301598Y-56281590D01*
X147301596Y-56281593D01*
X147175908Y-56454587D01*
X147175234Y-56455688D01*
X147174868Y-56456018D01*
X147172996Y-56458596D01*
X147172454Y-56458202D01*
X147122587Y-56503321D01*
X147052545Y-56514928D01*
X146987347Y-56486826D01*
X146962776Y-56458470D01*
X146962604Y-56458596D01*
X146961141Y-56456582D01*
X146960366Y-56455688D01*
X146959696Y-56454596D01*
X146959694Y-56454591D01*
X146834006Y-56281596D01*
X146834003Y-56281593D01*
X146834001Y-56281590D01*
X146682809Y-56130398D01*
X146682806Y-56130396D01*
X146682804Y-56130394D01*
X146509809Y-56004706D01*
X146319283Y-55907628D01*
X146319280Y-55907627D01*
X146319278Y-55907626D01*
X146115920Y-55841552D01*
X146115923Y-55841552D01*
X146076601Y-55835324D01*
X145904716Y-55808100D01*
X145690884Y-55808100D01*
X145479684Y-55841551D01*
X145479678Y-55841552D01*
X145276321Y-55907626D01*
X145276315Y-55907629D01*
X145085787Y-56004708D01*
X144912793Y-56130396D01*
X144912790Y-56130398D01*
X144761598Y-56281590D01*
X144761596Y-56281593D01*
X144635908Y-56454587D01*
X144635234Y-56455688D01*
X144634868Y-56456018D01*
X144632996Y-56458596D01*
X144632454Y-56458202D01*
X144582587Y-56503321D01*
X144512545Y-56514928D01*
X144447347Y-56486826D01*
X144422776Y-56458470D01*
X144422604Y-56458596D01*
X144421141Y-56456582D01*
X144420366Y-56455688D01*
X144419696Y-56454596D01*
X144419694Y-56454591D01*
X144294006Y-56281596D01*
X144294003Y-56281593D01*
X144294001Y-56281590D01*
X144142809Y-56130398D01*
X144142806Y-56130396D01*
X144142804Y-56130394D01*
X143969809Y-56004706D01*
X143779283Y-55907628D01*
X143779280Y-55907627D01*
X143779278Y-55907626D01*
X143575920Y-55841552D01*
X143575923Y-55841552D01*
X143536601Y-55835324D01*
X143364716Y-55808100D01*
X143150884Y-55808100D01*
X142939684Y-55841551D01*
X142939678Y-55841552D01*
X142736321Y-55907626D01*
X142736315Y-55907629D01*
X142545787Y-56004708D01*
X142372793Y-56130396D01*
X142372790Y-56130398D01*
X142221598Y-56281590D01*
X142221596Y-56281593D01*
X142095908Y-56454587D01*
X142095234Y-56455688D01*
X142094868Y-56456018D01*
X142092996Y-56458596D01*
X142092454Y-56458202D01*
X142042587Y-56503321D01*
X141972545Y-56514928D01*
X141907347Y-56486826D01*
X141882776Y-56458470D01*
X141882604Y-56458596D01*
X141881141Y-56456582D01*
X141880366Y-56455688D01*
X141879696Y-56454596D01*
X141879694Y-56454591D01*
X141754006Y-56281596D01*
X141754003Y-56281593D01*
X141754001Y-56281590D01*
X141602809Y-56130398D01*
X141602806Y-56130396D01*
X141602804Y-56130394D01*
X141429809Y-56004706D01*
X141239283Y-55907628D01*
X141239280Y-55907627D01*
X141239278Y-55907626D01*
X141035920Y-55841552D01*
X141035923Y-55841552D01*
X140996601Y-55835324D01*
X140824716Y-55808100D01*
X140610884Y-55808100D01*
X140399684Y-55841551D01*
X140399678Y-55841552D01*
X140196321Y-55907626D01*
X140196315Y-55907629D01*
X140005787Y-56004708D01*
X139832793Y-56130396D01*
X139832790Y-56130398D01*
X139681598Y-56281590D01*
X139681596Y-56281593D01*
X139555908Y-56454587D01*
X139458829Y-56645115D01*
X139458826Y-56645121D01*
X139392752Y-56848478D01*
X139392751Y-56848483D01*
X139392751Y-56848484D01*
X139359300Y-57059684D01*
X119993300Y-57059684D01*
X119993300Y-53468100D01*
X120013302Y-53399979D01*
X120066958Y-53353486D01*
X120119300Y-53342100D01*
X177066300Y-53342100D01*
X177134421Y-53362102D01*
G37*
%TD.AperFunction*%
%TD*%
M02*
