M48
; DRILL file KiCad 10.0.1 date 2026-08-16T09:57:41
; FORMAT={-:-/ absolute / metric / decimal}
; #@! TF.CreationDate,2026-08-16T09:57:41+02:00
; #@! TF.GenerationSoftware,Kicad,Pcbnew,10.0.1
; #@! TF.FileFunction,Plated,1,2,PTH
FMAT,2
METRIC
; #@! TA.AperFunction,Plated,PTH,ComponentDrill
T1C0.900
; #@! TA.AperFunction,Plated,PTH,ComponentDrill
T2C1.000
; #@! TA.AperFunction,Plated,PTH,ComponentDrill
T3C1.100
%
G90
G05
T1
X162.235Y-61.2
X162.235Y-69.2
X162.235Y-77.3
X164.775Y-61.2
X164.775Y-69.2
X164.775Y-77.3
T2
X140.718Y-57.167
X140.718Y-81.192
X143.258Y-57.167
X143.258Y-81.192
X145.798Y-57.167
X145.798Y-81.192
X148.338Y-57.167
X148.338Y-81.192
X150.878Y-57.167
X150.878Y-81.192
X153.418Y-57.167
X153.418Y-81.192
X155.958Y-57.167
X155.958Y-81.192
X158.498Y-57.167
X158.498Y-81.192
T3
X134.25Y-61.55
X134.25Y-66.05
X134.3Y-72.4
X134.3Y-76.9
X140.75Y-61.55
X140.75Y-66.05
X140.8Y-72.4
X140.8Y-76.9
M30
