%TF.GenerationSoftware,KiCad,Pcbnew,(6.0.9)*%
%TF.CreationDate,2024-02-06T02:56:22+01:00*%
%TF.ProjectId,HBW-1W-T10-Platine2,4842572d-3157-42d5-9431-302d506c6174,rev?*%
%TF.SameCoordinates,Original*%
%TF.FileFunction,Soldermask,Top*%
%TF.FilePolarity,Negative*%
%FSLAX46Y46*%
G04 Gerber Fmt 4.6, Leading zero omitted, Abs format (unit mm)*
G04 Created by KiCad (PCBNEW (6.0.9)) date 2024-02-06 02:56:22*
%MOMM*%
%LPD*%
G01*
G04 APERTURE LIST*
G04 Aperture macros list*
%AMRoundRect*
0 Rectangle with rounded corners*
0 $1 Rounding radius*
0 $2 $3 $4 $5 $6 $7 $8 $9 X,Y pos of 4 corners*
0 Add a 4 corners polygon primitive as box body*
4,1,4,$2,$3,$4,$5,$6,$7,$8,$9,$2,$3,0*
0 Add four circle primitives for the rounded corners*
1,1,$1+$1,$2,$3*
1,1,$1+$1,$4,$5*
1,1,$1+$1,$6,$7*
1,1,$1+$1,$8,$9*
0 Add four rect primitives between the rounded corners*
20,1,$1+$1,$2,$3,$4,$5,0*
20,1,$1+$1,$4,$5,$6,$7,0*
20,1,$1+$1,$6,$7,$8,$9,0*
20,1,$1+$1,$8,$9,$2,$3,0*%
G04 Aperture macros list end*
%ADD10RoundRect,0.250000X0.450000X-0.350000X0.450000X0.350000X-0.450000X0.350000X-0.450000X-0.350000X0*%
%ADD11R,1.800000X1.800000*%
%ADD12C,1.800000*%
%ADD13RoundRect,0.250000X0.350000X0.450000X-0.350000X0.450000X-0.350000X-0.450000X0.350000X-0.450000X0*%
%ADD14R,0.400000X3.200000*%
%ADD15C,2.000000*%
%ADD16O,1.700000X1.700000*%
%ADD17R,1.700000X1.700000*%
%ADD18RoundRect,0.250000X-0.337500X-0.475000X0.337500X-0.475000X0.337500X0.475000X-0.337500X0.475000X0*%
%ADD19RoundRect,0.250000X0.475000X-0.337500X0.475000X0.337500X-0.475000X0.337500X-0.475000X-0.337500X0*%
%ADD20RoundRect,0.250000X-0.475000X0.337500X-0.475000X-0.337500X0.475000X-0.337500X0.475000X0.337500X0*%
%ADD21RoundRect,0.250000X-0.450000X0.350000X-0.450000X-0.350000X0.450000X-0.350000X0.450000X0.350000X0*%
%ADD22R,1.600000X0.550000*%
%ADD23R,0.550000X1.600000*%
G04 APERTURE END LIST*
D10*
%TO.C,R1*%
X139750000Y-68250000D03*
X139750000Y-66250000D03*
%TD*%
D11*
%TO.C,D3*%
X133725000Y-61500000D03*
D12*
X136265000Y-61500000D03*
%TD*%
D13*
%TO.C,R4*%
X141750000Y-77000000D03*
X139750000Y-77000000D03*
%TD*%
D11*
%TO.C,D2*%
X133725000Y-77000000D03*
D12*
X136265000Y-77000000D03*
%TD*%
D14*
%TO.C,Y1*%
X155200000Y-61250000D03*
X154000000Y-61250000D03*
X152800000Y-61250000D03*
%TD*%
D15*
%TO.C,SW2*%
X157750000Y-72500000D03*
X164250000Y-72500000D03*
X157750000Y-77000000D03*
X164250000Y-77000000D03*
%TD*%
D16*
%TO.C,J2*%
X140717800Y-81191600D03*
X143257800Y-81191600D03*
X145797800Y-81191600D03*
X148337800Y-81191600D03*
X150877800Y-81191600D03*
D17*
X153417800Y-81191600D03*
X155957800Y-81191600D03*
D16*
X158497800Y-81191600D03*
%TD*%
D18*
%TO.C,C1*%
X157000000Y-69250000D03*
X159075000Y-69250000D03*
%TD*%
D15*
%TO.C,SW1*%
X164250000Y-61750000D03*
X157750000Y-61750000D03*
X164250000Y-66250000D03*
X157750000Y-66250000D03*
%TD*%
D19*
%TO.C,C3*%
X142500000Y-71325000D03*
X142500000Y-69250000D03*
%TD*%
D20*
%TO.C,C2*%
X139750000Y-71212500D03*
X139750000Y-73287500D03*
%TD*%
D16*
%TO.C,J1*%
X140717800Y-57166600D03*
X143257800Y-57166600D03*
X145797800Y-57166600D03*
X148337800Y-57166600D03*
X150877800Y-57166600D03*
X153417800Y-57166600D03*
X155957800Y-57166600D03*
X158497800Y-57166600D03*
%TD*%
D11*
%TO.C,D1*%
X133725000Y-69250000D03*
D12*
X136265000Y-69250000D03*
%TD*%
D16*
%TO.C,J3*%
X127750000Y-71775000D03*
D17*
X125210000Y-71775000D03*
D16*
X127750000Y-69235000D03*
X125210000Y-69235000D03*
X127750000Y-66695000D03*
X125210000Y-66695000D03*
%TD*%
D21*
%TO.C,R2*%
X139750000Y-61500000D03*
X139750000Y-63500000D03*
%TD*%
D10*
%TO.C,R3*%
X154750000Y-77750000D03*
X154750000Y-75750000D03*
%TD*%
D22*
%TO.C,IC1*%
X153750000Y-71800000D03*
X153750000Y-71000000D03*
X153750000Y-70200000D03*
X153750000Y-69400000D03*
X153750000Y-68600000D03*
X153750000Y-67800000D03*
X153750000Y-67000000D03*
X153750000Y-66200000D03*
D23*
X152300000Y-64750000D03*
X151500000Y-64750000D03*
X150700000Y-64750000D03*
X149900000Y-64750000D03*
X149100000Y-64750000D03*
X148300000Y-64750000D03*
X147500000Y-64750000D03*
X146700000Y-64750000D03*
D22*
X145250000Y-66200000D03*
X145250000Y-67000000D03*
X145250000Y-67800000D03*
X145250000Y-68600000D03*
X145250000Y-69400000D03*
X145250000Y-70200000D03*
X145250000Y-71000000D03*
X145250000Y-71800000D03*
D23*
X146700000Y-73250000D03*
X147500000Y-73250000D03*
X148300000Y-73250000D03*
X149100000Y-73250000D03*
X149900000Y-73250000D03*
X150700000Y-73250000D03*
X151500000Y-73250000D03*
X152300000Y-73250000D03*
%TD*%
M02*
