M48
; DRILL file {KiCad (6.0.9)} date Tue Feb  6 02:56:50 2024
; FORMAT={-:-/ absolute / inch / decimal}
; #@! TF.CreationDate,2024-02-06T02:56:50+01:00
; #@! TF.GenerationSoftware,Kicad,Pcbnew,(6.0.9)
; #@! TF.FileFunction,Plated,1,2,PTH
FMAT,2
INCH
; #@! TA.AperFunction,Plated,PTH,ViaDrill
T1C0.0236
; #@! TA.AperFunction,Plated,PTH,ComponentDrill
T2C0.0354
; #@! TA.AperFunction,Plated,PTH,ComponentDrill
T3C0.0394
; #@! TA.AperFunction,Plated,PTH,ComponentDrill
T4C0.0433
%
G90
G05
T1
X5.6791Y-3.0315
X5.7972Y-2.6673
X5.7972Y-2.7953
X5.8366Y-2.7067
X5.8996Y-2.9469
X5.998Y-3.1004
X6.0925Y-2.9232
T2
X5.2648Y-2.4213
X5.2648Y-2.7264
X5.2648Y-3.0315
X5.3648Y-2.4213
X5.3648Y-2.7264
X5.3648Y-3.0315
T3
X4.9295Y-2.6258
X4.9295Y-2.7258
X4.9295Y-2.8258
X5.0295Y-2.6258
X5.0295Y-2.7258
X5.0295Y-2.8258
X5.5401Y-2.2507
X5.5401Y-3.1965
X5.6401Y-2.2507
X5.6401Y-3.1965
X5.7401Y-2.2507
X5.7401Y-3.1965
X5.8401Y-2.2507
X5.8401Y-3.1965
X5.9401Y-2.2507
X5.9401Y-3.1965
X6.0401Y-2.2507
X6.0401Y-3.1965
X6.1401Y-2.2507
X6.1401Y-3.1965
X6.2401Y-2.2507
X6.2401Y-3.1965
T4
X6.2106Y-2.4311
X6.2106Y-2.6083
X6.2106Y-2.8543
X6.2106Y-3.0315
X6.4665Y-2.4311
X6.4665Y-2.6083
X6.4665Y-2.8543
X6.4665Y-3.0315
T0
M30
