%TF.GenerationSoftware,KiCad,Pcbnew,(6.0.9)*%
%TF.CreationDate,2024-02-06T02:56:22+01:00*%
%TF.ProjectId,HBW-1W-T10-Platine2,4842572d-3157-42d5-9431-302d506c6174,rev?*%
%TF.SameCoordinates,Original*%
%TF.FileFunction,Copper,L1,Top*%
%TF.FilePolarity,Positive*%
%FSLAX46Y46*%
G04 Gerber Fmt 4.6, Leading zero omitted, Abs format (unit mm)*
G04 Created by KiCad (PCBNEW (6.0.9)) date 2024-02-06 02:56:22*
%MOMM*%
%LPD*%
G01*
G04 APERTURE LIST*
G04 Aperture macros list*
%AMRoundRect*
0 Rectangle with rounded corners*
0 $1 Rounding radius*
0 $2 $3 $4 $5 $6 $7 $8 $9 X,Y pos of 4 corners*
0 Add a 4 corners polygon primitive as box body*
4,1,4,$2,$3,$4,$5,$6,$7,$8,$9,$2,$3,0*
0 Add four circle primitives for the rounded corners*
1,1,$1+$1,$2,$3*
1,1,$1+$1,$4,$5*
1,1,$1+$1,$6,$7*
1,1,$1+$1,$8,$9*
0 Add four rect primitives between the rounded corners*
20,1,$1+$1,$2,$3,$4,$5,0*
20,1,$1+$1,$4,$5,$6,$7,0*
20,1,$1+$1,$6,$7,$8,$9,0*
20,1,$1+$1,$8,$9,$2,$3,0*%
G04 Aperture macros list end*
%TA.AperFunction,SMDPad,CuDef*%
%ADD10RoundRect,0.250000X0.450000X-0.350000X0.450000X0.350000X-0.450000X0.350000X-0.450000X-0.350000X0*%
%TD*%
%TA.AperFunction,ComponentPad*%
%ADD11R,1.800000X1.800000*%
%TD*%
%TA.AperFunction,ComponentPad*%
%ADD12C,1.800000*%
%TD*%
%TA.AperFunction,SMDPad,CuDef*%
%ADD13RoundRect,0.250000X0.350000X0.450000X-0.350000X0.450000X-0.350000X-0.450000X0.350000X-0.450000X0*%
%TD*%
%TA.AperFunction,SMDPad,CuDef*%
%ADD14R,0.400000X3.200000*%
%TD*%
%TA.AperFunction,ComponentPad*%
%ADD15C,2.000000*%
%TD*%
%TA.AperFunction,ComponentPad*%
%ADD16O,1.700000X1.700000*%
%TD*%
%TA.AperFunction,ComponentPad*%
%ADD17R,1.700000X1.700000*%
%TD*%
%TA.AperFunction,SMDPad,CuDef*%
%ADD18RoundRect,0.250000X-0.337500X-0.475000X0.337500X-0.475000X0.337500X0.475000X-0.337500X0.475000X0*%
%TD*%
%TA.AperFunction,SMDPad,CuDef*%
%ADD19RoundRect,0.250000X0.475000X-0.337500X0.475000X0.337500X-0.475000X0.337500X-0.475000X-0.337500X0*%
%TD*%
%TA.AperFunction,SMDPad,CuDef*%
%ADD20RoundRect,0.250000X-0.475000X0.337500X-0.475000X-0.337500X0.475000X-0.337500X0.475000X0.337500X0*%
%TD*%
%TA.AperFunction,SMDPad,CuDef*%
%ADD21RoundRect,0.250000X-0.450000X0.350000X-0.450000X-0.350000X0.450000X-0.350000X0.450000X0.350000X0*%
%TD*%
%TA.AperFunction,SMDPad,CuDef*%
%ADD22R,1.600000X0.550000*%
%TD*%
%TA.AperFunction,SMDPad,CuDef*%
%ADD23R,0.550000X1.600000*%
%TD*%
%TA.AperFunction,ViaPad*%
%ADD24C,1.000000*%
%TD*%
%TA.AperFunction,Conductor*%
%ADD25C,0.300000*%
%TD*%
G04 APERTURE END LIST*
D10*
%TO.P,R1,1*%
%TO.N,/LED*%
X139750000Y-68250000D03*
%TO.P,R1,2*%
%TO.N,/D13*%
X139750000Y-66250000D03*
%TD*%
D11*
%TO.P,D3,1,K*%
%TO.N,/GND*%
X133725000Y-61500000D03*
D12*
%TO.P,D3,2,A*%
%TO.N,/ID_LED*%
X136265000Y-61500000D03*
%TD*%
D13*
%TO.P,R4,1*%
%TO.N,/VCC*%
X141750000Y-77000000D03*
%TO.P,R4,2*%
%TO.N,Net-(R4-Pad2)*%
X139750000Y-77000000D03*
%TD*%
D11*
%TO.P,D2,1,K*%
%TO.N,/GND*%
X133725000Y-77000000D03*
D12*
%TO.P,D2,2,A*%
%TO.N,Net-(R4-Pad2)*%
X136265000Y-77000000D03*
%TD*%
D14*
%TO.P,Y1,1,1*%
%TO.N,Net-(IC1-Pad7)*%
X155200000Y-61250000D03*
%TO.P,Y1,2,2*%
%TO.N,/GND*%
X154000000Y-61250000D03*
%TO.P,Y1,3,3*%
%TO.N,Net-(Y1-Pad3)*%
X152800000Y-61250000D03*
%TD*%
D15*
%TO.P,SW2,1,1*%
%TO.N,/RST*%
X157750000Y-72500000D03*
X164250000Y-72500000D03*
%TO.P,SW2,2,2*%
%TO.N,/GND*%
X157750000Y-77000000D03*
X164250000Y-77000000D03*
%TD*%
D16*
%TO.P,J2,1,Pin_1*%
%TO.N,/GND*%
X140717800Y-81191600D03*
%TO.P,J2,2,Pin_2*%
X143257800Y-81191600D03*
%TO.P,J2,3,Pin_3*%
%TO.N,/RXD*%
X145797800Y-81191600D03*
%TO.P,J2,4,Pin_4*%
%TO.N,/D2*%
X148337800Y-81191600D03*
%TO.P,J2,5,Pin_5*%
%TO.N,/TXD*%
X150877800Y-81191600D03*
D17*
%TO.P,J2,6,Pin_6*%
%TO.N,/VCC*%
X153417800Y-81191600D03*
%TO.P,J2,7,Pin_7*%
X155957800Y-81191600D03*
D16*
%TO.P,J2,8,Pin_8*%
%TO.N,/D10*%
X158497800Y-81191600D03*
%TD*%
D18*
%TO.P,C1,1*%
%TO.N,/VCC*%
X157000000Y-69250000D03*
%TO.P,C1,2*%
%TO.N,/GND*%
X159075000Y-69250000D03*
%TD*%
D15*
%TO.P,SW1,1,1*%
%TO.N,/A6*%
X164250000Y-61750000D03*
X157750000Y-61750000D03*
%TO.P,SW1,2,2*%
%TO.N,/GND*%
X164250000Y-66250000D03*
X157750000Y-66250000D03*
%TD*%
D19*
%TO.P,C3,1*%
%TO.N,/GND*%
X142500000Y-71325000D03*
%TO.P,C3,2*%
%TO.N,Net-(IC1-Pad20)*%
X142500000Y-69250000D03*
%TD*%
D20*
%TO.P,C2,1*%
%TO.N,/VCC*%
X139750000Y-71212500D03*
%TO.P,C2,2*%
%TO.N,/GND*%
X139750000Y-73287500D03*
%TD*%
D16*
%TO.P,J1,1,Pin_1*%
%TO.N,/A7*%
X140717800Y-57166600D03*
%TO.P,J1,2,Pin_2*%
%TO.N,/A6*%
X143257800Y-57166600D03*
%TO.P,J1,3,Pin_3*%
%TO.N,/A5*%
X145797800Y-57166600D03*
%TO.P,J1,4,Pin_4*%
%TO.N,/A4*%
X148337800Y-57166600D03*
%TO.P,J1,5,Pin_5*%
%TO.N,/A3*%
X150877800Y-57166600D03*
%TO.P,J1,6,Pin_6*%
%TO.N,/A2*%
X153417800Y-57166600D03*
%TO.P,J1,7,Pin_7*%
%TO.N,/A1*%
X155957800Y-57166600D03*
%TO.P,J1,8,Pin_8*%
%TO.N,/A0*%
X158497800Y-57166600D03*
%TD*%
D11*
%TO.P,D1,1,K*%
%TO.N,/GND*%
X133725000Y-69250000D03*
D12*
%TO.P,D1,2,A*%
%TO.N,/LED*%
X136265000Y-69250000D03*
%TD*%
D16*
%TO.P,J3,1,Pin_1*%
%TO.N,/D12*%
X127750000Y-71775000D03*
D17*
%TO.P,J3,2,Pin_2*%
%TO.N,/VCC*%
X125210000Y-71775000D03*
D16*
%TO.P,J3,3,Pin_3*%
%TO.N,/D13*%
X127750000Y-69235000D03*
%TO.P,J3,4,Pin_4*%
%TO.N,/D11*%
X125210000Y-69235000D03*
%TO.P,J3,5,Pin_5*%
%TO.N,/RST*%
X127750000Y-66695000D03*
%TO.P,J3,6,Pin_6*%
%TO.N,/GND*%
X125210000Y-66695000D03*
%TD*%
D21*
%TO.P,R2,1*%
%TO.N,/ID_LED*%
X139750000Y-61500000D03*
%TO.P,R2,2*%
%TO.N,/D12*%
X139750000Y-63500000D03*
%TD*%
D10*
%TO.P,R3,1*%
%TO.N,/VCC*%
X154750000Y-77750000D03*
%TO.P,R3,2*%
%TO.N,/RST*%
X154750000Y-75750000D03*
%TD*%
D22*
%TO.P,IC1,1,PD3*%
%TO.N,/D3*%
X153750000Y-71800000D03*
%TO.P,IC1,2,PD4*%
%TO.N,/D4*%
X153750000Y-71000000D03*
%TO.P,IC1,3,GND*%
%TO.N,/GND*%
X153750000Y-70200000D03*
%TO.P,IC1,4,VCC*%
%TO.N,/VCC*%
X153750000Y-69400000D03*
%TO.P,IC1,5,GND*%
%TO.N,/GND*%
X153750000Y-68600000D03*
%TO.P,IC1,6,VCC*%
%TO.N,/VCC*%
X153750000Y-67800000D03*
%TO.P,IC1,7,XTAL1/PB6*%
%TO.N,Net-(IC1-Pad7)*%
X153750000Y-67000000D03*
%TO.P,IC1,8,XTAL2/PB7*%
%TO.N,Net-(Y1-Pad3)*%
X153750000Y-66200000D03*
D23*
%TO.P,IC1,9,PD5*%
%TO.N,/D5*%
X152300000Y-64750000D03*
%TO.P,IC1,10,PD6*%
%TO.N,/D6*%
X151500000Y-64750000D03*
%TO.P,IC1,11,PD7*%
%TO.N,/D7*%
X150700000Y-64750000D03*
%TO.P,IC1,12,PB0*%
%TO.N,/D8*%
X149900000Y-64750000D03*
%TO.P,IC1,13,PB1*%
%TO.N,/D9*%
X149100000Y-64750000D03*
%TO.P,IC1,14,PB2*%
%TO.N,/D10*%
X148300000Y-64750000D03*
%TO.P,IC1,15,PB3*%
%TO.N,/D11*%
X147500000Y-64750000D03*
%TO.P,IC1,16,PB4*%
%TO.N,/D12*%
X146700000Y-64750000D03*
D22*
%TO.P,IC1,17,PB5*%
%TO.N,/D13*%
X145250000Y-66200000D03*
%TO.P,IC1,18,AVCC*%
%TO.N,/VCC*%
X145250000Y-67000000D03*
%TO.P,IC1,19,ADC6*%
%TO.N,/A6*%
X145250000Y-67800000D03*
%TO.P,IC1,20,AREF*%
%TO.N,Net-(IC1-Pad20)*%
X145250000Y-68600000D03*
%TO.P,IC1,21,GND*%
%TO.N,/GND*%
X145250000Y-69400000D03*
%TO.P,IC1,22,ADC7*%
%TO.N,/A7*%
X145250000Y-70200000D03*
%TO.P,IC1,23,PC0*%
%TO.N,/A0*%
X145250000Y-71000000D03*
%TO.P,IC1,24,PC1*%
%TO.N,/A1*%
X145250000Y-71800000D03*
D23*
%TO.P,IC1,25,PC2*%
%TO.N,/A2*%
X146700000Y-73250000D03*
%TO.P,IC1,26,PC3*%
%TO.N,/A3*%
X147500000Y-73250000D03*
%TO.P,IC1,27,PC4*%
%TO.N,/A4*%
X148300000Y-73250000D03*
%TO.P,IC1,28,PC5*%
%TO.N,/A5*%
X149100000Y-73250000D03*
%TO.P,IC1,29,~{RESET}/PC6*%
%TO.N,/RST*%
X149900000Y-73250000D03*
%TO.P,IC1,30,PD0*%
%TO.N,/RXD*%
X150700000Y-73250000D03*
%TO.P,IC1,31,PD1*%
%TO.N,/TXD*%
X151500000Y-73250000D03*
%TO.P,IC1,32,PD2*%
%TO.N,/D2*%
X152300000Y-73250000D03*
%TD*%
D24*
%TO.N,/D2*%
X152349500Y-78750000D03*
%TO.N,/RST*%
X149850500Y-74850500D03*
X154750000Y-74250000D03*
%TO.N,/A6*%
X147250000Y-67750000D03*
%TO.N,/VCC*%
X144250000Y-77000000D03*
X147250000Y-71000000D03*
%TO.N,/D10*%
X148250000Y-68750000D03*
%TD*%
D25*
%TO.N,/TXD*%
X151500000Y-73250000D02*
X151500000Y-80569400D01*
X151500000Y-80569400D02*
X150877800Y-81191600D01*
%TO.N,/RXD*%
X150700000Y-73250000D02*
X150700000Y-76289400D01*
X150700000Y-76289400D02*
X145797800Y-81191600D01*
%TO.N,/GND*%
X153750000Y-70200000D02*
X155450000Y-70200000D01*
X159000000Y-70750000D02*
X159075000Y-70675000D01*
X155450000Y-70200000D02*
X156000000Y-70750000D01*
X159075000Y-70675000D02*
X159075000Y-69250000D01*
X142500000Y-71050000D02*
X142500000Y-71325000D01*
X156000000Y-70750000D02*
X159000000Y-70750000D01*
X153750000Y-68600000D02*
X155400000Y-68600000D01*
X155400000Y-68600000D02*
X157750000Y-66250000D01*
X145250000Y-69400000D02*
X144150000Y-69400000D01*
X144150000Y-69400000D02*
X142500000Y-71050000D01*
%TO.N,/D2*%
X152349500Y-78750000D02*
X152300000Y-78700500D01*
X152300000Y-78700500D02*
X152300000Y-73250000D01*
%TO.N,/RST*%
X157750000Y-72500000D02*
X164250000Y-72500000D01*
X156000000Y-74250000D02*
X157750000Y-72500000D01*
X149900000Y-74801000D02*
X149900000Y-73250000D01*
X154750000Y-74250000D02*
X156000000Y-74250000D01*
X149850500Y-74850500D02*
X149900000Y-74801000D01*
X154750000Y-75750000D02*
X154750000Y-74250000D01*
%TO.N,/D11*%
X127500000Y-65000000D02*
X136500000Y-65000000D01*
X126410000Y-66090000D02*
X127500000Y-65000000D01*
X147500000Y-63500000D02*
X147500000Y-64750000D01*
X146500000Y-62500000D02*
X147500000Y-63500000D01*
X126410000Y-68035000D02*
X126410000Y-66090000D01*
X125210000Y-69235000D02*
X126410000Y-68035000D01*
X139000000Y-62500000D02*
X146500000Y-62500000D01*
X136500000Y-65000000D02*
X139000000Y-62500000D01*
%TO.N,/D12*%
X126550000Y-68700000D02*
X127355000Y-67895000D01*
X146700000Y-64750000D02*
X145450000Y-63500000D01*
X126550000Y-70575000D02*
X126550000Y-68700000D01*
X131250000Y-65500000D02*
X137750000Y-65500000D01*
X128855000Y-67895000D02*
X131250000Y-65500000D01*
X145450000Y-63500000D02*
X139750000Y-63500000D01*
X137750000Y-65500000D02*
X139750000Y-63500000D01*
X127750000Y-71775000D02*
X126550000Y-70575000D01*
X127355000Y-67895000D02*
X128855000Y-67895000D01*
%TO.N,/D13*%
X142050000Y-66200000D02*
X145250000Y-66200000D01*
X127750000Y-69235000D02*
X129015000Y-69235000D01*
X132050000Y-66200000D02*
X142050000Y-66200000D01*
X129015000Y-69235000D02*
X132050000Y-66200000D01*
%TO.N,Net-(IC1-Pad20)*%
X145250000Y-68600000D02*
X143150000Y-68600000D01*
X143150000Y-68600000D02*
X142500000Y-69250000D01*
%TO.N,Net-(R4-Pad2)*%
X136265000Y-77000000D02*
X139750000Y-77000000D01*
%TO.N,/A6*%
X147200000Y-67800000D02*
X147250000Y-67750000D01*
X164250000Y-61750000D02*
X157750000Y-61750000D01*
X145250000Y-67800000D02*
X147200000Y-67800000D01*
%TO.N,/VCC*%
X148850000Y-69400000D02*
X147250000Y-71000000D01*
X150450000Y-67800000D02*
X153750000Y-67800000D01*
X156850000Y-69400000D02*
X157000000Y-69250000D01*
X141125000Y-69837500D02*
X139750000Y-71212500D01*
X147250000Y-71000000D02*
X150450000Y-67800000D01*
X125210000Y-71775000D02*
X128435000Y-75000000D01*
X141125000Y-76375000D02*
X141750000Y-77000000D01*
X153750000Y-69400000D02*
X148850000Y-69400000D01*
X155957800Y-78957800D02*
X155957800Y-81191600D01*
X153750000Y-69400000D02*
X156850000Y-69400000D01*
X139750000Y-71212500D02*
X141750000Y-73212500D01*
X153417800Y-81191600D02*
X155957800Y-81191600D01*
X139750000Y-75000000D02*
X141125000Y-76375000D01*
X145250000Y-67000000D02*
X142500000Y-67000000D01*
X141750000Y-73212500D02*
X141750000Y-77000000D01*
X141125000Y-68375000D02*
X141125000Y-69837500D01*
X141750000Y-77000000D02*
X144250000Y-77000000D01*
X128435000Y-75000000D02*
X139750000Y-75000000D01*
X142500000Y-67000000D02*
X141125000Y-68375000D01*
X154750000Y-77750000D02*
X155957800Y-78957800D01*
%TO.N,Net-(IC1-Pad7)*%
X155200000Y-66800000D02*
X155000000Y-67000000D01*
X155000000Y-67000000D02*
X153750000Y-67000000D01*
X155200000Y-61250000D02*
X155200000Y-66800000D01*
%TO.N,Net-(Y1-Pad3)*%
X152800000Y-62800000D02*
X153750000Y-63750000D01*
X153750000Y-63750000D02*
X153750000Y-66200000D01*
X152800000Y-61250000D02*
X152800000Y-62800000D01*
%TO.N,/LED*%
X138750000Y-69250000D02*
X136265000Y-69250000D01*
X139750000Y-68250000D02*
X138750000Y-69250000D01*
%TO.N,/ID_LED*%
X136265000Y-61500000D02*
X139750000Y-61500000D01*
%TO.N,/D10*%
X148300000Y-64750000D02*
X148300000Y-68700000D01*
X148300000Y-68700000D02*
X148250000Y-68750000D01*
%TD*%
%TA.AperFunction,Conductor*%
%TO.N,/GND*%
G36*
X176776421Y-53720102D02*
G01*
X176822914Y-53773758D01*
X176834300Y-53826100D01*
X176834300Y-84557100D01*
X176814298Y-84625221D01*
X176760642Y-84671714D01*
X176708300Y-84683100D01*
X120477300Y-84683100D01*
X120409179Y-84663098D01*
X120362686Y-84609442D01*
X120351300Y-84557100D01*
X120351300Y-81459566D01*
X139386057Y-81459566D01*
X139416365Y-81594046D01*
X139419445Y-81603875D01*
X139499570Y-81801203D01*
X139504213Y-81810394D01*
X139615494Y-81991988D01*
X139621577Y-82000299D01*
X139761013Y-82161267D01*
X139768380Y-82168483D01*
X139932234Y-82304516D01*
X139940681Y-82310431D01*
X140124556Y-82417879D01*
X140133842Y-82422329D01*
X140332801Y-82498303D01*
X140342699Y-82501179D01*
X140446050Y-82522206D01*
X140460099Y-82521010D01*
X140463800Y-82510665D01*
X140463800Y-82510117D01*
X140971800Y-82510117D01*
X140975864Y-82523959D01*
X140989278Y-82525993D01*
X140995984Y-82525134D01*
X141006062Y-82522992D01*
X141210055Y-82461791D01*
X141219642Y-82458033D01*
X141410895Y-82364339D01*
X141419745Y-82359064D01*
X141593128Y-82235392D01*
X141601000Y-82228739D01*
X141751852Y-82078412D01*
X141758530Y-82070565D01*
X141885822Y-81893419D01*
X141886947Y-81894227D01*
X141934469Y-81850476D01*
X142004407Y-81838261D01*
X142069846Y-81865797D01*
X142097670Y-81897628D01*
X142155490Y-81991983D01*
X142161577Y-82000299D01*
X142301013Y-82161267D01*
X142308380Y-82168483D01*
X142472234Y-82304516D01*
X142480681Y-82310431D01*
X142664556Y-82417879D01*
X142673842Y-82422329D01*
X142872801Y-82498303D01*
X142882699Y-82501179D01*
X142986050Y-82522206D01*
X143000099Y-82521010D01*
X143003800Y-82510665D01*
X143003800Y-81463715D01*
X142999325Y-81448476D01*
X142997935Y-81447271D01*
X142990252Y-81445600D01*
X140989915Y-81445600D01*
X140974676Y-81450075D01*
X140973471Y-81451465D01*
X140971800Y-81459148D01*
X140971800Y-82510117D01*
X140463800Y-82510117D01*
X140463800Y-81463715D01*
X140459325Y-81448476D01*
X140457935Y-81447271D01*
X140450252Y-81445600D01*
X139401025Y-81445600D01*
X139387494Y-81449573D01*
X139386057Y-81459566D01*
X120351300Y-81459566D01*
X120351300Y-80925783D01*
X139382189Y-80925783D01*
X139383712Y-80934207D01*
X139396092Y-80937600D01*
X140445685Y-80937600D01*
X140460924Y-80933125D01*
X140462129Y-80931735D01*
X140463800Y-80924052D01*
X140463800Y-80919485D01*
X140971800Y-80919485D01*
X140976275Y-80934724D01*
X140977665Y-80935929D01*
X140985348Y-80937600D01*
X142985685Y-80937600D01*
X143000924Y-80933125D01*
X143002129Y-80931735D01*
X143003800Y-80924052D01*
X143003800Y-79874702D01*
X142999882Y-79861358D01*
X142985606Y-79859371D01*
X142947124Y-79865260D01*
X142937088Y-79867651D01*
X142734668Y-79933812D01*
X142725159Y-79937809D01*
X142536263Y-80036142D01*
X142527538Y-80041636D01*
X142357233Y-80169505D01*
X142349526Y-80176348D01*
X142202390Y-80330317D01*
X142195904Y-80338327D01*
X142090993Y-80492121D01*
X142036082Y-80537124D01*
X141965557Y-80545295D01*
X141901810Y-80514041D01*
X141881113Y-80489557D01*
X141800227Y-80364526D01*
X141793936Y-80356357D01*
X141650606Y-80198840D01*
X141643073Y-80191815D01*
X141475939Y-80059822D01*
X141467352Y-80054117D01*
X141280917Y-79951199D01*
X141271505Y-79946969D01*
X141070759Y-79875880D01*
X141060788Y-79873246D01*
X140989637Y-79860572D01*
X140976340Y-79862032D01*
X140971800Y-79876589D01*
X140971800Y-80919485D01*
X140463800Y-80919485D01*
X140463800Y-79874702D01*
X140459882Y-79861358D01*
X140445606Y-79859371D01*
X140407124Y-79865260D01*
X140397088Y-79867651D01*
X140194668Y-79933812D01*
X140185159Y-79937809D01*
X139996263Y-80036142D01*
X139987538Y-80041636D01*
X139817233Y-80169505D01*
X139809526Y-80176348D01*
X139662390Y-80330317D01*
X139655904Y-80338327D01*
X139535898Y-80514249D01*
X139530800Y-80523223D01*
X139441138Y-80716383D01*
X139437575Y-80726070D01*
X139382189Y-80925783D01*
X120351300Y-80925783D01*
X120351300Y-77944669D01*
X132317001Y-77944669D01*
X132317371Y-77951490D01*
X132322895Y-78002352D01*
X132326521Y-78017604D01*
X132371676Y-78138054D01*
X132380214Y-78153649D01*
X132456715Y-78255724D01*
X132469276Y-78268285D01*
X132571351Y-78344786D01*
X132586946Y-78353324D01*
X132707394Y-78398478D01*
X132722649Y-78402105D01*
X132773514Y-78407631D01*
X132780328Y-78408000D01*
X133452885Y-78408000D01*
X133468124Y-78403525D01*
X133469329Y-78402135D01*
X133471000Y-78394452D01*
X133471000Y-77272115D01*
X133466525Y-77256876D01*
X133465135Y-77255671D01*
X133457452Y-77254000D01*
X132335116Y-77254000D01*
X132319877Y-77258475D01*
X132318672Y-77259865D01*
X132317001Y-77267548D01*
X132317001Y-77944669D01*
X120351300Y-77944669D01*
X120351300Y-69201695D01*
X123847251Y-69201695D01*
X123847548Y-69206848D01*
X123847548Y-69206851D01*
X123850526Y-69258500D01*
X123860110Y-69424715D01*
X123861247Y-69429761D01*
X123861248Y-69429767D01*
X123877978Y-69504000D01*
X123909222Y-69642639D01*
X123953740Y-69752275D01*
X123986612Y-69833228D01*
X123993266Y-69849616D01*
X124025822Y-69902742D01*
X124088222Y-70004570D01*
X124109987Y-70040088D01*
X124113367Y-70043990D01*
X124122533Y-70054572D01*
X124256250Y-70208938D01*
X124260230Y-70212242D01*
X124264981Y-70216187D01*
X124304616Y-70275090D01*
X124306113Y-70346071D01*
X124268997Y-70406593D01*
X124228725Y-70431112D01*
X124163214Y-70455671D01*
X124113295Y-70474385D01*
X123996739Y-70561739D01*
X123909385Y-70678295D01*
X123858255Y-70814684D01*
X123851500Y-70876866D01*
X123851500Y-72673134D01*
X123858255Y-72735316D01*
X123909385Y-72871705D01*
X123996739Y-72988261D01*
X124113295Y-73075615D01*
X124249684Y-73126745D01*
X124311866Y-73133500D01*
X125585050Y-73133500D01*
X125653171Y-73153502D01*
X125674145Y-73170405D01*
X127911345Y-75407605D01*
X127919335Y-75416385D01*
X127923584Y-75423080D01*
X127929362Y-75428506D01*
X127929363Y-75428507D01*
X127975257Y-75471604D01*
X127978099Y-75474359D01*
X127998667Y-75494927D01*
X128002170Y-75497644D01*
X128011195Y-75505352D01*
X128044867Y-75536972D01*
X128051818Y-75540793D01*
X128051819Y-75540794D01*
X128063658Y-75547303D01*
X128080182Y-75558157D01*
X128090271Y-75565982D01*
X128097132Y-75571304D01*
X128104404Y-75574451D01*
X128104406Y-75574452D01*
X128139535Y-75589654D01*
X128150196Y-75594876D01*
X128190663Y-75617124D01*
X128211441Y-75622459D01*
X128230131Y-75628858D01*
X128249824Y-75637380D01*
X128293596Y-75644313D01*
X128295448Y-75644606D01*
X128307071Y-75647013D01*
X128319925Y-75650313D01*
X128351812Y-75658500D01*
X128373259Y-75658500D01*
X128392969Y-75660051D01*
X128414152Y-75663406D01*
X128460141Y-75659059D01*
X128471996Y-75658500D01*
X132270428Y-75658500D01*
X132338549Y-75678502D01*
X132385042Y-75732158D01*
X132395146Y-75802432D01*
X132380948Y-75845008D01*
X132371679Y-75861939D01*
X132326522Y-75982394D01*
X132322895Y-75997649D01*
X132317369Y-76048514D01*
X132317000Y-76055328D01*
X132317000Y-76727885D01*
X132321475Y-76743124D01*
X132322865Y-76744329D01*
X132330548Y-76746000D01*
X133853000Y-76746000D01*
X133921121Y-76766002D01*
X133967614Y-76819658D01*
X133979000Y-76872000D01*
X133979000Y-78389884D01*
X133983475Y-78405123D01*
X133984865Y-78406328D01*
X133992548Y-78407999D01*
X134669669Y-78407999D01*
X134676490Y-78407629D01*
X134727352Y-78402105D01*
X134742604Y-78398479D01*
X134863054Y-78353324D01*
X134878649Y-78344786D01*
X134980724Y-78268285D01*
X134993285Y-78255724D01*
X135069786Y-78153649D01*
X135078324Y-78138054D01*
X135099773Y-78080840D01*
X135142415Y-78024075D01*
X135208977Y-77999376D01*
X135278325Y-78014584D01*
X135298240Y-78028126D01*
X135454349Y-78157730D01*
X135654322Y-78274584D01*
X135870694Y-78357209D01*
X135875760Y-78358240D01*
X135875761Y-78358240D01*
X135903242Y-78363831D01*
X136097656Y-78403385D01*
X136228324Y-78408176D01*
X136323949Y-78411683D01*
X136323953Y-78411683D01*
X136329113Y-78411872D01*
X136334233Y-78411216D01*
X136334235Y-78411216D01*
X136433668Y-78398478D01*
X136558847Y-78382442D01*
X136563795Y-78380957D01*
X136563802Y-78380956D01*
X136775747Y-78317369D01*
X136780690Y-78315886D01*
X136861236Y-78276427D01*
X136984049Y-78216262D01*
X136984052Y-78216260D01*
X136988684Y-78213991D01*
X137177243Y-78079494D01*
X137341303Y-77916005D01*
X137384691Y-77855625D01*
X137473443Y-77732113D01*
X137473444Y-77732112D01*
X137476458Y-77727917D01*
X137478748Y-77723284D01*
X137480957Y-77719607D01*
X137533186Y-77671517D01*
X137588961Y-77658500D01*
X138579143Y-77658500D01*
X138647264Y-77678502D01*
X138693757Y-77732158D01*
X138698666Y-77744622D01*
X138706130Y-77766995D01*
X138706133Y-77767002D01*
X138708450Y-77773946D01*
X138801522Y-77924348D01*
X138926697Y-78049305D01*
X138932927Y-78053145D01*
X138932928Y-78053146D01*
X139070674Y-78138054D01*
X139077262Y-78142115D01*
X139114376Y-78154425D01*
X139238611Y-78195632D01*
X139238613Y-78195632D01*
X139245139Y-78197797D01*
X139251975Y-78198497D01*
X139251978Y-78198498D01*
X139295031Y-78202909D01*
X139349600Y-78208500D01*
X140150400Y-78208500D01*
X140153646Y-78208163D01*
X140153650Y-78208163D01*
X140249308Y-78198238D01*
X140249312Y-78198237D01*
X140256166Y-78197526D01*
X140262702Y-78195345D01*
X140262704Y-78195345D01*
X140407209Y-78147134D01*
X140423946Y-78141550D01*
X140574348Y-78048478D01*
X140660784Y-77961891D01*
X140723066Y-77927812D01*
X140793886Y-77932815D01*
X140838975Y-77961736D01*
X140905481Y-78028126D01*
X140926697Y-78049305D01*
X140932927Y-78053145D01*
X140932928Y-78053146D01*
X141070674Y-78138054D01*
X141077262Y-78142115D01*
X141114376Y-78154425D01*
X141238611Y-78195632D01*
X141238613Y-78195632D01*
X141245139Y-78197797D01*
X141251975Y-78198497D01*
X141251978Y-78198498D01*
X141295031Y-78202909D01*
X141349600Y-78208500D01*
X142150400Y-78208500D01*
X142153646Y-78208163D01*
X142153650Y-78208163D01*
X142249308Y-78198238D01*
X142249312Y-78198237D01*
X142256166Y-78197526D01*
X142262702Y-78195345D01*
X142262704Y-78195345D01*
X142407209Y-78147134D01*
X142423946Y-78141550D01*
X142574348Y-78048478D01*
X142609607Y-78013158D01*
X142694134Y-77928483D01*
X142699305Y-77923303D01*
X142706391Y-77911808D01*
X142788275Y-77778968D01*
X142788276Y-77778966D01*
X142792115Y-77772738D01*
X142801372Y-77744830D01*
X142841803Y-77686472D01*
X142907367Y-77659236D01*
X142920964Y-77658500D01*
X143424494Y-77658500D01*
X143492615Y-77678502D01*
X143515132Y-77696974D01*
X143517204Y-77699120D01*
X143521035Y-77703953D01*
X143671650Y-77832136D01*
X143844294Y-77928624D01*
X144032392Y-77989740D01*
X144228777Y-78013158D01*
X144234912Y-78012686D01*
X144234914Y-78012686D01*
X144419830Y-77998457D01*
X144419834Y-77998456D01*
X144425972Y-77997984D01*
X144616463Y-77944798D01*
X144621967Y-77942018D01*
X144621969Y-77942017D01*
X144787495Y-77858404D01*
X144787497Y-77858403D01*
X144792996Y-77855625D01*
X144948847Y-77733861D01*
X145078078Y-77584145D01*
X145175769Y-77412179D01*
X145238197Y-77224513D01*
X145262985Y-77028295D01*
X145263380Y-77000000D01*
X145244080Y-76803167D01*
X145186916Y-76613831D01*
X145094066Y-76439204D01*
X144998067Y-76321498D01*
X144972960Y-76290713D01*
X144972957Y-76290710D01*
X144969065Y-76285938D01*
X144964316Y-76282009D01*
X144821425Y-76163799D01*
X144821421Y-76163797D01*
X144816675Y-76159870D01*
X144642701Y-76065802D01*
X144453768Y-76007318D01*
X144447643Y-76006674D01*
X144447642Y-76006674D01*
X144263204Y-75987289D01*
X144263202Y-75987289D01*
X144257075Y-75986645D01*
X144174576Y-75994153D01*
X144066251Y-76004011D01*
X144066248Y-76004012D01*
X144060112Y-76004570D01*
X144054206Y-76006308D01*
X144054202Y-76006309D01*
X143949076Y-76037249D01*
X143870381Y-76060410D01*
X143864923Y-76063263D01*
X143864919Y-76063265D01*
X143827308Y-76082928D01*
X143695110Y-76152040D01*
X143540975Y-76275968D01*
X143537013Y-76280690D01*
X143523753Y-76296492D01*
X143464643Y-76335818D01*
X143427232Y-76341500D01*
X142920857Y-76341500D01*
X142852736Y-76321498D01*
X142806243Y-76267842D01*
X142801334Y-76255378D01*
X142793870Y-76233005D01*
X142793867Y-76232998D01*
X142791550Y-76226054D01*
X142698478Y-76075652D01*
X142573303Y-75950695D01*
X142468383Y-75886021D01*
X142420891Y-75833250D01*
X142408500Y-75778762D01*
X142408500Y-73294556D01*
X142409059Y-73282700D01*
X142409059Y-73282697D01*
X142410788Y-73274963D01*
X142408562Y-73204131D01*
X142408500Y-73200173D01*
X142408500Y-73171068D01*
X142407944Y-73166668D01*
X142407012Y-73154830D01*
X142406971Y-73153502D01*
X142405562Y-73108669D01*
X142399580Y-73088079D01*
X142395570Y-73068716D01*
X142393875Y-73055296D01*
X142393875Y-73055295D01*
X142392882Y-73047436D01*
X142389966Y-73040071D01*
X142389965Y-73040067D01*
X142375874Y-73004479D01*
X142372035Y-72993269D01*
X142359145Y-72948900D01*
X142348225Y-72930435D01*
X142339534Y-72912695D01*
X142331635Y-72892744D01*
X142304482Y-72855371D01*
X142297967Y-72845452D01*
X142278493Y-72812523D01*
X142278490Y-72812519D01*
X142274453Y-72805693D01*
X142259289Y-72790529D01*
X142246448Y-72775495D01*
X142238501Y-72764557D01*
X142233841Y-72758143D01*
X142198247Y-72728697D01*
X142189468Y-72720708D01*
X142104355Y-72635595D01*
X142070329Y-72573283D01*
X142075394Y-72502468D01*
X142117941Y-72445632D01*
X142184461Y-72420821D01*
X142193450Y-72420500D01*
X142227885Y-72420500D01*
X142243124Y-72416025D01*
X142244329Y-72414635D01*
X142246000Y-72406952D01*
X142246000Y-71597115D01*
X142241525Y-71581876D01*
X142240135Y-71580671D01*
X142232452Y-71579000D01*
X141285116Y-71579000D01*
X141269877Y-71583475D01*
X141257464Y-71597800D01*
X141197739Y-71636185D01*
X141126742Y-71636186D01*
X141073144Y-71604384D01*
X141020405Y-71551645D01*
X140986379Y-71489333D01*
X140983500Y-71462550D01*
X140983500Y-70962450D01*
X141003502Y-70894329D01*
X141020405Y-70873355D01*
X141052238Y-70841522D01*
X141114550Y-70807496D01*
X141185365Y-70812561D01*
X141242201Y-70855108D01*
X141267012Y-70921628D01*
X141267169Y-70937044D01*
X141267000Y-70940353D01*
X141267000Y-71052885D01*
X141271475Y-71068124D01*
X141272865Y-71069329D01*
X141280548Y-71071000D01*
X142628000Y-71071000D01*
X142696121Y-71091002D01*
X142742614Y-71144658D01*
X142754000Y-71197000D01*
X142754000Y-72402384D01*
X142758475Y-72417623D01*
X142759865Y-72418828D01*
X142767548Y-72420499D01*
X143022095Y-72420499D01*
X143028614Y-72420162D01*
X143124206Y-72410243D01*
X143137600Y-72407351D01*
X143291784Y-72355912D01*
X143304962Y-72349739D01*
X143442807Y-72264437D01*
X143454208Y-72255401D01*
X143568739Y-72140671D01*
X143577751Y-72129260D01*
X143662816Y-71991257D01*
X143668963Y-71978076D01*
X143695907Y-71896843D01*
X143736338Y-71838484D01*
X143801902Y-71811247D01*
X143871784Y-71823781D01*
X143923796Y-71872105D01*
X143941500Y-71936511D01*
X143941500Y-72123134D01*
X143948255Y-72185316D01*
X143999385Y-72321705D01*
X144086739Y-72438261D01*
X144203295Y-72525615D01*
X144339684Y-72576745D01*
X144401866Y-72583500D01*
X145790500Y-72583500D01*
X145858621Y-72603502D01*
X145905114Y-72657158D01*
X145916500Y-72709500D01*
X145916500Y-74098134D01*
X145923255Y-74160316D01*
X145974385Y-74296705D01*
X146061739Y-74413261D01*
X146178295Y-74500615D01*
X146314684Y-74551745D01*
X146376866Y-74558500D01*
X147023134Y-74558500D01*
X147085316Y-74551745D01*
X147085580Y-74554174D01*
X147114420Y-74554174D01*
X147114684Y-74551745D01*
X147176866Y-74558500D01*
X147823134Y-74558500D01*
X147885316Y-74551745D01*
X147885580Y-74554174D01*
X147914420Y-74554174D01*
X147914684Y-74551745D01*
X147976866Y-74558500D01*
X148623134Y-74558500D01*
X148685316Y-74551745D01*
X148685580Y-74554174D01*
X148714420Y-74554174D01*
X148714684Y-74551745D01*
X148741582Y-74554667D01*
X148807144Y-74581909D01*
X148847570Y-74640272D01*
X148853189Y-74693975D01*
X148837219Y-74836351D01*
X148840215Y-74872027D01*
X148852456Y-75017806D01*
X148853768Y-75033434D01*
X148908283Y-75223550D01*
X148998687Y-75399456D01*
X149121535Y-75554453D01*
X149126228Y-75558447D01*
X149126229Y-75558448D01*
X149267293Y-75678502D01*
X149272150Y-75682636D01*
X149444794Y-75779124D01*
X149632892Y-75840240D01*
X149829277Y-75863658D01*
X149835411Y-75863186D01*
X149835413Y-75863186D01*
X149851616Y-75861939D01*
X149885309Y-75859346D01*
X149954762Y-75874063D01*
X150005234Y-75923993D01*
X150020701Y-75993284D01*
X149996250Y-76059938D01*
X149984070Y-76074070D01*
X146225135Y-79833005D01*
X146162823Y-79867031D01*
X146113945Y-79867957D01*
X146065743Y-79859371D01*
X145931173Y-79835400D01*
X145931167Y-79835399D01*
X145926084Y-79834494D01*
X145852252Y-79833592D01*
X145707881Y-79831828D01*
X145707879Y-79831828D01*
X145702711Y-79831765D01*
X145481891Y-79865555D01*
X145269556Y-79934957D01*
X145071407Y-80038107D01*
X145067274Y-80041210D01*
X145067271Y-80041212D01*
X144896900Y-80169130D01*
X144892765Y-80172235D01*
X144889193Y-80175973D01*
X144781529Y-80288637D01*
X144738429Y-80333738D01*
X144735520Y-80338003D01*
X144735514Y-80338011D01*
X144723204Y-80356057D01*
X144631004Y-80491218D01*
X144630698Y-80491666D01*
X144575787Y-80536669D01*
X144505262Y-80544840D01*
X144441515Y-80513586D01*
X144420818Y-80489102D01*
X144340226Y-80364526D01*
X144333936Y-80356357D01*
X144190606Y-80198840D01*
X144183073Y-80191815D01*
X144015939Y-80059822D01*
X144007352Y-80054117D01*
X143820917Y-79951199D01*
X143811505Y-79946969D01*
X143610759Y-79875880D01*
X143600788Y-79873246D01*
X143529637Y-79860572D01*
X143516340Y-79862032D01*
X143511800Y-79876589D01*
X143511800Y-82510117D01*
X143515864Y-82523959D01*
X143529278Y-82525993D01*
X143535984Y-82525134D01*
X143546062Y-82522992D01*
X143750055Y-82461791D01*
X143759642Y-82458033D01*
X143950895Y-82364339D01*
X143959745Y-82359064D01*
X144133128Y-82235392D01*
X144141000Y-82228739D01*
X144291852Y-82078412D01*
X144298530Y-82070565D01*
X144425822Y-81893419D01*
X144427079Y-81894322D01*
X144474173Y-81850962D01*
X144544111Y-81838745D01*
X144609551Y-81866278D01*
X144637379Y-81898111D01*
X144697787Y-81996688D01*
X144844050Y-82165538D01*
X145015926Y-82308232D01*
X145208800Y-82420938D01*
X145417492Y-82500630D01*
X145422560Y-82501661D01*
X145422563Y-82501662D01*
X145517662Y-82521010D01*
X145636397Y-82545167D01*
X145641572Y-82545357D01*
X145641574Y-82545357D01*
X145854473Y-82553164D01*
X145854477Y-82553164D01*
X145859637Y-82553353D01*
X145864757Y-82552697D01*
X145864759Y-82552697D01*
X146076088Y-82525625D01*
X146076089Y-82525625D01*
X146081216Y-82524968D01*
X146086166Y-82523483D01*
X146290229Y-82462261D01*
X146290234Y-82462259D01*
X146295184Y-82460774D01*
X146495794Y-82362496D01*
X146677660Y-82232773D01*
X146835896Y-82075089D01*
X146966253Y-81893677D01*
X146967576Y-81894628D01*
X147014445Y-81851457D01*
X147084380Y-81839225D01*
X147149826Y-81866744D01*
X147177675Y-81898594D01*
X147237787Y-81996688D01*
X147384050Y-82165538D01*
X147555926Y-82308232D01*
X147748800Y-82420938D01*
X147957492Y-82500630D01*
X147962560Y-82501661D01*
X147962563Y-82501662D01*
X148057662Y-82521010D01*
X148176397Y-82545167D01*
X148181572Y-82545357D01*
X148181574Y-82545357D01*
X148394473Y-82553164D01*
X148394477Y-82553164D01*
X148399637Y-82553353D01*
X148404757Y-82552697D01*
X148404759Y-82552697D01*
X148616088Y-82525625D01*
X148616089Y-82525625D01*
X148621216Y-82524968D01*
X148626166Y-82523483D01*
X148830229Y-82462261D01*
X148830234Y-82462259D01*
X148835184Y-82460774D01*
X149035794Y-82362496D01*
X149217660Y-82232773D01*
X149375896Y-82075089D01*
X149506253Y-81893677D01*
X149507576Y-81894628D01*
X149554445Y-81851457D01*
X149624380Y-81839225D01*
X149689826Y-81866744D01*
X149717675Y-81898594D01*
X149777787Y-81996688D01*
X149924050Y-82165538D01*
X150095926Y-82308232D01*
X150288800Y-82420938D01*
X150497492Y-82500630D01*
X150502560Y-82501661D01*
X150502563Y-82501662D01*
X150597662Y-82521010D01*
X150716397Y-82545167D01*
X150721572Y-82545357D01*
X150721574Y-82545357D01*
X150934473Y-82553164D01*
X150934477Y-82553164D01*
X150939637Y-82553353D01*
X150944757Y-82552697D01*
X150944759Y-82552697D01*
X151156088Y-82525625D01*
X151156089Y-82525625D01*
X151161216Y-82524968D01*
X151166166Y-82523483D01*
X151370229Y-82462261D01*
X151370234Y-82462259D01*
X151375184Y-82460774D01*
X151575794Y-82362496D01*
X151757660Y-82232773D01*
X151865891Y-82124919D01*
X151928262Y-82091004D01*
X151999068Y-82096192D01*
X152055830Y-82138838D01*
X152072812Y-82169941D01*
X152094855Y-82228739D01*
X152117185Y-82288305D01*
X152204539Y-82404861D01*
X152321095Y-82492215D01*
X152457484Y-82543345D01*
X152519666Y-82550100D01*
X154315934Y-82550100D01*
X154378116Y-82543345D01*
X154514505Y-82492215D01*
X154612236Y-82418970D01*
X154678741Y-82394122D01*
X154748124Y-82409175D01*
X154763362Y-82418968D01*
X154861095Y-82492215D01*
X154997484Y-82543345D01*
X155059666Y-82550100D01*
X156855934Y-82550100D01*
X156918116Y-82543345D01*
X157054505Y-82492215D01*
X157171061Y-82404861D01*
X157258415Y-82288305D01*
X157280599Y-82229129D01*
X157302398Y-82170982D01*
X157345040Y-82114218D01*
X157411602Y-82089518D01*
X157480950Y-82104726D01*
X157515617Y-82132714D01*
X157544050Y-82165538D01*
X157715926Y-82308232D01*
X157908800Y-82420938D01*
X158117492Y-82500630D01*
X158122560Y-82501661D01*
X158122563Y-82501662D01*
X158217662Y-82521010D01*
X158336397Y-82545167D01*
X158341572Y-82545357D01*
X158341574Y-82545357D01*
X158554473Y-82553164D01*
X158554477Y-82553164D01*
X158559637Y-82553353D01*
X158564757Y-82552697D01*
X158564759Y-82552697D01*
X158776088Y-82525625D01*
X158776089Y-82525625D01*
X158781216Y-82524968D01*
X158786166Y-82523483D01*
X158990229Y-82462261D01*
X158990234Y-82462259D01*
X158995184Y-82460774D01*
X159195794Y-82362496D01*
X159377660Y-82232773D01*
X159535896Y-82075089D01*
X159666253Y-81893677D01*
X159679795Y-81866278D01*
X159762936Y-81698053D01*
X159762937Y-81698051D01*
X159765230Y-81693411D01*
X159830170Y-81479669D01*
X159859329Y-81258190D01*
X159860956Y-81191600D01*
X159842652Y-80968961D01*
X159788231Y-80752302D01*
X159699154Y-80547440D01*
X159577814Y-80359877D01*
X159427470Y-80194651D01*
X159423419Y-80191452D01*
X159423415Y-80191448D01*
X159256214Y-80059400D01*
X159256210Y-80059398D01*
X159252159Y-80056198D01*
X159215828Y-80036142D01*
X159199936Y-80027369D01*
X159056589Y-79948238D01*
X159051720Y-79946514D01*
X159051716Y-79946512D01*
X158850887Y-79875395D01*
X158850883Y-79875394D01*
X158846012Y-79873669D01*
X158840919Y-79872762D01*
X158840916Y-79872761D01*
X158631173Y-79835400D01*
X158631167Y-79835399D01*
X158626084Y-79834494D01*
X158552252Y-79833592D01*
X158407881Y-79831828D01*
X158407879Y-79831828D01*
X158402711Y-79831765D01*
X158181891Y-79865555D01*
X157969556Y-79934957D01*
X157771407Y-80038107D01*
X157767274Y-80041210D01*
X157767271Y-80041212D01*
X157596900Y-80169130D01*
X157592765Y-80172235D01*
X157536337Y-80231284D01*
X157512083Y-80256664D01*
X157450559Y-80292094D01*
X157379646Y-80288637D01*
X157321860Y-80247391D01*
X157303007Y-80213843D01*
X157261567Y-80103303D01*
X157258415Y-80094895D01*
X157171061Y-79978339D01*
X157054505Y-79890985D01*
X156918116Y-79839855D01*
X156855934Y-79833100D01*
X156742300Y-79833100D01*
X156674179Y-79813098D01*
X156627686Y-79759442D01*
X156616300Y-79707100D01*
X156616300Y-79039856D01*
X156616859Y-79028000D01*
X156616859Y-79027997D01*
X156618588Y-79020263D01*
X156616362Y-78949431D01*
X156616300Y-78945473D01*
X156616300Y-78916368D01*
X156615744Y-78911968D01*
X156614812Y-78900130D01*
X156613611Y-78861894D01*
X156613362Y-78853969D01*
X156607380Y-78833379D01*
X156603370Y-78814016D01*
X156601675Y-78800596D01*
X156601675Y-78800595D01*
X156600682Y-78792736D01*
X156597766Y-78785371D01*
X156597765Y-78785367D01*
X156583674Y-78749779D01*
X156579835Y-78738569D01*
X156566945Y-78694200D01*
X156556025Y-78675735D01*
X156547334Y-78657995D01*
X156539435Y-78638044D01*
X156512282Y-78600671D01*
X156505767Y-78590752D01*
X156486293Y-78557823D01*
X156486290Y-78557819D01*
X156482253Y-78550993D01*
X156467089Y-78535829D01*
X156454248Y-78520795D01*
X156446301Y-78509857D01*
X156441641Y-78503443D01*
X156406047Y-78473997D01*
X156397268Y-78466008D01*
X156163930Y-78232670D01*
X156882160Y-78232670D01*
X156887887Y-78240320D01*
X157059042Y-78345205D01*
X157067837Y-78349687D01*
X157277988Y-78436734D01*
X157287373Y-78439783D01*
X157508554Y-78492885D01*
X157518301Y-78494428D01*
X157745070Y-78512275D01*
X157754930Y-78512275D01*
X157981699Y-78494428D01*
X157991446Y-78492885D01*
X158212627Y-78439783D01*
X158222012Y-78436734D01*
X158432163Y-78349687D01*
X158440958Y-78345205D01*
X158608445Y-78242568D01*
X158617400Y-78232670D01*
X163382160Y-78232670D01*
X163387887Y-78240320D01*
X163559042Y-78345205D01*
X163567837Y-78349687D01*
X163777988Y-78436734D01*
X163787373Y-78439783D01*
X164008554Y-78492885D01*
X164018301Y-78494428D01*
X164245070Y-78512275D01*
X164254930Y-78512275D01*
X164481699Y-78494428D01*
X164491446Y-78492885D01*
X164712627Y-78439783D01*
X164722012Y-78436734D01*
X164932163Y-78349687D01*
X164940958Y-78345205D01*
X165108445Y-78242568D01*
X165117907Y-78232110D01*
X165114124Y-78223334D01*
X164262812Y-77372022D01*
X164248868Y-77364408D01*
X164247035Y-77364539D01*
X164240420Y-77368790D01*
X163388920Y-78220290D01*
X163382160Y-78232670D01*
X158617400Y-78232670D01*
X158617907Y-78232110D01*
X158614124Y-78223334D01*
X157762812Y-77372022D01*
X157748868Y-77364408D01*
X157747035Y-77364539D01*
X157740420Y-77368790D01*
X156888920Y-78220290D01*
X156882160Y-78232670D01*
X156163930Y-78232670D01*
X155995405Y-78064145D01*
X155961379Y-78001833D01*
X155958500Y-77975050D01*
X155958500Y-77349600D01*
X155952758Y-77294255D01*
X155948238Y-77250692D01*
X155948237Y-77250688D01*
X155947526Y-77243834D01*
X155943478Y-77231699D01*
X155893868Y-77083002D01*
X155891550Y-77076054D01*
X155847537Y-77004930D01*
X156237725Y-77004930D01*
X156255572Y-77231699D01*
X156257115Y-77241446D01*
X156310217Y-77462627D01*
X156313266Y-77472012D01*
X156400313Y-77682163D01*
X156404795Y-77690958D01*
X156507432Y-77858445D01*
X156517890Y-77867907D01*
X156526666Y-77864124D01*
X157377978Y-77012812D01*
X157384356Y-77001132D01*
X158114408Y-77001132D01*
X158114539Y-77002965D01*
X158118790Y-77009580D01*
X158970290Y-77861080D01*
X158982670Y-77867840D01*
X158990320Y-77862113D01*
X159095205Y-77690958D01*
X159099687Y-77682163D01*
X159186734Y-77472012D01*
X159189783Y-77462627D01*
X159242885Y-77241446D01*
X159244428Y-77231699D01*
X159262275Y-77004930D01*
X162737725Y-77004930D01*
X162755572Y-77231699D01*
X162757115Y-77241446D01*
X162810217Y-77462627D01*
X162813266Y-77472012D01*
X162900313Y-77682163D01*
X162904795Y-77690958D01*
X163007432Y-77858445D01*
X163017890Y-77867907D01*
X163026666Y-77864124D01*
X163877978Y-77012812D01*
X163884356Y-77001132D01*
X164614408Y-77001132D01*
X164614539Y-77002965D01*
X164618790Y-77009580D01*
X165470290Y-77861080D01*
X165482670Y-77867840D01*
X165490320Y-77862113D01*
X165595205Y-77690958D01*
X165599687Y-77682163D01*
X165686734Y-77472012D01*
X165689783Y-77462627D01*
X165742885Y-77241446D01*
X165744428Y-77231699D01*
X165762275Y-77004930D01*
X165762275Y-76995070D01*
X165744428Y-76768301D01*
X165742885Y-76758554D01*
X165689783Y-76537373D01*
X165686734Y-76527988D01*
X165599687Y-76317837D01*
X165595205Y-76309042D01*
X165492568Y-76141555D01*
X165482110Y-76132093D01*
X165473334Y-76135876D01*
X164622022Y-76987188D01*
X164614408Y-77001132D01*
X163884356Y-77001132D01*
X163885592Y-76998868D01*
X163885461Y-76997035D01*
X163881210Y-76990420D01*
X163029710Y-76138920D01*
X163017330Y-76132160D01*
X163009680Y-76137887D01*
X162904795Y-76309042D01*
X162900313Y-76317837D01*
X162813266Y-76527988D01*
X162810217Y-76537373D01*
X162757115Y-76758554D01*
X162755572Y-76768301D01*
X162737725Y-76995070D01*
X162737725Y-77004930D01*
X159262275Y-77004930D01*
X159262275Y-76995070D01*
X159244428Y-76768301D01*
X159242885Y-76758554D01*
X159189783Y-76537373D01*
X159186734Y-76527988D01*
X159099687Y-76317837D01*
X159095205Y-76309042D01*
X158992568Y-76141555D01*
X158982110Y-76132093D01*
X158973334Y-76135876D01*
X158122022Y-76987188D01*
X158114408Y-77001132D01*
X157384356Y-77001132D01*
X157385592Y-76998868D01*
X157385461Y-76997035D01*
X157381210Y-76990420D01*
X156529710Y-76138920D01*
X156517330Y-76132160D01*
X156509680Y-76137887D01*
X156404795Y-76309042D01*
X156400313Y-76317837D01*
X156313266Y-76527988D01*
X156310217Y-76537373D01*
X156257115Y-76758554D01*
X156255572Y-76768301D01*
X156237725Y-76995070D01*
X156237725Y-77004930D01*
X155847537Y-77004930D01*
X155798478Y-76925652D01*
X155711891Y-76839216D01*
X155677812Y-76776934D01*
X155682815Y-76706114D01*
X155711736Y-76661025D01*
X155794134Y-76578483D01*
X155799305Y-76573303D01*
X155837105Y-76511981D01*
X155888275Y-76428968D01*
X155888276Y-76428966D01*
X155892115Y-76422738D01*
X155933989Y-76296492D01*
X155945632Y-76261389D01*
X155945632Y-76261387D01*
X155947797Y-76254861D01*
X155949914Y-76234205D01*
X155957127Y-76163799D01*
X155958500Y-76150400D01*
X155958500Y-75767890D01*
X156882093Y-75767890D01*
X156885876Y-75776666D01*
X157737188Y-76627978D01*
X157751132Y-76635592D01*
X157752965Y-76635461D01*
X157759580Y-76631210D01*
X158611080Y-75779710D01*
X158617534Y-75767890D01*
X163382093Y-75767890D01*
X163385876Y-75776666D01*
X164237188Y-76627978D01*
X164251132Y-76635592D01*
X164252965Y-76635461D01*
X164259580Y-76631210D01*
X165111080Y-75779710D01*
X165117840Y-75767330D01*
X165112113Y-75759680D01*
X164940958Y-75654795D01*
X164932163Y-75650313D01*
X164722012Y-75563266D01*
X164712627Y-75560217D01*
X164491446Y-75507115D01*
X164481699Y-75505572D01*
X164254930Y-75487725D01*
X164245070Y-75487725D01*
X164018301Y-75505572D01*
X164008554Y-75507115D01*
X163787373Y-75560217D01*
X163777988Y-75563266D01*
X163567837Y-75650313D01*
X163559042Y-75654795D01*
X163391555Y-75757432D01*
X163382093Y-75767890D01*
X158617534Y-75767890D01*
X158617840Y-75767330D01*
X158612113Y-75759680D01*
X158440958Y-75654795D01*
X158432163Y-75650313D01*
X158222012Y-75563266D01*
X158212627Y-75560217D01*
X157991446Y-75507115D01*
X157981699Y-75505572D01*
X157754930Y-75487725D01*
X157745070Y-75487725D01*
X157518301Y-75505572D01*
X157508554Y-75507115D01*
X157287373Y-75560217D01*
X157277988Y-75563266D01*
X157067837Y-75650313D01*
X157059042Y-75654795D01*
X156891555Y-75757432D01*
X156882093Y-75767890D01*
X155958500Y-75767890D01*
X155958500Y-75349600D01*
X155947526Y-75243834D01*
X155938782Y-75217623D01*
X155891550Y-75076054D01*
X155894235Y-75075158D01*
X155885437Y-75017806D01*
X155914321Y-74952951D01*
X155973683Y-74914006D01*
X156006369Y-74908625D01*
X156008378Y-74908562D01*
X156012327Y-74908500D01*
X156041432Y-74908500D01*
X156045832Y-74907944D01*
X156057664Y-74907012D01*
X156103831Y-74905562D01*
X156124421Y-74899580D01*
X156143782Y-74895570D01*
X156150770Y-74894688D01*
X156157204Y-74893875D01*
X156157205Y-74893875D01*
X156165064Y-74892882D01*
X156172429Y-74889966D01*
X156172433Y-74889965D01*
X156208021Y-74875874D01*
X156219231Y-74872035D01*
X156263600Y-74859145D01*
X156282065Y-74848225D01*
X156299805Y-74839534D01*
X156319756Y-74831635D01*
X156357129Y-74804482D01*
X156367048Y-74797967D01*
X156399977Y-74778493D01*
X156399981Y-74778490D01*
X156406807Y-74774453D01*
X156421971Y-74759289D01*
X156437005Y-74746448D01*
X156447943Y-74738501D01*
X156454357Y-74733841D01*
X156483803Y-74698247D01*
X156491792Y-74689468D01*
X157200051Y-73981209D01*
X157262363Y-73947183D01*
X157318560Y-73947785D01*
X157508476Y-73993380D01*
X157508482Y-73993381D01*
X157513289Y-73994535D01*
X157750000Y-74013165D01*
X157986711Y-73994535D01*
X157991518Y-73993381D01*
X157991524Y-73993380D01*
X158181439Y-73947785D01*
X158217594Y-73939105D01*
X158222167Y-73937211D01*
X158432389Y-73850135D01*
X158432393Y-73850133D01*
X158436963Y-73848240D01*
X158441183Y-73845654D01*
X158635202Y-73726759D01*
X158635208Y-73726755D01*
X158639416Y-73724176D01*
X158819969Y-73569969D01*
X158974176Y-73389416D01*
X158976758Y-73385202D01*
X158976765Y-73385193D01*
X159078814Y-73218665D01*
X159131461Y-73171034D01*
X159186246Y-73158500D01*
X162813754Y-73158500D01*
X162881875Y-73178502D01*
X162921186Y-73218665D01*
X163023235Y-73385193D01*
X163023242Y-73385202D01*
X163025824Y-73389416D01*
X163180031Y-73569969D01*
X163360584Y-73724176D01*
X163364792Y-73726755D01*
X163364798Y-73726759D01*
X163558817Y-73845654D01*
X163563037Y-73848240D01*
X163567607Y-73850133D01*
X163567611Y-73850135D01*
X163777833Y-73937211D01*
X163782406Y-73939105D01*
X163818561Y-73947785D01*
X164008476Y-73993380D01*
X164008482Y-73993381D01*
X164013289Y-73994535D01*
X164250000Y-74013165D01*
X164486711Y-73994535D01*
X164491518Y-73993381D01*
X164491524Y-73993380D01*
X164681439Y-73947785D01*
X164717594Y-73939105D01*
X164722167Y-73937211D01*
X164932389Y-73850135D01*
X164932393Y-73850133D01*
X164936963Y-73848240D01*
X164941183Y-73845654D01*
X165135202Y-73726759D01*
X165135208Y-73726755D01*
X165139416Y-73724176D01*
X165319969Y-73569969D01*
X165474176Y-73389416D01*
X165476755Y-73385208D01*
X165476759Y-73385202D01*
X165595654Y-73191183D01*
X165598240Y-73186963D01*
X165603186Y-73175024D01*
X165687211Y-72972167D01*
X165687212Y-72972165D01*
X165689105Y-72967594D01*
X165712126Y-72871705D01*
X165743380Y-72741524D01*
X165743381Y-72741518D01*
X165744535Y-72736711D01*
X165763165Y-72500000D01*
X165744535Y-72263289D01*
X165742642Y-72255401D01*
X165697656Y-72068023D01*
X165689105Y-72032406D01*
X165651451Y-71941500D01*
X165600135Y-71817611D01*
X165600133Y-71817607D01*
X165598240Y-71813037D01*
X165574931Y-71775000D01*
X165476759Y-71614798D01*
X165476755Y-71614792D01*
X165474176Y-71610584D01*
X165319969Y-71430031D01*
X165139416Y-71275824D01*
X165135208Y-71273245D01*
X165135202Y-71273241D01*
X164941183Y-71154346D01*
X164936963Y-71151760D01*
X164932393Y-71149867D01*
X164932389Y-71149865D01*
X164722167Y-71062789D01*
X164722165Y-71062788D01*
X164717594Y-71060895D01*
X164637391Y-71041640D01*
X164491524Y-71006620D01*
X164491518Y-71006619D01*
X164486711Y-71005465D01*
X164250000Y-70986835D01*
X164013289Y-71005465D01*
X164008482Y-71006619D01*
X164008476Y-71006620D01*
X163862609Y-71041640D01*
X163782406Y-71060895D01*
X163777835Y-71062788D01*
X163777833Y-71062789D01*
X163567611Y-71149865D01*
X163567607Y-71149867D01*
X163563037Y-71151760D01*
X163558817Y-71154346D01*
X163364798Y-71273241D01*
X163364792Y-71273245D01*
X163360584Y-71275824D01*
X163180031Y-71430031D01*
X163025824Y-71610584D01*
X163023242Y-71614797D01*
X163023235Y-71614807D01*
X162921186Y-71781335D01*
X162868539Y-71828966D01*
X162813754Y-71841500D01*
X159186246Y-71841500D01*
X159118125Y-71821498D01*
X159078814Y-71781335D01*
X158976765Y-71614807D01*
X158976758Y-71614797D01*
X158974176Y-71610584D01*
X158819969Y-71430031D01*
X158639416Y-71275824D01*
X158635208Y-71273245D01*
X158635202Y-71273241D01*
X158441183Y-71154346D01*
X158436963Y-71151760D01*
X158432393Y-71149867D01*
X158432389Y-71149865D01*
X158222167Y-71062789D01*
X158222165Y-71062788D01*
X158217594Y-71060895D01*
X158137391Y-71041640D01*
X157991524Y-71006620D01*
X157991518Y-71006619D01*
X157986711Y-71005465D01*
X157750000Y-70986835D01*
X157513289Y-71005465D01*
X157508482Y-71006619D01*
X157508476Y-71006620D01*
X157362609Y-71041640D01*
X157282406Y-71060895D01*
X157277835Y-71062788D01*
X157277833Y-71062789D01*
X157067611Y-71149865D01*
X157067607Y-71149867D01*
X157063037Y-71151760D01*
X157058817Y-71154346D01*
X156864798Y-71273241D01*
X156864792Y-71273245D01*
X156860584Y-71275824D01*
X156680031Y-71430031D01*
X156525824Y-71610584D01*
X156523245Y-71614792D01*
X156523241Y-71614798D01*
X156425069Y-71775000D01*
X156401760Y-71813037D01*
X156399867Y-71817607D01*
X156399865Y-71817611D01*
X156348549Y-71941500D01*
X156310895Y-72032406D01*
X156302344Y-72068023D01*
X156257359Y-72255401D01*
X156255465Y-72263289D01*
X156236835Y-72500000D01*
X156255465Y-72736711D01*
X156256619Y-72741518D01*
X156256620Y-72741524D01*
X156302215Y-72931440D01*
X156298668Y-73002348D01*
X156268791Y-73049949D01*
X155764145Y-73554595D01*
X155701833Y-73588621D01*
X155675050Y-73591500D01*
X155574209Y-73591500D01*
X155506088Y-73571498D01*
X155476567Y-73545136D01*
X155472960Y-73540713D01*
X155472956Y-73540709D01*
X155469065Y-73535938D01*
X155403140Y-73481400D01*
X155321425Y-73413799D01*
X155321421Y-73413797D01*
X155316675Y-73409870D01*
X155142701Y-73315802D01*
X154953768Y-73257318D01*
X154947643Y-73256674D01*
X154947642Y-73256674D01*
X154763204Y-73237289D01*
X154763202Y-73237289D01*
X154757075Y-73236645D01*
X154674576Y-73244153D01*
X154566251Y-73254011D01*
X154566248Y-73254012D01*
X154560112Y-73254570D01*
X154554206Y-73256308D01*
X154554202Y-73256309D01*
X154490821Y-73274963D01*
X154370381Y-73310410D01*
X154364923Y-73313263D01*
X154364919Y-73313265D01*
X154291288Y-73351759D01*
X154195110Y-73402040D01*
X154040975Y-73525968D01*
X153913846Y-73677474D01*
X153910879Y-73682872D01*
X153910875Y-73682877D01*
X153860667Y-73774206D01*
X153818567Y-73850787D01*
X153816706Y-73856654D01*
X153816705Y-73856656D01*
X153767057Y-74013165D01*
X153758765Y-74039306D01*
X153736719Y-74235851D01*
X153737235Y-74241995D01*
X153749940Y-74393297D01*
X153753268Y-74432934D01*
X153771131Y-74495229D01*
X153798993Y-74592395D01*
X153807783Y-74623050D01*
X153810604Y-74628539D01*
X153832445Y-74671038D01*
X153845793Y-74740768D01*
X153819323Y-74806646D01*
X153809552Y-74817650D01*
X153779027Y-74848228D01*
X153700695Y-74926697D01*
X153607885Y-75077262D01*
X153605581Y-75084209D01*
X153556970Y-75230768D01*
X153552203Y-75245139D01*
X153541500Y-75349600D01*
X153541500Y-76150400D01*
X153541837Y-76153646D01*
X153541837Y-76153650D01*
X153550071Y-76233005D01*
X153552474Y-76256166D01*
X153554655Y-76262702D01*
X153554655Y-76262704D01*
X153577818Y-76332131D01*
X153608450Y-76423946D01*
X153701522Y-76574348D01*
X153706704Y-76579521D01*
X153788109Y-76660784D01*
X153822188Y-76723066D01*
X153817185Y-76793886D01*
X153788264Y-76838975D01*
X153755297Y-76872000D01*
X153700695Y-76926697D01*
X153696855Y-76932927D01*
X153696854Y-76932928D01*
X153653339Y-77003523D01*
X153607885Y-77077262D01*
X153552203Y-77245139D01*
X153551503Y-77251975D01*
X153551502Y-77251978D01*
X153550694Y-77259865D01*
X153541500Y-77349600D01*
X153541500Y-78150400D01*
X153541837Y-78153646D01*
X153541837Y-78153650D01*
X153550830Y-78240320D01*
X153552474Y-78256166D01*
X153554655Y-78262702D01*
X153554655Y-78262704D01*
X153585569Y-78355364D01*
X153608450Y-78423946D01*
X153701522Y-78574348D01*
X153826697Y-78699305D01*
X153832927Y-78703145D01*
X153832928Y-78703146D01*
X153966315Y-78785367D01*
X153977262Y-78792115D01*
X154002832Y-78800596D01*
X154138611Y-78845632D01*
X154138613Y-78845632D01*
X154145139Y-78847797D01*
X154151975Y-78848497D01*
X154151978Y-78848498D01*
X154195031Y-78852909D01*
X154249600Y-78858500D01*
X154875050Y-78858500D01*
X154943171Y-78878502D01*
X154964145Y-78895405D01*
X155262395Y-79193655D01*
X155296421Y-79255967D01*
X155299300Y-79282750D01*
X155299300Y-79707100D01*
X155279298Y-79775221D01*
X155225642Y-79821714D01*
X155173300Y-79833100D01*
X155059666Y-79833100D01*
X154997484Y-79839855D01*
X154861095Y-79890985D01*
X154780752Y-79951199D01*
X154763365Y-79964230D01*
X154696859Y-79989078D01*
X154627476Y-79974025D01*
X154612235Y-79964230D01*
X154594848Y-79951199D01*
X154514505Y-79890985D01*
X154378116Y-79839855D01*
X154315934Y-79833100D01*
X152966625Y-79833100D01*
X152898504Y-79813098D01*
X152852011Y-79759442D01*
X152841907Y-79689168D01*
X152871401Y-79624588D01*
X152892864Y-79606096D01*
X152892496Y-79605625D01*
X153043491Y-79487655D01*
X153048347Y-79483861D01*
X153177578Y-79334145D01*
X153275269Y-79162179D01*
X153337697Y-78974513D01*
X153362485Y-78778295D01*
X153362880Y-78750000D01*
X153343580Y-78553167D01*
X153338346Y-78535829D01*
X153299639Y-78407629D01*
X153286416Y-78363831D01*
X153193566Y-78189204D01*
X153105186Y-78080840D01*
X153072454Y-78040706D01*
X153072452Y-78040704D01*
X153068565Y-78035938D01*
X153063829Y-78032020D01*
X153063820Y-78032011D01*
X153004184Y-77982676D01*
X152964446Y-77923843D01*
X152958500Y-77885592D01*
X152958500Y-74428232D01*
X152978502Y-74360111D01*
X152983674Y-74352667D01*
X153020229Y-74303892D01*
X153020230Y-74303890D01*
X153025615Y-74296705D01*
X153076745Y-74160316D01*
X153083500Y-74098134D01*
X153083500Y-72709500D01*
X153103502Y-72641379D01*
X153157158Y-72594886D01*
X153209500Y-72583500D01*
X154598134Y-72583500D01*
X154660316Y-72576745D01*
X154796705Y-72525615D01*
X154913261Y-72438261D01*
X155000615Y-72321705D01*
X155051745Y-72185316D01*
X155058500Y-72123134D01*
X155058500Y-71476866D01*
X155051745Y-71414684D01*
X155054174Y-71414420D01*
X155054174Y-71385580D01*
X155051745Y-71385316D01*
X155058131Y-71326531D01*
X155058500Y-71323134D01*
X155058500Y-70676866D01*
X155051745Y-70614684D01*
X155053884Y-70614452D01*
X155053834Y-70585488D01*
X155051252Y-70585207D01*
X155057631Y-70526486D01*
X155058000Y-70519672D01*
X155058000Y-70472115D01*
X155053525Y-70456876D01*
X155052135Y-70455671D01*
X155031217Y-70451121D01*
X155031482Y-70449903D01*
X154977313Y-70433998D01*
X154944608Y-70403565D01*
X154918643Y-70368920D01*
X154918642Y-70368919D01*
X154913261Y-70361739D01*
X154831985Y-70300826D01*
X154789470Y-70243967D01*
X154784444Y-70173148D01*
X154818504Y-70110855D01*
X154831986Y-70099173D01*
X154852668Y-70083673D01*
X154919175Y-70058826D01*
X154928232Y-70058500D01*
X155906660Y-70058500D01*
X155974781Y-70078502D01*
X156013804Y-70118197D01*
X156064022Y-70199348D01*
X156189197Y-70324305D01*
X156195427Y-70328145D01*
X156195428Y-70328146D01*
X156332788Y-70412816D01*
X156339762Y-70417115D01*
X156358274Y-70423255D01*
X156501111Y-70470632D01*
X156501113Y-70470632D01*
X156507639Y-70472797D01*
X156514475Y-70473497D01*
X156514478Y-70473498D01*
X156557531Y-70477909D01*
X156612100Y-70483500D01*
X157387900Y-70483500D01*
X157391146Y-70483163D01*
X157391150Y-70483163D01*
X157486808Y-70473238D01*
X157486812Y-70473237D01*
X157493666Y-70472526D01*
X157500202Y-70470345D01*
X157500204Y-70470345D01*
X157641349Y-70423255D01*
X157661446Y-70416550D01*
X157811848Y-70323478D01*
X157936805Y-70198303D01*
X157939602Y-70193765D01*
X157996853Y-70153176D01*
X158067776Y-70149946D01*
X158129187Y-70185572D01*
X158136562Y-70194068D01*
X158144598Y-70204207D01*
X158259329Y-70318739D01*
X158270740Y-70327751D01*
X158408743Y-70412816D01*
X158421924Y-70418963D01*
X158576210Y-70470138D01*
X158589586Y-70473005D01*
X158683938Y-70482672D01*
X158690354Y-70483000D01*
X158802885Y-70483000D01*
X158818124Y-70478525D01*
X158819329Y-70477135D01*
X158821000Y-70469452D01*
X158821000Y-70464884D01*
X159329000Y-70464884D01*
X159333475Y-70480123D01*
X159334865Y-70481328D01*
X159342548Y-70482999D01*
X159459595Y-70482999D01*
X159466114Y-70482662D01*
X159561706Y-70472743D01*
X159575100Y-70469851D01*
X159729284Y-70418412D01*
X159742462Y-70412239D01*
X159880307Y-70326937D01*
X159891708Y-70317901D01*
X160006239Y-70203171D01*
X160015251Y-70191760D01*
X160100316Y-70053757D01*
X160106463Y-70040576D01*
X160157638Y-69886290D01*
X160160505Y-69872914D01*
X160170172Y-69778562D01*
X160170500Y-69772146D01*
X160170500Y-69522115D01*
X160166025Y-69506876D01*
X160164635Y-69505671D01*
X160156952Y-69504000D01*
X159347115Y-69504000D01*
X159331876Y-69508475D01*
X159330671Y-69509865D01*
X159329000Y-69517548D01*
X159329000Y-70464884D01*
X158821000Y-70464884D01*
X158821000Y-68977885D01*
X159329000Y-68977885D01*
X159333475Y-68993124D01*
X159334865Y-68994329D01*
X159342548Y-68996000D01*
X160152384Y-68996000D01*
X160167623Y-68991525D01*
X160168828Y-68990135D01*
X160170499Y-68982452D01*
X160170499Y-68727905D01*
X160170162Y-68721386D01*
X160160243Y-68625794D01*
X160157351Y-68612400D01*
X160105912Y-68458216D01*
X160099739Y-68445038D01*
X160014437Y-68307193D01*
X160005401Y-68295792D01*
X159890671Y-68181261D01*
X159879260Y-68172249D01*
X159741257Y-68087184D01*
X159728076Y-68081037D01*
X159573790Y-68029862D01*
X159560414Y-68026995D01*
X159466062Y-68017328D01*
X159459645Y-68017000D01*
X159347115Y-68017000D01*
X159331876Y-68021475D01*
X159330671Y-68022865D01*
X159329000Y-68030548D01*
X159329000Y-68977885D01*
X158821000Y-68977885D01*
X158821000Y-68035116D01*
X158816525Y-68019877D01*
X158815135Y-68018672D01*
X158807452Y-68017001D01*
X158690405Y-68017001D01*
X158683886Y-68017338D01*
X158588294Y-68027257D01*
X158574900Y-68030149D01*
X158420716Y-68081588D01*
X158407538Y-68087761D01*
X158269693Y-68173063D01*
X158258292Y-68182099D01*
X158143762Y-68296828D01*
X158136706Y-68305762D01*
X158078788Y-68346823D01*
X158007865Y-68350053D01*
X157946454Y-68314426D01*
X157939654Y-68306593D01*
X157935978Y-68300652D01*
X157810803Y-68175695D01*
X157799932Y-68168994D01*
X157666468Y-68086725D01*
X157666466Y-68086724D01*
X157660238Y-68082885D01*
X157566106Y-68051663D01*
X157498889Y-68029368D01*
X157498887Y-68029368D01*
X157492361Y-68027203D01*
X157485525Y-68026503D01*
X157485522Y-68026502D01*
X157442469Y-68022091D01*
X157387900Y-68016500D01*
X156612100Y-68016500D01*
X156608854Y-68016837D01*
X156608850Y-68016837D01*
X156513192Y-68026762D01*
X156513188Y-68026763D01*
X156506334Y-68027474D01*
X156499798Y-68029655D01*
X156499796Y-68029655D01*
X156441786Y-68049009D01*
X156338554Y-68083450D01*
X156188152Y-68176522D01*
X156063195Y-68301697D01*
X156059355Y-68307927D01*
X156059354Y-68307928D01*
X156007526Y-68392009D01*
X155970385Y-68452262D01*
X155956075Y-68495405D01*
X155918417Y-68608943D01*
X155914703Y-68620139D01*
X155914002Y-68626980D01*
X155914001Y-68626985D01*
X155913861Y-68628349D01*
X155913540Y-68629136D01*
X155912559Y-68633710D01*
X155911743Y-68633535D01*
X155887017Y-68694075D01*
X155828900Y-68734854D01*
X155788518Y-68741500D01*
X154928232Y-68741500D01*
X154860111Y-68721498D01*
X154852668Y-68716327D01*
X154831986Y-68700827D01*
X154789470Y-68643968D01*
X154784444Y-68573149D01*
X154818503Y-68510856D01*
X154831985Y-68499174D01*
X154886635Y-68458216D01*
X154913261Y-68438261D01*
X154944608Y-68396435D01*
X155001467Y-68353920D01*
X155031074Y-68348587D01*
X155055123Y-68341525D01*
X155056328Y-68340135D01*
X155057999Y-68332452D01*
X155057999Y-68280331D01*
X155057629Y-68273510D01*
X155051252Y-68214793D01*
X155053998Y-68214495D01*
X155053940Y-68185554D01*
X155051745Y-68185316D01*
X155058131Y-68126531D01*
X155058500Y-68123134D01*
X155058500Y-67766953D01*
X155078502Y-67698832D01*
X155132158Y-67652339D01*
X155153165Y-67644911D01*
X155157197Y-67643876D01*
X155165064Y-67642882D01*
X155172437Y-67639963D01*
X155172440Y-67639962D01*
X155208021Y-67625874D01*
X155219231Y-67622035D01*
X155263600Y-67609145D01*
X155282065Y-67598225D01*
X155299805Y-67589534D01*
X155319756Y-67581635D01*
X155357129Y-67554482D01*
X155367048Y-67547967D01*
X155399977Y-67528493D01*
X155399981Y-67528490D01*
X155406807Y-67524453D01*
X155421971Y-67509289D01*
X155437005Y-67496448D01*
X155442345Y-67492568D01*
X155454357Y-67483841D01*
X155455326Y-67482670D01*
X156882160Y-67482670D01*
X156887887Y-67490320D01*
X157059042Y-67595205D01*
X157067837Y-67599687D01*
X157277988Y-67686734D01*
X157287373Y-67689783D01*
X157508554Y-67742885D01*
X157518301Y-67744428D01*
X157745070Y-67762275D01*
X157754930Y-67762275D01*
X157981699Y-67744428D01*
X157991446Y-67742885D01*
X158212627Y-67689783D01*
X158222012Y-67686734D01*
X158432163Y-67599687D01*
X158440958Y-67595205D01*
X158608445Y-67492568D01*
X158617400Y-67482670D01*
X163382160Y-67482670D01*
X163387887Y-67490320D01*
X163559042Y-67595205D01*
X163567837Y-67599687D01*
X163777988Y-67686734D01*
X163787373Y-67689783D01*
X164008554Y-67742885D01*
X164018301Y-67744428D01*
X164245070Y-67762275D01*
X164254930Y-67762275D01*
X164481699Y-67744428D01*
X164491446Y-67742885D01*
X164712627Y-67689783D01*
X164722012Y-67686734D01*
X164932163Y-67599687D01*
X164940958Y-67595205D01*
X165108445Y-67492568D01*
X165117907Y-67482110D01*
X165114124Y-67473334D01*
X164262812Y-66622022D01*
X164248868Y-66614408D01*
X164247035Y-66614539D01*
X164240420Y-66618790D01*
X163388920Y-67470290D01*
X163382160Y-67482670D01*
X158617400Y-67482670D01*
X158617907Y-67482110D01*
X158614124Y-67473334D01*
X157762812Y-66622022D01*
X157748868Y-66614408D01*
X157747035Y-66614539D01*
X157740420Y-66618790D01*
X156888920Y-67470290D01*
X156882160Y-67482670D01*
X155455326Y-67482670D01*
X155483803Y-67448247D01*
X155491792Y-67439468D01*
X155607605Y-67323655D01*
X155616385Y-67315665D01*
X155616387Y-67315663D01*
X155623080Y-67311416D01*
X155671605Y-67259742D01*
X155674359Y-67256901D01*
X155694927Y-67236333D01*
X155697647Y-67232826D01*
X155705353Y-67223804D01*
X155706046Y-67223066D01*
X155736972Y-67190133D01*
X155743657Y-67177973D01*
X155747303Y-67171342D01*
X155758157Y-67154818D01*
X155766445Y-67144132D01*
X155771304Y-67137868D01*
X155774452Y-67130594D01*
X155789654Y-67095465D01*
X155794876Y-67084805D01*
X155813305Y-67051284D01*
X155813306Y-67051282D01*
X155817124Y-67044337D01*
X155822459Y-67023559D01*
X155828858Y-67004869D01*
X155837380Y-66985176D01*
X155844606Y-66939552D01*
X155847013Y-66927929D01*
X155856528Y-66890868D01*
X155858500Y-66883188D01*
X155858500Y-66861741D01*
X155860051Y-66842031D01*
X155862166Y-66828677D01*
X155863406Y-66820848D01*
X155859059Y-66774859D01*
X155858500Y-66763004D01*
X155858500Y-66254930D01*
X156237725Y-66254930D01*
X156255572Y-66481699D01*
X156257115Y-66491446D01*
X156310217Y-66712627D01*
X156313266Y-66722012D01*
X156400311Y-66932158D01*
X156404795Y-66940958D01*
X156507432Y-67108445D01*
X156517890Y-67117907D01*
X156526666Y-67114124D01*
X157377978Y-66262812D01*
X157384356Y-66251132D01*
X158114408Y-66251132D01*
X158114539Y-66252965D01*
X158118790Y-66259580D01*
X158970290Y-67111080D01*
X158982670Y-67117840D01*
X158990320Y-67112113D01*
X159095205Y-66940958D01*
X159099689Y-66932158D01*
X159186734Y-66722012D01*
X159189783Y-66712627D01*
X159242885Y-66491446D01*
X159244428Y-66481699D01*
X159262275Y-66254930D01*
X162737725Y-66254930D01*
X162755572Y-66481699D01*
X162757115Y-66491446D01*
X162810217Y-66712627D01*
X162813266Y-66722012D01*
X162900311Y-66932158D01*
X162904795Y-66940958D01*
X163007432Y-67108445D01*
X163017890Y-67117907D01*
X163026666Y-67114124D01*
X163877978Y-66262812D01*
X163884356Y-66251132D01*
X164614408Y-66251132D01*
X164614539Y-66252965D01*
X164618790Y-66259580D01*
X165470290Y-67111080D01*
X165482670Y-67117840D01*
X165490320Y-67112113D01*
X165595205Y-66940958D01*
X165599689Y-66932158D01*
X165686734Y-66722012D01*
X165689783Y-66712627D01*
X165742885Y-66491446D01*
X165744428Y-66481699D01*
X165762275Y-66254930D01*
X165762275Y-66245070D01*
X165744428Y-66018301D01*
X165742885Y-66008554D01*
X165689783Y-65787373D01*
X165686734Y-65777988D01*
X165599687Y-65567837D01*
X165595205Y-65559042D01*
X165492568Y-65391555D01*
X165482110Y-65382093D01*
X165473334Y-65385876D01*
X164622022Y-66237188D01*
X164614408Y-66251132D01*
X163884356Y-66251132D01*
X163885592Y-66248868D01*
X163885461Y-66247035D01*
X163881210Y-66240420D01*
X163029710Y-65388920D01*
X163017330Y-65382160D01*
X163009680Y-65387887D01*
X162904795Y-65559042D01*
X162900313Y-65567837D01*
X162813266Y-65777988D01*
X162810217Y-65787373D01*
X162757115Y-66008554D01*
X162755572Y-66018301D01*
X162737725Y-66245070D01*
X162737725Y-66254930D01*
X159262275Y-66254930D01*
X159262275Y-66245070D01*
X159244428Y-66018301D01*
X159242885Y-66008554D01*
X159189783Y-65787373D01*
X159186734Y-65777988D01*
X159099687Y-65567837D01*
X159095205Y-65559042D01*
X158992568Y-65391555D01*
X158982110Y-65382093D01*
X158973334Y-65385876D01*
X158122022Y-66237188D01*
X158114408Y-66251132D01*
X157384356Y-66251132D01*
X157385592Y-66248868D01*
X157385461Y-66247035D01*
X157381210Y-66240420D01*
X156529710Y-65388920D01*
X156517330Y-65382160D01*
X156509680Y-65387887D01*
X156404795Y-65559042D01*
X156400313Y-65567837D01*
X156313266Y-65777988D01*
X156310217Y-65787373D01*
X156257115Y-66008554D01*
X156255572Y-66018301D01*
X156237725Y-66245070D01*
X156237725Y-66254930D01*
X155858500Y-66254930D01*
X155858500Y-65017890D01*
X156882093Y-65017890D01*
X156885876Y-65026666D01*
X157737188Y-65877978D01*
X157751132Y-65885592D01*
X157752965Y-65885461D01*
X157759580Y-65881210D01*
X158611080Y-65029710D01*
X158617534Y-65017890D01*
X163382093Y-65017890D01*
X163385876Y-65026666D01*
X164237188Y-65877978D01*
X164251132Y-65885592D01*
X164252965Y-65885461D01*
X164259580Y-65881210D01*
X165111080Y-65029710D01*
X165117840Y-65017330D01*
X165112113Y-65009680D01*
X164940958Y-64904795D01*
X164932163Y-64900313D01*
X164722012Y-64813266D01*
X164712627Y-64810217D01*
X164491446Y-64757115D01*
X164481699Y-64755572D01*
X164254930Y-64737725D01*
X164245070Y-64737725D01*
X164018301Y-64755572D01*
X164008554Y-64757115D01*
X163787373Y-64810217D01*
X163777988Y-64813266D01*
X163567837Y-64900313D01*
X163559042Y-64904795D01*
X163391555Y-65007432D01*
X163382093Y-65017890D01*
X158617534Y-65017890D01*
X158617840Y-65017330D01*
X158612113Y-65009680D01*
X158440958Y-64904795D01*
X158432163Y-64900313D01*
X158222012Y-64813266D01*
X158212627Y-64810217D01*
X157991446Y-64757115D01*
X157981699Y-64755572D01*
X157754930Y-64737725D01*
X157745070Y-64737725D01*
X157518301Y-64755572D01*
X157508554Y-64757115D01*
X157287373Y-64810217D01*
X157277988Y-64813266D01*
X157067837Y-64900313D01*
X157059042Y-64904795D01*
X156891555Y-65007432D01*
X156882093Y-65017890D01*
X155858500Y-65017890D01*
X155858500Y-63098513D01*
X155866518Y-63054284D01*
X155898973Y-62967711D01*
X155898973Y-62967709D01*
X155901745Y-62960316D01*
X155902599Y-62952460D01*
X155908131Y-62901531D01*
X155908500Y-62898134D01*
X155908500Y-61750000D01*
X156236835Y-61750000D01*
X156255465Y-61986711D01*
X156256619Y-61991518D01*
X156256620Y-61991524D01*
X156279248Y-62085776D01*
X156310895Y-62217594D01*
X156312788Y-62222165D01*
X156312789Y-62222167D01*
X156391341Y-62411808D01*
X156401760Y-62436963D01*
X156404346Y-62441183D01*
X156523241Y-62635202D01*
X156523245Y-62635208D01*
X156525824Y-62639416D01*
X156680031Y-62819969D01*
X156860584Y-62974176D01*
X156864792Y-62976755D01*
X156864798Y-62976759D01*
X157054801Y-63093193D01*
X157063037Y-63098240D01*
X157067607Y-63100133D01*
X157067611Y-63100135D01*
X157277833Y-63187211D01*
X157282406Y-63189105D01*
X157353116Y-63206081D01*
X157508476Y-63243380D01*
X157508482Y-63243381D01*
X157513289Y-63244535D01*
X157750000Y-63263165D01*
X157986711Y-63244535D01*
X157991518Y-63243381D01*
X157991524Y-63243380D01*
X158146884Y-63206081D01*
X158217594Y-63189105D01*
X158222167Y-63187211D01*
X158432389Y-63100135D01*
X158432393Y-63100133D01*
X158436963Y-63098240D01*
X158445199Y-63093193D01*
X158635202Y-62976759D01*
X158635208Y-62976755D01*
X158639416Y-62974176D01*
X158819969Y-62819969D01*
X158974176Y-62639416D01*
X158976758Y-62635202D01*
X158976765Y-62635193D01*
X159078814Y-62468665D01*
X159131461Y-62421034D01*
X159186246Y-62408500D01*
X162813754Y-62408500D01*
X162881875Y-62428502D01*
X162921186Y-62468665D01*
X163023235Y-62635193D01*
X163023242Y-62635202D01*
X163025824Y-62639416D01*
X163180031Y-62819969D01*
X163360584Y-62974176D01*
X163364792Y-62976755D01*
X163364798Y-62976759D01*
X163554801Y-63093193D01*
X163563037Y-63098240D01*
X163567607Y-63100133D01*
X163567611Y-63100135D01*
X163777833Y-63187211D01*
X163782406Y-63189105D01*
X163853116Y-63206081D01*
X164008476Y-63243380D01*
X164008482Y-63243381D01*
X164013289Y-63244535D01*
X164250000Y-63263165D01*
X164486711Y-63244535D01*
X164491518Y-63243381D01*
X164491524Y-63243380D01*
X164646884Y-63206081D01*
X164717594Y-63189105D01*
X164722167Y-63187211D01*
X164932389Y-63100135D01*
X164932393Y-63100133D01*
X164936963Y-63098240D01*
X164945199Y-63093193D01*
X165135202Y-62976759D01*
X165135208Y-62976755D01*
X165139416Y-62974176D01*
X165319969Y-62819969D01*
X165474176Y-62639416D01*
X165476755Y-62635208D01*
X165476759Y-62635202D01*
X165595654Y-62441183D01*
X165598240Y-62436963D01*
X165608660Y-62411808D01*
X165687211Y-62222167D01*
X165687212Y-62222165D01*
X165689105Y-62217594D01*
X165720752Y-62085776D01*
X165743380Y-61991524D01*
X165743381Y-61991518D01*
X165744535Y-61986711D01*
X165763165Y-61750000D01*
X165744535Y-61513289D01*
X165733055Y-61465469D01*
X165690260Y-61287218D01*
X165689105Y-61282406D01*
X165598240Y-61063037D01*
X165551826Y-60987296D01*
X165476759Y-60864798D01*
X165476755Y-60864792D01*
X165474176Y-60860584D01*
X165319969Y-60680031D01*
X165139416Y-60525824D01*
X165135208Y-60523245D01*
X165135202Y-60523241D01*
X164941183Y-60404346D01*
X164936963Y-60401760D01*
X164932393Y-60399867D01*
X164932389Y-60399865D01*
X164722167Y-60312789D01*
X164722165Y-60312788D01*
X164717594Y-60310895D01*
X164637391Y-60291640D01*
X164491524Y-60256620D01*
X164491518Y-60256619D01*
X164486711Y-60255465D01*
X164250000Y-60236835D01*
X164013289Y-60255465D01*
X164008482Y-60256619D01*
X164008476Y-60256620D01*
X163862609Y-60291640D01*
X163782406Y-60310895D01*
X163777835Y-60312788D01*
X163777833Y-60312789D01*
X163567611Y-60399865D01*
X163567607Y-60399867D01*
X163563037Y-60401760D01*
X163558817Y-60404346D01*
X163364798Y-60523241D01*
X163364792Y-60523245D01*
X163360584Y-60525824D01*
X163180031Y-60680031D01*
X163025824Y-60860584D01*
X163023242Y-60864797D01*
X163023235Y-60864807D01*
X162921186Y-61031335D01*
X162868539Y-61078966D01*
X162813754Y-61091500D01*
X159186246Y-61091500D01*
X159118125Y-61071498D01*
X159078814Y-61031335D01*
X158976765Y-60864807D01*
X158976758Y-60864797D01*
X158974176Y-60860584D01*
X158819969Y-60680031D01*
X158639416Y-60525824D01*
X158635208Y-60523245D01*
X158635202Y-60523241D01*
X158441183Y-60404346D01*
X158436963Y-60401760D01*
X158432393Y-60399867D01*
X158432389Y-60399865D01*
X158222167Y-60312789D01*
X158222165Y-60312788D01*
X158217594Y-60310895D01*
X158137391Y-60291640D01*
X157991524Y-60256620D01*
X157991518Y-60256619D01*
X157986711Y-60255465D01*
X157750000Y-60236835D01*
X157513289Y-60255465D01*
X157508482Y-60256619D01*
X157508476Y-60256620D01*
X157362609Y-60291640D01*
X157282406Y-60310895D01*
X157277835Y-60312788D01*
X157277833Y-60312789D01*
X157067611Y-60399865D01*
X157067607Y-60399867D01*
X157063037Y-60401760D01*
X157058817Y-60404346D01*
X156864798Y-60523241D01*
X156864792Y-60523245D01*
X156860584Y-60525824D01*
X156680031Y-60680031D01*
X156525824Y-60860584D01*
X156523245Y-60864792D01*
X156523241Y-60864798D01*
X156448174Y-60987296D01*
X156401760Y-61063037D01*
X156310895Y-61282406D01*
X156309740Y-61287218D01*
X156266946Y-61465469D01*
X156255465Y-61513289D01*
X156236835Y-61750000D01*
X155908500Y-61750000D01*
X155908500Y-59601866D01*
X155901745Y-59539684D01*
X155850615Y-59403295D01*
X155763261Y-59286739D01*
X155646705Y-59199385D01*
X155510316Y-59148255D01*
X155448134Y-59141500D01*
X154951866Y-59141500D01*
X154889684Y-59148255D01*
X154753295Y-59199385D01*
X154677045Y-59256531D01*
X154675148Y-59257953D01*
X154608642Y-59282801D01*
X154539259Y-59267748D01*
X154524018Y-59257953D01*
X154453648Y-59205214D01*
X154438054Y-59196676D01*
X154317606Y-59151522D01*
X154302351Y-59147895D01*
X154251486Y-59142369D01*
X154244672Y-59142000D01*
X154218115Y-59142000D01*
X154202876Y-59146475D01*
X154201671Y-59147865D01*
X154200000Y-59155548D01*
X154200000Y-61324000D01*
X154179998Y-61392121D01*
X154126342Y-61438614D01*
X154074000Y-61450000D01*
X153926000Y-61450000D01*
X153857879Y-61429998D01*
X153811386Y-61376342D01*
X153800000Y-61324000D01*
X153800000Y-59160116D01*
X153795525Y-59144877D01*
X153794135Y-59143672D01*
X153786452Y-59142001D01*
X153755331Y-59142001D01*
X153748510Y-59142371D01*
X153697648Y-59147895D01*
X153682396Y-59151521D01*
X153561946Y-59196676D01*
X153546352Y-59205214D01*
X153475982Y-59257953D01*
X153409476Y-59282801D01*
X153340093Y-59267748D01*
X153324852Y-59257953D01*
X153322955Y-59256531D01*
X153246705Y-59199385D01*
X153110316Y-59148255D01*
X153048134Y-59141500D01*
X152551866Y-59141500D01*
X152489684Y-59148255D01*
X152353295Y-59199385D01*
X152236739Y-59286739D01*
X152149385Y-59403295D01*
X152098255Y-59539684D01*
X152091500Y-59601866D01*
X152091500Y-62898134D01*
X152098255Y-62960316D01*
X152149385Y-63096705D01*
X152236739Y-63213261D01*
X152243919Y-63218642D01*
X152250269Y-63224992D01*
X152248022Y-63227239D01*
X152281143Y-63271544D01*
X152286162Y-63342363D01*
X152252097Y-63404653D01*
X152189762Y-63438638D01*
X152163059Y-63441500D01*
X151976866Y-63441500D01*
X151914684Y-63448255D01*
X151914420Y-63445826D01*
X151885580Y-63445826D01*
X151885316Y-63448255D01*
X151826531Y-63441869D01*
X151823134Y-63441500D01*
X151176866Y-63441500D01*
X151114684Y-63448255D01*
X151114420Y-63445826D01*
X151085580Y-63445826D01*
X151085316Y-63448255D01*
X151026531Y-63441869D01*
X151023134Y-63441500D01*
X150376866Y-63441500D01*
X150314684Y-63448255D01*
X150314420Y-63445826D01*
X150285580Y-63445826D01*
X150285316Y-63448255D01*
X150226531Y-63441869D01*
X150223134Y-63441500D01*
X149576866Y-63441500D01*
X149514684Y-63448255D01*
X149514420Y-63445826D01*
X149485580Y-63445826D01*
X149485316Y-63448255D01*
X149426531Y-63441869D01*
X149423134Y-63441500D01*
X148776866Y-63441500D01*
X148714684Y-63448255D01*
X148714420Y-63445826D01*
X148685580Y-63445826D01*
X148685316Y-63448255D01*
X148626531Y-63441869D01*
X148623134Y-63441500D01*
X148266953Y-63441500D01*
X148198832Y-63421498D01*
X148152339Y-63367842D01*
X148144911Y-63346834D01*
X148143876Y-63342802D01*
X148142882Y-63334936D01*
X148127325Y-63295643D01*
X148125875Y-63291982D01*
X148122029Y-63280747D01*
X148111358Y-63244016D01*
X148111357Y-63244013D01*
X148109145Y-63236400D01*
X148098225Y-63217935D01*
X148089534Y-63200195D01*
X148081635Y-63180244D01*
X148054482Y-63142871D01*
X148047967Y-63132952D01*
X148028493Y-63100023D01*
X148028490Y-63100019D01*
X148024453Y-63093193D01*
X148009289Y-63078029D01*
X147996448Y-63062995D01*
X147988501Y-63052057D01*
X147983841Y-63045643D01*
X147948247Y-63016197D01*
X147939468Y-63008208D01*
X147023655Y-62092395D01*
X147015665Y-62083615D01*
X147015663Y-62083613D01*
X147011416Y-62076920D01*
X146959742Y-62028395D01*
X146956901Y-62025641D01*
X146936333Y-62005073D01*
X146932826Y-62002353D01*
X146923804Y-61994647D01*
X146895913Y-61968456D01*
X146890133Y-61963028D01*
X146883181Y-61959206D01*
X146871342Y-61952697D01*
X146854818Y-61941843D01*
X146844132Y-61933555D01*
X146837868Y-61928696D01*
X146830596Y-61925549D01*
X146830594Y-61925548D01*
X146795465Y-61910346D01*
X146784805Y-61905124D01*
X146751284Y-61886695D01*
X146751282Y-61886694D01*
X146744337Y-61882876D01*
X146723559Y-61877541D01*
X146704869Y-61871142D01*
X146685176Y-61862620D01*
X146639552Y-61855394D01*
X146627929Y-61852987D01*
X146599928Y-61845798D01*
X146583188Y-61841500D01*
X146561741Y-61841500D01*
X146542031Y-61839949D01*
X146528677Y-61837834D01*
X146520848Y-61836594D01*
X146474859Y-61840941D01*
X146463004Y-61841500D01*
X141084500Y-61841500D01*
X141016379Y-61821498D01*
X140969886Y-61767842D01*
X140958500Y-61715500D01*
X140958500Y-61099600D01*
X140955181Y-61067611D01*
X140948238Y-61000692D01*
X140948237Y-61000688D01*
X140947526Y-60993834D01*
X140891550Y-60826054D01*
X140798478Y-60675652D01*
X140673303Y-60550695D01*
X140587247Y-60497649D01*
X140528968Y-60461725D01*
X140528966Y-60461724D01*
X140522738Y-60457885D01*
X140362254Y-60404655D01*
X140361389Y-60404368D01*
X140361387Y-60404368D01*
X140354861Y-60402203D01*
X140348025Y-60401503D01*
X140348022Y-60401502D01*
X140304969Y-60397091D01*
X140250400Y-60391500D01*
X139249600Y-60391500D01*
X139246354Y-60391837D01*
X139246350Y-60391837D01*
X139150692Y-60401762D01*
X139150688Y-60401763D01*
X139143834Y-60402474D01*
X139137298Y-60404655D01*
X139137296Y-60404655D01*
X139031319Y-60440012D01*
X138976054Y-60458450D01*
X138825652Y-60551522D01*
X138700695Y-60676697D01*
X138696855Y-60682927D01*
X138696854Y-60682928D01*
X138636022Y-60781616D01*
X138583250Y-60829109D01*
X138528762Y-60841500D01*
X137585186Y-60841500D01*
X137517065Y-60821498D01*
X137479394Y-60783940D01*
X137387575Y-60642009D01*
X137387570Y-60642003D01*
X137384764Y-60637665D01*
X137228887Y-60466358D01*
X137224836Y-60463159D01*
X137224832Y-60463155D01*
X137051177Y-60326011D01*
X137051172Y-60326008D01*
X137047123Y-60322810D01*
X137042607Y-60320317D01*
X137042604Y-60320315D01*
X136848879Y-60213373D01*
X136848875Y-60213371D01*
X136844355Y-60210876D01*
X136839486Y-60209152D01*
X136839482Y-60209150D01*
X136630903Y-60135288D01*
X136630899Y-60135287D01*
X136626028Y-60133562D01*
X136620935Y-60132655D01*
X136620932Y-60132654D01*
X136403095Y-60093851D01*
X136403089Y-60093850D01*
X136398006Y-60092945D01*
X136320644Y-60092000D01*
X136171581Y-60090179D01*
X136171579Y-60090179D01*
X136166411Y-60090116D01*
X135937464Y-60125150D01*
X135717314Y-60197106D01*
X135712726Y-60199494D01*
X135712722Y-60199496D01*
X135605952Y-60255077D01*
X135511872Y-60304052D01*
X135507739Y-60307155D01*
X135507736Y-60307157D01*
X135330790Y-60440012D01*
X135326655Y-60443117D01*
X135312003Y-60458450D01*
X135308787Y-60461815D01*
X135247263Y-60497245D01*
X135176351Y-60493788D01*
X135118564Y-60452543D01*
X135099711Y-60418994D01*
X135078324Y-60361946D01*
X135069786Y-60346351D01*
X134993285Y-60244276D01*
X134980724Y-60231715D01*
X134878649Y-60155214D01*
X134863054Y-60146676D01*
X134742606Y-60101522D01*
X134727351Y-60097895D01*
X134676486Y-60092369D01*
X134669672Y-60092000D01*
X133997115Y-60092000D01*
X133981876Y-60096475D01*
X133980671Y-60097865D01*
X133979000Y-60105548D01*
X133979000Y-62889884D01*
X133983475Y-62905123D01*
X133984865Y-62906328D01*
X133992548Y-62907999D01*
X134669669Y-62907999D01*
X134676490Y-62907629D01*
X134727352Y-62902105D01*
X134742604Y-62898479D01*
X134863054Y-62853324D01*
X134878649Y-62844786D01*
X134980724Y-62768285D01*
X134993285Y-62755724D01*
X135069786Y-62653649D01*
X135078324Y-62638054D01*
X135099773Y-62580840D01*
X135142415Y-62524075D01*
X135208977Y-62499376D01*
X135278325Y-62514584D01*
X135298240Y-62528126D01*
X135454349Y-62657730D01*
X135654322Y-62774584D01*
X135870694Y-62857209D01*
X135875760Y-62858240D01*
X135875761Y-62858240D01*
X135928846Y-62869040D01*
X136097656Y-62903385D01*
X136228324Y-62908176D01*
X136323949Y-62911683D01*
X136323953Y-62911683D01*
X136329113Y-62911872D01*
X136334233Y-62911216D01*
X136334235Y-62911216D01*
X136436353Y-62898134D01*
X136558847Y-62882442D01*
X136563795Y-62880957D01*
X136563802Y-62880956D01*
X136775747Y-62817369D01*
X136780690Y-62815886D01*
X136861236Y-62776427D01*
X136984049Y-62716262D01*
X136984052Y-62716260D01*
X136988684Y-62713991D01*
X137177243Y-62579494D01*
X137341303Y-62416005D01*
X137476458Y-62227917D01*
X137478748Y-62223284D01*
X137480957Y-62219607D01*
X137533186Y-62171517D01*
X137588961Y-62158500D01*
X138106050Y-62158500D01*
X138174171Y-62178502D01*
X138220664Y-62232158D01*
X138230768Y-62302432D01*
X138201274Y-62367012D01*
X138195145Y-62373595D01*
X136264145Y-64304595D01*
X136201833Y-64338621D01*
X136175050Y-64341500D01*
X127582059Y-64341500D01*
X127570203Y-64340941D01*
X127562463Y-64339211D01*
X127554537Y-64339460D01*
X127554536Y-64339460D01*
X127491611Y-64341438D01*
X127487653Y-64341500D01*
X127458568Y-64341500D01*
X127454637Y-64341997D01*
X127454630Y-64341997D01*
X127454179Y-64342054D01*
X127442343Y-64342986D01*
X127396169Y-64344438D01*
X127375579Y-64350420D01*
X127356218Y-64354430D01*
X127349230Y-64355312D01*
X127342796Y-64356125D01*
X127342795Y-64356125D01*
X127334936Y-64357118D01*
X127327571Y-64360034D01*
X127327567Y-64360035D01*
X127291979Y-64374126D01*
X127280769Y-64377965D01*
X127236400Y-64390855D01*
X127217935Y-64401775D01*
X127200195Y-64410466D01*
X127180244Y-64418365D01*
X127142874Y-64445516D01*
X127132952Y-64452033D01*
X127100023Y-64471507D01*
X127100019Y-64471510D01*
X127093193Y-64475547D01*
X127078029Y-64490711D01*
X127062996Y-64503551D01*
X127045643Y-64516159D01*
X127027828Y-64537694D01*
X127016198Y-64551752D01*
X127008208Y-64560532D01*
X126059861Y-65508879D01*
X125997549Y-65542905D01*
X125926734Y-65537840D01*
X125909872Y-65530092D01*
X125773117Y-65454599D01*
X125763705Y-65450369D01*
X125562959Y-65379280D01*
X125552988Y-65376646D01*
X125481837Y-65363972D01*
X125468540Y-65365432D01*
X125464000Y-65379989D01*
X125464000Y-66823000D01*
X125443998Y-66891121D01*
X125390342Y-66937614D01*
X125338000Y-66949000D01*
X123893225Y-66949000D01*
X123879694Y-66952973D01*
X123878257Y-66962966D01*
X123908565Y-67097446D01*
X123911645Y-67107275D01*
X123991770Y-67304603D01*
X123996413Y-67313794D01*
X124107694Y-67495388D01*
X124113777Y-67503699D01*
X124253213Y-67664667D01*
X124260580Y-67671883D01*
X124424434Y-67807916D01*
X124432881Y-67813831D01*
X124501969Y-67854203D01*
X124550693Y-67905842D01*
X124563764Y-67975625D01*
X124537033Y-68041396D01*
X124496584Y-68074752D01*
X124483607Y-68081507D01*
X124479474Y-68084610D01*
X124479471Y-68084612D01*
X124309324Y-68212362D01*
X124304965Y-68215635D01*
X124150629Y-68377138D01*
X124147715Y-68381410D01*
X124147714Y-68381411D01*
X124081483Y-68478502D01*
X124024743Y-68561680D01*
X123993431Y-68629136D01*
X123941274Y-68741500D01*
X123930688Y-68764305D01*
X123870989Y-68979570D01*
X123870440Y-68984707D01*
X123869860Y-68990135D01*
X123847251Y-69201695D01*
X120351300Y-69201695D01*
X120351300Y-66429183D01*
X123874389Y-66429183D01*
X123875912Y-66437607D01*
X123888292Y-66441000D01*
X124937885Y-66441000D01*
X124953124Y-66436525D01*
X124954329Y-66435135D01*
X124956000Y-66427452D01*
X124956000Y-65378102D01*
X124952082Y-65364758D01*
X124937806Y-65362771D01*
X124899324Y-65368660D01*
X124889288Y-65371051D01*
X124686868Y-65437212D01*
X124677359Y-65441209D01*
X124488463Y-65539542D01*
X124479738Y-65545036D01*
X124309433Y-65672905D01*
X124301726Y-65679748D01*
X124154590Y-65833717D01*
X124148104Y-65841727D01*
X124028098Y-66017649D01*
X124023000Y-66026623D01*
X123933338Y-66219783D01*
X123929775Y-66229470D01*
X123874389Y-66429183D01*
X120351300Y-66429183D01*
X120351300Y-62444669D01*
X132317001Y-62444669D01*
X132317371Y-62451490D01*
X132322895Y-62502352D01*
X132326521Y-62517604D01*
X132371676Y-62638054D01*
X132380214Y-62653649D01*
X132456715Y-62755724D01*
X132469276Y-62768285D01*
X132571351Y-62844786D01*
X132586946Y-62853324D01*
X132707394Y-62898478D01*
X132722649Y-62902105D01*
X132773514Y-62907631D01*
X132780328Y-62908000D01*
X133452885Y-62908000D01*
X133468124Y-62903525D01*
X133469329Y-62902135D01*
X133471000Y-62894452D01*
X133471000Y-61772115D01*
X133466525Y-61756876D01*
X133465135Y-61755671D01*
X133457452Y-61754000D01*
X132335116Y-61754000D01*
X132319877Y-61758475D01*
X132318672Y-61759865D01*
X132317001Y-61767548D01*
X132317001Y-62444669D01*
X120351300Y-62444669D01*
X120351300Y-61227885D01*
X132317000Y-61227885D01*
X132321475Y-61243124D01*
X132322865Y-61244329D01*
X132330548Y-61246000D01*
X133452885Y-61246000D01*
X133468124Y-61241525D01*
X133469329Y-61240135D01*
X133471000Y-61232452D01*
X133471000Y-60110116D01*
X133466525Y-60094877D01*
X133465135Y-60093672D01*
X133457452Y-60092001D01*
X132780331Y-60092001D01*
X132773510Y-60092371D01*
X132722648Y-60097895D01*
X132707396Y-60101521D01*
X132586946Y-60146676D01*
X132571351Y-60155214D01*
X132469276Y-60231715D01*
X132456715Y-60244276D01*
X132380214Y-60346351D01*
X132371676Y-60361946D01*
X132326522Y-60482394D01*
X132322895Y-60497649D01*
X132317369Y-60548514D01*
X132317000Y-60555328D01*
X132317000Y-61227885D01*
X120351300Y-61227885D01*
X120351300Y-57133295D01*
X139355051Y-57133295D01*
X139355348Y-57138448D01*
X139355348Y-57138451D01*
X139360811Y-57233190D01*
X139367910Y-57356315D01*
X139369047Y-57361361D01*
X139369048Y-57361367D01*
X139388919Y-57449539D01*
X139417022Y-57574239D01*
X139501066Y-57781216D01*
X139551819Y-57864038D01*
X139615091Y-57967288D01*
X139617787Y-57971688D01*
X139764050Y-58140538D01*
X139935926Y-58283232D01*
X140128800Y-58395938D01*
X140337492Y-58475630D01*
X140342560Y-58476661D01*
X140342563Y-58476662D01*
X140449817Y-58498483D01*
X140556397Y-58520167D01*
X140561572Y-58520357D01*
X140561574Y-58520357D01*
X140774473Y-58528164D01*
X140774477Y-58528164D01*
X140779637Y-58528353D01*
X140784757Y-58527697D01*
X140784759Y-58527697D01*
X140996088Y-58500625D01*
X140996089Y-58500625D01*
X141001216Y-58499968D01*
X141006166Y-58498483D01*
X141210229Y-58437261D01*
X141210234Y-58437259D01*
X141215184Y-58435774D01*
X141415794Y-58337496D01*
X141597660Y-58207773D01*
X141755896Y-58050089D01*
X141815394Y-57967289D01*
X141886253Y-57868677D01*
X141887576Y-57869628D01*
X141934445Y-57826457D01*
X142004380Y-57814225D01*
X142069826Y-57841744D01*
X142097675Y-57873594D01*
X142157787Y-57971688D01*
X142304050Y-58140538D01*
X142475926Y-58283232D01*
X142668800Y-58395938D01*
X142877492Y-58475630D01*
X142882560Y-58476661D01*
X142882563Y-58476662D01*
X142989817Y-58498483D01*
X143096397Y-58520167D01*
X143101572Y-58520357D01*
X143101574Y-58520357D01*
X143314473Y-58528164D01*
X143314477Y-58528164D01*
X143319637Y-58528353D01*
X143324757Y-58527697D01*
X143324759Y-58527697D01*
X143536088Y-58500625D01*
X143536089Y-58500625D01*
X143541216Y-58499968D01*
X143546166Y-58498483D01*
X143750229Y-58437261D01*
X143750234Y-58437259D01*
X143755184Y-58435774D01*
X143955794Y-58337496D01*
X144137660Y-58207773D01*
X144295896Y-58050089D01*
X144355394Y-57967289D01*
X144426253Y-57868677D01*
X144427576Y-57869628D01*
X144474445Y-57826457D01*
X144544380Y-57814225D01*
X144609826Y-57841744D01*
X144637675Y-57873594D01*
X144697787Y-57971688D01*
X144844050Y-58140538D01*
X145015926Y-58283232D01*
X145208800Y-58395938D01*
X145417492Y-58475630D01*
X145422560Y-58476661D01*
X145422563Y-58476662D01*
X145529817Y-58498483D01*
X145636397Y-58520167D01*
X145641572Y-58520357D01*
X145641574Y-58520357D01*
X145854473Y-58528164D01*
X145854477Y-58528164D01*
X145859637Y-58528353D01*
X145864757Y-58527697D01*
X145864759Y-58527697D01*
X146076088Y-58500625D01*
X146076089Y-58500625D01*
X146081216Y-58499968D01*
X146086166Y-58498483D01*
X146290229Y-58437261D01*
X146290234Y-58437259D01*
X146295184Y-58435774D01*
X146495794Y-58337496D01*
X146677660Y-58207773D01*
X146835896Y-58050089D01*
X146895394Y-57967289D01*
X146966253Y-57868677D01*
X146967576Y-57869628D01*
X147014445Y-57826457D01*
X147084380Y-57814225D01*
X147149826Y-57841744D01*
X147177675Y-57873594D01*
X147237787Y-57971688D01*
X147384050Y-58140538D01*
X147555926Y-58283232D01*
X147748800Y-58395938D01*
X147957492Y-58475630D01*
X147962560Y-58476661D01*
X147962563Y-58476662D01*
X148069817Y-58498483D01*
X148176397Y-58520167D01*
X148181572Y-58520357D01*
X148181574Y-58520357D01*
X148394473Y-58528164D01*
X148394477Y-58528164D01*
X148399637Y-58528353D01*
X148404757Y-58527697D01*
X148404759Y-58527697D01*
X148616088Y-58500625D01*
X148616089Y-58500625D01*
X148621216Y-58499968D01*
X148626166Y-58498483D01*
X148830229Y-58437261D01*
X148830234Y-58437259D01*
X148835184Y-58435774D01*
X149035794Y-58337496D01*
X149217660Y-58207773D01*
X149375896Y-58050089D01*
X149435394Y-57967289D01*
X149506253Y-57868677D01*
X149507576Y-57869628D01*
X149554445Y-57826457D01*
X149624380Y-57814225D01*
X149689826Y-57841744D01*
X149717675Y-57873594D01*
X149777787Y-57971688D01*
X149924050Y-58140538D01*
X150095926Y-58283232D01*
X150288800Y-58395938D01*
X150497492Y-58475630D01*
X150502560Y-58476661D01*
X150502563Y-58476662D01*
X150609817Y-58498483D01*
X150716397Y-58520167D01*
X150721572Y-58520357D01*
X150721574Y-58520357D01*
X150934473Y-58528164D01*
X150934477Y-58528164D01*
X150939637Y-58528353D01*
X150944757Y-58527697D01*
X150944759Y-58527697D01*
X151156088Y-58500625D01*
X151156089Y-58500625D01*
X151161216Y-58499968D01*
X151166166Y-58498483D01*
X151370229Y-58437261D01*
X151370234Y-58437259D01*
X151375184Y-58435774D01*
X151575794Y-58337496D01*
X151757660Y-58207773D01*
X151915896Y-58050089D01*
X151975394Y-57967289D01*
X152046253Y-57868677D01*
X152047576Y-57869628D01*
X152094445Y-57826457D01*
X152164380Y-57814225D01*
X152229826Y-57841744D01*
X152257675Y-57873594D01*
X152317787Y-57971688D01*
X152464050Y-58140538D01*
X152635926Y-58283232D01*
X152828800Y-58395938D01*
X153037492Y-58475630D01*
X153042560Y-58476661D01*
X153042563Y-58476662D01*
X153149817Y-58498483D01*
X153256397Y-58520167D01*
X153261572Y-58520357D01*
X153261574Y-58520357D01*
X153474473Y-58528164D01*
X153474477Y-58528164D01*
X153479637Y-58528353D01*
X153484757Y-58527697D01*
X153484759Y-58527697D01*
X153696088Y-58500625D01*
X153696089Y-58500625D01*
X153701216Y-58499968D01*
X153706166Y-58498483D01*
X153910229Y-58437261D01*
X153910234Y-58437259D01*
X153915184Y-58435774D01*
X154115794Y-58337496D01*
X154297660Y-58207773D01*
X154455896Y-58050089D01*
X154515394Y-57967289D01*
X154586253Y-57868677D01*
X154587576Y-57869628D01*
X154634445Y-57826457D01*
X154704380Y-57814225D01*
X154769826Y-57841744D01*
X154797675Y-57873594D01*
X154857787Y-57971688D01*
X155004050Y-58140538D01*
X155175926Y-58283232D01*
X155368800Y-58395938D01*
X155577492Y-58475630D01*
X155582560Y-58476661D01*
X155582563Y-58476662D01*
X155689817Y-58498483D01*
X155796397Y-58520167D01*
X155801572Y-58520357D01*
X155801574Y-58520357D01*
X156014473Y-58528164D01*
X156014477Y-58528164D01*
X156019637Y-58528353D01*
X156024757Y-58527697D01*
X156024759Y-58527697D01*
X156236088Y-58500625D01*
X156236089Y-58500625D01*
X156241216Y-58499968D01*
X156246166Y-58498483D01*
X156450229Y-58437261D01*
X156450234Y-58437259D01*
X156455184Y-58435774D01*
X156655794Y-58337496D01*
X156837660Y-58207773D01*
X156995896Y-58050089D01*
X157055394Y-57967289D01*
X157126253Y-57868677D01*
X157127576Y-57869628D01*
X157174445Y-57826457D01*
X157244380Y-57814225D01*
X157309826Y-57841744D01*
X157337675Y-57873594D01*
X157397787Y-57971688D01*
X157544050Y-58140538D01*
X157715926Y-58283232D01*
X157908800Y-58395938D01*
X158117492Y-58475630D01*
X158122560Y-58476661D01*
X158122563Y-58476662D01*
X158229817Y-58498483D01*
X158336397Y-58520167D01*
X158341572Y-58520357D01*
X158341574Y-58520357D01*
X158554473Y-58528164D01*
X158554477Y-58528164D01*
X158559637Y-58528353D01*
X158564757Y-58527697D01*
X158564759Y-58527697D01*
X158776088Y-58500625D01*
X158776089Y-58500625D01*
X158781216Y-58499968D01*
X158786166Y-58498483D01*
X158990229Y-58437261D01*
X158990234Y-58437259D01*
X158995184Y-58435774D01*
X159195794Y-58337496D01*
X159377660Y-58207773D01*
X159535896Y-58050089D01*
X159595394Y-57967289D01*
X159663235Y-57872877D01*
X159666253Y-57868677D01*
X159687120Y-57826457D01*
X159762936Y-57673053D01*
X159762937Y-57673051D01*
X159765230Y-57668411D01*
X159830170Y-57454669D01*
X159859329Y-57233190D01*
X159860956Y-57166600D01*
X159842652Y-56943961D01*
X159788231Y-56727302D01*
X159699154Y-56522440D01*
X159577814Y-56334877D01*
X159427470Y-56169651D01*
X159423419Y-56166452D01*
X159423415Y-56166448D01*
X159256214Y-56034400D01*
X159256210Y-56034398D01*
X159252159Y-56031198D01*
X159056589Y-55923238D01*
X159051720Y-55921514D01*
X159051716Y-55921512D01*
X158850887Y-55850395D01*
X158850883Y-55850394D01*
X158846012Y-55848669D01*
X158840919Y-55847762D01*
X158840916Y-55847761D01*
X158631173Y-55810400D01*
X158631167Y-55810399D01*
X158626084Y-55809494D01*
X158552252Y-55808592D01*
X158407881Y-55806828D01*
X158407879Y-55806828D01*
X158402711Y-55806765D01*
X158181891Y-55840555D01*
X157969556Y-55909957D01*
X157771407Y-56013107D01*
X157767274Y-56016210D01*
X157767271Y-56016212D01*
X157743047Y-56034400D01*
X157592765Y-56147235D01*
X157438429Y-56308738D01*
X157331001Y-56466221D01*
X157276093Y-56511221D01*
X157205568Y-56519392D01*
X157141821Y-56488138D01*
X157121124Y-56463654D01*
X157040622Y-56339217D01*
X157040620Y-56339214D01*
X157037814Y-56334877D01*
X156887470Y-56169651D01*
X156883419Y-56166452D01*
X156883415Y-56166448D01*
X156716214Y-56034400D01*
X156716210Y-56034398D01*
X156712159Y-56031198D01*
X156516589Y-55923238D01*
X156511720Y-55921514D01*
X156511716Y-55921512D01*
X156310887Y-55850395D01*
X156310883Y-55850394D01*
X156306012Y-55848669D01*
X156300919Y-55847762D01*
X156300916Y-55847761D01*
X156091173Y-55810400D01*
X156091167Y-55810399D01*
X156086084Y-55809494D01*
X156012252Y-55808592D01*
X155867881Y-55806828D01*
X155867879Y-55806828D01*
X155862711Y-55806765D01*
X155641891Y-55840555D01*
X155429556Y-55909957D01*
X155231407Y-56013107D01*
X155227274Y-56016210D01*
X155227271Y-56016212D01*
X155203047Y-56034400D01*
X155052765Y-56147235D01*
X154898429Y-56308738D01*
X154791001Y-56466221D01*
X154736093Y-56511221D01*
X154665568Y-56519392D01*
X154601821Y-56488138D01*
X154581124Y-56463654D01*
X154500622Y-56339217D01*
X154500620Y-56339214D01*
X154497814Y-56334877D01*
X154347470Y-56169651D01*
X154343419Y-56166452D01*
X154343415Y-56166448D01*
X154176214Y-56034400D01*
X154176210Y-56034398D01*
X154172159Y-56031198D01*
X153976589Y-55923238D01*
X153971720Y-55921514D01*
X153971716Y-55921512D01*
X153770887Y-55850395D01*
X153770883Y-55850394D01*
X153766012Y-55848669D01*
X153760919Y-55847762D01*
X153760916Y-55847761D01*
X153551173Y-55810400D01*
X153551167Y-55810399D01*
X153546084Y-55809494D01*
X153472252Y-55808592D01*
X153327881Y-55806828D01*
X153327879Y-55806828D01*
X153322711Y-55806765D01*
X153101891Y-55840555D01*
X152889556Y-55909957D01*
X152691407Y-56013107D01*
X152687274Y-56016210D01*
X152687271Y-56016212D01*
X152663047Y-56034400D01*
X152512765Y-56147235D01*
X152358429Y-56308738D01*
X152251001Y-56466221D01*
X152196093Y-56511221D01*
X152125568Y-56519392D01*
X152061821Y-56488138D01*
X152041124Y-56463654D01*
X151960622Y-56339217D01*
X151960620Y-56339214D01*
X151957814Y-56334877D01*
X151807470Y-56169651D01*
X151803419Y-56166452D01*
X151803415Y-56166448D01*
X151636214Y-56034400D01*
X151636210Y-56034398D01*
X151632159Y-56031198D01*
X151436589Y-55923238D01*
X151431720Y-55921514D01*
X151431716Y-55921512D01*
X151230887Y-55850395D01*
X151230883Y-55850394D01*
X151226012Y-55848669D01*
X151220919Y-55847762D01*
X151220916Y-55847761D01*
X151011173Y-55810400D01*
X151011167Y-55810399D01*
X151006084Y-55809494D01*
X150932252Y-55808592D01*
X150787881Y-55806828D01*
X150787879Y-55806828D01*
X150782711Y-55806765D01*
X150561891Y-55840555D01*
X150349556Y-55909957D01*
X150151407Y-56013107D01*
X150147274Y-56016210D01*
X150147271Y-56016212D01*
X150123047Y-56034400D01*
X149972765Y-56147235D01*
X149818429Y-56308738D01*
X149711001Y-56466221D01*
X149656093Y-56511221D01*
X149585568Y-56519392D01*
X149521821Y-56488138D01*
X149501124Y-56463654D01*
X149420622Y-56339217D01*
X149420620Y-56339214D01*
X149417814Y-56334877D01*
X149267470Y-56169651D01*
X149263419Y-56166452D01*
X149263415Y-56166448D01*
X149096214Y-56034400D01*
X149096210Y-56034398D01*
X149092159Y-56031198D01*
X148896589Y-55923238D01*
X148891720Y-55921514D01*
X148891716Y-55921512D01*
X148690887Y-55850395D01*
X148690883Y-55850394D01*
X148686012Y-55848669D01*
X148680919Y-55847762D01*
X148680916Y-55847761D01*
X148471173Y-55810400D01*
X148471167Y-55810399D01*
X148466084Y-55809494D01*
X148392252Y-55808592D01*
X148247881Y-55806828D01*
X148247879Y-55806828D01*
X148242711Y-55806765D01*
X148021891Y-55840555D01*
X147809556Y-55909957D01*
X147611407Y-56013107D01*
X147607274Y-56016210D01*
X147607271Y-56016212D01*
X147583047Y-56034400D01*
X147432765Y-56147235D01*
X147278429Y-56308738D01*
X147171001Y-56466221D01*
X147116093Y-56511221D01*
X147045568Y-56519392D01*
X146981821Y-56488138D01*
X146961124Y-56463654D01*
X146880622Y-56339217D01*
X146880620Y-56339214D01*
X146877814Y-56334877D01*
X146727470Y-56169651D01*
X146723419Y-56166452D01*
X146723415Y-56166448D01*
X146556214Y-56034400D01*
X146556210Y-56034398D01*
X146552159Y-56031198D01*
X146356589Y-55923238D01*
X146351720Y-55921514D01*
X146351716Y-55921512D01*
X146150887Y-55850395D01*
X146150883Y-55850394D01*
X146146012Y-55848669D01*
X146140919Y-55847762D01*
X146140916Y-55847761D01*
X145931173Y-55810400D01*
X145931167Y-55810399D01*
X145926084Y-55809494D01*
X145852252Y-55808592D01*
X145707881Y-55806828D01*
X145707879Y-55806828D01*
X145702711Y-55806765D01*
X145481891Y-55840555D01*
X145269556Y-55909957D01*
X145071407Y-56013107D01*
X145067274Y-56016210D01*
X145067271Y-56016212D01*
X145043047Y-56034400D01*
X144892765Y-56147235D01*
X144738429Y-56308738D01*
X144631001Y-56466221D01*
X144576093Y-56511221D01*
X144505568Y-56519392D01*
X144441821Y-56488138D01*
X144421124Y-56463654D01*
X144340622Y-56339217D01*
X144340620Y-56339214D01*
X144337814Y-56334877D01*
X144187470Y-56169651D01*
X144183419Y-56166452D01*
X144183415Y-56166448D01*
X144016214Y-56034400D01*
X144016210Y-56034398D01*
X144012159Y-56031198D01*
X143816589Y-55923238D01*
X143811720Y-55921514D01*
X143811716Y-55921512D01*
X143610887Y-55850395D01*
X143610883Y-55850394D01*
X143606012Y-55848669D01*
X143600919Y-55847762D01*
X143600916Y-55847761D01*
X143391173Y-55810400D01*
X143391167Y-55810399D01*
X143386084Y-55809494D01*
X143312252Y-55808592D01*
X143167881Y-55806828D01*
X143167879Y-55806828D01*
X143162711Y-55806765D01*
X142941891Y-55840555D01*
X142729556Y-55909957D01*
X142531407Y-56013107D01*
X142527274Y-56016210D01*
X142527271Y-56016212D01*
X142503047Y-56034400D01*
X142352765Y-56147235D01*
X142198429Y-56308738D01*
X142091001Y-56466221D01*
X142036093Y-56511221D01*
X141965568Y-56519392D01*
X141901821Y-56488138D01*
X141881124Y-56463654D01*
X141800622Y-56339217D01*
X141800620Y-56339214D01*
X141797814Y-56334877D01*
X141647470Y-56169651D01*
X141643419Y-56166452D01*
X141643415Y-56166448D01*
X141476214Y-56034400D01*
X141476210Y-56034398D01*
X141472159Y-56031198D01*
X141276589Y-55923238D01*
X141271720Y-55921514D01*
X141271716Y-55921512D01*
X141070887Y-55850395D01*
X141070883Y-55850394D01*
X141066012Y-55848669D01*
X141060919Y-55847762D01*
X141060916Y-55847761D01*
X140851173Y-55810400D01*
X140851167Y-55810399D01*
X140846084Y-55809494D01*
X140772252Y-55808592D01*
X140627881Y-55806828D01*
X140627879Y-55806828D01*
X140622711Y-55806765D01*
X140401891Y-55840555D01*
X140189556Y-55909957D01*
X139991407Y-56013107D01*
X139987274Y-56016210D01*
X139987271Y-56016212D01*
X139963047Y-56034400D01*
X139812765Y-56147235D01*
X139658429Y-56308738D01*
X139532543Y-56493280D01*
X139438488Y-56695905D01*
X139378789Y-56911170D01*
X139355051Y-57133295D01*
X120351300Y-57133295D01*
X120351300Y-53826100D01*
X120371302Y-53757979D01*
X120424958Y-53711486D01*
X120477300Y-53700100D01*
X176708300Y-53700100D01*
X176776421Y-53720102D01*
G37*
%TD.AperFunction*%
%TA.AperFunction,Conductor*%
G36*
X138566734Y-66878502D02*
G01*
X138607184Y-66924730D01*
X138608450Y-66923946D01*
X138701522Y-67074348D01*
X138787359Y-67160035D01*
X138788109Y-67160784D01*
X138822188Y-67223066D01*
X138817185Y-67293886D01*
X138788264Y-67338975D01*
X138775503Y-67351758D01*
X138700695Y-67426697D01*
X138696855Y-67432927D01*
X138696854Y-67432928D01*
X138621926Y-67554484D01*
X138607885Y-67577262D01*
X138586120Y-67642882D01*
X138556509Y-67732158D01*
X138552203Y-67745139D01*
X138541500Y-67849600D01*
X138541500Y-68465500D01*
X138521498Y-68533621D01*
X138467842Y-68580114D01*
X138415500Y-68591500D01*
X137585186Y-68591500D01*
X137517065Y-68571498D01*
X137479394Y-68533940D01*
X137387575Y-68392009D01*
X137387570Y-68392003D01*
X137384764Y-68387665D01*
X137379074Y-68381411D01*
X137280891Y-68273510D01*
X137228887Y-68216358D01*
X137224836Y-68213159D01*
X137224832Y-68213155D01*
X137051177Y-68076011D01*
X137051172Y-68076008D01*
X137047123Y-68072810D01*
X137042607Y-68070317D01*
X137042604Y-68070315D01*
X136848879Y-67963373D01*
X136848875Y-67963371D01*
X136844355Y-67960876D01*
X136839486Y-67959152D01*
X136839482Y-67959150D01*
X136630903Y-67885288D01*
X136630899Y-67885287D01*
X136626028Y-67883562D01*
X136620935Y-67882655D01*
X136620932Y-67882654D01*
X136403095Y-67843851D01*
X136403089Y-67843850D01*
X136398006Y-67842945D01*
X136320644Y-67842000D01*
X136171581Y-67840179D01*
X136171579Y-67840179D01*
X136166411Y-67840116D01*
X135937464Y-67875150D01*
X135717314Y-67947106D01*
X135712726Y-67949494D01*
X135712722Y-67949496D01*
X135516461Y-68051663D01*
X135511872Y-68054052D01*
X135507739Y-68057155D01*
X135507736Y-68057157D01*
X135330790Y-68190012D01*
X135326655Y-68193117D01*
X135323083Y-68196855D01*
X135308787Y-68211815D01*
X135247263Y-68247245D01*
X135176351Y-68243788D01*
X135118564Y-68202543D01*
X135099711Y-68168994D01*
X135078324Y-68111946D01*
X135069786Y-68096351D01*
X134993285Y-67994276D01*
X134980724Y-67981715D01*
X134878649Y-67905214D01*
X134863054Y-67896676D01*
X134742606Y-67851522D01*
X134727351Y-67847895D01*
X134676486Y-67842369D01*
X134669672Y-67842000D01*
X133997115Y-67842000D01*
X133981876Y-67846475D01*
X133980671Y-67847865D01*
X133979000Y-67855548D01*
X133979000Y-70639884D01*
X133983475Y-70655123D01*
X133984865Y-70656328D01*
X133992548Y-70657999D01*
X134669669Y-70657999D01*
X134676490Y-70657629D01*
X134727352Y-70652105D01*
X134742604Y-70648479D01*
X134863054Y-70603324D01*
X134878649Y-70594786D01*
X134980724Y-70518285D01*
X134993285Y-70505724D01*
X135069786Y-70403649D01*
X135078324Y-70388054D01*
X135099773Y-70330840D01*
X135142415Y-70274075D01*
X135208977Y-70249376D01*
X135278325Y-70264584D01*
X135298240Y-70278126D01*
X135449747Y-70403909D01*
X135454349Y-70407730D01*
X135654322Y-70524584D01*
X135659147Y-70526426D01*
X135659148Y-70526427D01*
X135672794Y-70531638D01*
X135870694Y-70607209D01*
X135875760Y-70608240D01*
X135875761Y-70608240D01*
X135906137Y-70614420D01*
X136097656Y-70653385D01*
X136228324Y-70658176D01*
X136323949Y-70661683D01*
X136323953Y-70661683D01*
X136329113Y-70661872D01*
X136334233Y-70661216D01*
X136334235Y-70661216D01*
X136433668Y-70648478D01*
X136558847Y-70632442D01*
X136563795Y-70630957D01*
X136563802Y-70630956D01*
X136775747Y-70567369D01*
X136780690Y-70565886D01*
X136789155Y-70561739D01*
X136984049Y-70466262D01*
X136984052Y-70466260D01*
X136988684Y-70463991D01*
X137177243Y-70329494D01*
X137341303Y-70166005D01*
X137372826Y-70122137D01*
X137473443Y-69982113D01*
X137473444Y-69982112D01*
X137476458Y-69977917D01*
X137478748Y-69973284D01*
X137480957Y-69969607D01*
X137533186Y-69921517D01*
X137588961Y-69908500D01*
X138667944Y-69908500D01*
X138679800Y-69909059D01*
X138679803Y-69909059D01*
X138687537Y-69910788D01*
X138758369Y-69908562D01*
X138762327Y-69908500D01*
X138791432Y-69908500D01*
X138795832Y-69907944D01*
X138807664Y-69907012D01*
X138853831Y-69905562D01*
X138874421Y-69899580D01*
X138893782Y-69895570D01*
X138900770Y-69894688D01*
X138907204Y-69893875D01*
X138907205Y-69893875D01*
X138915064Y-69892882D01*
X138922429Y-69889966D01*
X138922433Y-69889965D01*
X138958021Y-69875874D01*
X138969231Y-69872035D01*
X139013600Y-69859145D01*
X139032065Y-69848225D01*
X139049805Y-69839534D01*
X139069756Y-69831635D01*
X139107129Y-69804482D01*
X139117048Y-69797967D01*
X139149977Y-69778493D01*
X139149981Y-69778490D01*
X139156807Y-69774453D01*
X139171971Y-69759289D01*
X139187005Y-69746448D01*
X139197943Y-69738501D01*
X139204357Y-69733841D01*
X139233803Y-69698247D01*
X139241792Y-69689468D01*
X139535855Y-69395405D01*
X139598167Y-69361379D01*
X139624950Y-69358500D01*
X140250400Y-69358500D01*
X140253644Y-69358163D01*
X140253652Y-69358163D01*
X140327497Y-69350501D01*
X140397318Y-69363366D01*
X140449100Y-69411937D01*
X140466500Y-69475828D01*
X140466500Y-69512550D01*
X140446498Y-69580671D01*
X140429595Y-69601645D01*
X139951645Y-70079595D01*
X139889333Y-70113621D01*
X139862550Y-70116500D01*
X139224600Y-70116500D01*
X139221354Y-70116837D01*
X139221350Y-70116837D01*
X139125692Y-70126762D01*
X139125688Y-70126763D01*
X139118834Y-70127474D01*
X139112298Y-70129655D01*
X139112296Y-70129655D01*
X138981933Y-70173148D01*
X138951054Y-70183450D01*
X138800652Y-70276522D01*
X138675695Y-70401697D01*
X138671855Y-70407927D01*
X138671854Y-70407928D01*
X138598774Y-70526486D01*
X138582885Y-70552262D01*
X138567051Y-70600000D01*
X138540423Y-70680283D01*
X138527203Y-70720139D01*
X138526503Y-70726975D01*
X138526502Y-70726978D01*
X138522091Y-70770031D01*
X138516500Y-70824600D01*
X138516500Y-71600400D01*
X138516837Y-71603646D01*
X138516837Y-71603650D01*
X138517557Y-71610584D01*
X138527474Y-71706166D01*
X138529655Y-71712702D01*
X138529655Y-71712704D01*
X138571619Y-71838484D01*
X138583450Y-71873946D01*
X138676522Y-72024348D01*
X138801697Y-72149305D01*
X138806235Y-72152102D01*
X138846824Y-72209353D01*
X138850054Y-72280276D01*
X138814428Y-72341687D01*
X138805932Y-72349062D01*
X138795793Y-72357098D01*
X138681261Y-72471829D01*
X138672249Y-72483240D01*
X138587184Y-72621243D01*
X138581037Y-72634424D01*
X138529862Y-72788710D01*
X138526995Y-72802086D01*
X138517328Y-72896438D01*
X138517000Y-72902855D01*
X138517000Y-73015385D01*
X138521475Y-73030624D01*
X138522865Y-73031829D01*
X138530548Y-73033500D01*
X139878000Y-73033500D01*
X139946121Y-73053502D01*
X139992614Y-73107158D01*
X140004000Y-73159500D01*
X140004000Y-73415500D01*
X139983998Y-73483621D01*
X139930342Y-73530114D01*
X139878000Y-73541500D01*
X138535116Y-73541500D01*
X138519877Y-73545975D01*
X138518672Y-73547365D01*
X138517001Y-73555048D01*
X138517001Y-73672095D01*
X138517338Y-73678614D01*
X138527257Y-73774206D01*
X138530149Y-73787600D01*
X138581588Y-73941784D01*
X138587761Y-73954962D01*
X138673063Y-74092807D01*
X138682100Y-74104209D01*
X138704257Y-74126328D01*
X138738335Y-74188611D01*
X138733332Y-74259431D01*
X138690834Y-74316303D01*
X138624335Y-74341171D01*
X138615238Y-74341500D01*
X128759950Y-74341500D01*
X128691829Y-74321498D01*
X128670855Y-74304595D01*
X127718019Y-73351759D01*
X127683993Y-73289447D01*
X127689058Y-73218632D01*
X127731605Y-73161796D01*
X127798125Y-73136985D01*
X127801514Y-73136928D01*
X127801508Y-73136798D01*
X127806673Y-73136564D01*
X127811837Y-73136753D01*
X127816957Y-73136097D01*
X127816959Y-73136097D01*
X128028288Y-73109025D01*
X128028289Y-73109025D01*
X128033416Y-73108368D01*
X128045922Y-73104616D01*
X128242429Y-73045661D01*
X128242434Y-73045659D01*
X128247384Y-73044174D01*
X128447994Y-72945896D01*
X128629860Y-72816173D01*
X128643997Y-72802086D01*
X128773400Y-72673134D01*
X128788096Y-72658489D01*
X128805389Y-72634424D01*
X128915435Y-72481277D01*
X128918453Y-72477077D01*
X128941186Y-72431081D01*
X129015136Y-72281453D01*
X129015137Y-72281451D01*
X129017430Y-72276811D01*
X129082370Y-72063069D01*
X129111529Y-71841590D01*
X129111760Y-71832136D01*
X129113074Y-71778365D01*
X129113074Y-71778361D01*
X129113156Y-71775000D01*
X129094852Y-71552361D01*
X129040431Y-71335702D01*
X128951354Y-71130840D01*
X128900923Y-71052885D01*
X128832822Y-70947617D01*
X128832820Y-70947614D01*
X128830014Y-70943277D01*
X128679670Y-70778051D01*
X128675619Y-70774852D01*
X128675615Y-70774848D01*
X128508414Y-70642800D01*
X128508410Y-70642798D01*
X128504359Y-70639598D01*
X128463053Y-70616796D01*
X128413084Y-70566364D01*
X128398312Y-70496921D01*
X128423428Y-70430516D01*
X128450780Y-70403909D01*
X128531866Y-70346071D01*
X128629860Y-70276173D01*
X128646307Y-70259784D01*
X128711650Y-70194669D01*
X132317001Y-70194669D01*
X132317371Y-70201490D01*
X132322895Y-70252352D01*
X132326521Y-70267604D01*
X132371676Y-70388054D01*
X132380214Y-70403649D01*
X132456715Y-70505724D01*
X132469276Y-70518285D01*
X132571351Y-70594786D01*
X132586946Y-70603324D01*
X132707394Y-70648478D01*
X132722649Y-70652105D01*
X132773514Y-70657631D01*
X132780328Y-70658000D01*
X133452885Y-70658000D01*
X133468124Y-70653525D01*
X133469329Y-70652135D01*
X133471000Y-70644452D01*
X133471000Y-69522115D01*
X133466525Y-69506876D01*
X133465135Y-69505671D01*
X133457452Y-69504000D01*
X132335116Y-69504000D01*
X132319877Y-69508475D01*
X132318672Y-69509865D01*
X132317001Y-69517548D01*
X132317001Y-70194669D01*
X128711650Y-70194669D01*
X128713204Y-70193120D01*
X128788096Y-70118489D01*
X128804684Y-70095405D01*
X128911761Y-69946390D01*
X128967756Y-69902742D01*
X129010127Y-69893978D01*
X129019064Y-69893697D01*
X129023371Y-69893562D01*
X129027327Y-69893500D01*
X129056432Y-69893500D01*
X129060832Y-69892944D01*
X129072664Y-69892012D01*
X129118831Y-69890562D01*
X129139421Y-69884580D01*
X129158782Y-69880570D01*
X129165770Y-69879688D01*
X129172204Y-69878875D01*
X129172205Y-69878875D01*
X129180064Y-69877882D01*
X129187429Y-69874966D01*
X129187433Y-69874965D01*
X129223021Y-69860874D01*
X129234231Y-69857035D01*
X129278600Y-69844145D01*
X129297065Y-69833225D01*
X129314805Y-69824534D01*
X129334756Y-69816635D01*
X129372129Y-69789482D01*
X129382048Y-69782967D01*
X129414977Y-69763493D01*
X129414981Y-69763490D01*
X129421807Y-69759453D01*
X129436971Y-69744289D01*
X129452005Y-69731448D01*
X129462943Y-69723501D01*
X129469357Y-69718841D01*
X129498803Y-69683247D01*
X129506792Y-69674468D01*
X130203375Y-68977885D01*
X132317000Y-68977885D01*
X132321475Y-68993124D01*
X132322865Y-68994329D01*
X132330548Y-68996000D01*
X133452885Y-68996000D01*
X133468124Y-68991525D01*
X133469329Y-68990135D01*
X133471000Y-68982452D01*
X133471000Y-67860116D01*
X133466525Y-67844877D01*
X133465135Y-67843672D01*
X133457452Y-67842001D01*
X132780331Y-67842001D01*
X132773510Y-67842371D01*
X132722648Y-67847895D01*
X132707396Y-67851521D01*
X132586946Y-67896676D01*
X132571351Y-67905214D01*
X132469276Y-67981715D01*
X132456715Y-67994276D01*
X132380214Y-68096351D01*
X132371676Y-68111946D01*
X132326522Y-68232394D01*
X132322895Y-68247649D01*
X132317369Y-68298514D01*
X132317000Y-68305328D01*
X132317000Y-68977885D01*
X130203375Y-68977885D01*
X132285855Y-66895405D01*
X132348167Y-66861379D01*
X132374950Y-66858500D01*
X138498613Y-66858500D01*
X138566734Y-66878502D01*
G37*
%TD.AperFunction*%
%TD*%
M02*
